<svg width="58" height="58" viewBox="0 0 58 58" fill="none" xmlns="http://www.w3.org/2000/svg">
<circle cx="29" cy="29" r="29" fill="white"/>
<g clip-path="url(#clip0_24_1496)">
<path d="M29.5 15.8812C33.6414 15.8812 34.1318 15.9 35.7605 15.975C37.2742 16.0437 38.0916 16.3063 38.6365 16.525C39.357 16.8125 39.8777 17.1625 40.4166 17.7188C40.9615 18.2813 41.2945 18.8125 41.573 19.5563C41.785 20.1188 42.0393 20.9687 42.1059 22.525C42.1785 24.2125 42.1967 24.7188 42.1967 28.9875C42.1967 33.2625 42.1785 33.7688 42.1059 35.45C42.0393 37.0125 41.785 37.8563 41.573 38.4188C41.2945 39.1625 40.9555 39.7 40.4166 40.2563C39.8717 40.8188 39.357 41.1625 38.6365 41.45C38.0916 41.6688 37.2682 41.9313 35.7605 42C34.1258 42.075 33.6354 42.0938 29.5 42.0938C25.3586 42.0938 24.8682 42.075 23.2395 42C21.7258 41.9313 20.9084 41.6688 20.3635 41.45C19.643 41.1625 19.1223 40.8125 18.5834 40.2563C18.0385 39.6938 17.7055 39.1625 17.427 38.4188C17.215 37.8563 16.9607 37.0063 16.8941 35.45C16.8215 33.7625 16.8033 33.2563 16.8033 28.9875C16.8033 24.7125 16.8215 24.2062 16.8941 22.525C16.9607 20.9625 17.215 20.1188 17.427 19.5563C17.7055 18.8125 18.0445 18.275 18.5834 17.7188C19.1283 17.1563 19.643 16.8125 20.3635 16.525C20.9084 16.3063 21.7318 16.0437 23.2395 15.975C24.8682 15.9 25.3586 15.8812 29.5 15.8812ZM29.5 13C25.292 13 24.7652 13.0187 23.1123 13.0938C21.4654 13.1688 20.3332 13.4437 19.3523 13.8375C18.3291 14.25 17.4633 14.7938 16.6035 15.6875C15.7377 16.575 15.2109 17.4688 14.8113 18.5188C14.4299 19.5375 14.1635 20.7 14.0908 22.4C14.0182 24.1125 14 24.6563 14 29C14 33.3438 14.0182 33.8875 14.0908 35.5938C14.1635 37.2938 14.4299 38.4625 14.8113 39.475C15.2109 40.5313 15.7377 41.425 16.6035 42.3125C17.4633 43.2 18.3291 43.75 19.3463 44.1563C20.3332 44.55 21.4594 44.825 23.1062 44.9C24.7592 44.975 25.2859 44.9937 29.4939 44.9937C33.702 44.9937 34.2287 44.975 35.8816 44.9C37.5285 44.825 38.6607 44.55 39.6416 44.1563C40.6588 43.75 41.5246 43.2 42.3844 42.3125C43.2441 41.425 43.777 40.5313 44.1705 39.4813C44.552 38.4625 44.8184 37.3 44.891 35.6C44.9637 33.8938 44.9818 33.35 44.9818 29.0063C44.9818 24.6625 44.9637 24.1188 44.891 22.4125C44.8184 20.7125 44.552 19.5438 44.1705 18.5313C43.7891 17.4688 43.2623 16.575 42.3965 15.6875C41.5367 14.8 40.6709 14.25 39.6537 13.8438C38.6668 13.45 37.5406 13.175 35.8938 13.1C34.2348 13.0188 33.708 13 29.5 13Z" fill="url(#paint0_linear_24_1496)"/>
<path d="M29.5 20.7812C25.1043 20.7812 21.5381 24.4625 21.5381 29C21.5381 33.5375 25.1043 37.2188 29.5 37.2188C33.8957 37.2188 37.4619 33.5375 37.4619 29C37.4619 24.4625 33.8957 20.7812 29.5 20.7812ZM29.5 34.3312C26.6482 34.3312 24.3354 31.9438 24.3354 29C24.3354 26.0563 26.6482 23.6687 29.5 23.6687C32.3518 23.6687 34.6646 26.0563 34.6646 29C34.6646 31.9438 32.3518 34.3312 29.5 34.3312Z" fill="url(#paint1_linear_24_1496)"/>
<path d="M39.6355 20.4564C39.6355 21.5189 38.8 22.3751 37.7768 22.3751C36.7475 22.3751 35.918 21.5126 35.918 20.4564C35.918 19.3938 36.7535 18.5376 37.7768 18.5376C38.8 18.5376 39.6355 19.4001 39.6355 20.4564Z" fill="url(#paint2_linear_24_1496)"/>
</g>
<defs>
<linearGradient id="paint0_linear_24_1496" x1="29.4909" y1="13" x2="29.4909" y2="44.9937" gradientUnits="userSpaceOnUse">
<stop stop-color="#5852F2"/>
<stop offset="1" stop-color="#8C18D9"/>
</linearGradient>
<linearGradient id="paint1_linear_24_1496" x1="29.5" y1="20.7812" x2="29.5" y2="37.2188" gradientUnits="userSpaceOnUse">
<stop stop-color="#5852F2"/>
<stop offset="1" stop-color="#8C18D9"/>
</linearGradient>
<linearGradient id="paint2_linear_24_1496" x1="37.7768" y1="18.5376" x2="37.7768" y2="22.3751" gradientUnits="userSpaceOnUse">
<stop stop-color="#5852F2"/>
<stop offset="1" stop-color="#8C18D9"/>
</linearGradient>
<clipPath id="clip0_24_1496">
<rect width="31" height="32" fill="white" transform="translate(14 13)"/>
</clipPath>
</defs>
</svg>
