<svg width="58" height="58" viewBox="0 0 58 58" fill="none" xmlns="http://www.w3.org/2000/svg">
<circle cx="29" cy="29" r="29" fill="white"/>
<path fill-rule="evenodd" clip-rule="evenodd" d="M40.6136 14.9998H17.3786C16.1095 14.9998 15 15.9136 15 17.1682V40.454C15 41.7158 16.1095 42.8398 17.3786 42.8398H40.6064C41.8827 42.8398 42.84 41.7086 42.84 40.454V17.1682C42.8472 15.9136 41.8827 14.9998 40.6136 14.9998ZM23.6301 38.2054H19.6416V25.8047H23.6301V38.2054ZM21.7737 23.9196H21.7446C20.4683 23.9196 19.6416 22.9696 19.6416 21.7803C19.6416 20.5692 20.4901 19.641 21.7954 19.641C23.1007 19.641 23.8985 20.562 23.9275 21.7803C23.9275 22.9696 23.1007 23.9196 21.7737 23.9196ZM38.2056 38.2059H34.2171V31.4254C34.2171 29.8009 33.6369 28.6914 32.1938 28.6914C31.0915 28.6914 30.4389 29.4383 30.1488 30.1635C30.04 30.4246 30.011 30.7799 30.011 31.1425V38.2059H26.0225V25.8051H30.011V27.5311C30.5911 26.7044 31.4976 25.5151 33.6079 25.5151C36.2259 25.5151 38.2056 27.241 38.2056 30.9612V38.2059Z" fill="url(#paint0_linear_778_8260)"/>
<defs>
<linearGradient id="paint0_linear_778_8260" x1="28.92" y1="14.9998" x2="28.92" y2="42.8398" gradientUnits="userSpaceOnUse">
<stop stop-color="#5852F2"/>
<stop offset="1" stop-color="#8C18D9"/>
</linearGradient>
</defs>
</svg>
