<svg width="58" height="58" viewBox="0 0 58 58" fill="none" xmlns="http://www.w3.org/2000/svg">
<circle cx="29" cy="29" r="29" fill="white"/>
<path d="M12.4984 26.9546C15.8744 24.9134 19.6429 23.2098 23.1641 21.4974C29.2217 18.6928 35.3035 15.9367 41.4466 13.3708C42.6419 12.9337 44.7894 12.5062 45 14.4504C44.8846 17.2025 44.4103 19.9385 44.085 22.6744C43.2592 28.6911 42.3047 34.6872 41.3739 40.6841C41.0532 42.6817 38.7736 43.7157 37.3149 42.4374C33.8095 39.8383 30.277 37.2644 26.8163 34.605C25.6827 33.3407 26.7339 31.5248 27.7463 30.6219C30.6336 27.4987 33.6955 24.8451 36.4318 21.5604C37.1699 19.604 34.989 21.2528 34.2697 21.7581C30.317 24.7479 26.4612 27.9203 22.2939 30.548C20.1652 31.8342 17.6842 30.735 15.5565 30.0174C13.6488 29.1503 10.8535 28.2766 12.4984 26.9546Z" fill="url(#paint0_linear_778_8267)"/>
<defs>
<linearGradient id="paint0_linear_778_8267" x1="28.5" y1="13" x2="28.5" y2="43" gradientUnits="userSpaceOnUse">
<stop stop-color="#5852F2"/>
<stop offset="1" stop-color="#8C18D9"/>
</linearGradient>
</defs>
</svg>
