<svg width="58" height="58" viewBox="0 0 58 58" fill="none" xmlns="http://www.w3.org/2000/svg">
<circle cx="29" cy="29" r="29" fill="white"/>
<path fill-rule="evenodd" clip-rule="evenodd" d="M50 20.0807C48.6726 20.6021 47.2537 20.9542 45.7584 21.1167C47.2842 20.3042 48.459 19.0177 49.0083 17.4875C47.5817 18.2391 46.0025 18.7875 44.3166 19.0786C42.9663 17.799 41.0439 17 38.9231 17C34.8417 17 31.5385 19.9385 31.5385 23.5609C31.5385 24.0755 31.5995 24.5766 31.7292 25.0573C25.588 24.7865 20.1411 22.1729 16.5022 18.1984C15.869 19.1667 15.5029 20.2974 15.5029 21.4958C15.5029 23.7708 16.815 25.7818 18.7985 26.9599C17.5779 26.9328 16.4336 26.6349 15.4418 26.1406C15.4418 26.1677 15.4418 26.1948 15.4418 26.2219C15.4418 29.4042 17.9898 32.0516 21.3694 32.6542C20.7514 32.8031 20.0954 32.8844 19.424 32.8844C18.951 32.8844 18.4857 32.8438 18.0356 32.7625C18.9739 35.3693 21.705 37.2651 24.9396 37.3193C22.4145 39.0797 19.2257 40.1292 15.7622 40.1292C15.1672 40.1292 14.5798 40.0953 14 40.0344C17.2575 41.9167 21.1405 43 25.3058 43C38.9078 43 46.3382 32.9995 46.3382 24.326C46.3382 24.0417 46.3306 23.7573 46.3153 23.4797C47.7571 22.5521 49.0083 21.401 50 20.0807Z" fill="url(#paint0_linear_778_8273)"/>
<defs>
<linearGradient id="paint0_linear_778_8273" x1="32" y1="17" x2="32" y2="43" gradientUnits="userSpaceOnUse">
<stop stop-color="#5852F2"/>
<stop offset="1" stop-color="#8C18D9"/>
</linearGradient>
</defs>
</svg>
