<svg width="697" height="328" viewBox="0 0 697 328" fill="none" xmlns="http://www.w3.org/2000/svg">
<g filter="url(#filter0_d_24_1575)">
<rect x="10" y="6" width="676.126" height="307.226" rx="50" fill="white"/>
</g>
<path d="M235.901 43.0161V29.6061H244.919V32.0361H238.691V35.0781H244.559V37.5081H238.691V40.5861H244.919V43.0161H235.901ZM246.429 43.0161L249.867 38.0841L246.411 33.1881H249.543L252.135 37.0041H250.767L253.359 33.1881H256.491L253.035 38.0841L256.455 43.0161H253.341L250.803 39.2001H252.099L249.561 43.0161H246.429ZM261.446 43.2321C260.738 43.2321 260.126 43.1181 259.61 42.8901C259.094 42.6621 258.698 42.3381 258.422 41.9181C258.146 41.4861 258.008 40.9761 258.008 40.3881C258.008 39.8361 258.134 39.3501 258.386 38.9301C258.638 38.4981 259.022 38.1381 259.538 37.8501C260.066 37.5621 260.72 37.3581 261.5 37.2381L264.506 36.7521V38.7321L261.986 39.1821C261.602 39.2541 261.308 39.3801 261.104 39.5601C260.9 39.7281 260.798 39.9741 260.798 40.2981C260.798 40.5981 260.912 40.8321 261.14 41.0001C261.368 41.1681 261.65 41.2521 261.986 41.2521C262.43 41.2521 262.82 41.1561 263.156 40.9641C263.492 40.7721 263.75 40.5141 263.93 40.1901C264.122 39.8541 264.218 39.4881 264.218 39.0921V36.5361C264.218 36.1641 264.068 35.8521 263.768 35.6001C263.48 35.3481 263.084 35.2221 262.58 35.2221C262.1 35.2221 261.674 35.3541 261.302 35.6181C260.942 35.8821 260.678 36.2301 260.51 36.6621L258.35 35.6361C258.542 35.0841 258.848 34.6101 259.268 34.2141C259.688 33.8181 260.192 33.5121 260.78 33.2961C261.368 33.0801 262.01 32.9721 262.706 32.9721C263.534 32.9721 264.266 33.1221 264.902 33.4221C265.538 33.7221 266.03 34.1421 266.378 34.6821C266.738 35.2101 266.918 35.8281 266.918 36.5361V43.0161H264.398V41.4321L265.01 41.3241C264.722 41.7561 264.404 42.1161 264.056 42.4041C263.708 42.6801 263.318 42.8841 262.886 43.0161C262.454 43.1601 261.974 43.2321 261.446 43.2321ZM269.798 43.0161V33.1881H272.318V35.5821L272.048 35.1861C272.192 34.4301 272.54 33.8721 273.092 33.5121C273.644 33.1521 274.304 32.9721 275.072 32.9721C275.888 32.9721 276.602 33.1821 277.214 33.6021C277.838 34.0101 278.228 34.5621 278.384 35.2581L277.61 35.3301C277.934 34.5261 278.396 33.9321 278.996 33.5481C279.596 33.1641 280.298 32.9721 281.102 32.9721C281.81 32.9721 282.434 33.1281 282.974 33.4401C283.526 33.7521 283.958 34.1901 284.27 34.7541C284.582 35.3061 284.738 35.9541 284.738 36.6981V43.0161H282.038V37.2741C282.038 36.8901 281.966 36.5601 281.822 36.2841C281.69 36.0081 281.498 35.7921 281.246 35.6361C280.994 35.4801 280.688 35.4021 280.328 35.4021C279.98 35.4021 279.674 35.4801 279.41 35.6361C279.158 35.7921 278.96 36.0081 278.816 36.2841C278.684 36.5601 278.618 36.8901 278.618 37.2741V43.0161H275.918V37.2741C275.918 36.8901 275.846 36.5601 275.702 36.2841C275.57 36.0081 275.378 35.7921 275.126 35.6361C274.874 35.4801 274.568 35.4021 274.208 35.4021C273.86 35.4021 273.554 35.4801 273.29 35.6361C273.038 35.7921 272.84 36.0081 272.696 36.2841C272.564 36.5601 272.498 36.8901 272.498 37.2741V43.0161H269.798ZM287.415 46.6161V33.1881H289.935V35.0601L289.701 34.5201C290.025 34.0281 290.463 33.6501 291.015 33.3861C291.579 33.1101 292.221 32.9721 292.941 32.9721C293.877 32.9721 294.723 33.2001 295.479 33.6561C296.235 34.1121 296.835 34.7301 297.279 35.5101C297.723 36.2781 297.945 37.1421 297.945 38.1021C297.945 39.0501 297.723 39.9141 297.279 40.6941C296.847 41.4741 296.253 42.0921 295.497 42.5481C294.741 43.0041 293.883 43.2321 292.923 43.2321C292.251 43.2321 291.627 43.1121 291.051 42.8721C290.487 42.6201 290.031 42.2541 289.683 41.7741L290.115 41.2161V46.6161H287.415ZM292.599 40.8021C293.103 40.8021 293.547 40.6881 293.931 40.4601C294.315 40.2321 294.615 39.9141 294.831 39.5061C295.047 39.0981 295.155 38.6301 295.155 38.1021C295.155 37.5741 295.047 37.1121 294.831 36.7161C294.615 36.3081 294.315 35.9901 293.931 35.7621C293.547 35.5221 293.103 35.4021 292.599 35.4021C292.119 35.4021 291.687 35.5161 291.303 35.7441C290.931 35.9721 290.637 36.2901 290.421 36.6981C290.217 37.1061 290.115 37.5741 290.115 38.1021C290.115 38.6301 290.217 39.0981 290.421 39.5061C290.637 39.9141 290.931 40.2321 291.303 40.4601C291.687 40.6881 292.119 40.8021 292.599 40.8021ZM300.426 43.0161V29.3901H303.126V43.0161H300.426ZM310.736 43.2321C309.692 43.2321 308.786 43.0041 308.018 42.5481C307.25 42.0801 306.656 41.4561 306.236 40.6761C305.816 39.8961 305.606 39.0321 305.606 38.0841C305.606 37.1001 305.822 36.2241 306.254 35.4561C306.698 34.6881 307.292 34.0821 308.036 33.6381C308.78 33.1941 309.62 32.9721 310.556 32.9721C311.336 32.9721 312.026 33.0981 312.626 33.3501C313.226 33.5901 313.73 33.9321 314.138 34.3761C314.558 34.8201 314.876 35.3361 315.092 35.9241C315.308 36.5001 315.416 37.1301 315.416 37.8141C315.416 38.0061 315.404 38.1981 315.38 38.3901C315.368 38.5701 315.338 38.7261 315.29 38.8581H307.928V36.8781H313.76L312.482 37.8141C312.602 37.2981 312.596 36.8421 312.464 36.4461C312.332 36.0381 312.098 35.7201 311.762 35.4921C311.438 35.2521 311.036 35.1321 310.556 35.1321C310.088 35.1321 309.686 35.2461 309.35 35.4741C309.014 35.7021 308.762 36.0381 308.594 36.4821C308.426 36.9261 308.36 37.4661 308.396 38.1021C308.348 38.6541 308.414 39.1401 308.594 39.5601C308.774 39.9801 309.05 40.3101 309.422 40.5501C309.794 40.7781 310.244 40.8921 310.772 40.8921C311.252 40.8921 311.66 40.7961 311.996 40.6041C312.344 40.4121 312.614 40.1481 312.806 39.8121L314.966 40.8381C314.774 41.3181 314.468 41.7381 314.048 42.0981C313.64 42.4581 313.154 42.7401 312.59 42.9441C312.026 43.1361 311.408 43.2321 310.736 43.2321ZM327.566 43.0161V40.1361H321.626V37.7961L327.386 29.6061H330.356V37.7961H332.426V40.1361H330.356V43.0161H327.566ZM323.66 38.8041L323.138 37.7961H327.566V31.7661L328.268 31.9821L323.66 38.8041ZM339.659 39.2721V36.9321H347.759V39.2721H339.659ZM354.643 43.0161L359.179 29.6061H362.887L367.423 43.0161H364.381L363.481 40.2801H358.567L357.667 43.0161H354.643ZM359.341 37.8501H362.707L360.655 31.5141H361.411L359.341 37.8501ZM372.596 43.0161L368.006 29.6061H371.066L374.522 40.3701H373.91L377.366 29.6061H380.426L375.836 43.0161H372.596ZM382.71 43.0161V29.6061H391.728V32.0361H385.5V35.0781H391.368V37.5081H385.5V40.5861H391.728V43.0161H382.71ZM394.21 43.0161V29.6061H396.352L403.552 39.0921L402.4 39.3621V29.6061H405.19V43.0161H403.03L395.956 33.4581L397 33.1881V43.0161H394.21ZM410.881 43.0161V32.0361H407.479V29.6061H417.019V32.0361H413.671V43.0161H410.881ZM417.415 43.0161L421.951 29.6061H425.659L430.195 43.0161H427.153L426.253 40.2801H421.339L420.439 43.0161H417.415ZM422.113 37.8501H425.479L423.427 31.5141H424.183L422.113 37.8501ZM432.488 43.0161V29.6061H436.862C438.314 29.6061 439.574 29.8941 440.642 30.4701C441.71 31.0461 442.538 31.8381 443.126 32.8461C443.714 33.8541 444.008 35.0061 444.008 36.3021C444.008 37.5981 443.714 38.7561 443.126 39.7761C442.538 40.7841 441.71 41.5761 440.642 42.1521C439.574 42.7281 438.314 43.0161 436.862 43.0161H432.488ZM435.278 40.5861H436.934C437.81 40.5861 438.566 40.4121 439.202 40.0641C439.838 39.7041 440.33 39.2061 440.678 38.5701C441.038 37.9221 441.218 37.1661 441.218 36.3021C441.218 35.4261 441.038 34.6701 440.678 34.0341C440.33 33.3981 439.838 32.9061 439.202 32.5581C438.566 32.2101 437.81 32.0361 436.934 32.0361H435.278V40.5861ZM453.409 43.2321C452.401 43.2321 451.465 43.0581 450.601 42.7101C449.737 42.3621 448.981 41.8761 448.333 41.2521C447.697 40.6161 447.199 39.8781 446.839 39.0381C446.479 38.1981 446.299 37.2861 446.299 36.3021C446.299 35.3181 446.473 34.4061 446.821 33.5661C447.181 32.7261 447.679 31.9941 448.315 31.3701C448.963 30.7461 449.719 30.2601 450.583 29.9121C451.447 29.5641 452.389 29.3901 453.409 29.3901C454.429 29.3901 455.371 29.5641 456.235 29.9121C457.099 30.2601 457.849 30.7461 458.485 31.3701C459.133 31.9941 459.631 32.7261 459.979 33.5661C460.339 34.4061 460.519 35.3181 460.519 36.3021C460.519 37.2861 460.339 38.1981 459.979 39.0381C459.619 39.8781 459.115 40.6161 458.467 41.2521C457.831 41.8761 457.081 42.3621 456.217 42.7101C455.353 43.0581 454.417 43.2321 453.409 43.2321ZM453.409 40.7121C454.021 40.7121 454.585 40.6041 455.101 40.3881C455.629 40.1721 456.091 39.8721 456.487 39.4881C456.883 39.0921 457.189 38.6241 457.405 38.0841C457.621 37.5441 457.729 36.9501 457.729 36.3021C457.729 35.6541 457.621 35.0661 457.405 34.5381C457.189 33.9981 456.883 33.5301 456.487 33.1341C456.091 32.7381 455.629 32.4381 455.101 32.2341C454.585 32.0181 454.021 31.9101 453.409 31.9101C452.797 31.9101 452.227 32.0181 451.699 32.2341C451.183 32.4381 450.727 32.7381 450.331 33.1341C449.935 33.5301 449.629 33.9981 449.413 34.5381C449.197 35.0661 449.089 35.6541 449.089 36.3021C449.089 36.9501 449.197 37.5441 449.413 38.0841C449.629 38.6241 449.935 39.0921 450.331 39.4881C450.727 39.8721 451.183 40.1721 451.699 40.3881C452.227 40.6041 452.797 40.7121 453.409 40.7121ZM463.398 43.0161V29.6061H468.528C469.452 29.6061 470.268 29.7681 470.976 30.0921C471.696 30.4161 472.26 30.8961 472.668 31.5321C473.076 32.1681 473.28 32.9541 473.28 33.8901C473.28 34.8021 473.07 35.5821 472.65 36.2301C472.23 36.8661 471.666 37.3461 470.958 37.6701L474.018 43.0161H470.886L467.574 37.0941L469.374 38.1561H466.188V43.0161H463.398ZM466.188 35.7261H468.546C468.942 35.7261 469.284 35.6481 469.572 35.4921C469.86 35.3361 470.082 35.1201 470.238 34.8441C470.406 34.5681 470.49 34.2501 470.49 33.8901C470.49 33.5181 470.406 33.1941 470.238 32.9181C470.082 32.6421 469.86 32.4261 469.572 32.2701C469.284 32.1141 468.942 32.0361 468.546 32.0361H466.188V35.7261Z" fill="black"/>
<path d="M113.819 264.212V250.512H109.659V249.312H119.259V250.512H115.119V264.212H113.819ZM121.233 264.212V249.072H122.433V255.732L122.133 255.652C122.373 254.946 122.8 254.386 123.413 253.972C124.04 253.559 124.767 253.352 125.593 253.352C126.327 253.352 126.993 253.519 127.593 253.852C128.193 254.186 128.673 254.652 129.033 255.252C129.393 255.839 129.573 256.512 129.573 257.272V264.212H128.373V257.612C128.373 256.972 128.24 256.426 127.973 255.972C127.72 255.506 127.367 255.152 126.913 254.912C126.473 254.659 125.973 254.532 125.413 254.532C124.813 254.532 124.287 254.672 123.833 254.952C123.393 255.232 123.047 255.619 122.793 256.112C122.553 256.606 122.433 257.172 122.433 257.812V264.212H121.233ZM137.539 264.452C136.539 264.452 135.639 264.212 134.839 263.732C134.039 263.239 133.405 262.572 132.939 261.732C132.472 260.879 132.239 259.926 132.239 258.872C132.239 257.819 132.465 256.879 132.919 256.052C133.372 255.212 133.985 254.552 134.759 254.072C135.532 253.592 136.399 253.352 137.359 253.352C138.092 253.352 138.752 253.486 139.339 253.752C139.939 254.019 140.452 254.392 140.879 254.872C141.319 255.339 141.652 255.879 141.879 256.492C142.119 257.092 142.239 257.726 142.239 258.392C142.239 258.526 142.232 258.666 142.219 258.812C142.205 258.959 142.185 259.112 142.159 259.272H132.939V258.172H141.479L140.939 258.592C141.019 257.819 140.905 257.126 140.599 256.512C140.292 255.886 139.852 255.392 139.279 255.032C138.719 254.659 138.079 254.472 137.359 254.472C136.639 254.472 135.979 254.666 135.379 255.052C134.779 255.426 134.305 255.946 133.959 256.612C133.612 257.266 133.452 258.026 133.479 258.892C133.452 259.759 133.619 260.526 133.979 261.192C134.339 261.859 134.832 262.386 135.459 262.772C136.085 263.146 136.779 263.332 137.539 263.332C138.312 263.332 138.985 263.152 139.559 262.792C140.132 262.419 140.599 261.926 140.959 261.312L141.979 261.852C141.739 262.346 141.399 262.792 140.959 263.192C140.519 263.579 140.005 263.886 139.419 264.112C138.845 264.339 138.219 264.452 137.539 264.452ZM152.261 264.332C151.381 264.332 150.701 264.086 150.221 263.592C149.741 263.086 149.501 262.352 149.501 261.392V254.732H147.501V253.592H148.261C148.661 253.592 148.968 253.472 149.181 253.232C149.395 252.992 149.501 252.666 149.501 252.252V251.112H150.701V253.592H153.021V254.732H150.701V261.392C150.701 261.686 150.741 261.972 150.821 262.252C150.915 262.532 151.088 262.759 151.341 262.932C151.595 263.106 151.961 263.192 152.441 263.192C152.548 263.192 152.675 263.186 152.821 263.172C152.981 263.159 153.108 263.146 153.201 263.132V264.212C153.055 264.252 152.888 264.279 152.701 264.292C152.515 264.319 152.368 264.332 152.261 264.332ZM160.626 264.452C159.613 264.452 158.7 264.212 157.886 263.732C157.073 263.252 156.426 262.592 155.946 261.752C155.48 260.899 155.246 259.946 155.246 258.892C155.246 257.839 155.48 256.892 155.946 256.052C156.426 255.212 157.066 254.552 157.866 254.072C158.68 253.592 159.6 253.352 160.626 253.352C161.64 253.352 162.553 253.592 163.366 254.072C164.18 254.552 164.82 255.212 165.286 256.052C165.753 256.879 165.986 257.826 165.986 258.892C165.986 259.959 165.746 260.912 165.266 261.752C164.786 262.592 164.14 263.252 163.326 263.732C162.526 264.212 161.626 264.452 160.626 264.452ZM160.626 263.272C161.386 263.272 162.073 263.086 162.686 262.712C163.313 262.326 163.806 261.799 164.166 261.132C164.526 260.466 164.706 259.719 164.706 258.892C164.706 258.066 164.526 257.326 164.166 256.672C163.806 256.019 163.32 255.499 162.706 255.112C162.093 254.726 161.4 254.532 160.626 254.532C159.853 254.532 159.153 254.726 158.526 255.112C157.913 255.486 157.426 256.006 157.066 256.672C156.706 257.326 156.526 258.066 156.526 258.892C156.526 259.719 156.706 260.466 157.066 261.132C157.44 261.799 157.933 262.326 158.546 262.712C159.16 263.086 159.853 263.272 160.626 263.272ZM172.535 264.332C171.655 264.332 170.975 264.086 170.495 263.592C170.015 263.086 169.775 262.352 169.775 261.392V254.732H167.775V253.592H168.535C168.935 253.592 169.241 253.472 169.455 253.232C169.668 252.992 169.775 252.666 169.775 252.252V251.112H170.975V253.592H173.295V254.732H170.975V261.392C170.975 261.686 171.015 261.972 171.095 262.252C171.188 262.532 171.361 262.759 171.615 262.932C171.868 263.106 172.235 263.192 172.715 263.192C172.821 263.192 172.948 263.186 173.095 263.172C173.255 263.159 173.381 263.146 173.475 263.132V264.212C173.328 264.252 173.161 264.279 172.975 264.292C172.788 264.319 172.641 264.332 172.535 264.332ZM179.097 264.452C178.431 264.452 177.837 264.326 177.317 264.072C176.797 263.819 176.384 263.466 176.077 263.012C175.771 262.559 175.617 262.039 175.617 261.452C175.617 260.932 175.731 260.446 175.957 259.992C176.184 259.539 176.551 259.152 177.057 258.832C177.564 258.499 178.224 258.266 179.037 258.132L183.337 257.412V258.532L179.357 259.192C178.451 259.339 177.811 259.612 177.437 260.012C177.064 260.412 176.877 260.879 176.877 261.412C176.877 261.986 177.091 262.452 177.517 262.812C177.957 263.172 178.511 263.352 179.177 263.352C179.951 263.352 180.624 263.179 181.197 262.832C181.771 262.472 182.217 262.006 182.537 261.432C182.857 260.846 183.017 260.206 183.017 259.512V256.872C183.017 256.166 182.764 255.592 182.257 255.152C181.751 254.712 181.091 254.492 180.277 254.492C179.611 254.492 179.011 254.659 178.477 254.992C177.944 255.326 177.537 255.759 177.257 256.292L176.177 255.712C176.377 255.286 176.684 254.892 177.097 254.532C177.511 254.172 177.991 253.886 178.537 253.672C179.084 253.459 179.664 253.352 180.277 253.352C181.051 253.352 181.731 253.506 182.317 253.812C182.917 254.106 183.384 254.519 183.717 255.052C184.051 255.572 184.217 256.179 184.217 256.872V264.212H183.017V261.992L183.157 262.092C182.984 262.519 182.697 262.912 182.297 263.272C181.897 263.619 181.424 263.906 180.877 264.132C180.344 264.346 179.751 264.452 179.097 264.452ZM187.522 264.212V249.072H188.722V264.212H187.522ZM199.175 264.332C198.295 264.332 197.615 264.086 197.135 263.592C196.655 263.086 196.415 262.352 196.415 261.392V254.732H194.415V253.592H195.175C195.575 253.592 195.882 253.472 196.095 253.232C196.309 252.992 196.415 252.666 196.415 252.252V251.112H197.615V253.592H199.935V254.732H197.615V261.392C197.615 261.686 197.655 261.972 197.735 262.252C197.829 262.532 198.002 262.759 198.255 262.932C198.509 263.106 198.875 263.192 199.355 263.192C199.462 263.192 199.589 263.186 199.735 263.172C199.895 263.159 200.022 263.146 200.115 263.132V264.212C199.969 264.252 199.802 264.279 199.615 264.292C199.429 264.319 199.282 264.332 199.175 264.332ZM207.46 264.452C206.46 264.452 205.56 264.212 204.76 263.732C203.96 263.239 203.327 262.572 202.86 261.732C202.394 260.879 202.16 259.926 202.16 258.872C202.16 257.819 202.387 256.879 202.84 256.052C203.294 255.212 203.907 254.552 204.68 254.072C205.454 253.592 206.32 253.352 207.28 253.352C208.014 253.352 208.674 253.486 209.26 253.752C209.86 254.019 210.374 254.392 210.8 254.872C211.24 255.339 211.574 255.879 211.8 256.492C212.04 257.092 212.16 257.726 212.16 258.392C212.16 258.526 212.154 258.666 212.14 258.812C212.127 258.959 212.107 259.112 212.08 259.272H202.86V258.172H211.4L210.86 258.592C210.94 257.819 210.827 257.126 210.52 256.512C210.214 255.886 209.774 255.392 209.2 255.032C208.64 254.659 208 254.472 207.28 254.472C206.56 254.472 205.9 254.666 205.3 255.052C204.7 255.426 204.227 255.946 203.88 256.612C203.534 257.266 203.374 258.026 203.4 258.892C203.374 259.759 203.54 260.526 203.9 261.192C204.26 261.859 204.754 262.386 205.38 262.772C206.007 263.146 206.7 263.332 207.46 263.332C208.234 263.332 208.907 263.152 209.48 262.792C210.054 262.419 210.52 261.926 210.88 261.312L211.9 261.852C211.66 262.346 211.32 262.792 210.88 263.192C210.44 263.579 209.927 263.886 209.34 264.112C208.767 264.339 208.14 264.452 207.46 264.452ZM217.867 264.452C217.2 264.452 216.607 264.326 216.087 264.072C215.567 263.819 215.154 263.466 214.847 263.012C214.54 262.559 214.387 262.039 214.387 261.452C214.387 260.932 214.5 260.446 214.727 259.992C214.954 259.539 215.32 259.152 215.827 258.832C216.334 258.499 216.994 258.266 217.807 258.132L222.107 257.412V258.532L218.127 259.192C217.22 259.339 216.58 259.612 216.207 260.012C215.834 260.412 215.647 260.879 215.647 261.412C215.647 261.986 215.86 262.452 216.287 262.812C216.727 263.172 217.28 263.352 217.947 263.352C218.72 263.352 219.394 263.179 219.967 262.832C220.54 262.472 220.987 262.006 221.307 261.432C221.627 260.846 221.787 260.206 221.787 259.512V256.872C221.787 256.166 221.534 255.592 221.027 255.152C220.52 254.712 219.86 254.492 219.047 254.492C218.38 254.492 217.78 254.659 217.247 254.992C216.714 255.326 216.307 255.759 216.027 256.292L214.947 255.712C215.147 255.286 215.454 254.892 215.867 254.532C216.28 254.172 216.76 253.886 217.307 253.672C217.854 253.459 218.434 253.352 219.047 253.352C219.82 253.352 220.5 253.506 221.087 253.812C221.687 254.106 222.154 254.519 222.487 255.052C222.82 255.572 222.987 256.179 222.987 256.872V264.212H221.787V261.992L221.927 262.092C221.754 262.519 221.467 262.912 221.067 263.272C220.667 263.619 220.194 263.906 219.647 264.132C219.114 264.346 218.52 264.452 217.867 264.452ZM226.292 264.212V253.592H227.492V255.732L227.272 255.432C227.539 254.792 227.965 254.286 228.552 253.912C229.152 253.539 229.819 253.352 230.552 253.352C231.379 253.352 232.132 253.592 232.812 254.072C233.492 254.539 233.965 255.166 234.232 255.952L233.852 255.972C234.079 255.159 234.525 254.519 235.192 254.052C235.872 253.586 236.625 253.352 237.452 253.352C238.159 253.352 238.805 253.519 239.392 253.852C239.992 254.186 240.472 254.652 240.832 255.252C241.205 255.839 241.392 256.512 241.392 257.272V264.212H240.192V257.612C240.192 256.972 240.059 256.426 239.792 255.972C239.539 255.506 239.199 255.152 238.772 254.912C238.345 254.659 237.865 254.532 237.332 254.532C236.759 254.532 236.252 254.672 235.812 254.952C235.385 255.232 235.045 255.619 234.792 256.112C234.552 256.606 234.432 257.172 234.432 257.812V264.212H233.232V257.612C233.232 256.972 233.105 256.426 232.852 255.972C232.599 255.506 232.252 255.152 231.812 254.912C231.385 254.659 230.905 254.532 230.372 254.532C229.799 254.532 229.292 254.672 228.852 254.952C228.425 255.232 228.092 255.619 227.852 256.112C227.612 256.606 227.492 257.172 227.492 257.812V264.212H226.292ZM251.636 264.332C250.756 264.332 250.076 264.086 249.596 263.592C249.116 263.086 248.876 262.352 248.876 261.392V254.732H246.876V253.592H247.636C248.036 253.592 248.343 253.472 248.556 253.232C248.77 252.992 248.876 252.666 248.876 252.252V251.112H250.076V253.592H252.396V254.732H250.076V261.392C250.076 261.686 250.116 261.972 250.196 262.252C250.29 262.532 250.463 262.759 250.716 262.932C250.97 263.106 251.336 263.192 251.816 263.192C251.923 263.192 252.05 263.186 252.196 263.172C252.356 263.159 252.483 263.146 252.576 263.132V264.212C252.43 264.252 252.263 264.279 252.076 264.292C251.89 264.319 251.743 264.332 251.636 264.332ZM259.212 264.452C258.492 264.452 257.825 264.286 257.212 263.952C256.612 263.619 256.132 263.152 255.772 262.552C255.412 261.939 255.232 261.212 255.232 260.372V253.592H256.432V260.272C256.432 260.899 256.559 261.439 256.812 261.892C257.079 262.332 257.432 262.672 257.872 262.912C258.325 263.152 258.832 263.272 259.392 263.272C260.005 263.272 260.532 263.132 260.972 262.852C261.425 262.572 261.772 262.186 262.012 261.692C262.252 261.186 262.372 260.612 262.372 259.972V253.592H263.572V264.212H262.372V262.052L262.672 262.152C262.432 262.846 262.005 263.406 261.392 263.832C260.779 264.246 260.052 264.452 259.212 264.452ZM266.897 264.212V253.592H268.097V255.572L267.877 255.392C268.104 254.792 268.491 254.319 269.037 253.972C269.597 253.626 270.257 253.452 271.017 253.452H271.697V254.652H270.877C270.011 254.652 269.331 254.932 268.837 255.492C268.344 256.039 268.097 256.779 268.097 257.712V264.212H266.897ZM273.675 264.212V253.592H274.875V255.732L274.575 255.652C274.815 254.946 275.241 254.386 275.855 253.972C276.481 253.559 277.208 253.352 278.035 253.352C278.768 253.352 279.435 253.519 280.035 253.852C280.635 254.186 281.115 254.652 281.475 255.252C281.835 255.839 282.015 256.512 282.015 257.272V264.212H280.815V257.612C280.815 256.972 280.688 256.426 280.435 255.972C280.181 255.506 279.828 255.152 279.375 254.912C278.935 254.659 278.428 254.532 277.855 254.532C277.255 254.532 276.728 254.672 276.275 254.952C275.821 255.232 275.475 255.619 275.235 256.112C274.995 256.606 274.875 257.172 274.875 257.812V264.212H273.675ZM290.06 264.452C289.047 264.452 288.133 264.212 287.32 263.732C286.507 263.252 285.86 262.592 285.38 261.752C284.913 260.899 284.68 259.946 284.68 258.892C284.68 257.839 284.913 256.892 285.38 256.052C285.86 255.212 286.5 254.552 287.3 254.072C288.113 253.592 289.033 253.352 290.06 253.352C291.073 253.352 291.987 253.592 292.8 254.072C293.613 254.552 294.253 255.212 294.72 256.052C295.187 256.879 295.42 257.826 295.42 258.892C295.42 259.959 295.18 260.912 294.7 261.752C294.22 262.592 293.573 263.252 292.76 263.732C291.96 264.212 291.06 264.452 290.06 264.452ZM290.06 263.272C290.82 263.272 291.507 263.086 292.12 262.712C292.747 262.326 293.24 261.799 293.6 261.132C293.96 260.466 294.14 259.719 294.14 258.892C294.14 258.066 293.96 257.326 293.6 256.672C293.24 256.019 292.753 255.499 292.14 255.112C291.527 254.726 290.833 254.532 290.06 254.532C289.287 254.532 288.587 254.726 287.96 255.112C287.347 255.486 286.86 256.006 286.5 256.672C286.14 257.326 285.96 258.066 285.96 258.892C285.96 259.719 286.14 260.466 286.5 261.132C286.873 261.799 287.367 262.326 287.98 262.712C288.593 263.086 289.287 263.272 290.06 263.272ZM300.988 264.212L296.788 253.592H298.128L301.848 263.152H301.388L305.108 253.592H306.488L302.228 264.212H300.988ZM313.124 264.452C312.124 264.452 311.224 264.212 310.424 263.732C309.624 263.239 308.991 262.572 308.524 261.732C308.058 260.879 307.824 259.926 307.824 258.872C307.824 257.819 308.051 256.879 308.504 256.052C308.958 255.212 309.571 254.552 310.344 254.072C311.118 253.592 311.984 253.352 312.944 253.352C313.678 253.352 314.338 253.486 314.924 253.752C315.524 254.019 316.038 254.392 316.464 254.872C316.904 255.339 317.238 255.879 317.464 256.492C317.704 257.092 317.824 257.726 317.824 258.392C317.824 258.526 317.818 258.666 317.804 258.812C317.791 258.959 317.771 259.112 317.744 259.272H308.524V258.172H317.064L316.524 258.592C316.604 257.819 316.491 257.126 316.184 256.512C315.878 255.886 315.438 255.392 314.864 255.032C314.304 254.659 313.664 254.472 312.944 254.472C312.224 254.472 311.564 254.666 310.964 255.052C310.364 255.426 309.891 255.946 309.544 256.612C309.198 257.266 309.038 258.026 309.064 258.892C309.038 259.759 309.204 260.526 309.564 261.192C309.924 261.859 310.418 262.386 311.044 262.772C311.671 263.146 312.364 263.332 313.124 263.332C313.898 263.332 314.571 263.152 315.144 262.792C315.718 262.419 316.184 261.926 316.544 261.312L317.564 261.852C317.324 262.346 316.984 262.792 316.544 263.192C316.104 263.579 315.591 263.886 315.004 264.112C314.431 264.339 313.804 264.452 313.124 264.452ZM320.686 264.212V253.592H321.886V255.572L321.666 255.392C321.893 254.792 322.28 254.319 322.826 253.972C323.386 253.626 324.046 253.452 324.806 253.452H325.486V254.652H324.666C323.8 254.652 323.12 254.932 322.626 255.492C322.133 256.039 321.886 256.779 321.886 257.712V264.212H320.686ZM334.624 264.332C333.744 264.332 333.064 264.086 332.584 263.592C332.104 263.086 331.864 262.352 331.864 261.392V254.732H329.864V253.592H330.624C331.024 253.592 331.331 253.472 331.544 253.232C331.758 252.992 331.864 252.666 331.864 252.252V251.112H333.064V253.592H335.384V254.732H333.064V261.392C333.064 261.686 333.104 261.972 333.184 262.252C333.278 262.532 333.451 262.759 333.704 262.932C333.958 263.106 334.324 263.192 334.804 263.192C334.911 263.192 335.038 263.186 335.184 263.172C335.344 263.159 335.471 263.146 335.564 263.132V264.212C335.418 264.252 335.251 264.279 335.064 264.292C334.878 264.319 334.731 264.332 334.624 264.332ZM342.99 264.452C341.976 264.452 341.063 264.212 340.25 263.732C339.436 263.252 338.79 262.592 338.31 261.752C337.843 260.899 337.61 259.946 337.61 258.892C337.61 257.839 337.843 256.892 338.31 256.052C338.79 255.212 339.43 254.552 340.23 254.072C341.043 253.592 341.963 253.352 342.99 253.352C344.003 253.352 344.916 253.592 345.73 254.072C346.543 254.552 347.183 255.212 347.65 256.052C348.116 256.879 348.35 257.826 348.35 258.892C348.35 259.959 348.11 260.912 347.63 261.752C347.15 262.592 346.503 263.252 345.69 263.732C344.89 264.212 343.99 264.452 342.99 264.452ZM342.99 263.272C343.75 263.272 344.436 263.086 345.05 262.712C345.676 262.326 346.17 261.799 346.53 261.132C346.89 260.466 347.07 259.719 347.07 258.892C347.07 258.066 346.89 257.326 346.53 256.672C346.17 256.019 345.683 255.499 345.07 255.112C344.456 254.726 343.763 254.532 342.99 254.532C342.216 254.532 341.516 254.726 340.89 255.112C340.276 255.486 339.79 256.006 339.43 256.672C339.07 257.326 338.89 258.066 338.89 258.892C338.89 259.719 339.07 260.466 339.43 261.132C339.803 261.799 340.296 262.326 340.91 262.712C341.523 263.086 342.216 263.272 342.99 263.272ZM363.434 268.212V261.512L363.634 261.792C363.261 262.619 362.687 263.272 361.914 263.752C361.154 264.219 360.287 264.452 359.314 264.452C358.327 264.452 357.434 264.212 356.634 263.732C355.847 263.239 355.227 262.572 354.774 261.732C354.321 260.892 354.094 259.946 354.094 258.892C354.094 257.839 354.321 256.892 354.774 256.052C355.227 255.212 355.847 254.552 356.634 254.072C357.434 253.592 358.327 253.352 359.314 253.352C360.287 253.352 361.154 253.586 361.914 254.052C362.674 254.506 363.247 255.119 363.634 255.892L363.434 256.272V253.592H364.634V268.212H363.434ZM359.354 263.252C360.127 263.252 360.814 263.066 361.414 262.692C362.027 262.306 362.514 261.786 362.874 261.132C363.234 260.466 363.414 259.719 363.414 258.892C363.414 258.066 363.234 257.326 362.874 256.672C362.514 256.019 362.027 255.506 361.414 255.132C360.814 254.746 360.127 254.552 359.354 254.552C358.594 254.552 357.914 254.746 357.314 255.132C356.714 255.506 356.241 256.019 355.894 256.672C355.547 257.326 355.374 258.066 355.374 258.892C355.374 259.719 355.547 260.466 355.894 261.132C356.241 261.786 356.714 262.306 357.314 262.692C357.914 263.066 358.594 263.252 359.354 263.252ZM371.712 264.452C370.992 264.452 370.325 264.286 369.712 263.952C369.112 263.619 368.632 263.152 368.272 262.552C367.912 261.939 367.732 261.212 367.732 260.372V253.592H368.932V260.272C368.932 260.899 369.059 261.439 369.312 261.892C369.579 262.332 369.932 262.672 370.372 262.912C370.825 263.152 371.332 263.272 371.892 263.272C372.505 263.272 373.032 263.132 373.472 262.852C373.925 262.572 374.272 262.186 374.512 261.692C374.752 261.186 374.872 260.612 374.872 259.972V253.592H376.072V264.212H374.872V262.052L375.172 262.152C374.932 262.846 374.505 263.406 373.892 263.832C373.279 264.246 372.552 264.452 371.712 264.452ZM382.437 264.452C381.771 264.452 381.177 264.326 380.657 264.072C380.137 263.819 379.724 263.466 379.417 263.012C379.111 262.559 378.957 262.039 378.957 261.452C378.957 260.932 379.071 260.446 379.297 259.992C379.524 259.539 379.891 259.152 380.397 258.832C380.904 258.499 381.564 258.266 382.377 258.132L386.677 257.412V258.532L382.697 259.192C381.791 259.339 381.151 259.612 380.777 260.012C380.404 260.412 380.217 260.879 380.217 261.412C380.217 261.986 380.431 262.452 380.857 262.812C381.297 263.172 381.851 263.352 382.517 263.352C383.291 263.352 383.964 263.179 384.537 262.832C385.111 262.472 385.557 262.006 385.877 261.432C386.197 260.846 386.357 260.206 386.357 259.512V256.872C386.357 256.166 386.104 255.592 385.597 255.152C385.091 254.712 384.431 254.492 383.617 254.492C382.951 254.492 382.351 254.659 381.817 254.992C381.284 255.326 380.877 255.759 380.597 256.292L379.517 255.712C379.717 255.286 380.024 254.892 380.437 254.532C380.851 254.172 381.331 253.886 381.877 253.672C382.424 253.459 383.004 253.352 383.617 253.352C384.391 253.352 385.071 253.506 385.657 253.812C386.257 254.106 386.724 254.519 387.057 255.052C387.391 255.572 387.557 256.179 387.557 256.872V264.212H386.357V261.992L386.497 262.092C386.324 262.519 386.037 262.912 385.637 263.272C385.237 263.619 384.764 263.906 384.217 264.132C383.684 264.346 383.091 264.452 382.437 264.452ZM390.862 264.212V249.072H392.062V264.212H390.862ZM395.354 264.212V253.592H396.554V264.212H395.354ZM395.354 251.512V249.312H396.554V251.512H395.354ZM400.947 264.212V254.732H398.787V253.592H400.947V252.572C400.947 251.826 401.093 251.192 401.387 250.672C401.693 250.152 402.107 249.759 402.627 249.492C403.147 249.212 403.72 249.072 404.347 249.072C404.493 249.072 404.64 249.086 404.787 249.112C404.947 249.126 405.08 249.146 405.187 249.172V250.252C405.08 250.226 404.953 250.212 404.807 250.212C404.66 250.199 404.547 250.192 404.467 250.192C403.773 250.192 403.213 250.392 402.787 250.792C402.36 251.179 402.147 251.772 402.147 252.572V253.592H404.787V254.732H402.147V264.212H400.947ZM407.679 268.612C407.493 268.612 407.286 268.592 407.059 268.552C406.846 268.526 406.639 268.479 406.439 268.412V267.292C406.599 267.332 406.779 267.366 406.979 267.392C407.193 267.419 407.386 267.432 407.559 267.432C408.213 267.419 408.726 267.259 409.099 266.952C409.473 266.646 409.813 266.139 410.119 265.432L410.879 263.652V264.772L406.379 253.592H407.699L411.559 263.232H411.079L414.959 253.592H416.299L411.339 265.692C411.153 266.132 410.906 266.579 410.599 267.032C410.293 267.486 409.899 267.859 409.419 268.152C408.953 268.459 408.373 268.612 407.679 268.612ZM422.704 264.212V254.732H420.544V253.592H422.704V252.572C422.704 251.826 422.851 251.192 423.144 250.672C423.451 250.152 423.864 249.759 424.384 249.492C424.904 249.212 425.478 249.072 426.104 249.072C426.251 249.072 426.398 249.086 426.544 249.112C426.704 249.126 426.838 249.146 426.944 249.172V250.252C426.838 250.226 426.711 250.212 426.564 250.212C426.418 250.199 426.304 250.192 426.224 250.192C425.531 250.192 424.971 250.392 424.544 250.792C424.118 251.179 423.904 251.772 423.904 252.572V253.592H426.544V254.732H423.904V264.212H422.704ZM433.732 264.452C432.719 264.452 431.805 264.212 430.992 263.732C430.179 263.252 429.532 262.592 429.052 261.752C428.585 260.899 428.352 259.946 428.352 258.892C428.352 257.839 428.585 256.892 429.052 256.052C429.532 255.212 430.172 254.552 430.972 254.072C431.785 253.592 432.705 253.352 433.732 253.352C434.745 253.352 435.659 253.592 436.472 254.072C437.285 254.552 437.925 255.212 438.392 256.052C438.859 256.879 439.092 257.826 439.092 258.892C439.092 259.959 438.852 260.912 438.372 261.752C437.892 262.592 437.245 263.252 436.432 263.732C435.632 264.212 434.732 264.452 433.732 264.452ZM433.732 263.272C434.492 263.272 435.179 263.086 435.792 262.712C436.419 262.326 436.912 261.799 437.272 261.132C437.632 260.466 437.812 259.719 437.812 258.892C437.812 258.066 437.632 257.326 437.272 256.672C436.912 256.019 436.425 255.499 435.812 255.112C435.199 254.726 434.505 254.532 433.732 254.532C432.959 254.532 432.259 254.726 431.632 255.112C431.019 255.486 430.532 256.006 430.172 256.672C429.812 257.326 429.632 258.066 429.632 258.892C429.632 259.719 429.812 260.466 430.172 261.132C430.545 261.799 431.039 262.326 431.652 262.712C432.265 263.086 432.959 263.272 433.732 263.272ZM441.975 264.212V253.592H443.175V255.572L442.955 255.392C443.182 254.792 443.569 254.319 444.115 253.972C444.675 253.626 445.335 253.452 446.095 253.452H446.775V254.652H445.955C445.089 254.652 444.409 254.932 443.915 255.492C443.422 256.039 443.175 256.779 443.175 257.712V264.212H441.975ZM455.914 264.332C455.034 264.332 454.354 264.086 453.874 263.592C453.394 263.086 453.154 262.352 453.154 261.392V254.732H451.154V253.592H451.914C452.314 253.592 452.62 253.472 452.834 253.232C453.047 252.992 453.154 252.666 453.154 252.252V251.112H454.354V253.592H456.674V254.732H454.354V261.392C454.354 261.686 454.394 261.972 454.474 262.252C454.567 262.532 454.74 262.759 454.994 262.932C455.247 263.106 455.614 263.192 456.094 263.192C456.2 263.192 456.327 263.186 456.474 263.172C456.634 263.159 456.76 263.146 456.854 263.132V264.212C456.707 264.252 456.54 264.279 456.354 264.292C456.167 264.319 456.02 264.332 455.914 264.332ZM459.729 264.212V249.072H460.929V255.732L460.629 255.652C460.869 254.946 461.296 254.386 461.909 253.972C462.536 253.559 463.263 253.352 464.089 253.352C464.823 253.352 465.489 253.519 466.089 253.852C466.689 254.186 467.169 254.652 467.529 255.252C467.889 255.839 468.069 256.512 468.069 257.272V264.212H466.869V257.612C466.869 256.972 466.736 256.426 466.469 255.972C466.216 255.506 465.863 255.152 465.409 254.912C464.969 254.659 464.469 254.532 463.909 254.532C463.309 254.532 462.783 254.672 462.329 254.952C461.889 255.232 461.543 255.619 461.289 256.112C461.049 256.606 460.929 257.172 460.929 257.812V264.212H459.729ZM471.175 264.212V253.592H472.375V264.212H471.175ZM471.175 251.512V249.312H472.375V251.512H471.175ZM479.247 264.452C478.26 264.452 477.394 264.206 476.647 263.712C475.9 263.219 475.354 262.546 475.007 261.692L476.047 261.212C476.38 261.866 476.827 262.386 477.387 262.772C477.947 263.146 478.567 263.332 479.247 263.332C479.94 263.332 480.52 263.166 480.987 262.832C481.467 262.486 481.707 262.032 481.707 261.472C481.707 261.126 481.614 260.832 481.427 260.592C481.254 260.352 481.027 260.159 480.747 260.012C480.467 259.852 480.167 259.732 479.847 259.652L478.207 259.192C477.287 258.939 476.607 258.566 476.167 258.072C475.74 257.579 475.527 256.999 475.527 256.332C475.527 255.732 475.68 255.212 475.987 254.772C476.294 254.319 476.707 253.972 477.227 253.732C477.747 253.479 478.32 253.352 478.947 253.352C479.827 253.352 480.627 253.579 481.347 254.032C482.067 254.486 482.574 255.099 482.867 255.872L481.787 256.372C481.507 255.772 481.114 255.306 480.607 254.972C480.1 254.626 479.54 254.452 478.927 254.452C478.287 254.452 477.767 254.626 477.367 254.972C476.967 255.306 476.767 255.732 476.767 256.252C476.767 256.586 476.847 256.866 477.007 257.092C477.167 257.306 477.374 257.486 477.627 257.632C477.894 257.766 478.167 257.872 478.447 257.952L480.227 258.472C481.094 258.712 481.76 259.092 482.227 259.612C482.707 260.132 482.947 260.746 482.947 261.452C482.947 262.026 482.787 262.539 482.467 262.992C482.147 263.446 481.707 263.806 481.147 264.072C480.587 264.326 479.954 264.452 479.247 264.452ZM489.124 268.212V253.592H490.324V256.272L490.124 255.892C490.524 255.119 491.097 254.506 491.844 254.052C492.604 253.586 493.471 253.352 494.444 253.352C495.444 253.352 496.337 253.592 497.124 254.072C497.911 254.552 498.531 255.212 498.984 256.052C499.437 256.892 499.664 257.846 499.664 258.912C499.664 259.952 499.437 260.892 498.984 261.732C498.531 262.572 497.911 263.239 497.124 263.732C496.337 264.212 495.444 264.452 494.444 264.452C493.471 264.452 492.597 264.219 491.824 263.752C491.064 263.272 490.497 262.619 490.124 261.792L490.324 261.512V268.212H489.124ZM494.404 263.252C495.164 263.252 495.844 263.066 496.444 262.692C497.044 262.306 497.517 261.786 497.864 261.132C498.211 260.466 498.384 259.719 498.384 258.892C498.384 258.066 498.211 257.326 497.864 256.672C497.517 256.019 497.044 255.506 496.444 255.132C495.844 254.746 495.164 254.552 494.404 254.552C493.644 254.552 492.957 254.746 492.344 255.132C491.731 255.506 491.244 256.019 490.884 256.672C490.524 257.326 490.344 258.066 490.344 258.892C490.344 259.719 490.524 260.466 490.884 261.132C491.244 261.786 491.724 262.306 492.324 262.692C492.937 263.066 493.631 263.252 494.404 263.252ZM507.482 264.452C506.469 264.452 505.555 264.212 504.742 263.732C503.929 263.252 503.282 262.592 502.802 261.752C502.335 260.899 502.102 259.946 502.102 258.892C502.102 257.839 502.335 256.892 502.802 256.052C503.282 255.212 503.922 254.552 504.722 254.072C505.535 253.592 506.455 253.352 507.482 253.352C508.495 253.352 509.409 253.592 510.222 254.072C511.035 254.552 511.675 255.212 512.142 256.052C512.609 256.879 512.842 257.826 512.842 258.892C512.842 259.959 512.602 260.912 512.122 261.752C511.642 262.592 510.995 263.252 510.182 263.732C509.382 264.212 508.482 264.452 507.482 264.452ZM507.482 263.272C508.242 263.272 508.929 263.086 509.542 262.712C510.169 262.326 510.662 261.799 511.022 261.132C511.382 260.466 511.562 259.719 511.562 258.892C511.562 258.066 511.382 257.326 511.022 256.672C510.662 256.019 510.175 255.499 509.562 255.112C508.949 254.726 508.255 254.532 507.482 254.532C506.709 254.532 506.009 254.726 505.382 255.112C504.769 255.486 504.282 256.006 503.922 256.672C503.562 257.326 503.382 258.066 503.382 258.892C503.382 259.719 503.562 260.466 503.922 261.132C504.295 261.799 504.789 262.326 505.402 262.712C506.015 263.086 506.709 263.272 507.482 263.272ZM520.665 264.452C519.652 264.452 518.739 264.212 517.925 263.732C517.112 263.252 516.465 262.592 515.985 261.752C515.519 260.899 515.285 259.946 515.285 258.892C515.285 257.839 515.519 256.892 515.985 256.052C516.465 255.212 517.105 254.552 517.905 254.072C518.719 253.592 519.639 253.352 520.665 253.352C521.679 253.352 522.592 253.592 523.405 254.072C524.219 254.552 524.859 255.212 525.325 256.052C525.792 256.879 526.025 257.826 526.025 258.892C526.025 259.959 525.785 260.912 525.305 261.752C524.825 262.592 524.179 263.252 523.365 263.732C522.565 264.212 521.665 264.452 520.665 264.452ZM520.665 263.272C521.425 263.272 522.112 263.086 522.725 262.712C523.352 262.326 523.845 261.799 524.205 261.132C524.565 260.466 524.745 259.719 524.745 258.892C524.745 258.066 524.565 257.326 524.205 256.672C523.845 256.019 523.359 255.499 522.745 255.112C522.132 254.726 521.439 254.532 520.665 254.532C519.892 254.532 519.192 254.726 518.565 255.112C517.952 255.486 517.465 256.006 517.105 256.672C516.745 257.326 516.565 258.066 516.565 258.892C516.565 259.719 516.745 260.466 517.105 261.132C517.479 261.799 517.972 262.326 518.585 262.712C519.199 263.086 519.892 263.272 520.665 263.272ZM528.909 264.212V249.072H530.109V264.212H528.909ZM536.702 264.212V253.592H537.902V264.212H536.702ZM536.702 251.512V249.312H537.902V251.512H536.702ZM544.774 264.452C543.788 264.452 542.921 264.206 542.174 263.712C541.428 263.219 540.881 262.546 540.534 261.692L541.574 261.212C541.908 261.866 542.354 262.386 542.914 262.772C543.474 263.146 544.094 263.332 544.774 263.332C545.468 263.332 546.048 263.166 546.514 262.832C546.994 262.486 547.234 262.032 547.234 261.472C547.234 261.126 547.141 260.832 546.954 260.592C546.781 260.352 546.554 260.159 546.274 260.012C545.994 259.852 545.694 259.732 545.374 259.652L543.734 259.192C542.814 258.939 542.134 258.566 541.694 258.072C541.268 257.579 541.054 256.999 541.054 256.332C541.054 255.732 541.208 255.212 541.514 254.772C541.821 254.319 542.234 253.972 542.754 253.732C543.274 253.479 543.848 253.352 544.474 253.352C545.354 253.352 546.154 253.579 546.874 254.032C547.594 254.486 548.101 255.099 548.394 255.872L547.314 256.372C547.034 255.772 546.641 255.306 546.134 254.972C545.628 254.626 545.068 254.452 544.454 254.452C543.814 254.452 543.294 254.626 542.894 254.972C542.494 255.306 542.294 255.732 542.294 256.252C542.294 256.586 542.374 256.866 542.534 257.092C542.694 257.306 542.901 257.486 543.154 257.632C543.421 257.766 543.694 257.872 543.974 257.952L545.754 258.472C546.621 258.712 547.288 259.092 547.754 259.612C548.234 260.132 548.474 260.746 548.474 261.452C548.474 262.026 548.314 262.539 547.994 262.992C547.674 263.446 547.234 263.806 546.674 264.072C546.114 264.326 545.481 264.452 544.774 264.452ZM559.711 264.452C558.765 264.452 557.911 264.272 557.151 263.912C556.405 263.552 555.778 263.079 555.271 262.492C554.778 261.906 554.425 261.272 554.211 260.592L555.371 260.172C555.745 261.186 556.298 261.959 557.031 262.492C557.778 263.026 558.665 263.292 559.691 263.292C560.371 263.292 560.965 263.179 561.471 262.952C561.991 262.726 562.398 262.406 562.691 261.992C562.985 261.579 563.131 261.092 563.131 260.532C563.131 259.759 562.911 259.159 562.471 258.732C562.045 258.306 561.485 257.999 560.791 257.812L558.071 257.012C556.965 256.692 556.145 256.179 555.611 255.472C555.091 254.752 554.831 253.939 554.831 253.032C554.831 252.246 555.018 251.559 555.391 250.972C555.778 250.372 556.298 249.906 556.951 249.572C557.605 249.239 558.345 249.072 559.171 249.072C560.038 249.072 560.811 249.239 561.491 249.572C562.185 249.892 562.765 250.319 563.231 250.852C563.711 251.372 564.051 251.952 564.251 252.592L563.111 253.012C562.778 252.092 562.265 251.399 561.571 250.932C560.878 250.452 560.085 250.212 559.191 250.212C558.605 250.212 558.078 250.326 557.611 250.552C557.145 250.779 556.778 251.099 556.511 251.512C556.245 251.926 556.111 252.412 556.111 252.972C556.111 253.652 556.305 254.232 556.691 254.712C557.078 255.192 557.725 255.572 558.631 255.852L561.071 256.572C562.138 256.892 562.958 257.386 563.531 258.052C564.118 258.706 564.411 259.512 564.411 260.472C564.411 261.259 564.211 261.952 563.811 262.552C563.411 263.139 562.851 263.606 562.131 263.952C561.425 264.286 560.618 264.452 559.711 264.452ZM559.011 266.212V247.312H560.171V266.212H559.011ZM575.204 264.452C574.404 264.452 573.664 264.306 572.984 264.012C572.304 263.706 571.724 263.279 571.244 262.732C570.777 262.186 570.437 261.539 570.224 260.792L571.304 260.372C571.57 261.292 572.05 262.012 572.744 262.532C573.45 263.039 574.27 263.292 575.204 263.292C575.924 263.292 576.55 263.132 577.084 262.812C577.63 262.492 578.057 262.052 578.364 261.492C578.67 260.919 578.824 260.279 578.824 259.572C578.824 258.866 578.664 258.239 578.344 257.692C578.024 257.132 577.59 256.699 577.044 256.392C576.51 256.072 575.904 255.912 575.224 255.912C574.517 255.912 573.87 256.079 573.284 256.412C572.697 256.732 572.27 257.112 572.004 257.552L570.944 257.332L572.044 249.312H579.524V250.452H572.504L573.044 250.092L572.164 256.492L571.744 256.292C572.144 255.759 572.657 255.366 573.284 255.112C573.924 254.846 574.59 254.712 575.284 254.712C576.217 254.712 577.044 254.932 577.764 255.372C578.497 255.799 579.07 256.379 579.484 257.112C579.91 257.846 580.124 258.666 580.124 259.572C580.124 260.506 579.91 261.339 579.484 262.072C579.07 262.806 578.49 263.386 577.744 263.812C577.01 264.239 576.164 264.452 575.204 264.452ZM583.27 264.212V249.312H584.37L589.93 257.592H589.39L594.97 249.312H596.07V264.212H594.77V251.212L595.09 251.392L589.69 259.452H589.63L584.23 251.392L584.57 251.212V264.212H583.27ZM236.212 298.912C235.199 297.726 234.425 296.372 233.892 294.852C233.372 293.332 233.112 291.746 233.112 290.092C233.112 288.386 233.379 286.786 233.912 285.292C234.445 283.799 235.212 282.472 236.212 281.312H237.372C236.412 282.606 235.679 284.006 235.172 285.512C234.665 287.019 234.412 288.546 234.412 290.092C234.412 291.612 234.665 293.132 235.172 294.652C235.679 296.159 236.412 297.579 237.372 298.912H236.212ZM246.596 296.452C245.57 296.452 244.61 296.266 243.716 295.892C242.823 295.506 242.036 294.972 241.356 294.292C240.69 293.599 240.163 292.786 239.776 291.852C239.403 290.906 239.216 289.872 239.216 288.752C239.216 287.619 239.403 286.586 239.776 285.652C240.163 284.719 240.696 283.912 241.376 283.232C242.056 282.539 242.836 282.006 243.716 281.632C244.61 281.259 245.57 281.072 246.596 281.072C247.61 281.072 248.563 281.259 249.456 281.632C250.35 282.006 251.13 282.539 251.796 283.232C252.476 283.912 253.01 284.726 253.396 285.672C253.783 286.606 253.976 287.632 253.976 288.752C253.976 289.872 253.783 290.906 253.396 291.852C253.01 292.786 252.476 293.599 251.796 294.292C251.13 294.972 250.35 295.506 249.456 295.892C248.563 296.266 247.61 296.452 246.596 296.452ZM246.596 295.212C247.49 295.212 248.31 295.046 249.056 294.712C249.803 294.379 250.443 293.912 250.976 293.312C251.523 292.712 251.943 292.026 252.236 291.252C252.53 290.466 252.676 289.632 252.676 288.752C252.676 287.886 252.53 287.066 252.236 286.292C251.943 285.506 251.523 284.812 250.976 284.212C250.443 283.612 249.803 283.146 249.056 282.812C248.323 282.466 247.503 282.292 246.596 282.292C245.69 282.292 244.863 282.466 244.116 282.812C243.383 283.146 242.743 283.612 242.196 284.212C241.663 284.812 241.25 285.506 240.956 286.292C240.663 287.066 240.516 287.886 240.516 288.752C240.516 289.632 240.663 290.466 240.956 291.252C241.25 292.026 241.663 292.712 242.196 293.312C242.743 293.912 243.39 294.379 244.136 294.712C244.883 295.046 245.703 295.212 246.596 295.212ZM251.056 298.012L245.916 290.252H247.416L252.556 298.012H251.056ZM260.814 296.452C260.094 296.452 259.427 296.286 258.814 295.952C258.214 295.619 257.734 295.152 257.374 294.552C257.014 293.939 256.834 293.212 256.834 292.372V285.592H258.034V292.272C258.034 292.899 258.16 293.439 258.414 293.892C258.68 294.332 259.034 294.672 259.474 294.912C259.927 295.152 260.434 295.272 260.994 295.272C261.607 295.272 262.134 295.132 262.574 294.852C263.027 294.572 263.374 294.186 263.614 293.692C263.854 293.186 263.974 292.612 263.974 291.972V285.592H265.174V296.212H263.974V294.052L264.274 294.152C264.034 294.846 263.607 295.406 262.994 295.832C262.38 296.246 261.654 296.452 260.814 296.452ZM271.539 296.452C270.872 296.452 270.279 296.326 269.759 296.072C269.239 295.819 268.826 295.466 268.519 295.012C268.212 294.559 268.059 294.039 268.059 293.452C268.059 292.932 268.172 292.446 268.399 291.992C268.626 291.539 268.992 291.152 269.499 290.832C270.006 290.499 270.666 290.266 271.479 290.132L275.779 289.412V290.532L271.799 291.192C270.892 291.339 270.252 291.612 269.879 292.012C269.506 292.412 269.319 292.879 269.319 293.412C269.319 293.986 269.532 294.452 269.959 294.812C270.399 295.172 270.952 295.352 271.619 295.352C272.392 295.352 273.066 295.179 273.639 294.832C274.212 294.472 274.659 294.006 274.979 293.432C275.299 292.846 275.459 292.206 275.459 291.512V288.872C275.459 288.166 275.206 287.592 274.699 287.152C274.192 286.712 273.532 286.492 272.719 286.492C272.052 286.492 271.452 286.659 270.919 286.992C270.386 287.326 269.979 287.759 269.699 288.292L268.619 287.712C268.819 287.286 269.126 286.892 269.539 286.532C269.952 286.172 270.432 285.886 270.979 285.672C271.526 285.459 272.106 285.352 272.719 285.352C273.492 285.352 274.172 285.506 274.759 285.812C275.359 286.106 275.826 286.519 276.159 287.052C276.492 287.572 276.659 288.179 276.659 288.872V296.212H275.459V293.992L275.599 294.092C275.426 294.519 275.139 294.912 274.739 295.272C274.339 295.619 273.866 295.906 273.319 296.132C272.786 296.346 272.192 296.452 271.539 296.452ZM279.964 296.212V281.072H281.164V296.212H279.964ZM284.456 296.212V285.592H285.656V296.212H284.456ZM284.456 283.512V281.312H285.656V283.512H284.456ZM290.048 296.212V286.732H287.888V285.592H290.048V284.572C290.048 283.826 290.195 283.192 290.488 282.672C290.795 282.152 291.208 281.759 291.728 281.492C292.248 281.212 292.821 281.072 293.448 281.072C293.595 281.072 293.741 281.086 293.888 281.112C294.048 281.126 294.181 281.146 294.288 281.172V282.252C294.181 282.226 294.055 282.212 293.908 282.212C293.761 282.199 293.648 282.192 293.568 282.192C292.875 282.192 292.315 282.392 291.888 282.792C291.461 283.179 291.248 283.772 291.248 284.572V285.592H297.288V286.732H291.248V296.212H290.048ZM296.208 296.212V285.592H297.408V296.212H296.208ZM305.233 296.452C304.22 296.452 303.313 296.212 302.513 295.732C301.727 295.239 301.1 294.572 300.633 293.732C300.18 292.892 299.953 291.946 299.953 290.892C299.953 289.826 300.18 288.879 300.633 288.052C301.1 287.212 301.727 286.552 302.513 286.072C303.313 285.592 304.22 285.352 305.233 285.352C305.9 285.352 306.513 285.466 307.073 285.692C307.647 285.919 308.153 286.226 308.593 286.612C309.033 286.999 309.367 287.446 309.593 287.952L308.533 288.512C308.213 287.899 307.767 287.412 307.193 287.052C306.62 286.692 305.967 286.512 305.233 286.512C304.473 286.512 303.787 286.699 303.173 287.072C302.573 287.446 302.093 287.966 301.733 288.632C301.373 289.286 301.193 290.039 301.193 290.892C301.193 291.746 301.373 292.506 301.733 293.172C302.093 293.826 302.573 294.339 303.173 294.712C303.787 295.086 304.473 295.272 305.233 295.272C305.967 295.272 306.62 295.092 307.193 294.732C307.767 294.372 308.213 293.879 308.533 293.252L309.593 293.832C309.367 294.326 309.033 294.772 308.593 295.172C308.153 295.559 307.647 295.872 307.073 296.112C306.513 296.339 305.9 296.452 305.233 296.452ZM315.308 296.452C314.642 296.452 314.048 296.326 313.528 296.072C313.008 295.819 312.595 295.466 312.288 295.012C311.982 294.559 311.828 294.039 311.828 293.452C311.828 292.932 311.942 292.446 312.168 291.992C312.395 291.539 312.762 291.152 313.268 290.832C313.775 290.499 314.435 290.266 315.248 290.132L319.548 289.412V290.532L315.568 291.192C314.662 291.339 314.022 291.612 313.648 292.012C313.275 292.412 313.088 292.879 313.088 293.412C313.088 293.986 313.302 294.452 313.728 294.812C314.168 295.172 314.722 295.352 315.388 295.352C316.162 295.352 316.835 295.179 317.408 294.832C317.982 294.472 318.428 294.006 318.748 293.432C319.068 292.846 319.228 292.206 319.228 291.512V288.872C319.228 288.166 318.975 287.592 318.468 287.152C317.962 286.712 317.302 286.492 316.488 286.492C315.822 286.492 315.222 286.659 314.688 286.992C314.155 287.326 313.748 287.759 313.468 288.292L312.388 287.712C312.588 287.286 312.895 286.892 313.308 286.532C313.722 286.172 314.202 285.886 314.748 285.672C315.295 285.459 315.875 285.352 316.488 285.352C317.262 285.352 317.942 285.506 318.528 285.812C319.128 286.106 319.595 286.519 319.928 287.052C320.262 287.572 320.428 288.179 320.428 288.872V296.212H319.228V293.992L319.368 294.092C319.195 294.519 318.908 294.912 318.508 295.272C318.108 295.619 317.635 295.906 317.088 296.132C316.555 296.346 315.962 296.452 315.308 296.452ZM327.398 296.332C326.518 296.332 325.838 296.086 325.358 295.592C324.878 295.086 324.638 294.352 324.638 293.392V286.732H322.638V285.592H323.398C323.798 285.592 324.105 285.472 324.318 285.232C324.531 284.992 324.638 284.666 324.638 284.252V283.112H325.838V285.592H328.158V286.732H325.838V293.392C325.838 293.686 325.878 293.972 325.958 294.252C326.051 294.532 326.225 294.759 326.478 294.932C326.731 295.106 327.098 295.192 327.578 295.192C327.685 295.192 327.811 295.186 327.958 295.172C328.118 295.159 328.245 295.146 328.338 295.132V296.212C328.191 296.252 328.025 296.279 327.838 296.292C327.651 296.319 327.505 296.332 327.398 296.332ZM331.214 296.212V285.592H332.414V296.212H331.214ZM331.214 283.512V281.312H332.414V283.512H331.214ZM340.646 296.452C339.633 296.452 338.719 296.212 337.906 295.732C337.093 295.252 336.446 294.592 335.966 293.752C335.499 292.899 335.266 291.946 335.266 290.892C335.266 289.839 335.499 288.892 335.966 288.052C336.446 287.212 337.086 286.552 337.886 286.072C338.699 285.592 339.619 285.352 340.646 285.352C341.659 285.352 342.573 285.592 343.386 286.072C344.199 286.552 344.839 287.212 345.306 288.052C345.773 288.879 346.006 289.826 346.006 290.892C346.006 291.959 345.766 292.912 345.286 293.752C344.806 294.592 344.159 295.252 343.346 295.732C342.546 296.212 341.646 296.452 340.646 296.452ZM340.646 295.272C341.406 295.272 342.093 295.086 342.706 294.712C343.333 294.326 343.826 293.799 344.186 293.132C344.546 292.466 344.726 291.719 344.726 290.892C344.726 290.066 344.546 289.326 344.186 288.672C343.826 288.019 343.339 287.499 342.726 287.112C342.113 286.726 341.419 286.532 340.646 286.532C339.873 286.532 339.173 286.726 338.546 287.112C337.933 287.486 337.446 288.006 337.086 288.672C336.726 289.326 336.546 290.066 336.546 290.892C336.546 291.719 336.726 292.466 337.086 293.132C337.459 293.799 337.953 294.326 338.566 294.712C339.179 295.086 339.873 295.272 340.646 295.272ZM348.889 296.212V285.592H350.089V287.732L349.789 287.652C350.029 286.946 350.456 286.386 351.069 285.972C351.696 285.559 352.423 285.352 353.249 285.352C353.983 285.352 354.649 285.519 355.249 285.852C355.849 286.186 356.329 286.652 356.689 287.252C357.049 287.839 357.229 288.512 357.229 289.272V296.212H356.029V289.612C356.029 288.972 355.903 288.426 355.649 287.972C355.396 287.506 355.043 287.152 354.589 286.912C354.149 286.659 353.643 286.532 353.069 286.532C352.469 286.532 351.943 286.672 351.489 286.952C351.036 287.232 350.689 287.619 350.449 288.112C350.209 288.606 350.089 289.172 350.089 289.812V296.212H348.889ZM364.736 296.212V286.732H362.576V285.592H364.736V284.572C364.736 283.826 364.882 283.192 365.176 282.672C365.482 282.152 365.896 281.759 366.416 281.492C366.936 281.212 367.509 281.072 368.136 281.072C368.282 281.072 368.429 281.086 368.576 281.112C368.736 281.126 368.869 281.146 368.976 281.172V282.252C368.869 282.226 368.742 282.212 368.596 282.212C368.449 282.199 368.336 282.192 368.256 282.192C367.562 282.192 367.002 282.392 366.576 282.792C366.149 283.179 365.936 283.772 365.936 284.572V285.592H368.576V286.732H365.936V296.212H364.736ZM375.763 296.452C374.75 296.452 373.836 296.212 373.023 295.732C372.21 295.252 371.563 294.592 371.083 293.752C370.616 292.899 370.383 291.946 370.383 290.892C370.383 289.839 370.616 288.892 371.083 288.052C371.563 287.212 372.203 286.552 373.003 286.072C373.816 285.592 374.736 285.352 375.763 285.352C376.776 285.352 377.69 285.592 378.503 286.072C379.316 286.552 379.956 287.212 380.423 288.052C380.89 288.879 381.123 289.826 381.123 290.892C381.123 291.959 380.883 292.912 380.403 293.752C379.923 294.592 379.276 295.252 378.463 295.732C377.663 296.212 376.763 296.452 375.763 296.452ZM375.763 295.272C376.523 295.272 377.21 295.086 377.823 294.712C378.45 294.326 378.943 293.799 379.303 293.132C379.663 292.466 379.843 291.719 379.843 290.892C379.843 290.066 379.663 289.326 379.303 288.672C378.943 288.019 378.456 287.499 377.843 287.112C377.23 286.726 376.536 286.532 375.763 286.532C374.99 286.532 374.29 286.726 373.663 287.112C373.05 287.486 372.563 288.006 372.203 288.672C371.843 289.326 371.663 290.066 371.663 290.892C371.663 291.719 371.843 292.466 372.203 293.132C372.576 293.799 373.07 294.326 373.683 294.712C374.296 295.086 374.99 295.272 375.763 295.272ZM384.007 296.212V285.592H385.207V287.572L384.987 287.392C385.213 286.792 385.6 286.319 386.147 285.972C386.707 285.626 387.367 285.452 388.127 285.452H388.807V286.652H387.987C387.12 286.652 386.44 286.932 385.947 287.492C385.453 288.039 385.207 288.779 385.207 289.712V296.212H384.007ZM397.125 296.452C396.458 296.452 395.865 296.326 395.345 296.072C394.825 295.819 394.411 295.466 394.105 295.012C393.798 294.559 393.645 294.039 393.645 293.452C393.645 292.932 393.758 292.446 393.985 291.992C394.211 291.539 394.578 291.152 395.085 290.832C395.591 290.499 396.251 290.266 397.065 290.132L401.365 289.412V290.532L397.385 291.192C396.478 291.339 395.838 291.612 395.465 292.012C395.091 292.412 394.905 292.879 394.905 293.412C394.905 293.986 395.118 294.452 395.545 294.812C395.985 295.172 396.538 295.352 397.205 295.352C397.978 295.352 398.651 295.179 399.225 294.832C399.798 294.472 400.245 294.006 400.565 293.432C400.885 292.846 401.045 292.206 401.045 291.512V288.872C401.045 288.166 400.791 287.592 400.285 287.152C399.778 286.712 399.118 286.492 398.305 286.492C397.638 286.492 397.038 286.659 396.505 286.992C395.971 287.326 395.565 287.759 395.285 288.292L394.205 287.712C394.405 287.286 394.711 286.892 395.125 286.532C395.538 286.172 396.018 285.886 396.565 285.672C397.111 285.459 397.691 285.352 398.305 285.352C399.078 285.352 399.758 285.506 400.345 285.812C400.945 286.106 401.411 286.519 401.745 287.052C402.078 287.572 402.245 288.179 402.245 288.872V296.212H401.045V293.992L401.185 294.092C401.011 294.519 400.725 294.912 400.325 295.272C399.925 295.619 399.451 295.906 398.905 296.132C398.371 296.346 397.778 296.452 397.125 296.452ZM405.55 296.212V281.072H406.75V296.212H405.55ZM410.042 296.212V281.072H411.242V296.212H410.042ZM418.055 296.212V281.312H423.055C424.001 281.312 424.835 281.499 425.555 281.872C426.275 282.246 426.835 282.772 427.235 283.452C427.648 284.132 427.855 284.919 427.855 285.812C427.855 286.706 427.648 287.492 427.235 288.172C426.835 288.839 426.275 289.366 425.555 289.752C424.848 290.126 424.015 290.312 423.055 290.312H419.355V296.212H418.055ZM419.355 289.112H423.095C423.775 289.112 424.375 288.979 424.895 288.712C425.415 288.432 425.821 288.046 426.115 287.552C426.408 287.046 426.555 286.459 426.555 285.792C426.555 285.126 426.408 284.552 426.115 284.072C425.821 283.579 425.415 283.199 424.895 282.932C424.375 282.652 423.775 282.512 423.095 282.512H419.355V289.112ZM435.06 296.452C434.047 296.452 433.133 296.212 432.32 295.732C431.507 295.252 430.86 294.592 430.38 293.752C429.913 292.899 429.68 291.946 429.68 290.892C429.68 289.839 429.913 288.892 430.38 288.052C430.86 287.212 431.5 286.552 432.3 286.072C433.113 285.592 434.033 285.352 435.06 285.352C436.073 285.352 436.987 285.592 437.8 286.072C438.613 286.552 439.253 287.212 439.72 288.052C440.187 288.879 440.42 289.826 440.42 290.892C440.42 291.959 440.18 292.912 439.7 293.752C439.22 294.592 438.573 295.252 437.76 295.732C436.96 296.212 436.06 296.452 435.06 296.452ZM435.06 295.272C435.82 295.272 436.507 295.086 437.12 294.712C437.747 294.326 438.24 293.799 438.6 293.132C438.96 292.466 439.14 291.719 439.14 290.892C439.14 290.066 438.96 289.326 438.6 288.672C438.24 288.019 437.753 287.499 437.14 287.112C436.527 286.726 435.833 286.532 435.06 286.532C434.287 286.532 433.587 286.726 432.96 287.112C432.347 287.486 431.86 288.006 431.5 288.672C431.14 289.326 430.96 290.066 430.96 290.892C430.96 291.719 431.14 292.466 431.5 293.132C431.873 293.799 432.367 294.326 432.98 294.712C433.593 295.086 434.287 295.272 435.06 295.272ZM448.244 296.452C447.23 296.452 446.317 296.212 445.504 295.732C444.69 295.252 444.044 294.592 443.564 293.752C443.097 292.899 442.864 291.946 442.864 290.892C442.864 289.839 443.097 288.892 443.564 288.052C444.044 287.212 444.684 286.552 445.484 286.072C446.297 285.592 447.217 285.352 448.244 285.352C449.257 285.352 450.17 285.592 450.984 286.072C451.797 286.552 452.437 287.212 452.904 288.052C453.37 288.879 453.604 289.826 453.604 290.892C453.604 291.959 453.364 292.912 452.884 293.752C452.404 294.592 451.757 295.252 450.944 295.732C450.144 296.212 449.244 296.452 448.244 296.452ZM448.244 295.272C449.004 295.272 449.69 295.086 450.304 294.712C450.93 294.326 451.424 293.799 451.784 293.132C452.144 292.466 452.324 291.719 452.324 290.892C452.324 290.066 452.144 289.326 451.784 288.672C451.424 288.019 450.937 287.499 450.324 287.112C449.71 286.726 449.017 286.532 448.244 286.532C447.47 286.532 446.77 286.726 446.144 287.112C445.53 287.486 445.044 288.006 444.684 288.672C444.324 289.326 444.144 290.066 444.144 290.892C444.144 291.719 444.324 292.466 444.684 293.132C445.057 293.799 445.55 294.326 446.164 294.712C446.777 295.086 447.47 295.272 448.244 295.272ZM456.487 296.212V281.072H457.687V296.212H456.487ZM464.559 296.452C463.573 296.452 462.706 296.206 461.959 295.712C461.213 295.219 460.666 294.546 460.319 293.692L461.359 293.212C461.693 293.866 462.139 294.386 462.699 294.772C463.259 295.146 463.879 295.332 464.559 295.332C465.253 295.332 465.833 295.166 466.299 294.832C466.779 294.486 467.019 294.032 467.019 293.472C467.019 293.126 466.926 292.832 466.739 292.592C466.566 292.352 466.339 292.159 466.059 292.012C465.779 291.852 465.479 291.732 465.159 291.652L463.519 291.192C462.599 290.939 461.919 290.566 461.479 290.072C461.053 289.579 460.839 288.999 460.839 288.332C460.839 287.732 460.993 287.212 461.299 286.772C461.606 286.319 462.019 285.972 462.539 285.732C463.059 285.479 463.633 285.352 464.259 285.352C465.139 285.352 465.939 285.579 466.659 286.032C467.379 286.486 467.886 287.099 468.179 287.872L467.099 288.372C466.819 287.772 466.426 287.306 465.919 286.972C465.413 286.626 464.853 286.452 464.239 286.452C463.599 286.452 463.079 286.626 462.679 286.972C462.279 287.306 462.079 287.732 462.079 288.252C462.079 288.586 462.159 288.866 462.319 289.092C462.479 289.306 462.686 289.486 462.939 289.632C463.206 289.766 463.479 289.872 463.759 289.952L465.539 290.472C466.406 290.712 467.073 291.092 467.539 291.612C468.019 292.132 468.259 292.746 468.259 293.452C468.259 294.026 468.099 294.539 467.779 294.992C467.459 295.446 467.019 295.806 466.459 296.072C465.899 296.326 465.266 296.452 464.559 296.452ZM469.876 298.912C470.836 297.579 471.569 296.159 472.076 294.652C472.582 293.132 472.836 291.612 472.836 290.092C472.836 288.546 472.582 287.019 472.076 285.512C471.569 284.006 470.836 282.606 469.876 281.312H471.036C472.049 282.472 472.816 283.799 473.336 285.292C473.869 286.786 474.136 288.386 474.136 290.092C474.136 291.746 473.876 293.332 473.356 294.852C472.836 296.372 472.062 297.726 471.036 298.912H469.876Z" fill="#262626"/>
<g filter="url(#filter1_d_24_1575)">
<rect x="278.33" y="72.4736" width="151.285" height="53.1008" rx="20" fill="url(#paint0_linear_24_1575)"/>
</g>
<g filter="url(#filter2_d_24_1575)">
<path d="M308.458 108.492C307.711 108.492 307.007 108.359 306.346 108.092C305.695 107.815 305.13 107.426 304.65 106.924C304.18 106.423 303.828 105.831 303.594 105.148L305.626 104.236C305.924 104.887 306.335 105.399 306.858 105.772C307.391 106.146 307.978 106.332 308.618 106.332C308.959 106.332 309.252 106.279 309.498 106.172C309.743 106.066 309.935 105.922 310.074 105.74C310.212 105.548 310.282 105.324 310.282 105.068C310.282 104.791 310.196 104.556 310.026 104.364C309.855 104.162 309.588 104.002 309.226 103.884L306.89 103.116C305.94 102.807 305.226 102.37 304.746 101.804C304.266 101.228 304.026 100.54 304.026 99.7403C304.026 99.0363 304.196 98.4176 304.538 97.8843C304.89 97.351 305.375 96.935 305.994 96.6363C306.623 96.3376 307.343 96.1883 308.154 96.1883C308.868 96.1883 309.53 96.311 310.138 96.5563C310.746 96.8016 311.268 97.1483 311.706 97.5963C312.154 98.0443 312.49 98.583 312.714 99.2123L310.698 100.124C310.474 99.5696 310.138 99.1376 309.69 98.8283C309.242 98.5083 308.73 98.3483 308.154 98.3483C307.823 98.3483 307.53 98.4016 307.274 98.5083C307.018 98.615 306.82 98.7696 306.682 98.9723C306.543 99.1643 306.474 99.3883 306.474 99.6443C306.474 99.9216 306.564 100.167 306.746 100.38C306.927 100.583 307.199 100.743 307.562 100.86L309.85 101.596C310.81 101.906 311.524 102.338 311.994 102.892C312.474 103.447 312.714 104.124 312.714 104.924C312.714 105.618 312.532 106.236 312.17 106.78C311.807 107.314 311.306 107.735 310.666 108.044C310.036 108.343 309.3 108.492 308.458 108.492ZM317.681 108.3V96.3803H322.257C323.079 96.3803 323.804 96.5243 324.433 96.8123C325.073 97.1003 325.575 97.527 325.937 98.0923C326.3 98.6576 326.481 99.3563 326.481 100.188C326.481 100.999 326.295 101.687 325.921 102.252C325.559 102.818 325.057 103.25 324.417 103.548C323.788 103.836 323.068 103.98 322.257 103.98H320.161V108.3H317.681ZM320.161 101.82H322.273C322.625 101.82 322.929 101.751 323.185 101.612C323.441 101.474 323.639 101.282 323.777 101.036C323.927 100.791 324.001 100.508 324.001 100.188C324.001 99.8576 323.927 99.5696 323.777 99.3243C323.639 99.079 323.441 98.887 323.185 98.7483C322.929 98.6096 322.625 98.5403 322.273 98.5403H320.161V101.82ZM337.24 108.492C336.344 108.492 335.512 108.338 334.744 108.028C333.976 107.719 333.304 107.287 332.728 106.732C332.162 106.167 331.72 105.511 331.4 104.764C331.08 104.018 330.92 103.207 330.92 102.332C330.92 101.458 331.074 100.647 331.384 99.9003C331.704 99.1536 332.146 98.503 332.712 97.9483C333.288 97.3936 333.96 96.9616 334.728 96.6523C335.496 96.343 336.333 96.1883 337.24 96.1883C338.146 96.1883 338.984 96.343 339.752 96.6523C340.52 96.9616 341.186 97.3936 341.752 97.9483C342.328 98.503 342.77 99.1536 343.08 99.9003C343.4 100.647 343.56 101.458 343.56 102.332C343.56 103.207 343.4 104.018 343.08 104.764C342.76 105.511 342.312 106.167 341.736 106.732C341.17 107.287 340.504 107.719 339.736 108.028C338.968 108.338 338.136 108.492 337.24 108.492ZM337.24 106.252C337.784 106.252 338.285 106.156 338.744 105.964C339.213 105.772 339.624 105.506 339.976 105.164C340.328 104.812 340.6 104.396 340.792 103.916C340.984 103.436 341.08 102.908 341.08 102.332C341.08 101.756 340.984 101.234 340.792 100.764C340.6 100.284 340.328 99.8683 339.976 99.5163C339.624 99.1643 339.213 98.8976 338.744 98.7163C338.285 98.5243 337.784 98.4283 337.24 98.4283C336.696 98.4283 336.189 98.5243 335.72 98.7163C335.261 98.8976 334.856 99.1643 334.504 99.5163C334.152 99.8683 333.88 100.284 333.688 100.764C333.496 101.234 333.4 101.756 333.4 102.332C333.4 102.908 333.496 103.436 333.688 103.916C333.88 104.396 334.152 104.812 334.504 105.164C334.856 105.506 335.261 105.772 335.72 105.964C336.189 106.156 336.696 106.252 337.24 106.252ZM348.519 108.3V96.3803H350.423L356.823 104.812L355.799 105.052V96.3803H358.279V108.3H356.359L350.071 99.8043L350.999 99.5643V108.3H348.519ZM367.93 108.492C367.183 108.492 366.479 108.359 365.818 108.092C365.167 107.815 364.602 107.426 364.122 106.924C363.652 106.423 363.3 105.831 363.066 105.148L365.098 104.236C365.396 104.887 365.807 105.399 366.33 105.772C366.863 106.146 367.45 106.332 368.09 106.332C368.431 106.332 368.724 106.279 368.97 106.172C369.215 106.066 369.407 105.922 369.546 105.74C369.684 105.548 369.754 105.324 369.754 105.068C369.754 104.791 369.668 104.556 369.498 104.364C369.327 104.162 369.06 104.002 368.698 103.884L366.362 103.116C365.412 102.807 364.698 102.37 364.218 101.804C363.738 101.228 363.498 100.54 363.498 99.7403C363.498 99.0363 363.668 98.4176 364.01 97.8843C364.362 97.351 364.847 96.935 365.466 96.6363C366.095 96.3376 366.815 96.1883 367.626 96.1883C368.34 96.1883 369.002 96.311 369.61 96.5563C370.218 96.8016 370.74 97.1483 371.178 97.5963C371.626 98.0443 371.962 98.583 372.186 99.2123L370.17 100.124C369.946 99.5696 369.61 99.1376 369.162 98.8283C368.714 98.5083 368.202 98.3483 367.626 98.3483C367.295 98.3483 367.002 98.4016 366.746 98.5083C366.49 98.615 366.292 98.7696 366.154 98.9723C366.015 99.1643 365.946 99.3883 365.946 99.6443C365.946 99.9216 366.036 100.167 366.218 100.38C366.399 100.583 366.671 100.743 367.034 100.86L369.322 101.596C370.282 101.906 370.996 102.338 371.466 102.892C371.946 103.447 372.186 104.124 372.186 104.924C372.186 105.618 372.004 106.236 371.642 106.78C371.279 107.314 370.778 107.735 370.138 108.044C369.508 108.343 368.772 108.492 367.93 108.492ZM383.121 108.492C382.225 108.492 381.393 108.338 380.625 108.028C379.857 107.719 379.185 107.287 378.609 106.732C378.044 106.167 377.601 105.511 377.281 104.764C376.961 104.018 376.801 103.207 376.801 102.332C376.801 101.458 376.956 100.647 377.265 99.9003C377.585 99.1536 378.028 98.503 378.593 97.9483C379.169 97.3936 379.841 96.9616 380.609 96.6523C381.377 96.343 382.214 96.1883 383.121 96.1883C384.028 96.1883 384.865 96.343 385.633 96.6523C386.401 96.9616 387.068 97.3936 387.633 97.9483C388.209 98.503 388.652 99.1536 388.961 99.9003C389.281 100.647 389.441 101.458 389.441 102.332C389.441 103.207 389.281 104.018 388.961 104.764C388.641 105.511 388.193 106.167 387.617 106.732C387.052 107.287 386.385 107.719 385.617 108.028C384.849 108.338 384.017 108.492 383.121 108.492ZM383.121 106.252C383.665 106.252 384.166 106.156 384.625 105.964C385.094 105.772 385.505 105.506 385.857 105.164C386.209 104.812 386.481 104.396 386.673 103.916C386.865 103.436 386.961 102.908 386.961 102.332C386.961 101.756 386.865 101.234 386.673 100.764C386.481 100.284 386.209 99.8683 385.857 99.5163C385.505 99.1643 385.094 98.8976 384.625 98.7163C384.166 98.5243 383.665 98.4283 383.121 98.4283C382.577 98.4283 382.07 98.5243 381.601 98.7163C381.142 98.8976 380.737 99.1643 380.385 99.5163C380.033 99.8683 379.761 100.284 379.569 100.764C379.377 101.234 379.281 101.756 379.281 102.332C379.281 102.908 379.377 103.436 379.569 103.916C379.761 104.396 380.033 104.812 380.385 105.164C380.737 105.506 381.142 105.772 381.601 105.964C382.07 106.156 382.577 106.252 383.121 106.252ZM394.4 108.3V96.3803H398.96C399.781 96.3803 400.507 96.5243 401.136 96.8123C401.776 97.1003 402.277 97.527 402.64 98.0923C403.003 98.6576 403.184 99.3563 403.184 100.188C403.184 100.999 402.997 101.692 402.624 102.268C402.251 102.834 401.749 103.26 401.12 103.548L403.84 108.3H401.056L398.112 103.036L399.712 103.98H396.88V108.3H394.4ZM396.88 101.82H398.976C399.328 101.82 399.632 101.751 399.888 101.612C400.144 101.474 400.341 101.282 400.48 101.036C400.629 100.791 400.704 100.508 400.704 100.188C400.704 99.8576 400.629 99.5696 400.48 99.3243C400.341 99.079 400.144 98.887 399.888 98.7483C399.632 98.6096 399.328 98.5403 398.976 98.5403H396.88V101.82Z" fill="white"/>
</g>
<g filter="url(#filter3_d_24_1575)">
<rect x="214.062" y="172.573" width="105.763" height="56" rx="20" fill="#F0F0F0"/>
</g>
<path d="M244.792 209.763C243.845 209.763 242.992 209.583 242.232 209.223C241.485 208.863 240.859 208.39 240.352 207.803C239.859 207.217 239.505 206.583 239.292 205.903L240.452 205.483C240.825 206.497 241.379 207.27 242.112 207.803C242.859 208.337 243.745 208.603 244.772 208.603C245.452 208.603 246.045 208.49 246.552 208.263C247.072 208.037 247.479 207.717 247.772 207.303C248.065 206.89 248.212 206.403 248.212 205.843C248.212 205.07 247.992 204.47 247.552 204.043C247.125 203.617 246.565 203.31 245.872 203.123L243.152 202.323C242.045 202.003 241.225 201.49 240.692 200.783C240.172 200.063 239.912 199.25 239.912 198.343C239.912 197.557 240.099 196.87 240.472 196.283C240.859 195.683 241.379 195.217 242.032 194.883C242.685 194.55 243.425 194.383 244.252 194.383C245.119 194.383 245.892 194.55 246.572 194.883C247.265 195.203 247.845 195.63 248.312 196.163C248.792 196.683 249.132 197.263 249.332 197.903L248.192 198.323C247.859 197.403 247.345 196.71 246.652 196.243C245.959 195.763 245.165 195.523 244.272 195.523C243.685 195.523 243.159 195.637 242.692 195.863C242.225 196.09 241.859 196.41 241.592 196.823C241.325 197.237 241.192 197.723 241.192 198.283C241.192 198.963 241.385 199.543 241.772 200.023C242.159 200.503 242.805 200.883 243.712 201.163L246.152 201.883C247.219 202.203 248.039 202.697 248.612 203.363C249.199 204.017 249.492 204.823 249.492 205.783C249.492 206.57 249.292 207.263 248.892 207.863C248.492 208.45 247.932 208.917 247.212 209.263C246.505 209.597 245.699 209.763 244.792 209.763ZM244.092 211.523V192.623H245.252V211.523H244.092ZM255.364 209.523V208.723L259.544 204.123C260.371 203.217 261.051 202.463 261.584 201.863C262.131 201.25 262.538 200.683 262.804 200.163C263.084 199.643 263.224 199.077 263.224 198.463C263.224 197.53 262.944 196.81 262.384 196.303C261.838 195.783 261.078 195.523 260.104 195.523C259.158 195.523 258.364 195.797 257.724 196.343C257.084 196.89 256.651 197.65 256.424 198.623L255.244 198.363C255.431 197.523 255.751 196.81 256.204 196.223C256.658 195.623 257.218 195.17 257.884 194.863C258.551 194.543 259.291 194.383 260.104 194.383C260.958 194.383 261.711 194.557 262.364 194.903C263.031 195.237 263.558 195.71 263.944 196.323C264.331 196.937 264.524 197.65 264.524 198.463C264.524 199.063 264.391 199.643 264.124 200.203C263.871 200.763 263.498 201.35 263.004 201.963C262.524 202.577 261.918 203.277 261.184 204.063L257.264 208.363H264.844V209.523H255.364ZM268.062 209.523V207.523H269.422V209.523H268.062ZM277.55 209.763C276.75 209.763 276.01 209.617 275.33 209.323C274.65 209.017 274.07 208.59 273.59 208.043C273.123 207.497 272.783 206.85 272.57 206.103L273.65 205.683C273.917 206.603 274.397 207.323 275.09 207.843C275.797 208.35 276.617 208.603 277.55 208.603C278.27 208.603 278.897 208.443 279.43 208.123C279.977 207.803 280.403 207.363 280.71 206.803C281.017 206.23 281.17 205.59 281.17 204.883C281.17 204.177 281.01 203.55 280.69 203.003C280.37 202.443 279.937 202.01 279.39 201.703C278.857 201.383 278.25 201.223 277.57 201.223C276.863 201.223 276.217 201.39 275.63 201.723C275.043 202.043 274.617 202.423 274.35 202.863L273.29 202.643L274.39 194.623H281.87V195.763H274.85L275.39 195.403L274.51 201.803L274.09 201.603C274.49 201.07 275.003 200.677 275.63 200.423C276.27 200.157 276.937 200.023 277.63 200.023C278.563 200.023 279.39 200.243 280.11 200.683C280.843 201.11 281.417 201.69 281.83 202.423C282.257 203.157 282.47 203.977 282.47 204.883C282.47 205.817 282.257 206.65 281.83 207.383C281.417 208.117 280.837 208.697 280.09 209.123C279.357 209.55 278.51 209.763 277.55 209.763ZM285.616 209.523V194.623H286.716L292.276 202.903H291.736L297.316 194.623H298.416V209.523H297.116V196.523L297.436 196.703L292.036 204.763H291.976L286.576 196.703L286.916 196.523V209.523H285.616Z" fill="#262626"/>
<g filter="url(#filter4_d_24_1575)">
<path d="M269.137 175.923C270.609 175.923 271.803 174.729 271.803 173.256C271.803 171.784 270.609 170.59 269.137 170.59C267.664 170.59 266.47 171.784 266.47 173.256C266.47 174.729 267.664 175.923 269.137 175.923ZM269.637 173.256V150.023H268.637V173.256H269.637Z" fill="#262626"/>
</g>
<g filter="url(#filter5_d_24_1575)">
<rect x="393" y="172.573" width="105.763" height="56" rx="20" fill="#F0F0F0"/>
</g>
<path d="M422.73 209.763C421.783 209.763 420.93 209.583 420.17 209.223C419.423 208.863 418.796 208.39 418.29 207.803C417.796 207.217 417.443 206.583 417.23 205.903L418.39 205.483C418.763 206.497 419.316 207.27 420.05 207.803C420.796 208.337 421.683 208.603 422.71 208.603C423.39 208.603 423.983 208.49 424.49 208.263C425.01 208.037 425.416 207.717 425.71 207.303C426.003 206.89 426.15 206.403 426.15 205.843C426.15 205.07 425.93 204.47 425.49 204.043C425.063 203.617 424.503 203.31 423.81 203.123L421.09 202.323C419.983 202.003 419.163 201.49 418.63 200.783C418.11 200.063 417.85 199.25 417.85 198.343C417.85 197.557 418.036 196.87 418.41 196.283C418.796 195.683 419.316 195.217 419.97 194.883C420.623 194.55 421.363 194.383 422.19 194.383C423.056 194.383 423.83 194.55 424.51 194.883C425.203 195.203 425.783 195.63 426.25 196.163C426.73 196.683 427.07 197.263 427.27 197.903L426.13 198.323C425.796 197.403 425.283 196.71 424.59 196.243C423.896 195.763 423.103 195.523 422.21 195.523C421.623 195.523 421.096 195.637 420.63 195.863C420.163 196.09 419.796 196.41 419.53 196.823C419.263 197.237 419.13 197.723 419.13 198.283C419.13 198.963 419.323 199.543 419.71 200.023C420.096 200.503 420.743 200.883 421.65 201.163L424.09 201.883C425.156 202.203 425.976 202.697 426.55 203.363C427.136 204.017 427.43 204.823 427.43 205.783C427.43 206.57 427.23 207.263 426.83 207.863C426.43 208.45 425.87 208.917 425.15 209.263C424.443 209.597 423.636 209.763 422.73 209.763ZM422.03 211.523V192.623H423.19V211.523H422.03ZM433.302 209.523V208.723L437.482 204.123C438.309 203.217 438.989 202.463 439.522 201.863C440.069 201.25 440.475 200.683 440.742 200.163C441.022 199.643 441.162 199.077 441.162 198.463C441.162 197.53 440.882 196.81 440.322 196.303C439.775 195.783 439.015 195.523 438.042 195.523C437.095 195.523 436.302 195.797 435.662 196.343C435.022 196.89 434.589 197.65 434.362 198.623L433.182 198.363C433.369 197.523 433.689 196.81 434.142 196.223C434.595 195.623 435.155 195.17 435.822 194.863C436.489 194.543 437.229 194.383 438.042 194.383C438.895 194.383 439.649 194.557 440.302 194.903C440.969 195.237 441.495 195.71 441.882 196.323C442.269 196.937 442.462 197.65 442.462 198.463C442.462 199.063 442.329 199.643 442.062 200.203C441.809 200.763 441.435 201.35 440.942 201.963C440.462 202.577 439.855 203.277 439.122 204.063L435.202 208.363H442.782V209.523H433.302ZM445.999 209.523V207.523H447.359V209.523H445.999ZM455.487 209.763C454.687 209.763 453.947 209.617 453.267 209.323C452.587 209.017 452.007 208.59 451.527 208.043C451.061 207.497 450.721 206.85 450.507 206.103L451.587 205.683C451.854 206.603 452.334 207.323 453.027 207.843C453.734 208.35 454.554 208.603 455.487 208.603C456.207 208.603 456.834 208.443 457.367 208.123C457.914 207.803 458.341 207.363 458.647 206.803C458.954 206.23 459.107 205.59 459.107 204.883C459.107 204.177 458.947 203.55 458.627 203.003C458.307 202.443 457.874 202.01 457.327 201.703C456.794 201.383 456.187 201.223 455.507 201.223C454.801 201.223 454.154 201.39 453.567 201.723C452.981 202.043 452.554 202.423 452.287 202.863L451.227 202.643L452.327 194.623H459.807V195.763H452.787L453.327 195.403L452.447 201.803L452.027 201.603C452.427 201.07 452.941 200.677 453.567 200.423C454.207 200.157 454.874 200.023 455.567 200.023C456.501 200.023 457.327 200.243 458.047 200.683C458.781 201.11 459.354 201.69 459.767 202.423C460.194 203.157 460.407 203.977 460.407 204.883C460.407 205.817 460.194 206.65 459.767 207.383C459.354 208.117 458.774 208.697 458.027 209.123C457.294 209.55 456.447 209.763 455.487 209.763ZM463.554 209.523V194.623H464.654L470.214 202.903H469.674L475.254 194.623H476.354V209.523H475.054V196.523L475.374 196.703L469.974 204.763H469.914L464.514 196.703L464.854 196.523V209.523H463.554Z" fill="#262626"/>
<g filter="url(#filter6_d_24_1575)">
<path d="M447.074 175.923C448.547 175.923 449.741 174.729 449.741 173.256C449.741 171.784 448.547 170.59 447.074 170.59C445.601 170.59 444.408 171.784 444.408 173.256C444.408 174.729 445.601 175.923 447.074 175.923ZM447.574 173.256V150.023H446.574V173.256H447.574Z" fill="#262626"/>
</g>
<path d="M447 150.523L269 150.523" stroke="#262626" stroke-width="3" stroke-linecap="round"/>
<path d="M356.73 127.474L356.73 150.024" stroke="#262626" stroke-width="3" stroke-linecap="round"/>
<defs>
<filter id="filter0_d_24_1575" x="0" y="0" width="696.126" height="327.226" filterUnits="userSpaceOnUse" color-interpolation-filters="sRGB">
<feFlood flood-opacity="0" result="BackgroundImageFix"/>
<feColorMatrix in="SourceAlpha" type="matrix" values="0 0 0 0 0 0 0 0 0 0 0 0 0 0 0 0 0 0 127 0" result="hardAlpha"/>
<feOffset dy="4"/>
<feGaussianBlur stdDeviation="5"/>
<feComposite in2="hardAlpha" operator="out"/>
<feColorMatrix type="matrix" values="0 0 0 0 0 0 0 0 0 0 0 0 0 0 0 0 0 0 0.25 0"/>
<feBlend mode="normal" in2="BackgroundImageFix" result="effect1_dropShadow_24_1575"/>
<feBlend mode="normal" in="SourceGraphic" in2="effect1_dropShadow_24_1575" result="shape"/>
</filter>
<filter id="filter1_d_24_1575" x="273.33" y="71.4736" width="163.284" height="65.1006" filterUnits="userSpaceOnUse" color-interpolation-filters="sRGB">
<feFlood flood-opacity="0" result="BackgroundImageFix"/>
<feColorMatrix in="SourceAlpha" type="matrix" values="0 0 0 0 0 0 0 0 0 0 0 0 0 0 0 0 0 0 127 0" result="hardAlpha"/>
<feMorphology radius="1" operator="dilate" in="SourceAlpha" result="effect1_dropShadow_24_1575"/>
<feOffset dx="1" dy="5"/>
<feGaussianBlur stdDeviation="2.5"/>
<feComposite in2="hardAlpha" operator="out"/>
<feColorMatrix type="matrix" values="0 0 0 0 0 0 0 0 0 0 0 0 0 0 0 0 0 0 0.25 0"/>
<feBlend mode="normal" in2="BackgroundImageFix" result="effect1_dropShadow_24_1575"/>
<feBlend mode="normal" in="SourceGraphic" in2="effect1_dropShadow_24_1575" result="shape"/>
</filter>
<filter id="filter2_d_24_1575" x="299.594" y="96.1885" width="108.246" height="20.3037" filterUnits="userSpaceOnUse" color-interpolation-filters="sRGB">
<feFlood flood-opacity="0" result="BackgroundImageFix"/>
<feColorMatrix in="SourceAlpha" type="matrix" values="0 0 0 0 0 0 0 0 0 0 0 0 0 0 0 0 0 0 127 0" result="hardAlpha"/>
<feOffset dy="4"/>
<feGaussianBlur stdDeviation="2"/>
<feComposite in2="hardAlpha" operator="out"/>
<feColorMatrix type="matrix" values="0 0 0 0 0 0 0 0 0 0 0 0 0 0 0 0 0 0 0.25 0"/>
<feBlend mode="normal" in2="BackgroundImageFix" result="effect1_dropShadow_24_1575"/>
<feBlend mode="normal" in="SourceGraphic" in2="effect1_dropShadow_24_1575" result="shape"/>
</filter>
<filter id="filter3_d_24_1575" x="209.062" y="171.573" width="117.764" height="68" filterUnits="userSpaceOnUse" color-interpolation-filters="sRGB">
<feFlood flood-opacity="0" result="BackgroundImageFix"/>
<feColorMatrix in="SourceAlpha" type="matrix" values="0 0 0 0 0 0 0 0 0 0 0 0 0 0 0 0 0 0 127 0" result="hardAlpha"/>
<feMorphology radius="1" operator="dilate" in="SourceAlpha" result="effect1_dropShadow_24_1575"/>
<feOffset dx="1" dy="5"/>
<feGaussianBlur stdDeviation="2.5"/>
<feComposite in2="hardAlpha" operator="out"/>
<feColorMatrix type="matrix" values="0 0 0 0 0 0 0 0 0 0 0 0 0 0 0 0 0 0 0.25 0"/>
<feBlend mode="normal" in2="BackgroundImageFix" result="effect1_dropShadow_24_1575"/>
<feBlend mode="normal" in="SourceGraphic" in2="effect1_dropShadow_24_1575" result="shape"/>
</filter>
<filter id="filter4_d_24_1575" x="262.47" y="150.023" width="13.334" height="33.8999" filterUnits="userSpaceOnUse" color-interpolation-filters="sRGB">
<feFlood flood-opacity="0" result="BackgroundImageFix"/>
<feColorMatrix in="SourceAlpha" type="matrix" values="0 0 0 0 0 0 0 0 0 0 0 0 0 0 0 0 0 0 127 0" result="hardAlpha"/>
<feOffset dy="4"/>
<feGaussianBlur stdDeviation="2"/>
<feComposite in2="hardAlpha" operator="out"/>
<feColorMatrix type="matrix" values="0 0 0 0 0 0 0 0 0 0 0 0 0 0 0 0 0 0 0.25 0"/>
<feBlend mode="normal" in2="BackgroundImageFix" result="effect1_dropShadow_24_1575"/>
<feBlend mode="normal" in="SourceGraphic" in2="effect1_dropShadow_24_1575" result="shape"/>
</filter>
<filter id="filter5_d_24_1575" x="388" y="171.573" width="117.764" height="68" filterUnits="userSpaceOnUse" color-interpolation-filters="sRGB">
<feFlood flood-opacity="0" result="BackgroundImageFix"/>
<feColorMatrix in="SourceAlpha" type="matrix" values="0 0 0 0 0 0 0 0 0 0 0 0 0 0 0 0 0 0 127 0" result="hardAlpha"/>
<feMorphology radius="1" operator="dilate" in="SourceAlpha" result="effect1_dropShadow_24_1575"/>
<feOffset dx="1" dy="5"/>
<feGaussianBlur stdDeviation="2.5"/>
<feComposite in2="hardAlpha" operator="out"/>
<feColorMatrix type="matrix" values="0 0 0 0 0 0 0 0 0 0 0 0 0 0 0 0 0 0 0.25 0"/>
<feBlend mode="normal" in2="BackgroundImageFix" result="effect1_dropShadow_24_1575"/>
<feBlend mode="normal" in="SourceGraphic" in2="effect1_dropShadow_24_1575" result="shape"/>
</filter>
<filter id="filter6_d_24_1575" x="440.407" y="150.023" width="13.334" height="33.8999" filterUnits="userSpaceOnUse" color-interpolation-filters="sRGB">
<feFlood flood-opacity="0" result="BackgroundImageFix"/>
<feColorMatrix in="SourceAlpha" type="matrix" values="0 0 0 0 0 0 0 0 0 0 0 0 0 0 0 0 0 0 127 0" result="hardAlpha"/>
<feOffset dy="4"/>
<feGaussianBlur stdDeviation="2"/>
<feComposite in2="hardAlpha" operator="out"/>
<feColorMatrix type="matrix" values="0 0 0 0 0 0 0 0 0 0 0 0 0 0 0 0 0 0 0.25 0"/>
<feBlend mode="normal" in2="BackgroundImageFix" result="effect1_dropShadow_24_1575"/>
<feBlend mode="normal" in="SourceGraphic" in2="effect1_dropShadow_24_1575" result="shape"/>
</filter>
<linearGradient id="paint0_linear_24_1575" x1="389.327" y1="83.0938" x2="319.902" y2="86.0726" gradientUnits="userSpaceOnUse">
<stop stop-color="#F27052"/>
<stop offset="1" stop-color="#FF7A00"/>
</linearGradient>
</defs>
</svg>
