<svg width="697" height="344" viewBox="0 0 697 344" fill="none" xmlns="http://www.w3.org/2000/svg">
<g filter="url(#filter0_d_1_304)">
<rect x="10.874" y="6" width="676.126" height="324" rx="50" fill="white"/>
</g>
<path d="M247.169 41.048V44H238.025V31.076H247.043V34.028H241.427V35.882H246.521V38.834H241.427V41.048H247.169ZM252.429 44H248.973L252.105 39.086L249.189 34.316H252.771L254.391 37.394L256.011 34.316H259.269L256.407 39.212L259.503 44H255.993L254.175 40.832L252.429 44ZM267.304 44V43.064C266.62 43.838 265.774 44.18 264.532 44.18C262.516 44.18 261.166 42.974 261.166 41.138C261.166 39.248 262.696 38.222 265.468 38.222C265.99 38.222 266.476 38.258 266.89 38.33V37.862C266.89 37.016 266.404 36.548 265.54 36.548C264.694 36.548 264.19 37.016 264.082 37.862H261.31C261.49 35.612 263.164 34.136 265.558 34.136C268.222 34.136 269.788 35.576 269.788 38.024V44H267.304ZM264.064 41.048C264.064 41.678 264.496 42.056 265.252 42.056C266.278 42.056 266.89 41.57 266.89 40.778V40.166C266.422 40.076 266.062 40.04 265.666 40.04C264.622 40.04 264.064 40.382 264.064 41.048ZM275.684 44H272.606V34.316H275.432V35.504C276.17 34.64 276.962 34.136 278.222 34.136C279.446 34.136 280.418 34.658 280.958 35.63C281.786 34.694 282.65 34.136 284.072 34.136C285.998 34.136 287.348 35.414 287.348 37.772V44H284.27V38.726C284.27 37.61 283.82 36.908 282.938 36.908C282.164 36.908 281.516 37.448 281.516 38.744V44H278.438V38.726C278.438 37.61 277.988 36.908 277.106 36.908C276.314 36.908 275.684 37.448 275.684 38.744V44ZM300.196 39.158C300.196 41.966 298.486 44.18 295.876 44.18C294.868 44.18 294.004 43.82 293.248 43.1V47.474H290.17V34.316H292.996V35.414C293.788 34.586 294.742 34.136 295.876 34.136C298.486 34.136 300.196 36.386 300.196 39.158ZM296.992 39.158C296.992 37.646 296.074 36.908 295.138 36.908C294.184 36.908 293.284 37.646 293.284 39.176C293.284 40.724 294.202 41.408 295.138 41.408C296.074 41.408 296.992 40.706 296.992 39.158ZM305.61 44H302.496V31.076H305.61V44ZM312.903 44.162C309.915 44.162 307.917 42.146 307.917 39.14C307.917 36.242 310.005 34.136 312.885 34.136C316.089 34.136 318.231 36.746 317.673 39.932H311.103C311.265 41.156 311.841 41.768 312.831 41.768C313.695 41.768 314.271 41.408 314.541 40.706H317.619C317.025 42.92 315.315 44.162 312.903 44.162ZM312.813 36.404C311.895 36.404 311.355 36.926 311.139 38.006H314.379C314.343 37.034 313.731 36.404 312.813 36.404ZM334.409 41.84H332.663V44H329.585V41.84H323.861V39.518L330.143 31.832H332.663V39.14H334.409V41.84ZM327.209 39.14H329.585V36.152L327.209 39.14ZM346.24 40.454H340.84V37.682H346.24V40.454ZM362.032 44L361.24 41.606H356.704L355.894 44H352.456L357.244 31.076H360.97L365.704 44H362.032ZM359.008 34.82L357.622 38.924H360.358L359.008 34.82ZM377.633 31.076L373.025 44H369.317L364.745 31.076H368.435L371.279 40.022L374.213 31.076H377.633ZM388.951 41.048V44H379.807V31.076H388.825V34.028H383.209V35.882H388.303V38.834H383.209V41.048H388.951ZM400.061 44L394.913 35.936V44H391.799V31.076H395.453L400.223 38.546V31.076H403.337V44H400.061ZM413.133 44H409.731V34.154H405.771V31.076H417.093V34.154H413.133V44ZM426.878 44L426.086 41.606H421.55L420.74 44H417.302L422.09 31.076H425.816L430.55 44H426.878ZM423.854 34.82L422.468 38.924H425.204L423.854 34.82ZM437.859 44H432.819V31.076H437.859C441.945 31.076 444.519 33.704 444.519 37.466C444.519 41.228 441.855 44 437.859 44ZM436.221 34.01V41.066H437.661C439.911 41.066 441.027 39.896 441.027 37.466C441.027 35.18 439.875 34.01 437.661 34.01H436.221ZM453.088 44.27C449.362 44.27 446.428 41.444 446.428 37.52C446.428 33.596 449.362 30.806 453.088 30.806C456.832 30.806 459.766 33.596 459.766 37.52C459.766 41.444 456.832 44.27 453.088 44.27ZM453.088 41.228C455.122 41.228 456.256 39.554 456.256 37.52C456.256 35.486 455.122 33.848 453.088 33.848C451.054 33.848 449.92 35.486 449.92 37.52C449.92 39.554 451.054 41.228 453.088 41.228ZM465.83 44H462.428V31.076H467.72C471.212 31.076 473.21 32.642 473.21 35.396C473.21 37.052 472.22 38.42 470.474 39.158L473.642 44H469.592L466.946 39.698H465.83V44ZM465.83 33.884V36.89H467.576C469.088 36.89 469.79 36.422 469.79 35.396C469.79 34.37 469.088 33.884 467.576 33.884H465.83Z" fill="url(#paint0_linear_1_304)"/>
<path d="M118.133 263.2V277H116.373V263.2H118.133ZM122.593 263.2V264.76H111.933V263.2H122.593ZM130.554 267.02C132.314 267.02 133.194 267.913 133.194 269.7V277H131.474V270.18C131.474 269.527 131.368 269.08 131.154 268.84C130.954 268.587 130.601 268.46 130.094 268.46C129.494 268.46 128.894 268.6 128.294 268.88C127.694 269.16 126.981 269.567 126.154 270.1L126.074 268.88C126.834 268.307 127.588 267.853 128.334 267.52C129.081 267.187 129.821 267.02 130.554 267.02ZM126.334 263L126.354 266.86C126.354 267.3 126.334 267.713 126.294 268.1C126.268 268.487 126.221 268.827 126.154 269.12L126.334 269.42V277H124.634V263H126.334ZM140.255 267.02C141.722 267.02 142.782 267.287 143.435 267.82C144.102 268.353 144.435 269.147 144.435 270.2C144.449 271.067 144.269 271.747 143.895 272.24C143.522 272.72 142.929 272.96 142.115 272.96H136.435V271.64H141.675C142.115 271.64 142.402 271.493 142.535 271.2C142.669 270.893 142.735 270.56 142.735 270.2C142.722 269.573 142.535 269.127 142.175 268.86C141.815 268.593 141.202 268.46 140.335 268.46C139.629 268.46 139.069 268.567 138.655 268.78C138.255 268.98 137.969 269.34 137.795 269.86C137.635 270.367 137.555 271.08 137.555 272C137.555 273.04 137.655 273.833 137.855 274.38C138.069 274.927 138.402 275.3 138.855 275.5C139.309 275.7 139.909 275.8 140.655 275.8C141.175 275.8 141.742 275.78 142.355 275.74C142.982 275.687 143.542 275.627 144.035 275.56L144.215 276.7C143.909 276.82 143.529 276.92 143.075 277C142.635 277.08 142.175 277.14 141.695 277.18C141.229 277.22 140.809 277.24 140.435 277.24C139.315 277.24 138.415 277.073 137.735 276.74C137.055 276.393 136.555 275.847 136.235 275.1C135.929 274.34 135.775 273.34 135.775 272.1C135.775 270.82 135.929 269.813 136.235 269.08C136.555 268.333 137.042 267.807 137.695 267.5C138.362 267.18 139.215 267.02 140.255 267.02ZM153.539 264.38V274.32C153.539 274.787 153.639 275.12 153.839 275.32C154.039 275.52 154.379 275.62 154.859 275.62H156.339L156.539 276.92C156.326 276.973 156.079 277.02 155.799 277.06C155.519 277.1 155.246 277.127 154.979 277.14C154.712 277.167 154.499 277.18 154.339 277.18C153.526 277.18 152.906 276.953 152.479 276.5C152.052 276.047 151.839 275.393 151.839 274.54V264.38H153.539ZM156.639 267.26V268.6H150.079V267.36L151.999 267.26H156.639ZM162.836 267.02C163.956 267.02 164.85 267.187 165.516 267.52C166.196 267.853 166.683 268.4 166.976 269.16C167.27 269.907 167.416 270.9 167.416 272.14C167.416 273.38 167.27 274.38 166.976 275.14C166.683 275.887 166.196 276.427 165.516 276.76C164.85 277.093 163.956 277.26 162.836 277.26C161.73 277.26 160.836 277.093 160.156 276.76C159.49 276.427 159.003 275.887 158.696 275.14C158.403 274.38 158.256 273.38 158.256 272.14C158.256 270.9 158.403 269.907 158.696 269.16C159.003 268.4 159.49 267.853 160.156 267.52C160.836 267.187 161.73 267.02 162.836 267.02ZM162.836 268.46C162.13 268.46 161.57 268.573 161.156 268.8C160.756 269.013 160.47 269.387 160.296 269.92C160.123 270.453 160.036 271.193 160.036 272.14C160.036 273.087 160.123 273.827 160.296 274.36C160.47 274.893 160.756 275.273 161.156 275.5C161.57 275.713 162.13 275.82 162.836 275.82C163.543 275.82 164.103 275.713 164.516 275.5C164.93 275.273 165.223 274.893 165.396 274.36C165.57 273.827 165.656 273.087 165.656 272.14C165.656 271.193 165.57 270.453 165.396 269.92C165.223 269.387 164.93 269.013 164.516 268.8C164.103 268.573 163.543 268.46 162.836 268.46ZM172.504 264.38V274.32C172.504 274.787 172.604 275.12 172.804 275.32C173.004 275.52 173.344 275.62 173.824 275.62H175.304L175.504 276.92C175.291 276.973 175.044 277.02 174.764 277.06C174.484 277.1 174.211 277.127 173.944 277.14C173.677 277.167 173.464 277.18 173.304 277.18C172.491 277.18 171.871 276.953 171.444 276.5C171.017 276.047 170.804 275.393 170.804 274.54V264.38H172.504ZM175.604 267.26V268.6H169.044V267.36L170.964 267.26H175.604ZM182.281 267.02C183.001 267.02 183.608 267.12 184.101 267.32C184.608 267.507 184.988 267.827 185.241 268.28C185.494 268.733 185.621 269.353 185.621 270.14V277H184.281L184.021 274.88L183.901 274.66V270.14C183.901 269.54 183.761 269.113 183.481 268.86C183.214 268.593 182.694 268.46 181.921 268.46C181.414 268.46 180.774 268.487 180.001 268.54C179.241 268.593 178.488 268.653 177.741 268.72L177.581 267.46C178.034 267.38 178.528 267.307 179.061 267.24C179.608 267.173 180.161 267.12 180.721 267.08C181.281 267.04 181.801 267.02 182.281 267.02ZM184.821 271L184.801 272.28L180.141 272.3C179.674 272.313 179.348 272.44 179.161 272.68C178.974 272.907 178.881 273.227 178.881 273.64V274.26C178.881 274.767 179.001 275.14 179.241 275.38C179.481 275.607 179.868 275.72 180.401 275.72C180.774 275.72 181.194 275.653 181.661 275.52C182.141 275.373 182.621 275.153 183.101 274.86C183.581 274.567 184.021 274.193 184.421 273.74V275C184.274 275.187 184.061 275.407 183.781 275.66C183.514 275.9 183.188 276.14 182.801 276.38C182.428 276.607 182.008 276.8 181.541 276.96C181.088 277.107 180.594 277.18 180.061 277.18C179.488 277.18 178.981 277.08 178.541 276.88C178.101 276.667 177.754 276.36 177.501 275.96C177.261 275.547 177.141 275.047 177.141 274.46V273.4C177.141 272.64 177.374 272.053 177.841 271.64C178.321 271.213 178.988 271 179.841 271H184.821ZM190.378 263L190.358 274.32C190.358 274.747 190.471 275.073 190.698 275.3C190.938 275.513 191.271 275.62 191.698 275.62H192.638L192.838 276.92C192.718 276.973 192.544 277.02 192.318 277.06C192.104 277.1 191.878 277.127 191.638 277.14C191.411 277.167 191.218 277.18 191.058 277.18C190.338 277.18 189.758 276.967 189.318 276.54C188.891 276.113 188.678 275.5 188.678 274.7V263H190.378ZM200.629 264.38V274.32C200.629 274.787 200.729 275.12 200.929 275.32C201.129 275.52 201.469 275.62 201.949 275.62H203.429L203.629 276.92C203.416 276.973 203.169 277.02 202.889 277.06C202.609 277.1 202.336 277.127 202.069 277.14C201.802 277.167 201.589 277.18 201.429 277.18C200.616 277.18 199.996 276.953 199.569 276.5C199.142 276.047 198.929 275.393 198.929 274.54V264.38H200.629ZM203.729 267.26V268.6H197.169V267.36L199.089 267.26H203.729ZM209.806 267.02C211.273 267.02 212.333 267.287 212.986 267.82C213.653 268.353 213.986 269.147 213.986 270.2C213.999 271.067 213.819 271.747 213.446 272.24C213.073 272.72 212.479 272.96 211.666 272.96H205.986V271.64H211.226C211.666 271.64 211.953 271.493 212.086 271.2C212.219 270.893 212.286 270.56 212.286 270.2C212.273 269.573 212.086 269.127 211.726 268.86C211.366 268.593 210.753 268.46 209.886 268.46C209.179 268.46 208.619 268.567 208.206 268.78C207.806 268.98 207.519 269.34 207.346 269.86C207.186 270.367 207.106 271.08 207.106 272C207.106 273.04 207.206 273.833 207.406 274.38C207.619 274.927 207.953 275.3 208.406 275.5C208.859 275.7 209.459 275.8 210.206 275.8C210.726 275.8 211.293 275.78 211.906 275.74C212.533 275.687 213.093 275.627 213.586 275.56L213.766 276.7C213.459 276.82 213.079 276.92 212.626 277C212.186 277.08 211.726 277.14 211.246 277.18C210.779 277.22 210.359 277.24 209.986 277.24C208.866 277.24 207.966 277.073 207.286 276.74C206.606 276.393 206.106 275.847 205.786 275.1C205.479 274.34 205.326 273.34 205.326 272.1C205.326 270.82 205.479 269.813 205.786 269.08C206.106 268.333 206.593 267.807 207.246 267.5C207.913 267.18 208.766 267.02 209.806 267.02ZM221.148 267.02C221.868 267.02 222.475 267.12 222.968 267.32C223.475 267.507 223.855 267.827 224.108 268.28C224.362 268.733 224.488 269.353 224.488 270.14V277H223.148L222.888 274.88L222.768 274.66V270.14C222.768 269.54 222.628 269.113 222.348 268.86C222.082 268.593 221.562 268.46 220.788 268.46C220.282 268.46 219.642 268.487 218.868 268.54C218.108 268.593 217.355 268.653 216.608 268.72L216.448 267.46C216.902 267.38 217.395 267.307 217.928 267.24C218.475 267.173 219.028 267.12 219.588 267.08C220.148 267.04 220.668 267.02 221.148 267.02ZM223.688 271L223.668 272.28L219.008 272.3C218.542 272.313 218.215 272.44 218.028 272.68C217.842 272.907 217.748 273.227 217.748 273.64V274.26C217.748 274.767 217.868 275.14 218.108 275.38C218.348 275.607 218.735 275.72 219.268 275.72C219.642 275.72 220.062 275.653 220.528 275.52C221.008 275.373 221.488 275.153 221.968 274.86C222.448 274.567 222.888 274.193 223.288 273.74V275C223.142 275.187 222.928 275.407 222.648 275.66C222.382 275.9 222.055 276.14 221.668 276.38C221.295 276.607 220.875 276.8 220.408 276.96C219.955 277.107 219.462 277.18 218.928 277.18C218.355 277.18 217.848 277.08 217.408 276.88C216.968 276.667 216.622 276.36 216.368 275.96C216.128 275.547 216.008 275.047 216.008 274.46V273.4C216.008 272.64 216.242 272.053 216.708 271.64C217.188 271.213 217.855 271 218.708 271H223.688ZM239.385 267.02C240.225 267.02 240.865 267.247 241.305 267.7C241.758 268.153 241.985 268.82 241.985 269.7V277H240.305V270.18C240.292 269.58 240.172 269.147 239.945 268.88C239.718 268.6 239.332 268.46 238.785 268.46C238.438 268.46 238.105 268.52 237.785 268.64C237.478 268.747 237.138 268.92 236.765 269.16C236.392 269.4 235.938 269.713 235.405 270.1L235.305 268.9C236.012 268.273 236.698 267.807 237.365 267.5C238.032 267.18 238.705 267.02 239.385 267.02ZM228.925 267.26L229.045 269.12L229.225 269.42V277H227.525V267.26H228.925ZM233.005 267.02C233.832 267.02 234.465 267.247 234.905 267.7C235.345 268.14 235.572 268.807 235.585 269.7V277H233.945V270.18C233.945 269.553 233.818 269.113 233.565 268.86C233.312 268.593 232.932 268.46 232.425 268.46C232.092 268.46 231.765 268.513 231.445 268.62C231.138 268.727 230.792 268.9 230.405 269.14C230.032 269.38 229.572 269.7 229.025 270.1L228.905 268.9C229.612 268.273 230.298 267.807 230.965 267.5C231.632 267.18 232.312 267.02 233.005 267.02ZM251.586 264.38V274.32C251.586 274.787 251.686 275.12 251.886 275.32C252.086 275.52 252.426 275.62 252.906 275.62H254.386L254.586 276.92C254.373 276.973 254.126 277.02 253.846 277.06C253.566 277.1 253.293 277.127 253.026 277.14C252.759 277.167 252.546 277.18 252.386 277.18C251.573 277.18 250.953 276.953 250.526 276.5C250.099 276.047 249.886 275.393 249.886 274.54V264.38H251.586ZM254.686 267.26V268.6H248.126V267.36L250.046 267.26H254.686ZM258.403 267.26V274.1C258.39 274.713 258.503 275.147 258.743 275.4C258.983 275.653 259.383 275.78 259.943 275.78C260.49 275.78 261.03 275.653 261.563 275.4C262.11 275.133 262.763 274.753 263.523 274.26L263.743 275.44C262.983 276.04 262.243 276.493 261.523 276.8C260.816 277.107 260.096 277.26 259.363 277.26C257.59 277.26 256.703 276.367 256.703 274.58V267.26H258.403ZM265.043 267.26V277H263.683L263.523 275.16L263.343 274.86V267.26H265.043ZM269.489 267.26L269.709 269.12L269.869 269.42V277H268.169V267.26H269.489ZM274.269 267.02L274.069 268.62H273.509C272.936 268.62 272.363 268.74 271.789 268.98C271.216 269.207 270.516 269.533 269.689 269.96L269.549 268.9C270.269 268.313 270.989 267.853 271.709 267.52C272.443 267.187 273.149 267.02 273.829 267.02H274.269ZM282.117 267.02C283.877 267.02 284.757 267.913 284.757 269.7V277H283.057V270.18C283.057 269.527 282.95 269.08 282.737 268.84C282.523 268.587 282.163 268.46 281.657 268.46C281.057 268.46 280.457 268.607 279.857 268.9C279.257 269.193 278.543 269.593 277.717 270.1L277.637 268.88C278.397 268.293 279.15 267.84 279.897 267.52C280.643 267.187 281.383 267.02 282.117 267.02ZM277.637 267.26L277.777 269.12L277.897 269.42V277H276.197V267.26H277.637ZM291.938 267.02C293.058 267.02 293.951 267.187 294.618 267.52C295.298 267.853 295.784 268.4 296.078 269.16C296.371 269.907 296.518 270.9 296.518 272.14C296.518 273.38 296.371 274.38 296.078 275.14C295.784 275.887 295.298 276.427 294.618 276.76C293.951 277.093 293.058 277.26 291.938 277.26C290.831 277.26 289.938 277.093 289.258 276.76C288.591 276.427 288.104 275.887 287.798 275.14C287.504 274.38 287.358 273.38 287.358 272.14C287.358 270.9 287.504 269.907 287.798 269.16C288.104 268.4 288.591 267.853 289.258 267.52C289.938 267.187 290.831 267.02 291.938 267.02ZM291.938 268.46C291.231 268.46 290.671 268.573 290.258 268.8C289.858 269.013 289.571 269.387 289.398 269.92C289.224 270.453 289.138 271.193 289.138 272.14C289.138 273.087 289.224 273.827 289.398 274.36C289.571 274.893 289.858 275.273 290.258 275.5C290.671 275.713 291.231 275.82 291.938 275.82C292.644 275.82 293.204 275.713 293.618 275.5C294.031 275.273 294.324 274.893 294.498 274.36C294.671 273.827 294.758 273.087 294.758 272.14C294.758 271.193 294.671 270.453 294.498 269.92C294.324 269.387 294.031 269.013 293.618 268.8C293.204 268.573 292.644 268.46 291.938 268.46ZM307.728 267.26L304.168 276.58C304.114 276.713 304.034 276.82 303.928 276.9C303.834 276.967 303.714 277 303.568 277H302.028C301.894 277 301.774 276.967 301.668 276.9C301.561 276.82 301.481 276.713 301.428 276.58L297.868 267.26H299.688L302.088 274.08C302.194 274.36 302.294 274.647 302.388 274.94C302.481 275.233 302.574 275.513 302.668 275.78H302.928C303.034 275.5 303.134 275.22 303.228 274.94C303.334 274.647 303.434 274.36 303.528 274.08L305.928 267.26H307.728ZM313.556 267.02C315.023 267.02 316.083 267.287 316.736 267.82C317.403 268.353 317.736 269.147 317.736 270.2C317.749 271.067 317.569 271.747 317.196 272.24C316.823 272.72 316.229 272.96 315.416 272.96H309.736V271.64H314.976C315.416 271.64 315.703 271.493 315.836 271.2C315.969 270.893 316.036 270.56 316.036 270.2C316.023 269.573 315.836 269.127 315.476 268.86C315.116 268.593 314.503 268.46 313.636 268.46C312.929 268.46 312.369 268.567 311.956 268.78C311.556 268.98 311.269 269.34 311.096 269.86C310.936 270.367 310.856 271.08 310.856 272C310.856 273.04 310.956 273.833 311.156 274.38C311.369 274.927 311.703 275.3 312.156 275.5C312.609 275.7 313.209 275.8 313.956 275.8C314.476 275.8 315.043 275.78 315.656 275.74C316.283 275.687 316.843 275.627 317.336 275.56L317.516 276.7C317.209 276.82 316.829 276.92 316.376 277C315.936 277.08 315.476 277.14 314.996 277.18C314.529 277.22 314.109 277.24 313.736 277.24C312.616 277.24 311.716 277.073 311.036 276.74C310.356 276.393 309.856 275.847 309.536 275.1C309.229 274.34 309.076 273.34 309.076 272.1C309.076 270.82 309.229 269.813 309.536 269.08C309.856 268.333 310.343 267.807 310.996 267.5C311.663 267.18 312.516 267.02 313.556 267.02ZM321.618 267.26L321.838 269.12L321.998 269.42V277H320.298V267.26H321.618ZM326.398 267.02L326.198 268.62H325.638C325.065 268.62 324.492 268.74 323.918 268.98C323.345 269.207 322.645 269.533 321.818 269.96L321.678 268.9C322.398 268.313 323.118 267.853 323.838 267.52C324.572 267.187 325.278 267.02 325.958 267.02H326.398ZM334.438 264.38V274.32C334.438 274.787 334.538 275.12 334.738 275.32C334.938 275.52 335.278 275.62 335.758 275.62H337.238L337.438 276.92C337.224 276.973 336.978 277.02 336.698 277.06C336.418 277.1 336.144 277.127 335.878 277.14C335.611 277.167 335.398 277.18 335.238 277.18C334.424 277.18 333.804 276.953 333.377 276.5C332.951 276.047 332.738 275.393 332.738 274.54V264.38H334.438ZM337.538 267.26V268.6H330.978V267.36L332.898 267.26H337.538ZM343.735 267.02C344.855 267.02 345.748 267.187 346.415 267.52C347.095 267.853 347.581 268.4 347.875 269.16C348.168 269.907 348.315 270.9 348.315 272.14C348.315 273.38 348.168 274.38 347.875 275.14C347.581 275.887 347.095 276.427 346.415 276.76C345.748 277.093 344.855 277.26 343.735 277.26C342.628 277.26 341.735 277.093 341.055 276.76C340.388 276.427 339.901 275.887 339.595 275.14C339.301 274.38 339.155 273.38 339.155 272.14C339.155 270.9 339.301 269.907 339.595 269.16C339.901 268.4 340.388 267.853 341.055 267.52C341.735 267.187 342.628 267.02 343.735 267.02ZM343.735 268.46C343.028 268.46 342.468 268.573 342.055 268.8C341.655 269.013 341.368 269.387 341.195 269.92C341.021 270.453 340.935 271.193 340.935 272.14C340.935 273.087 341.021 273.827 341.195 274.36C341.368 274.893 341.655 275.273 342.055 275.5C342.468 275.713 343.028 275.82 343.735 275.82C344.441 275.82 345.001 275.713 345.415 275.5C345.828 275.273 346.121 274.893 346.295 274.36C346.468 273.827 346.555 273.087 346.555 272.14C346.555 271.193 346.468 270.453 346.295 269.92C346.121 269.387 345.828 269.013 345.415 268.8C345.001 268.573 344.441 268.46 343.735 268.46ZM359.355 267.02C359.662 267.02 360.002 267.033 360.375 267.06C360.748 267.087 361.135 267.133 361.535 267.2C361.935 267.253 362.322 267.327 362.695 267.42C363.082 267.5 363.435 267.593 363.755 267.7L362.375 268.88C362.028 268.773 361.675 268.687 361.315 268.62C360.955 268.553 360.608 268.507 360.275 268.48C359.942 268.453 359.628 268.447 359.335 268.46C358.695 268.473 358.182 268.593 357.795 268.82C357.408 269.033 357.128 269.413 356.955 269.96C356.795 270.507 356.715 271.28 356.715 272.28C356.715 273.467 356.862 274.347 357.155 274.92C357.448 275.48 358.022 275.76 358.875 275.76C359.488 275.76 360.042 275.633 360.535 275.38C361.042 275.113 361.615 274.76 362.255 274.32L362.475 275.44C362.062 275.813 361.628 276.14 361.175 276.42C360.722 276.687 360.255 276.893 359.775 277.04C359.308 277.187 358.822 277.26 358.315 277.26C357.182 277.26 356.342 276.853 355.795 276.04C355.248 275.227 354.975 273.933 354.975 272.16C354.975 271.32 355.042 270.58 355.175 269.94C355.322 269.3 355.562 268.767 355.895 268.34C356.228 267.9 356.675 267.573 357.235 267.36C357.795 267.133 358.502 267.02 359.355 267.02ZM362.055 267.64L363.755 267.7V281.02H362.055L362.035 277.68C362.035 277.253 362.048 276.873 362.075 276.54C362.102 276.193 362.155 275.84 362.235 275.48L362.055 275.2V267.64ZM368.481 267.26V274.1C368.468 274.713 368.581 275.147 368.821 275.4C369.061 275.653 369.461 275.78 370.021 275.78C370.568 275.78 371.108 275.653 371.641 275.4C372.188 275.133 372.841 274.753 373.601 274.26L373.821 275.44C373.061 276.04 372.321 276.493 371.601 276.8C370.895 277.107 370.175 277.26 369.441 277.26C367.668 277.26 366.781 276.367 366.781 274.58V267.26H368.481ZM375.121 267.26V277H373.761L373.601 275.16L373.421 274.86V267.26H375.121ZM382.848 267.02C383.568 267.02 384.174 267.12 384.668 267.32C385.174 267.507 385.554 267.827 385.808 268.28C386.061 268.733 386.188 269.353 386.188 270.14V277H384.848L384.588 274.88L384.468 274.66V270.14C384.468 269.54 384.328 269.113 384.048 268.86C383.781 268.593 383.261 268.46 382.488 268.46C381.981 268.46 381.341 268.487 380.568 268.54C379.808 268.593 379.054 268.653 378.308 268.72L378.148 267.46C378.601 267.38 379.094 267.307 379.627 267.24C380.174 267.173 380.728 267.12 381.288 267.08C381.848 267.04 382.368 267.02 382.848 267.02ZM385.388 271L385.368 272.28L380.708 272.3C380.241 272.313 379.914 272.44 379.728 272.68C379.541 272.907 379.448 273.227 379.448 273.64V274.26C379.448 274.767 379.568 275.14 379.808 275.38C380.048 275.607 380.434 275.72 380.968 275.72C381.341 275.72 381.761 275.653 382.228 275.52C382.708 275.373 383.188 275.153 383.668 274.86C384.148 274.567 384.588 274.193 384.988 273.74V275C384.841 275.187 384.628 275.407 384.348 275.66C384.081 275.9 383.754 276.14 383.368 276.38C382.994 276.607 382.574 276.8 382.108 276.96C381.654 277.107 381.161 277.18 380.628 277.18C380.054 277.18 379.548 277.08 379.108 276.88C378.668 276.667 378.321 276.36 378.068 275.96C377.828 275.547 377.708 275.047 377.708 274.46V273.4C377.708 272.64 377.941 272.053 378.408 271.64C378.888 271.213 379.554 271 380.408 271H385.388ZM390.944 263L390.924 274.32C390.924 274.747 391.037 275.073 391.264 275.3C391.504 275.513 391.837 275.62 392.264 275.62H393.204L393.404 276.92C393.284 276.973 393.111 277.02 392.884 277.06C392.671 277.1 392.444 277.127 392.204 277.14C391.977 277.167 391.784 277.18 391.624 277.18C390.904 277.18 390.324 276.967 389.884 276.54C389.457 276.113 389.244 275.5 389.244 274.7V263H390.944ZM396.922 267.26V277H395.242V267.26H396.922ZM396.482 263.12C396.828 263.12 397.002 263.293 397.002 263.64V264.78C397.002 265.127 396.828 265.3 396.482 265.3H395.682C395.335 265.3 395.162 265.127 395.162 264.78V263.64C395.162 263.293 395.335 263.12 395.682 263.12H396.482ZM403.723 262.66C403.936 262.66 404.209 262.667 404.543 262.68C404.876 262.68 405.216 262.693 405.563 262.72C405.909 262.733 406.209 262.76 406.463 262.8L406.323 264.06H404.323C403.683 264.06 403.229 264.187 402.963 264.44C402.709 264.693 402.583 265.113 402.583 265.7V277H400.883V265.52C400.883 264.907 400.976 264.393 401.163 263.98C401.349 263.553 401.649 263.227 402.063 263C402.476 262.773 403.029 262.66 403.723 262.66ZM405.703 267.26V268.6H399.123V267.36L400.983 267.26H405.703ZM416.36 267.26L412.46 277.54C412.3 277.967 412.1 278.387 411.86 278.8C411.62 279.213 411.327 279.587 410.98 279.92C410.647 280.267 410.247 280.547 409.78 280.76C409.327 280.973 408.8 281.093 408.2 281.12L408.04 280C408.827 279.747 409.433 279.407 409.86 278.98C410.287 278.553 410.627 278.033 410.88 277.42L411.36 276.26C411.467 275.993 411.573 275.7 411.68 275.38C411.787 275.06 411.887 274.773 411.98 274.52L414.52 267.26H416.36ZM408.34 267.26L410.92 274.52C410.987 274.72 411.053 274.92 411.12 275.12C411.187 275.307 411.24 275.5 411.28 275.7H411.74L411.18 277H410.66C410.527 277 410.4 276.96 410.28 276.88C410.173 276.8 410.1 276.693 410.06 276.56L406.52 267.26H408.34ZM425.598 262.66C425.811 262.66 426.084 262.667 426.418 262.68C426.751 262.68 427.091 262.693 427.438 262.72C427.784 262.733 428.084 262.76 428.338 262.8L428.198 264.06H426.198C425.558 264.06 425.104 264.187 424.838 264.44C424.584 264.693 424.458 265.113 424.458 265.7V277H422.758V265.52C422.758 264.907 422.851 264.393 423.038 263.98C423.224 263.553 423.524 263.227 423.938 263C424.351 262.773 424.904 262.66 425.598 262.66ZM427.578 267.26V268.6H420.998V267.36L422.858 267.26H427.578ZM433.559 267.02C434.679 267.02 435.572 267.187 436.239 267.52C436.919 267.853 437.406 268.4 437.699 269.16C437.992 269.907 438.139 270.9 438.139 272.14C438.139 273.38 437.992 274.38 437.699 275.14C437.406 275.887 436.919 276.427 436.239 276.76C435.572 277.093 434.679 277.26 433.559 277.26C432.452 277.26 431.559 277.093 430.879 276.76C430.212 276.427 429.726 275.887 429.419 275.14C429.126 274.38 428.979 273.38 428.979 272.14C428.979 270.9 429.126 269.907 429.419 269.16C429.726 268.4 430.212 267.853 430.879 267.52C431.559 267.187 432.452 267.02 433.559 267.02ZM433.559 268.46C432.852 268.46 432.292 268.573 431.879 268.8C431.479 269.013 431.192 269.387 431.019 269.92C430.846 270.453 430.759 271.193 430.759 272.14C430.759 273.087 430.846 273.827 431.019 274.36C431.192 274.893 431.479 275.273 431.879 275.5C432.292 275.713 432.852 275.82 433.559 275.82C434.266 275.82 434.826 275.713 435.239 275.5C435.652 275.273 435.946 274.893 436.119 274.36C436.292 273.827 436.379 273.087 436.379 272.14C436.379 271.193 436.292 270.453 436.119 269.92C435.946 269.387 435.652 269.013 435.239 268.8C434.826 268.573 434.266 268.46 433.559 268.46ZM442.126 267.26L442.346 269.12L442.506 269.42V277H440.806V267.26H442.126ZM446.906 267.02L446.706 268.62H446.146C445.573 268.62 444.999 268.74 444.426 268.98C443.853 269.207 443.153 269.533 442.326 269.96L442.186 268.9C442.906 268.313 443.626 267.853 444.346 267.52C445.079 267.187 445.786 267.02 446.466 267.02H446.906ZM454.945 264.38V274.32C454.945 274.787 455.045 275.12 455.245 275.32C455.445 275.52 455.785 275.62 456.265 275.62H457.745L457.945 276.92C457.732 276.973 457.485 277.02 457.205 277.06C456.925 277.1 456.652 277.127 456.385 277.14C456.119 277.167 455.905 277.18 455.745 277.18C454.932 277.18 454.312 276.953 453.885 276.5C453.459 276.047 453.245 275.393 453.245 274.54V264.38H454.945ZM458.045 267.26V268.6H451.485V267.36L453.405 267.26H458.045ZM466.043 267.02C467.803 267.02 468.683 267.913 468.683 269.7V277H466.963V270.18C466.963 269.527 466.856 269.08 466.643 268.84C466.443 268.587 466.089 268.46 465.583 268.46C464.983 268.46 464.383 268.6 463.783 268.88C463.183 269.16 462.469 269.567 461.643 270.1L461.563 268.88C462.323 268.307 463.076 267.853 463.823 267.52C464.569 267.187 465.309 267.02 466.043 267.02ZM461.823 263L461.843 266.86C461.843 267.3 461.823 267.713 461.783 268.1C461.756 268.487 461.709 268.827 461.643 269.12L461.823 269.42V277H460.123V263H461.823ZM473.504 267.26V277H471.824V267.26H473.504ZM473.064 263.12C473.41 263.12 473.584 263.293 473.584 263.64V264.78C473.584 265.127 473.41 265.3 473.064 265.3H472.264C471.917 265.3 471.744 265.127 471.744 264.78V263.64C471.744 263.293 471.917 263.12 472.264 263.12H473.064ZM479.945 267.02C480.371 267.02 480.825 267.033 481.305 267.06C481.785 267.087 482.258 267.12 482.725 267.16C483.205 267.2 483.645 267.253 484.045 267.32L483.905 268.56C483.291 268.533 482.671 268.513 482.045 268.5C481.431 268.473 480.818 268.46 480.205 268.46C479.605 268.447 479.131 268.46 478.785 268.5C478.438 268.54 478.185 268.647 478.025 268.82C477.878 268.993 477.805 269.287 477.805 269.7C477.805 270.207 477.925 270.54 478.165 270.7C478.405 270.86 478.758 270.993 479.225 271.1L482.065 271.74C482.838 271.927 483.405 272.213 483.765 272.6C484.138 272.987 484.325 273.593 484.325 274.42C484.325 275.22 484.171 275.82 483.865 276.22C483.571 276.62 483.118 276.887 482.505 277.02C481.891 277.153 481.111 277.22 480.165 277.22C479.818 277.22 479.298 277.207 478.605 277.18C477.925 277.153 477.171 277.073 476.345 276.94L476.465 275.7C476.785 275.713 477.125 275.733 477.485 275.76C477.845 275.773 478.218 275.78 478.605 275.78C479.005 275.78 479.411 275.78 479.825 275.78C480.558 275.78 481.131 275.747 481.545 275.68C481.958 275.613 482.251 275.487 482.425 275.3C482.598 275.1 482.685 274.807 482.685 274.42C482.685 273.94 482.545 273.62 482.265 273.46C481.985 273.3 481.611 273.167 481.145 273.06L478.345 272.42C477.811 272.287 477.385 272.113 477.065 271.9C476.745 271.673 476.511 271.387 476.365 271.04C476.218 270.68 476.145 270.233 476.145 269.7C476.145 268.94 476.278 268.367 476.545 267.98C476.811 267.593 477.225 267.333 477.785 267.2C478.345 267.067 479.065 267.007 479.945 267.02ZM496.894 267.02C498.081 267.02 498.934 267.46 499.454 268.34C499.974 269.207 500.234 270.487 500.234 272.18C500.234 273.433 500.101 274.433 499.834 275.18C499.567 275.913 499.161 276.44 498.614 276.76C498.081 277.08 497.394 277.24 496.554 277.24C495.914 277.24 495.281 277.153 494.654 276.98C494.041 276.807 493.441 276.54 492.854 276.18L492.954 275.16C493.581 275.333 494.134 275.48 494.614 275.6C495.094 275.707 495.601 275.76 496.134 275.76C496.707 275.76 497.161 275.66 497.494 275.46C497.841 275.26 498.094 274.9 498.254 274.38C498.414 273.86 498.494 273.127 498.494 272.18C498.494 271.26 498.421 270.533 498.274 270C498.127 269.467 497.894 269.087 497.574 268.86C497.267 268.62 496.854 268.5 496.334 268.5C495.801 268.5 495.274 268.627 494.754 268.88C494.234 269.133 493.627 269.52 492.934 270.04L492.774 268.9C493.134 268.513 493.541 268.18 493.994 267.9C494.447 267.62 494.921 267.407 495.414 267.26C495.921 267.1 496.414 267.02 496.894 267.02ZM492.714 267.26L492.894 269.28L493.014 269.54V275.78L492.934 276.02C492.974 276.393 492.994 276.753 492.994 277.1C493.007 277.447 493.014 277.813 493.014 278.2V281.02H491.314V267.26H492.714ZM507.035 267.02C508.155 267.02 509.049 267.187 509.715 267.52C510.395 267.853 510.882 268.4 511.175 269.16C511.469 269.907 511.615 270.9 511.615 272.14C511.615 273.38 511.469 274.38 511.175 275.14C510.882 275.887 510.395 276.427 509.715 276.76C509.049 277.093 508.155 277.26 507.035 277.26C505.929 277.26 505.035 277.093 504.355 276.76C503.689 276.427 503.202 275.887 502.895 275.14C502.602 274.38 502.455 273.38 502.455 272.14C502.455 270.9 502.602 269.907 502.895 269.16C503.202 268.4 503.689 267.853 504.355 267.52C505.035 267.187 505.929 267.02 507.035 267.02ZM507.035 268.46C506.329 268.46 505.769 268.573 505.355 268.8C504.955 269.013 504.669 269.387 504.495 269.92C504.322 270.453 504.235 271.193 504.235 272.14C504.235 273.087 504.322 273.827 504.495 274.36C504.669 274.893 504.955 275.273 505.355 275.5C505.769 275.713 506.329 275.82 507.035 275.82C507.742 275.82 508.302 275.713 508.715 275.5C509.129 275.273 509.422 274.893 509.595 274.36C509.769 273.827 509.855 273.087 509.855 272.14C509.855 271.193 509.769 270.453 509.595 269.92C509.422 269.387 509.129 269.013 508.715 268.8C508.302 268.573 507.742 268.46 507.035 268.46ZM518.403 267.02C519.523 267.02 520.416 267.187 521.083 267.52C521.763 267.853 522.249 268.4 522.543 269.16C522.836 269.907 522.983 270.9 522.983 272.14C522.983 273.38 522.836 274.38 522.543 275.14C522.249 275.887 521.763 276.427 521.083 276.76C520.416 277.093 519.523 277.26 518.403 277.26C517.296 277.26 516.403 277.093 515.723 276.76C515.056 276.427 514.569 275.887 514.263 275.14C513.969 274.38 513.823 273.38 513.823 272.14C513.823 270.9 513.969 269.907 514.263 269.16C514.569 268.4 515.056 267.853 515.723 267.52C516.403 267.187 517.296 267.02 518.403 267.02ZM518.403 268.46C517.696 268.46 517.136 268.573 516.723 268.8C516.323 269.013 516.036 269.387 515.863 269.92C515.689 270.453 515.603 271.193 515.603 272.14C515.603 273.087 515.689 273.827 515.863 274.36C516.036 274.893 516.323 275.273 516.723 275.5C517.136 275.713 517.696 275.82 518.403 275.82C519.109 275.82 519.669 275.713 520.083 275.5C520.496 275.273 520.789 274.893 520.963 274.36C521.136 273.827 521.223 273.087 521.223 272.14C521.223 271.193 521.136 270.453 520.963 269.92C520.789 269.387 520.496 269.013 520.083 268.8C519.669 268.573 519.109 268.46 518.403 268.46ZM527.37 263L527.35 274.32C527.35 274.747 527.463 275.073 527.69 275.3C527.93 275.513 528.263 275.62 528.69 275.62H529.63L529.83 276.92C529.71 276.973 529.537 277.02 529.31 277.06C529.097 277.1 528.87 277.127 528.63 277.14C528.403 277.167 528.21 277.18 528.05 277.18C527.33 277.18 526.75 276.967 526.31 276.54C525.883 276.113 525.67 275.5 525.67 274.7V263H527.37ZM537.293 267.26V277H535.613V267.26H537.293ZM536.853 263.12C537.199 263.12 537.373 263.293 537.373 263.64V264.78C537.373 265.127 537.199 265.3 536.853 265.3H536.053C535.706 265.3 535.533 265.127 535.533 264.78V263.64C535.533 263.293 535.706 263.12 536.053 263.12H536.853ZM543.734 267.02C544.16 267.02 544.614 267.033 545.094 267.06C545.574 267.087 546.047 267.12 546.514 267.16C546.994 267.2 547.434 267.253 547.834 267.32L547.694 268.56C547.08 268.533 546.46 268.513 545.834 268.5C545.22 268.473 544.607 268.46 543.994 268.46C543.394 268.447 542.92 268.46 542.574 268.5C542.227 268.54 541.974 268.647 541.814 268.82C541.667 268.993 541.594 269.287 541.594 269.7C541.594 270.207 541.714 270.54 541.954 270.7C542.194 270.86 542.547 270.993 543.014 271.1L545.854 271.74C546.627 271.927 547.194 272.213 547.554 272.6C547.927 272.987 548.114 273.593 548.114 274.42C548.114 275.22 547.96 275.82 547.654 276.22C547.36 276.62 546.907 276.887 546.294 277.02C545.68 277.153 544.9 277.22 543.954 277.22C543.607 277.22 543.087 277.207 542.394 277.18C541.714 277.153 540.96 277.073 540.134 276.94L540.254 275.7C540.574 275.713 540.914 275.733 541.274 275.76C541.634 275.773 542.007 275.78 542.394 275.78C542.794 275.78 543.2 275.78 543.614 275.78C544.347 275.78 544.92 275.747 545.334 275.68C545.747 275.613 546.04 275.487 546.214 275.3C546.387 275.1 546.474 274.807 546.474 274.42C546.474 273.94 546.334 273.62 546.054 273.46C545.774 273.3 545.4 273.167 544.934 273.06L542.134 272.42C541.6 272.287 541.174 272.113 540.854 271.9C540.534 271.673 540.3 271.387 540.154 271.04C540.007 270.68 539.934 270.233 539.934 269.7C539.934 268.94 540.067 268.367 540.334 267.98C540.6 267.593 541.014 267.333 541.574 267.2C542.134 267.067 542.854 267.007 543.734 267.02ZM559.163 262.96C559.816 262.973 560.49 263.007 561.183 263.06C561.876 263.113 562.57 263.213 563.263 263.36L563.143 264.64C562.57 264.613 561.936 264.593 561.243 264.58C560.55 264.553 559.883 264.54 559.243 264.54C558.75 264.54 558.323 264.56 557.963 264.6C557.616 264.627 557.33 264.707 557.103 264.84C556.876 264.96 556.71 265.167 556.603 265.46C556.51 265.74 556.463 266.133 556.463 266.64C556.463 267.4 556.603 267.933 556.883 268.24C557.163 268.533 557.61 268.753 558.223 268.9L561.003 269.6C562.07 269.853 562.803 270.3 563.203 270.94C563.603 271.567 563.803 272.413 563.803 273.48C563.803 274.28 563.71 274.927 563.523 275.42C563.35 275.913 563.076 276.293 562.703 276.56C562.33 276.813 561.85 276.987 561.263 277.08C560.676 277.187 559.976 277.24 559.163 277.24C558.71 277.24 558.116 277.22 557.383 277.18C556.663 277.14 555.83 277.033 554.883 276.86L555.003 275.52C555.79 275.533 556.423 275.553 556.903 275.58C557.383 275.593 557.796 275.6 558.143 275.6C558.49 275.6 558.85 275.6 559.223 275.6C559.93 275.6 560.483 275.547 560.883 275.44C561.296 275.333 561.583 275.127 561.743 274.82C561.916 274.513 562.003 274.053 562.003 273.44C562.003 272.907 561.943 272.493 561.823 272.2C561.703 271.907 561.516 271.687 561.263 271.54C561.01 271.38 560.676 271.253 560.263 271.16L557.423 270.44C556.423 270.187 555.716 269.747 555.303 269.12C554.89 268.493 554.683 267.653 554.683 266.6C554.683 265.8 554.77 265.16 554.943 264.68C555.13 264.187 555.403 263.82 555.763 263.58C556.136 263.327 556.603 263.16 557.163 263.08C557.736 263 558.403 262.96 559.163 262.96ZM558.763 269.94L559.663 269.98L558.943 279.54H558.023L558.763 269.94ZM560.443 261.02L559.783 269.98L558.863 269.94L559.543 261.02H560.443ZM578.485 263.2L578.405 264.7H572.605L572.405 268.46L573.885 268.58C574.792 268.647 575.558 268.767 576.185 268.94C576.825 269.113 577.345 269.367 577.745 269.7C578.145 270.033 578.432 270.46 578.605 270.98C578.792 271.487 578.885 272.113 578.885 272.86C578.885 273.42 578.825 273.96 578.705 274.48C578.598 275 578.385 275.467 578.065 275.88C577.758 276.293 577.312 276.627 576.725 276.88C576.138 277.12 575.372 277.24 574.425 277.24C573.878 277.24 573.245 277.2 572.525 277.12C571.805 277.04 571.072 276.913 570.325 276.74L570.525 275.32C571.152 275.427 571.778 275.513 572.405 275.58C573.032 275.647 573.572 275.68 574.025 275.68C574.905 275.68 575.565 275.573 576.005 275.36C576.445 275.133 576.745 274.813 576.905 274.4C577.065 273.973 577.152 273.46 577.165 272.86C577.178 272.22 577.098 271.72 576.925 271.36C576.765 270.987 576.498 270.713 576.125 270.54C575.765 270.353 575.278 270.227 574.665 270.16C574.065 270.08 573.325 270.013 572.445 269.96L571.525 269.9C571.325 269.873 571.158 269.793 571.025 269.66C570.905 269.513 570.852 269.333 570.865 269.12L571.185 263.2H578.485ZM594.788 263.2C595.268 263.2 595.508 263.447 595.508 263.94L596.088 277H594.328L593.828 264.66H593.408L590.328 274.84C590.221 275.24 589.968 275.44 589.568 275.44H587.988C587.574 275.44 587.308 275.24 587.188 274.84L584.108 264.66H583.708L583.228 277H581.468L582.008 263.94C582.034 263.447 582.281 263.2 582.748 263.2H584.748C585.121 263.2 585.368 263.4 585.488 263.8L588.068 272.22C588.174 272.527 588.261 272.833 588.328 273.14C588.408 273.447 588.494 273.76 588.588 274.08H588.948C589.041 273.76 589.128 273.447 589.208 273.14C589.288 272.833 589.374 272.513 589.468 272.18L592.048 263.8C592.154 263.4 592.408 263.2 592.808 263.2H594.788ZM240.918 293.2L241.138 294.02C239.805 294.673 238.831 295.727 238.218 297.18C237.618 298.62 237.318 300.473 237.318 302.74C237.318 304.22 237.451 305.533 237.718 306.68C237.985 307.827 238.398 308.793 238.958 309.58C239.518 310.38 240.245 311.013 241.138 311.48L240.918 312.3C239.105 311.593 237.771 310.473 236.918 308.94C236.078 307.393 235.658 305.333 235.658 302.76C235.658 300.173 236.078 298.107 236.918 296.56C237.771 295.013 239.105 293.893 240.918 293.2ZM247.509 294.94C248.509 294.94 249.355 295.06 250.049 295.3C250.755 295.54 251.315 295.94 251.729 296.5C252.155 297.047 252.462 297.78 252.649 298.7C252.849 299.62 252.949 300.753 252.949 302.1C252.949 303.447 252.849 304.58 252.649 305.5C252.462 306.42 252.155 307.16 251.729 307.72C251.315 308.267 250.755 308.66 250.049 308.9C249.355 309.14 248.509 309.26 247.509 309.26C246.495 309.26 245.642 309.14 244.949 308.9C244.255 308.66 243.695 308.267 243.269 307.72C242.842 307.16 242.529 306.42 242.329 305.5C242.142 304.58 242.049 303.447 242.049 302.1C242.049 300.753 242.142 299.62 242.329 298.7C242.529 297.78 242.842 297.047 243.269 296.5C243.695 295.94 244.255 295.54 244.949 295.3C245.642 295.06 246.495 294.94 247.509 294.94ZM246.689 309.86C247.475 310.193 248.309 310.473 249.189 310.7C250.069 310.927 251.002 311.113 251.989 311.26L251.429 313.02C250.389 312.807 249.435 312.507 248.569 312.12C247.702 311.747 246.909 311.347 246.189 310.92L246.689 309.86ZM247.509 296.52C246.602 296.52 245.882 296.693 245.349 297.04C244.829 297.387 244.455 297.967 244.229 298.78C244.015 299.58 243.909 300.687 243.909 302.1C243.909 303.5 244.015 304.607 244.229 305.42C244.455 306.233 244.829 306.813 245.349 307.16C245.882 307.507 246.602 307.68 247.509 307.68C248.415 307.68 249.129 307.507 249.649 307.16C250.169 306.813 250.542 306.233 250.769 305.42C250.995 304.607 251.109 303.5 251.109 302.1C251.109 300.687 250.995 299.58 250.769 298.78C250.542 297.967 250.169 297.387 249.649 297.04C249.129 296.693 248.415 296.52 247.509 296.52ZM257.388 299.26V306.1C257.374 306.713 257.488 307.147 257.728 307.4C257.968 307.653 258.368 307.78 258.928 307.78C259.474 307.78 260.014 307.653 260.548 307.4C261.094 307.133 261.748 306.753 262.508 306.26L262.728 307.44C261.968 308.04 261.228 308.493 260.508 308.8C259.801 309.107 259.081 309.26 258.348 309.26C256.574 309.26 255.688 308.367 255.688 306.58V299.26H257.388ZM264.028 299.26V309H262.668L262.508 307.16L262.328 306.86V299.26H264.028ZM271.754 299.02C272.474 299.02 273.08 299.12 273.574 299.32C274.08 299.507 274.46 299.827 274.714 300.28C274.967 300.733 275.094 301.353 275.094 302.14V309H273.754L273.494 306.88L273.374 306.66V302.14C273.374 301.54 273.234 301.113 272.954 300.86C272.687 300.593 272.167 300.46 271.394 300.46C270.887 300.46 270.247 300.487 269.474 300.54C268.714 300.593 267.96 300.653 267.214 300.72L267.054 299.46C267.507 299.38 268 299.307 268.534 299.24C269.08 299.173 269.634 299.12 270.194 299.08C270.754 299.04 271.274 299.02 271.754 299.02ZM274.294 303L274.274 304.28L269.614 304.3C269.147 304.313 268.82 304.44 268.634 304.68C268.447 304.907 268.354 305.227 268.354 305.64V306.26C268.354 306.767 268.474 307.14 268.714 307.38C268.954 307.607 269.34 307.72 269.874 307.72C270.247 307.72 270.667 307.653 271.134 307.52C271.614 307.373 272.094 307.153 272.574 306.86C273.054 306.567 273.494 306.193 273.894 305.74V307C273.747 307.187 273.534 307.407 273.254 307.66C272.987 307.9 272.66 308.14 272.274 308.38C271.9 308.607 271.48 308.8 271.014 308.96C270.56 309.107 270.067 309.18 269.534 309.18C268.96 309.18 268.454 309.08 268.014 308.88C267.574 308.667 267.227 308.36 266.974 307.96C266.734 307.547 266.614 307.047 266.614 306.46V305.4C266.614 304.64 266.847 304.053 267.314 303.64C267.794 303.213 268.46 303 269.314 303H274.294ZM279.85 295L279.83 306.32C279.83 306.747 279.944 307.073 280.17 307.3C280.41 307.513 280.744 307.62 281.17 307.62H282.11L282.31 308.92C282.19 308.973 282.017 309.02 281.79 309.06C281.577 309.1 281.35 309.127 281.11 309.14C280.884 309.167 280.69 309.18 280.53 309.18C279.81 309.18 279.23 308.967 278.79 308.54C278.364 308.113 278.15 307.5 278.15 306.7V295H279.85ZM285.828 299.26V309H284.148V299.26H285.828ZM285.388 295.12C285.734 295.12 285.908 295.293 285.908 295.64V296.78C285.908 297.127 285.734 297.3 285.388 297.3H284.588C284.241 297.3 284.068 297.127 284.068 296.78V295.64C284.068 295.293 284.241 295.12 284.588 295.12H285.388ZM292.629 294.66C292.909 294.66 293.275 294.673 293.729 294.7C294.182 294.713 294.575 294.747 294.909 294.8V296.06H293.229C292.589 296.06 292.135 296.2 291.869 296.48C291.615 296.747 291.489 297.22 291.489 297.9V309H289.789V297.72C289.789 297.067 289.882 296.513 290.069 296.06C290.255 295.607 290.555 295.26 290.969 295.02C291.382 294.78 291.935 294.66 292.629 294.66ZM296.469 299.26V300.6H288.029V299.36L289.889 299.26H296.469ZM297.949 299.26V309H296.269V299.26H297.949ZM297.489 295.12C297.835 295.12 298.009 295.293 298.009 295.64V296.78C298.009 297.127 297.835 297.3 297.489 297.3H296.689C296.355 297.3 296.189 297.127 296.189 296.78V295.64C296.189 295.293 296.355 295.12 296.689 295.12H297.489ZM305.318 299.02C305.611 299.02 305.938 299.033 306.298 299.06C306.658 299.087 307.024 299.133 307.398 299.2C307.784 299.267 308.138 299.36 308.458 299.48L308.238 300.58C307.798 300.54 307.331 300.513 306.838 300.5C306.358 300.473 305.944 300.46 305.598 300.46C304.824 300.46 304.211 300.567 303.758 300.78C303.304 300.993 302.978 301.367 302.778 301.9C302.578 302.433 302.478 303.173 302.478 304.12C302.478 305.067 302.578 305.813 302.778 306.36C302.978 306.893 303.304 307.267 303.758 307.48C304.211 307.693 304.824 307.8 305.598 307.8C305.798 307.8 306.058 307.793 306.378 307.78C306.698 307.767 307.038 307.747 307.398 307.72C307.771 307.693 308.124 307.653 308.458 307.6L308.638 308.74C308.144 308.913 307.604 309.04 307.018 309.12C306.444 309.2 305.871 309.24 305.298 309.24C304.178 309.24 303.278 309.073 302.598 308.74C301.918 308.407 301.424 307.867 301.118 307.12C300.824 306.373 300.678 305.373 300.678 304.12C300.678 302.867 300.831 301.867 301.138 301.12C301.444 300.373 301.938 299.84 302.618 299.52C303.298 299.187 304.198 299.02 305.318 299.02ZM315.543 299.02C316.263 299.02 316.869 299.12 317.363 299.32C317.869 299.507 318.249 299.827 318.503 300.28C318.756 300.733 318.883 301.353 318.883 302.14V309H317.543L317.283 306.88L317.163 306.66V302.14C317.163 301.54 317.023 301.113 316.743 300.86C316.476 300.593 315.956 300.46 315.183 300.46C314.676 300.46 314.036 300.487 313.263 300.54C312.503 300.593 311.749 300.653 311.003 300.72L310.843 299.46C311.296 299.38 311.789 299.307 312.323 299.24C312.869 299.173 313.423 299.12 313.983 299.08C314.543 299.04 315.063 299.02 315.543 299.02ZM318.083 303L318.063 304.28L313.403 304.3C312.936 304.313 312.609 304.44 312.423 304.68C312.236 304.907 312.143 305.227 312.143 305.64V306.26C312.143 306.767 312.263 307.14 312.503 307.38C312.743 307.607 313.129 307.72 313.663 307.72C314.036 307.72 314.456 307.653 314.923 307.52C315.403 307.373 315.883 307.153 316.363 306.86C316.843 306.567 317.283 306.193 317.683 305.74V307C317.536 307.187 317.323 307.407 317.043 307.66C316.776 307.9 316.449 308.14 316.063 308.38C315.689 308.607 315.269 308.8 314.803 308.96C314.349 309.107 313.856 309.18 313.323 309.18C312.749 309.18 312.243 309.08 311.803 308.88C311.363 308.667 311.016 308.36 310.763 307.96C310.523 307.547 310.403 307.047 310.403 306.46V305.4C310.403 304.64 310.636 304.053 311.103 303.64C311.583 303.213 312.249 303 313.103 303H318.083ZM324.359 296.38V306.32C324.359 306.787 324.459 307.12 324.659 307.32C324.859 307.52 325.199 307.62 325.679 307.62H327.159L327.359 308.92C327.146 308.973 326.899 309.02 326.619 309.06C326.339 309.1 326.066 309.127 325.799 309.14C325.533 309.167 325.319 309.18 325.159 309.18C324.346 309.18 323.726 308.953 323.299 308.5C322.873 308.047 322.659 307.393 322.659 306.54V296.38H324.359ZM327.459 299.26V300.6H320.899V299.36L322.819 299.26H327.459ZM331.297 299.26V309H329.617V299.26H331.297ZM330.857 295.12C331.203 295.12 331.377 295.293 331.377 295.64V296.78C331.377 297.127 331.203 297.3 330.857 297.3H330.057C329.71 297.3 329.537 297.127 329.537 296.78V295.64C329.537 295.293 329.71 295.12 330.057 295.12H330.857ZM338.618 299.02C339.738 299.02 340.631 299.187 341.298 299.52C341.978 299.853 342.464 300.4 342.758 301.16C343.051 301.907 343.198 302.9 343.198 304.14C343.198 305.38 343.051 306.38 342.758 307.14C342.464 307.887 341.978 308.427 341.298 308.76C340.631 309.093 339.738 309.26 338.618 309.26C337.511 309.26 336.618 309.093 335.938 308.76C335.271 308.427 334.784 307.887 334.478 307.14C334.184 306.38 334.038 305.38 334.038 304.14C334.038 302.9 334.184 301.907 334.478 301.16C334.784 300.4 335.271 299.853 335.938 299.52C336.618 299.187 337.511 299.02 338.618 299.02ZM338.618 300.46C337.911 300.46 337.351 300.573 336.938 300.8C336.538 301.013 336.251 301.387 336.078 301.92C335.904 302.453 335.818 303.193 335.818 304.14C335.818 305.087 335.904 305.827 336.078 306.36C336.251 306.893 336.538 307.273 336.938 307.5C337.351 307.713 337.911 307.82 338.618 307.82C339.324 307.82 339.884 307.713 340.298 307.5C340.711 307.273 341.004 306.893 341.178 306.36C341.351 305.827 341.438 305.087 341.438 304.14C341.438 303.193 341.351 302.453 341.178 301.92C341.004 301.387 340.711 301.013 340.298 300.8C339.884 300.573 339.324 300.46 338.618 300.46ZM351.785 299.02C353.545 299.02 354.425 299.913 354.425 301.7V309H352.725V302.18C352.725 301.527 352.618 301.08 352.405 300.84C352.191 300.587 351.831 300.46 351.325 300.46C350.725 300.46 350.125 300.607 349.525 300.9C348.925 301.193 348.211 301.593 347.385 302.1L347.305 300.88C348.065 300.293 348.818 299.84 349.565 299.52C350.311 299.187 351.051 299.02 351.785 299.02ZM347.305 299.26L347.445 301.12L347.565 301.42V309H345.865V299.26H347.305ZM365.226 294.66C365.44 294.66 365.713 294.667 366.046 294.68C366.38 294.68 366.72 294.693 367.066 294.72C367.413 294.733 367.713 294.76 367.966 294.8L367.826 296.06H365.826C365.186 296.06 364.733 296.187 364.466 296.44C364.213 296.693 364.086 297.113 364.086 297.7V309H362.386V297.52C362.386 296.907 362.48 296.393 362.666 295.98C362.853 295.553 363.153 295.227 363.566 295C363.98 294.773 364.533 294.66 365.226 294.66ZM367.206 299.26V300.6H360.626V299.36L362.486 299.26H367.206ZM373.188 299.02C374.308 299.02 375.201 299.187 375.868 299.52C376.548 299.853 377.034 300.4 377.328 301.16C377.621 301.907 377.768 302.9 377.768 304.14C377.768 305.38 377.621 306.38 377.328 307.14C377.034 307.887 376.548 308.427 375.868 308.76C375.201 309.093 374.308 309.26 373.188 309.26C372.081 309.26 371.188 309.093 370.508 308.76C369.841 308.427 369.354 307.887 369.048 307.14C368.754 306.38 368.608 305.38 368.608 304.14C368.608 302.9 368.754 301.907 369.048 301.16C369.354 300.4 369.841 299.853 370.508 299.52C371.188 299.187 372.081 299.02 373.188 299.02ZM373.188 300.46C372.481 300.46 371.921 300.573 371.508 300.8C371.108 301.013 370.821 301.387 370.648 301.92C370.474 302.453 370.388 303.193 370.388 304.14C370.388 305.087 370.474 305.827 370.648 306.36C370.821 306.893 371.108 307.273 371.508 307.5C371.921 307.713 372.481 307.82 373.188 307.82C373.894 307.82 374.454 307.713 374.868 307.5C375.281 307.273 375.574 306.893 375.748 306.36C375.921 305.827 376.008 305.087 376.008 304.14C376.008 303.193 375.921 302.453 375.748 301.92C375.574 301.387 375.281 301.013 374.868 300.8C374.454 300.573 373.894 300.46 373.188 300.46ZM381.755 299.26L381.975 301.12L382.135 301.42V309H380.435V299.26H381.755ZM386.535 299.02L386.335 300.62H385.775C385.202 300.62 384.628 300.74 384.055 300.98C383.482 301.207 382.782 301.533 381.955 301.96L381.815 300.9C382.535 300.313 383.255 299.853 383.975 299.52C384.708 299.187 385.415 299.02 386.095 299.02H386.535ZM397.086 299.02C397.806 299.02 398.412 299.12 398.906 299.32C399.412 299.507 399.792 299.827 400.046 300.28C400.299 300.733 400.426 301.353 400.426 302.14V309H399.086L398.826 306.88L398.706 306.66V302.14C398.706 301.54 398.566 301.113 398.286 300.86C398.019 300.593 397.499 300.46 396.726 300.46C396.219 300.46 395.579 300.487 394.806 300.54C394.046 300.593 393.292 300.653 392.546 300.72L392.386 299.46C392.839 299.38 393.332 299.307 393.866 299.24C394.412 299.173 394.966 299.12 395.526 299.08C396.086 299.04 396.606 299.02 397.086 299.02ZM399.626 303L399.606 304.28L394.946 304.3C394.479 304.313 394.152 304.44 393.966 304.68C393.779 304.907 393.686 305.227 393.686 305.64V306.26C393.686 306.767 393.806 307.14 394.046 307.38C394.286 307.607 394.672 307.72 395.206 307.72C395.579 307.72 395.999 307.653 396.466 307.52C396.946 307.373 397.426 307.153 397.906 306.86C398.386 306.567 398.826 306.193 399.226 305.74V307C399.079 307.187 398.866 307.407 398.586 307.66C398.319 307.9 397.992 308.14 397.606 308.38C397.232 308.607 396.812 308.8 396.346 308.96C395.892 309.107 395.399 309.18 394.866 309.18C394.292 309.18 393.786 309.08 393.346 308.88C392.906 308.667 392.559 308.36 392.306 307.96C392.066 307.547 391.946 307.047 391.946 306.46V305.4C391.946 304.64 392.179 304.053 392.646 303.64C393.126 303.213 393.792 303 394.646 303H399.626ZM405.182 295L405.162 306.32C405.162 306.747 405.276 307.073 405.502 307.3C405.742 307.513 406.076 307.62 406.502 307.62H407.442L407.642 308.92C407.522 308.973 407.349 309.02 407.122 309.06C406.909 309.1 406.682 309.127 406.442 309.14C406.216 309.167 406.022 309.18 405.862 309.18C405.142 309.18 404.562 308.967 404.122 308.54C403.696 308.113 403.482 307.5 403.482 306.7V295H405.182ZM411.12 295L411.1 306.32C411.1 306.747 411.213 307.073 411.44 307.3C411.68 307.513 412.013 307.62 412.44 307.62H413.38L413.58 308.92C413.46 308.973 413.287 309.02 413.06 309.06C412.847 309.1 412.62 309.127 412.38 309.14C412.153 309.167 411.96 309.18 411.8 309.18C411.08 309.18 410.5 308.967 410.06 308.54C409.633 308.113 409.42 307.5 409.42 306.7V295H411.12ZM424.203 295.02C425.309 295.02 426.183 295.147 426.823 295.4C427.476 295.653 427.943 296.093 428.223 296.72C428.503 297.333 428.643 298.207 428.643 299.34C428.643 300.473 428.503 301.353 428.223 301.98C427.956 302.607 427.509 303.047 426.883 303.3C426.269 303.54 425.443 303.66 424.403 303.66C423.843 303.66 423.303 303.647 422.783 303.62C422.276 303.593 421.809 303.56 421.383 303.52C420.956 303.467 420.589 303.413 420.283 303.36C419.989 303.307 419.783 303.26 419.663 303.22L419.723 302.14C420.429 302.14 421.163 302.14 421.923 302.14C422.683 302.14 423.436 302.14 424.183 302.14C424.849 302.127 425.376 302.047 425.763 301.9C426.163 301.74 426.443 301.46 426.603 301.06C426.776 300.647 426.863 300.073 426.863 299.34C426.863 298.593 426.776 298.02 426.603 297.62C426.443 297.22 426.163 296.94 425.763 296.78C425.376 296.62 424.849 296.54 424.183 296.54C423.089 296.54 422.143 296.547 421.343 296.56C420.556 296.573 420.023 296.593 419.743 296.62L419.463 295.2C419.969 295.147 420.443 295.107 420.883 295.08C421.323 295.053 421.803 295.04 422.323 295.04C422.843 295.027 423.469 295.02 424.203 295.02ZM421.223 295.2V309H419.463V295.2H421.223ZM435.082 299.02C436.202 299.02 437.096 299.187 437.762 299.52C438.442 299.853 438.929 300.4 439.222 301.16C439.516 301.907 439.662 302.9 439.662 304.14C439.662 305.38 439.516 306.38 439.222 307.14C438.929 307.887 438.442 308.427 437.762 308.76C437.096 309.093 436.202 309.26 435.082 309.26C433.976 309.26 433.082 309.093 432.402 308.76C431.736 308.427 431.249 307.887 430.942 307.14C430.649 306.38 430.502 305.38 430.502 304.14C430.502 302.9 430.649 301.907 430.942 301.16C431.249 300.4 431.736 299.853 432.402 299.52C433.082 299.187 433.976 299.02 435.082 299.02ZM435.082 300.46C434.376 300.46 433.816 300.573 433.402 300.8C433.002 301.013 432.716 301.387 432.542 301.92C432.369 302.453 432.282 303.193 432.282 304.14C432.282 305.087 432.369 305.827 432.542 306.36C432.716 306.893 433.002 307.273 433.402 307.5C433.816 307.713 434.376 307.82 435.082 307.82C435.789 307.82 436.349 307.713 436.762 307.5C437.176 307.273 437.469 306.893 437.642 306.36C437.816 305.827 437.902 305.087 437.902 304.14C437.902 303.193 437.816 302.453 437.642 301.92C437.469 301.387 437.176 301.013 436.762 300.8C436.349 300.573 435.789 300.46 435.082 300.46ZM446.45 299.02C447.57 299.02 448.463 299.187 449.13 299.52C449.81 299.853 450.296 300.4 450.59 301.16C450.883 301.907 451.03 302.9 451.03 304.14C451.03 305.38 450.883 306.38 450.59 307.14C450.296 307.887 449.81 308.427 449.13 308.76C448.463 309.093 447.57 309.26 446.45 309.26C445.343 309.26 444.45 309.093 443.77 308.76C443.103 308.427 442.616 307.887 442.31 307.14C442.016 306.38 441.87 305.38 441.87 304.14C441.87 302.9 442.016 301.907 442.31 301.16C442.616 300.4 443.103 299.853 443.77 299.52C444.45 299.187 445.343 299.02 446.45 299.02ZM446.45 300.46C445.743 300.46 445.183 300.573 444.77 300.8C444.37 301.013 444.083 301.387 443.91 301.92C443.736 302.453 443.65 303.193 443.65 304.14C443.65 305.087 443.736 305.827 443.91 306.36C444.083 306.893 444.37 307.273 444.77 307.5C445.183 307.713 445.743 307.82 446.45 307.82C447.156 307.82 447.716 307.713 448.13 307.5C448.543 307.273 448.836 306.893 449.01 306.36C449.183 305.827 449.27 305.087 449.27 304.14C449.27 303.193 449.183 302.453 449.01 301.92C448.836 301.387 448.543 301.013 448.13 300.8C447.716 300.573 447.156 300.46 446.45 300.46ZM455.417 295L455.397 306.32C455.397 306.747 455.51 307.073 455.737 307.3C455.977 307.513 456.31 307.62 456.737 307.62H457.677L457.877 308.92C457.757 308.973 457.583 309.02 457.357 309.06C457.143 309.1 456.917 309.127 456.677 309.14C456.45 309.167 456.257 309.18 456.097 309.18C455.377 309.18 454.797 308.967 454.357 308.54C453.93 308.113 453.717 307.5 453.717 306.7V295H455.417ZM462.874 299.02C463.301 299.02 463.754 299.033 464.234 299.06C464.714 299.087 465.188 299.12 465.654 299.16C466.134 299.2 466.574 299.253 466.974 299.32L466.834 300.56C466.221 300.533 465.601 300.513 464.974 300.5C464.361 300.473 463.748 300.46 463.134 300.46C462.534 300.447 462.061 300.46 461.714 300.5C461.368 300.54 461.114 300.647 460.954 300.82C460.808 300.993 460.734 301.287 460.734 301.7C460.734 302.207 460.854 302.54 461.094 302.7C461.334 302.86 461.688 302.993 462.154 303.1L464.994 303.74C465.768 303.927 466.334 304.213 466.694 304.6C467.068 304.987 467.254 305.593 467.254 306.42C467.254 307.22 467.101 307.82 466.794 308.22C466.501 308.62 466.048 308.887 465.434 309.02C464.821 309.153 464.041 309.22 463.094 309.22C462.748 309.22 462.228 309.207 461.534 309.18C460.854 309.153 460.101 309.073 459.274 308.94L459.394 307.7C459.714 307.713 460.054 307.733 460.414 307.76C460.774 307.773 461.148 307.78 461.534 307.78C461.934 307.78 462.341 307.78 462.754 307.78C463.488 307.78 464.061 307.747 464.474 307.68C464.888 307.613 465.181 307.487 465.354 307.3C465.528 307.1 465.614 306.807 465.614 306.42C465.614 305.94 465.474 305.62 465.194 305.46C464.914 305.3 464.541 305.167 464.074 305.06L461.274 304.42C460.741 304.287 460.314 304.113 459.994 303.9C459.674 303.673 459.441 303.387 459.294 303.04C459.148 302.68 459.074 302.233 459.074 301.7C459.074 300.94 459.208 300.367 459.474 299.98C459.741 299.593 460.154 299.333 460.714 299.2C461.274 299.067 461.994 299.007 462.874 299.02ZM468.074 293.2C469.901 293.893 471.234 295.013 472.074 296.56C472.928 298.107 473.354 300.173 473.354 302.76C473.354 305.333 472.928 307.393 472.074 308.94C471.234 310.473 469.901 311.593 468.074 312.3L467.874 311.48C468.768 311.013 469.488 310.38 470.034 309.58C470.594 308.793 471.008 307.827 471.274 306.68C471.541 305.533 471.674 304.22 471.674 302.74C471.674 300.473 471.374 298.62 470.774 297.18C470.174 295.727 469.208 294.673 467.874 294.02L468.074 293.2Z" fill="#262626"/>
<g filter="url(#filter1_d_1_304)">
<rect x="276.204" y="63" width="151.285" height="56" rx="20" fill="url(#paint1_linear_1_304)"/>
</g>
<rect width="105.763" height="23.9167" transform="translate(297.654 78)" fill="url(#paint2_linear_1_304)"/>
<g filter="url(#filter2_d_1_304)">
<path d="M311.463 94.0667C311.463 96.4347 309.575 97.9867 306.583 97.9867C303.591 97.9867 301.671 96.4027 301.463 93.8587H304.519C304.551 94.9467 305.271 95.6347 306.519 95.6347C307.559 95.6347 308.247 95.2347 308.247 94.5147C308.247 94.0187 307.751 93.6507 307.079 93.5227L304.983 93.1227C303.143 92.7707 301.927 91.6987 301.927 89.8427C301.927 87.6987 303.815 86.1947 306.391 86.1947C309.127 86.1947 311.095 87.7627 311.271 90.2427H308.215C308.135 89.2027 307.431 88.5307 306.423 88.5307C305.527 88.5307 304.983 89.0107 304.983 89.6347C304.983 90.1467 305.495 90.4507 306.103 90.5627L308.327 90.9947C310.375 91.3947 311.463 92.4027 311.463 94.0667ZM320.693 94.3227H319.237V97.8267H316.213V86.3387H320.693C323.701 86.3387 325.509 87.6827 325.509 90.2587C325.509 92.8507 323.701 94.3227 320.693 94.3227ZM320.677 88.8827H319.237V91.7787H320.677C321.877 91.7787 322.501 91.1707 322.501 90.2907C322.501 89.3947 321.877 88.8827 320.677 88.8827ZM335.489 98.0667C332.177 98.0667 329.569 95.5547 329.569 92.0667C329.569 88.5787 332.177 86.0987 335.489 86.0987C338.817 86.0987 341.425 88.5787 341.425 92.0667C341.425 95.5547 338.817 98.0667 335.489 98.0667ZM335.489 95.3627C337.297 95.3627 338.305 93.8747 338.305 92.0667C338.305 90.2587 337.297 88.8027 335.489 88.8027C333.681 88.8027 332.673 90.2587 332.673 92.0667C332.673 93.8747 333.681 95.3627 335.489 95.3627ZM353.535 97.8267L348.959 90.6587V97.8267H346.191V86.3387H349.439L353.679 92.9787V86.3387H356.447V97.8267H353.535ZM371.091 94.0667C371.091 96.4347 369.203 97.9867 366.211 97.9867C363.219 97.9867 361.299 96.4027 361.091 93.8587H364.147C364.179 94.9467 364.899 95.6347 366.147 95.6347C367.187 95.6347 367.875 95.2347 367.875 94.5147C367.875 94.0187 367.379 93.6507 366.707 93.5227L364.611 93.1227C362.771 92.7707 361.555 91.6987 361.555 89.8427C361.555 87.6987 363.443 86.1947 366.019 86.1947C368.755 86.1947 370.723 87.7627 370.899 90.2427H367.843C367.763 89.2027 367.059 88.5307 366.051 88.5307C365.155 88.5307 364.611 89.0107 364.611 89.6347C364.611 90.1467 365.123 90.4507 365.731 90.5627L367.955 90.9947C370.003 91.3947 371.091 92.4027 371.091 94.0667ZM380.777 98.0667C377.465 98.0667 374.857 95.5547 374.857 92.0667C374.857 88.5787 377.465 86.0987 380.777 86.0987C384.105 86.0987 386.713 88.5787 386.713 92.0667C386.713 95.5547 384.105 98.0667 380.777 98.0667ZM380.777 95.3627C382.585 95.3627 383.593 93.8747 383.593 92.0667C383.593 90.2587 382.585 88.8027 380.777 88.8027C378.969 88.8027 377.961 90.2587 377.961 92.0667C377.961 93.8747 378.969 95.3627 380.777 95.3627ZM394.503 97.8267H391.479V86.3387H396.183C399.287 86.3387 401.063 87.7307 401.063 90.1787C401.063 91.6507 400.183 92.8667 398.631 93.5227L401.447 97.8267H397.847L395.495 94.0027H394.503V97.8267ZM394.503 88.8347V91.5067H396.055C397.399 91.5067 398.023 91.0907 398.023 90.1787C398.023 89.2667 397.399 88.8347 396.055 88.8347H394.503Z" fill="white"/>
</g>
<g filter="url(#filter3_d_1_304)">
<rect x="209.062" y="164.05" width="105.763" height="56" rx="20" fill="#F0F0F0"/>
</g>
<path d="M240.098 186.96C240.738 186.973 241.391 187.007 242.058 187.06C242.738 187.113 243.404 187.2 244.058 187.32L243.958 188.28C243.384 188.24 242.764 188.207 242.098 188.18C241.431 188.153 240.778 188.14 240.138 188.14C239.591 188.14 239.124 188.16 238.738 188.2C238.351 188.24 238.031 188.333 237.778 188.48C237.524 188.627 237.338 188.867 237.218 189.2C237.111 189.533 237.058 190 237.058 190.6C237.058 191.453 237.204 192.06 237.498 192.42C237.791 192.767 238.278 193.007 238.958 193.14L241.838 193.74C242.891 193.953 243.618 194.36 244.018 194.96C244.431 195.56 244.638 196.413 244.638 197.52C244.638 198.333 244.544 198.987 244.358 199.48C244.171 199.96 243.891 200.327 243.518 200.58C243.158 200.833 242.698 201.007 242.138 201.1C241.578 201.193 240.911 201.24 240.138 201.24C239.658 201.24 239.064 201.22 238.358 201.18C237.651 201.14 236.844 201.047 235.938 200.9L236.038 199.92C236.718 199.933 237.284 199.953 237.738 199.98C238.204 199.993 238.624 200.007 238.998 200.02C239.371 200.02 239.771 200.02 240.198 200.02C240.971 200.007 241.578 199.94 242.018 199.82C242.471 199.7 242.798 199.467 242.998 199.12C243.198 198.76 243.298 198.22 243.298 197.5C243.298 196.9 243.231 196.433 243.098 196.1C242.964 195.753 242.758 195.493 242.478 195.32C242.198 195.133 241.824 195 241.358 194.92L238.438 194.3C237.451 194.1 236.751 193.7 236.338 193.1C235.924 192.487 235.718 191.647 235.718 190.58C235.718 189.767 235.804 189.12 235.978 188.64C236.164 188.147 236.431 187.78 236.778 187.54C237.138 187.3 237.591 187.147 238.138 187.08C238.698 187 239.351 186.96 240.098 186.96ZM239.798 193.96L240.538 194.02L239.878 203.6H239.138L239.798 193.96ZM241.198 184.98L240.618 194.02L239.858 193.96L240.478 184.98H241.198ZM255.6 186.96C256.467 186.96 257.207 187.033 257.82 187.18C258.447 187.313 258.927 187.593 259.26 188.02C259.594 188.433 259.76 189.047 259.76 189.86C259.76 190.46 259.674 191.02 259.5 191.54C259.327 192.06 259.047 192.6 258.66 193.16C258.287 193.72 257.794 194.347 257.18 195.04L252.98 199.8C253.34 199.787 253.72 199.773 254.12 199.76C254.52 199.747 254.907 199.74 255.28 199.74H260.3V201H251.36V200.2C251.36 200.08 251.374 199.973 251.4 199.88C251.44 199.773 251.5 199.68 251.58 199.6L255.86 194.72C256.754 193.72 257.407 192.84 257.82 192.08C258.247 191.307 258.447 190.567 258.42 189.86C258.394 189.34 258.26 188.96 258.02 188.72C257.794 188.48 257.467 188.32 257.04 188.24C256.627 188.16 256.127 188.12 255.54 188.12C255.127 188.12 254.727 188.133 254.34 188.16C253.954 188.173 253.54 188.207 253.1 188.26C252.674 188.313 252.174 188.393 251.6 188.5L251.48 187.48C252.12 187.333 252.667 187.227 253.12 187.16C253.587 187.08 254.014 187.027 254.4 187C254.8 186.973 255.2 186.96 255.6 186.96ZM263.832 198.86C264.019 198.86 264.145 198.9 264.212 198.98C264.292 199.06 264.332 199.187 264.332 199.36V200.5C264.332 200.687 264.292 200.82 264.212 200.9C264.145 200.967 264.019 201 263.832 201H263.392C263.219 201 263.092 200.967 263.012 200.9C262.932 200.82 262.892 200.687 262.892 200.5V199.36C262.892 199.187 262.932 199.06 263.012 198.98C263.092 198.9 263.219 198.86 263.392 198.86H263.832ZM274.866 187.2L274.806 188.32H268.866L268.646 192.64L269.986 192.7C270.933 192.753 271.739 192.853 272.406 193C273.073 193.147 273.619 193.38 274.046 193.7C274.473 194.007 274.779 194.42 274.966 194.94C275.166 195.447 275.266 196.093 275.266 196.88C275.266 197.44 275.213 197.98 275.106 198.5C275.013 199.007 274.813 199.467 274.506 199.88C274.199 200.293 273.753 200.627 273.166 200.88C272.593 201.12 271.833 201.24 270.886 201.24C270.366 201.24 269.759 201.193 269.066 201.1C268.386 201.02 267.686 200.893 266.966 200.72L267.126 199.68C267.753 199.8 268.379 199.9 269.006 199.98C269.633 200.047 270.173 200.08 270.626 200.08C271.573 200.08 272.279 199.953 272.746 199.7C273.226 199.433 273.553 199.067 273.726 198.6C273.899 198.12 273.986 197.547 273.986 196.88C273.999 196.173 273.906 195.62 273.706 195.22C273.519 194.807 273.219 194.507 272.806 194.32C272.393 194.12 271.846 193.987 271.166 193.92C270.499 193.84 269.673 193.787 268.686 193.76L268.006 193.72C267.846 193.693 267.713 193.627 267.606 193.52C267.513 193.413 267.473 193.28 267.486 193.12L267.786 187.2H274.866ZM291.13 187.2C291.504 187.2 291.69 187.393 291.69 187.78L292.29 201H290.97L290.43 188.3H289.99L286.39 199.12C286.31 199.413 286.117 199.56 285.81 199.56H284.49C284.184 199.56 283.984 199.413 283.89 199.12L280.31 188.3H279.87L279.35 201H278.03L278.59 187.78C278.617 187.393 278.817 187.2 279.19 187.2H280.77C281.064 187.2 281.25 187.353 281.33 187.66L284.35 196.66C284.47 196.967 284.57 197.28 284.65 197.6C284.744 197.907 284.844 198.22 284.95 198.54H285.37C285.464 198.22 285.557 197.907 285.65 197.6C285.744 197.28 285.844 196.953 285.95 196.62L288.97 187.66C289.05 187.353 289.244 187.2 289.55 187.2H291.13Z" fill="#262626"/>
<g filter="url(#filter4_d_1_304)">
<path d="M264.137 167.4C265.609 167.4 266.803 166.206 266.803 164.733C266.803 163.26 265.609 162.066 264.137 162.066C262.664 162.066 261.47 163.26 261.47 164.733C261.47 166.206 262.664 167.4 264.137 167.4ZM264.637 164.733V141.5H263.637V164.733H264.637Z" fill="#262626"/>
</g>
<g filter="url(#filter5_d_1_304)">
<rect x="388" y="164.05" width="105.763" height="56" rx="20" fill="#F0F0F0"/>
</g>
<path d="M418.035 186.96C418.675 186.973 419.329 187.007 419.995 187.06C420.675 187.113 421.342 187.2 421.995 187.32L421.895 188.28C421.322 188.24 420.702 188.207 420.035 188.18C419.369 188.153 418.715 188.14 418.075 188.14C417.529 188.14 417.062 188.16 416.675 188.2C416.289 188.24 415.969 188.333 415.715 188.48C415.462 188.627 415.275 188.867 415.155 189.2C415.049 189.533 414.995 190 414.995 190.6C414.995 191.453 415.142 192.06 415.435 192.42C415.729 192.767 416.215 193.007 416.895 193.14L419.775 193.74C420.829 193.953 421.555 194.36 421.955 194.96C422.369 195.56 422.575 196.413 422.575 197.52C422.575 198.333 422.482 198.987 422.295 199.48C422.109 199.96 421.829 200.327 421.455 200.58C421.095 200.833 420.635 201.007 420.075 201.1C419.515 201.193 418.849 201.24 418.075 201.24C417.595 201.24 417.002 201.22 416.295 201.18C415.589 201.14 414.782 201.047 413.875 200.9L413.975 199.92C414.655 199.933 415.222 199.953 415.675 199.98C416.142 199.993 416.562 200.007 416.935 200.02C417.309 200.02 417.709 200.02 418.135 200.02C418.909 200.007 419.515 199.94 419.955 199.82C420.409 199.7 420.735 199.467 420.935 199.12C421.135 198.76 421.235 198.22 421.235 197.5C421.235 196.9 421.169 196.433 421.035 196.1C420.902 195.753 420.695 195.493 420.415 195.32C420.135 195.133 419.762 195 419.295 194.92L416.375 194.3C415.389 194.1 414.689 193.7 414.275 193.1C413.862 192.487 413.655 191.647 413.655 190.58C413.655 189.767 413.742 189.12 413.915 188.64C414.102 188.147 414.369 187.78 414.715 187.54C415.075 187.3 415.529 187.147 416.075 187.08C416.635 187 417.289 186.96 418.035 186.96ZM417.735 193.96L418.475 194.02L417.815 203.6H417.075L417.735 193.96ZM419.135 184.98L418.555 194.02L417.795 193.96L418.415 184.98H419.135ZM433.538 186.96C434.405 186.96 435.145 187.033 435.758 187.18C436.385 187.313 436.865 187.593 437.198 188.02C437.531 188.433 437.698 189.047 437.698 189.86C437.698 190.46 437.611 191.02 437.438 191.54C437.265 192.06 436.985 192.6 436.598 193.16C436.225 193.72 435.731 194.347 435.118 195.04L430.918 199.8C431.278 199.787 431.658 199.773 432.058 199.76C432.458 199.747 432.845 199.74 433.218 199.74H438.238V201H429.298V200.2C429.298 200.08 429.311 199.973 429.338 199.88C429.378 199.773 429.438 199.68 429.518 199.6L433.798 194.72C434.691 193.72 435.345 192.84 435.758 192.08C436.185 191.307 436.385 190.567 436.358 189.86C436.331 189.34 436.198 188.96 435.958 188.72C435.731 188.48 435.405 188.32 434.978 188.24C434.565 188.16 434.065 188.12 433.478 188.12C433.065 188.12 432.665 188.133 432.278 188.16C431.891 188.173 431.478 188.207 431.038 188.26C430.611 188.313 430.111 188.393 429.538 188.5L429.418 187.48C430.058 187.333 430.605 187.227 431.058 187.16C431.525 187.08 431.951 187.027 432.338 187C432.738 186.973 433.138 186.96 433.538 186.96ZM441.769 198.86C441.956 198.86 442.083 198.9 442.149 198.98C442.229 199.06 442.269 199.187 442.269 199.36V200.5C442.269 200.687 442.229 200.82 442.149 200.9C442.083 200.967 441.956 201 441.769 201H441.329C441.156 201 441.029 200.967 440.949 200.9C440.869 200.82 440.829 200.687 440.829 200.5V199.36C440.829 199.187 440.869 199.06 440.949 198.98C441.029 198.9 441.156 198.86 441.329 198.86H441.769ZM452.803 187.2L452.743 188.32H446.803L446.583 192.64L447.923 192.7C448.87 192.753 449.677 192.853 450.343 193C451.01 193.147 451.557 193.38 451.983 193.7C452.41 194.007 452.717 194.42 452.903 194.94C453.103 195.447 453.203 196.093 453.203 196.88C453.203 197.44 453.15 197.98 453.043 198.5C452.95 199.007 452.75 199.467 452.443 199.88C452.137 200.293 451.69 200.627 451.103 200.88C450.53 201.12 449.77 201.24 448.823 201.24C448.303 201.24 447.697 201.193 447.003 201.1C446.323 201.02 445.623 200.893 444.903 200.72L445.063 199.68C445.69 199.8 446.317 199.9 446.943 199.98C447.57 200.047 448.11 200.08 448.563 200.08C449.51 200.08 450.217 199.953 450.683 199.7C451.163 199.433 451.49 199.067 451.663 198.6C451.837 198.12 451.923 197.547 451.923 196.88C451.937 196.173 451.843 195.62 451.643 195.22C451.457 194.807 451.157 194.507 450.743 194.32C450.33 194.12 449.783 193.987 449.103 193.92C448.437 193.84 447.61 193.787 446.623 193.76L445.943 193.72C445.783 193.693 445.65 193.627 445.543 193.52C445.45 193.413 445.41 193.28 445.423 193.12L445.723 187.2H452.803ZM469.068 187.2C469.441 187.2 469.628 187.393 469.628 187.78L470.228 201H468.908L468.368 188.3H467.928L464.328 199.12C464.248 199.413 464.055 199.56 463.748 199.56H462.428C462.121 199.56 461.921 199.413 461.828 199.12L458.248 188.3H457.808L457.288 201H455.968L456.528 187.78C456.555 187.393 456.755 187.2 457.128 187.2H458.708C459.001 187.2 459.188 187.353 459.268 187.66L462.288 196.66C462.408 196.967 462.508 197.28 462.588 197.6C462.681 197.907 462.781 198.22 462.888 198.54H463.308C463.401 198.22 463.495 197.907 463.588 197.6C463.681 197.28 463.781 196.953 463.888 196.62L466.908 187.66C466.988 187.353 467.181 187.2 467.488 187.2H469.068Z" fill="#262626"/>
<g filter="url(#filter6_d_1_304)">
<path d="M442.074 167.4C443.547 167.4 444.741 166.206 444.741 164.733C444.741 163.26 443.547 162.066 442.074 162.066C440.601 162.066 439.408 163.26 439.408 164.733C439.408 166.206 440.601 167.4 442.074 167.4ZM442.574 164.733V141.5H441.574V164.733H442.574Z" fill="#262626"/>
</g>
<path d="M442 142L264 142" stroke="#262626" stroke-width="3" stroke-linecap="round"/>
<path d="M351.73 118.95L351.73 141.5" stroke="#262626" stroke-width="3" stroke-linecap="round"/>
<defs>
<filter id="filter0_d_1_304" x="0.874023" y="0" width="696.126" height="344" filterUnits="userSpaceOnUse" color-interpolation-filters="sRGB">
<feFlood flood-opacity="0" result="BackgroundImageFix"/>
<feColorMatrix in="SourceAlpha" type="matrix" values="0 0 0 0 0 0 0 0 0 0 0 0 0 0 0 0 0 0 127 0" result="hardAlpha"/>
<feOffset dy="4"/>
<feGaussianBlur stdDeviation="5"/>
<feComposite in2="hardAlpha" operator="out"/>
<feColorMatrix type="matrix" values="0 0 0 0 0 0 0 0 0 0 0 0 0 0 0 0 0 0 0.25 0"/>
<feBlend mode="normal" in2="BackgroundImageFix" result="effect1_dropShadow_1_304"/>
<feBlend mode="normal" in="SourceGraphic" in2="effect1_dropShadow_1_304" result="shape"/>
</filter>
<filter id="filter1_d_1_304" x="271.204" y="62" width="163.285" height="68" filterUnits="userSpaceOnUse" color-interpolation-filters="sRGB">
<feFlood flood-opacity="0" result="BackgroundImageFix"/>
<feColorMatrix in="SourceAlpha" type="matrix" values="0 0 0 0 0 0 0 0 0 0 0 0 0 0 0 0 0 0 127 0" result="hardAlpha"/>
<feMorphology radius="1" operator="dilate" in="SourceAlpha" result="effect1_dropShadow_1_304"/>
<feOffset dx="1" dy="5"/>
<feGaussianBlur stdDeviation="2.5"/>
<feComposite in2="hardAlpha" operator="out"/>
<feColorMatrix type="matrix" values="0 0 0 0 0 0 0 0 0 0 0 0 0 0 0 0 0 0 0.25 0"/>
<feBlend mode="normal" in2="BackgroundImageFix" result="effect1_dropShadow_1_304"/>
<feBlend mode="normal" in="SourceGraphic" in2="effect1_dropShadow_1_304" result="shape"/>
</filter>
<filter id="filter2_d_1_304" x="297.463" y="86.0986" width="107.984" height="19.9683" filterUnits="userSpaceOnUse" color-interpolation-filters="sRGB">
<feFlood flood-opacity="0" result="BackgroundImageFix"/>
<feColorMatrix in="SourceAlpha" type="matrix" values="0 0 0 0 0 0 0 0 0 0 0 0 0 0 0 0 0 0 127 0" result="hardAlpha"/>
<feOffset dy="4"/>
<feGaussianBlur stdDeviation="2"/>
<feComposite in2="hardAlpha" operator="out"/>
<feColorMatrix type="matrix" values="0 0 0 0 0 0 0 0 0 0 0 0 0 0 0 0 0 0 0.25 0"/>
<feBlend mode="normal" in2="BackgroundImageFix" result="effect1_dropShadow_1_304"/>
<feBlend mode="normal" in="SourceGraphic" in2="effect1_dropShadow_1_304" result="shape"/>
</filter>
<filter id="filter3_d_1_304" x="204.062" y="163.05" width="117.763" height="68" filterUnits="userSpaceOnUse" color-interpolation-filters="sRGB">
<feFlood flood-opacity="0" result="BackgroundImageFix"/>
<feColorMatrix in="SourceAlpha" type="matrix" values="0 0 0 0 0 0 0 0 0 0 0 0 0 0 0 0 0 0 127 0" result="hardAlpha"/>
<feMorphology radius="1" operator="dilate" in="SourceAlpha" result="effect1_dropShadow_1_304"/>
<feOffset dx="1" dy="5"/>
<feGaussianBlur stdDeviation="2.5"/>
<feComposite in2="hardAlpha" operator="out"/>
<feColorMatrix type="matrix" values="0 0 0 0 0 0 0 0 0 0 0 0 0 0 0 0 0 0 0.25 0"/>
<feBlend mode="normal" in2="BackgroundImageFix" result="effect1_dropShadow_1_304"/>
<feBlend mode="normal" in="SourceGraphic" in2="effect1_dropShadow_1_304" result="shape"/>
</filter>
<filter id="filter4_d_1_304" x="257.47" y="141.5" width="13.3335" height="33.8999" filterUnits="userSpaceOnUse" color-interpolation-filters="sRGB">
<feFlood flood-opacity="0" result="BackgroundImageFix"/>
<feColorMatrix in="SourceAlpha" type="matrix" values="0 0 0 0 0 0 0 0 0 0 0 0 0 0 0 0 0 0 127 0" result="hardAlpha"/>
<feOffset dy="4"/>
<feGaussianBlur stdDeviation="2"/>
<feComposite in2="hardAlpha" operator="out"/>
<feColorMatrix type="matrix" values="0 0 0 0 0 0 0 0 0 0 0 0 0 0 0 0 0 0 0.25 0"/>
<feBlend mode="normal" in2="BackgroundImageFix" result="effect1_dropShadow_1_304"/>
<feBlend mode="normal" in="SourceGraphic" in2="effect1_dropShadow_1_304" result="shape"/>
</filter>
<filter id="filter5_d_1_304" x="383" y="163.05" width="117.763" height="68" filterUnits="userSpaceOnUse" color-interpolation-filters="sRGB">
<feFlood flood-opacity="0" result="BackgroundImageFix"/>
<feColorMatrix in="SourceAlpha" type="matrix" values="0 0 0 0 0 0 0 0 0 0 0 0 0 0 0 0 0 0 127 0" result="hardAlpha"/>
<feMorphology radius="1" operator="dilate" in="SourceAlpha" result="effect1_dropShadow_1_304"/>
<feOffset dx="1" dy="5"/>
<feGaussianBlur stdDeviation="2.5"/>
<feComposite in2="hardAlpha" operator="out"/>
<feColorMatrix type="matrix" values="0 0 0 0 0 0 0 0 0 0 0 0 0 0 0 0 0 0 0.25 0"/>
<feBlend mode="normal" in2="BackgroundImageFix" result="effect1_dropShadow_1_304"/>
<feBlend mode="normal" in="SourceGraphic" in2="effect1_dropShadow_1_304" result="shape"/>
</filter>
<filter id="filter6_d_1_304" x="435.407" y="141.5" width="13.3335" height="33.8999" filterUnits="userSpaceOnUse" color-interpolation-filters="sRGB">
<feFlood flood-opacity="0" result="BackgroundImageFix"/>
<feColorMatrix in="SourceAlpha" type="matrix" values="0 0 0 0 0 0 0 0 0 0 0 0 0 0 0 0 0 0 127 0" result="hardAlpha"/>
<feOffset dy="4"/>
<feGaussianBlur stdDeviation="2"/>
<feComposite in2="hardAlpha" operator="out"/>
<feColorMatrix type="matrix" values="0 0 0 0 0 0 0 0 0 0 0 0 0 0 0 0 0 0 0.25 0"/>
<feBlend mode="normal" in2="BackgroundImageFix" result="effect1_dropShadow_1_304"/>
<feBlend mode="normal" in="SourceGraphic" in2="effect1_dropShadow_1_304" result="shape"/>
</filter>
<linearGradient id="paint0_linear_1_304" x1="630.246" y1="35.9392" x2="624.061" y2="-16.8014" gradientUnits="userSpaceOnUse">
<stop stop-color="#3D5B76"/>
<stop offset="1" stop-color="#192530"/>
</linearGradient>
<linearGradient id="paint1_linear_1_304" x1="445.401" y1="88.5247" x2="385.325" y2="-26.0437" gradientUnits="userSpaceOnUse">
<stop stop-color="#9B59B6"/>
<stop offset="1" stop-color="#1ABC9C"/>
</linearGradient>
<linearGradient id="paint2_linear_1_304" x1="118.286" y1="10.9012" x2="100.162" y2="-45.6773" gradientUnits="userSpaceOnUse">
<stop stop-color="#9B59B6"/>
<stop offset="1" stop-color="#1ABC9C"/>
</linearGradient>
</defs>
</svg>
