<svg width="697" height="344" viewBox="0 0 697 344" fill="none" xmlns="http://www.w3.org/2000/svg">
<g filter="url(#filter0_d_1_274)">
<rect x="10" y="6" width="676.126" height="324" rx="50" fill="white"/>
</g>
<path d="M279.671 31.526C280.343 31.526 281.021 31.532 281.705 31.544C282.389 31.544 283.061 31.556 283.721 31.58C284.381 31.604 284.999 31.646 285.575 31.706L285.449 33.704H280.679C280.379 33.704 280.151 33.782 279.995 33.938C279.851 34.094 279.779 34.322 279.779 34.622V40.958C279.779 41.258 279.851 41.486 279.995 41.642C280.151 41.798 280.379 41.876 280.679 41.876H285.449L285.575 43.874C284.999 43.922 284.381 43.964 283.721 44C283.061 44.024 282.389 44.036 281.705 44.036C281.021 44.048 280.343 44.054 279.671 44.054C278.879 44.054 278.237 43.826 277.745 43.37C277.265 42.902 277.025 42.296 277.025 41.552V34.028C277.025 33.272 277.265 32.666 277.745 32.21C278.237 31.754 278.879 31.526 279.671 31.526ZM277.349 36.566H284.783V38.51H277.349V36.566ZM297.007 35.108L294.433 39.446L297.205 44H294.505L291.877 39.446L294.307 35.108H297.007ZM290.257 35.108L292.687 39.446L290.077 44H287.359L290.131 39.446L287.557 35.108H290.257ZM293.695 38.582V40.238H290.887V38.582H293.695ZM304.035 34.874C304.779 34.874 305.409 34.976 305.925 35.18C306.441 35.372 306.831 35.708 307.095 36.188C307.371 36.656 307.509 37.304 307.509 38.132V44H305.385L305.007 42.074L304.827 41.804V38.114C304.827 37.694 304.725 37.388 304.521 37.196C304.329 37.004 303.957 36.908 303.405 36.908C302.949 36.908 302.379 36.926 301.695 36.962C301.011 36.986 300.309 37.022 299.589 37.07L299.337 35.306C299.769 35.222 300.267 35.15 300.831 35.09C301.395 35.03 301.959 34.982 302.523 34.946C303.087 34.898 303.591 34.874 304.035 34.874ZM306.411 38.528L306.393 40.022L302.433 40.04C302.109 40.04 301.875 40.118 301.731 40.274C301.599 40.43 301.533 40.64 301.533 40.904V41.336C301.533 41.636 301.617 41.87 301.785 42.038C301.953 42.194 302.223 42.272 302.595 42.272C302.907 42.272 303.243 42.206 303.603 42.074C303.975 41.942 304.341 41.756 304.701 41.516C305.061 41.276 305.379 40.994 305.655 40.67V41.822C305.547 42.002 305.385 42.23 305.169 42.506C304.965 42.77 304.701 43.034 304.377 43.298C304.053 43.55 303.675 43.766 303.243 43.946C302.811 44.126 302.319 44.216 301.767 44.216C301.227 44.216 300.741 44.12 300.309 43.928C299.877 43.736 299.535 43.454 299.283 43.082C299.031 42.71 298.905 42.248 298.905 41.696V40.778C298.905 40.07 299.145 39.518 299.625 39.122C300.105 38.726 300.765 38.528 301.605 38.528H306.411ZM321.77 34.874C322.574 34.874 323.186 35.084 323.606 35.504C324.026 35.924 324.236 36.536 324.236 37.34V44H321.59V38.168C321.59 37.796 321.518 37.532 321.374 37.376C321.23 37.208 320.978 37.124 320.618 37.124C320.402 37.124 320.198 37.154 320.006 37.214C319.814 37.274 319.592 37.37 319.34 37.502C319.088 37.634 318.782 37.814 318.422 38.042L318.278 36.566C318.854 36.002 319.418 35.582 319.97 35.306C320.534 35.018 321.134 34.874 321.77 34.874ZM312.626 35.108L312.896 36.872L313.166 37.106V44H310.502V35.108H312.626ZM316.226 34.874C317.018 34.874 317.618 35.084 318.026 35.504C318.446 35.912 318.656 36.524 318.656 37.34V44H316.1V38.168C316.1 37.784 316.016 37.514 315.848 37.358C315.692 37.202 315.446 37.124 315.11 37.124C314.906 37.124 314.702 37.154 314.498 37.214C314.306 37.262 314.078 37.352 313.814 37.484C313.562 37.616 313.25 37.802 312.878 38.042L312.716 36.566C313.304 36.002 313.874 35.582 314.426 35.306C314.978 35.018 315.578 34.874 316.226 34.874ZM333.108 34.892C334.224 34.892 335.022 35.3 335.502 36.116C335.982 36.932 336.222 38.102 336.222 39.626C336.222 40.814 336.096 41.744 335.844 42.416C335.604 43.088 335.232 43.562 334.728 43.838C334.236 44.102 333.618 44.234 332.874 44.234C332.238 44.234 331.632 44.144 331.056 43.964C330.48 43.784 329.97 43.484 329.526 43.064L329.706 41.876C330.102 41.996 330.462 42.104 330.786 42.2C331.122 42.284 331.5 42.326 331.92 42.326C332.304 42.326 332.61 42.26 332.838 42.128C333.066 41.996 333.228 41.738 333.324 41.354C333.432 40.958 333.486 40.388 333.486 39.644C333.486 38.912 333.438 38.354 333.342 37.97C333.246 37.574 333.09 37.304 332.874 37.16C332.658 37.004 332.376 36.926 332.028 36.926C331.644 36.926 331.29 37.004 330.966 37.16C330.642 37.304 330.276 37.514 329.868 37.79L329.526 36.566C329.766 36.242 330.072 35.954 330.444 35.702C330.828 35.45 331.248 35.252 331.704 35.108C332.16 34.964 332.628 34.892 333.108 34.892ZM329.418 35.108L329.67 36.728L329.922 36.998V42.776L329.832 42.992C329.868 43.352 329.892 43.724 329.904 44.108C329.928 44.504 329.934 44.894 329.922 45.278V47.42H327.258V35.108H329.418ZM341.633 31.4L341.615 41.156C341.615 41.456 341.705 41.684 341.885 41.84C342.065 41.984 342.329 42.056 342.677 42.056H343.397L343.703 43.856C343.559 43.928 343.355 43.988 343.091 44.036C342.827 44.096 342.557 44.138 342.281 44.162C342.005 44.198 341.771 44.216 341.579 44.216C340.775 44.216 340.139 44.006 339.671 43.586C339.203 43.166 338.969 42.578 338.969 41.822V31.4H341.633ZM349.969 34.874C351.469 34.874 352.543 35.132 353.191 35.648C353.851 36.152 354.181 36.908 354.181 37.916C354.193 38.732 353.989 39.344 353.569 39.752C353.149 40.148 352.423 40.346 351.391 40.346H346.423V38.852H350.653C351.061 38.852 351.319 38.768 351.427 38.6C351.547 38.42 351.607 38.174 351.607 37.862C351.595 37.442 351.469 37.154 351.229 36.998C351.001 36.83 350.611 36.746 350.059 36.746C349.567 36.746 349.183 36.812 348.907 36.944C348.631 37.076 348.439 37.328 348.331 37.7C348.223 38.072 348.169 38.612 348.169 39.32C348.169 40.064 348.235 40.64 348.367 41.048C348.499 41.444 348.721 41.72 349.033 41.876C349.357 42.032 349.801 42.11 350.365 42.11C350.773 42.11 351.277 42.098 351.877 42.074C352.489 42.038 353.101 41.984 353.713 41.912L353.965 43.55C353.617 43.718 353.221 43.85 352.777 43.946C352.333 44.042 351.877 44.108 351.409 44.144C350.941 44.192 350.491 44.216 350.059 44.216C348.931 44.216 348.019 44.054 347.323 43.73C346.639 43.394 346.141 42.884 345.829 42.2C345.529 41.516 345.379 40.64 345.379 39.572C345.379 38.408 345.535 37.484 345.847 36.8C346.159 36.116 346.651 35.624 347.323 35.324C347.995 35.024 348.877 34.874 349.969 34.874ZM365.634 31.364C366.498 31.364 367.242 31.442 367.866 31.598C368.49 31.742 368.976 32.024 369.324 32.444C369.672 32.864 369.846 33.47 369.846 34.262C369.846 34.73 369.786 35.168 369.666 35.576C369.558 35.972 369.354 36.386 369.054 36.818C368.766 37.25 368.346 37.76 367.794 38.348L364.536 41.714C364.836 41.666 365.136 41.636 365.436 41.624C365.748 41.6 366.06 41.588 366.372 41.588H370.206V44H361.314V42.524C361.314 42.308 361.344 42.11 361.404 41.93C361.464 41.738 361.56 41.564 361.692 41.408L364.788 38.096C365.52 37.34 366.078 36.668 366.462 36.08C366.858 35.492 367.05 34.982 367.038 34.55C367.026 34.286 366.954 34.094 366.822 33.974C366.702 33.854 366.516 33.776 366.264 33.74C366.012 33.704 365.7 33.686 365.328 33.686C364.908 33.686 364.512 33.692 364.14 33.704C363.78 33.704 363.39 33.716 362.97 33.74C362.562 33.764 362.082 33.8 361.53 33.848L361.422 31.796C362.01 31.664 362.538 31.568 363.006 31.508C363.486 31.448 363.936 31.412 364.356 31.4C364.788 31.376 365.214 31.364 365.634 31.364ZM383.074 38.564V40.256H377.71V38.564H383.074ZM395.149 31.346C395.761 31.346 396.427 31.382 397.147 31.454C397.867 31.514 398.569 31.646 399.253 31.85L399.073 33.668C398.545 33.656 397.927 33.644 397.219 33.632C396.511 33.62 395.815 33.614 395.131 33.614C394.795 33.614 394.507 33.626 394.267 33.65C394.039 33.662 393.853 33.71 393.709 33.794C393.565 33.866 393.463 33.98 393.403 34.136C393.343 34.292 393.313 34.508 393.313 34.784C393.313 35.204 393.409 35.51 393.601 35.702C393.805 35.894 394.147 36.068 394.627 36.224L397.021 36.998C398.017 37.334 398.707 37.79 399.091 38.366C399.475 38.942 399.667 39.698 399.667 40.634C399.667 41.342 399.583 41.93 399.415 42.398C399.247 42.866 398.983 43.232 398.623 43.496C398.263 43.76 397.789 43.946 397.201 44.054C396.613 44.174 395.893 44.234 395.041 44.234C394.633 44.234 394.051 44.204 393.295 44.144C392.539 44.096 391.675 43.964 390.703 43.748L390.883 41.804C391.591 41.816 392.203 41.834 392.719 41.858C393.247 41.87 393.697 41.882 394.069 41.894C394.441 41.894 394.765 41.894 395.041 41.894C395.521 41.894 395.893 41.864 396.157 41.804C396.433 41.744 396.625 41.624 396.733 41.444C396.841 41.264 396.895 41.006 396.895 40.67C396.895 40.382 396.853 40.154 396.769 39.986C396.697 39.806 396.571 39.668 396.391 39.572C396.223 39.464 395.989 39.368 395.689 39.284L393.169 38.42C392.221 38.072 391.549 37.616 391.153 37.052C390.757 36.488 390.559 35.744 390.559 34.82C390.559 34.1 390.643 33.518 390.811 33.074C390.991 32.618 391.261 32.264 391.621 32.012C391.993 31.76 392.467 31.586 393.043 31.49C393.631 31.394 394.333 31.346 395.149 31.346ZM405.246 31.58V44H402.51V31.58H405.246ZM414.588 31.58C414.816 31.58 415.014 31.646 415.182 31.778C415.362 31.91 415.482 32.084 415.542 32.3L419.142 44H416.334L413.796 34.874C413.748 34.67 413.7 34.466 413.652 34.262C413.604 34.046 413.562 33.842 413.526 33.65H413.04C413.004 33.842 412.962 34.046 412.914 34.262C412.878 34.466 412.83 34.67 412.77 34.874L410.232 44H407.406L411.024 32.3C411.084 32.084 411.198 31.91 411.366 31.778C411.546 31.646 411.75 31.58 411.978 31.58H414.588ZM416.496 38.654V40.724H410.052V38.654H416.496ZM431.82 31.58V43.01C431.82 43.67 431.49 44 430.83 44H429.318C429.018 44 428.79 43.934 428.634 43.802C428.478 43.658 428.334 43.448 428.202 43.172L424.764 36.656C424.62 36.38 424.476 36.074 424.332 35.738C424.2 35.402 424.086 35.078 423.99 34.766H423.792C423.828 35.09 423.858 35.42 423.882 35.756C423.906 36.08 423.918 36.404 423.918 36.728V44H421.308V32.57C421.308 31.91 421.644 31.58 422.316 31.58H423.81C424.098 31.58 424.314 31.652 424.458 31.796C424.614 31.928 424.764 32.132 424.908 32.408L428.238 38.726C428.382 39.002 428.532 39.308 428.688 39.644C428.844 39.98 428.994 40.328 429.138 40.688H429.354C429.318 40.328 429.288 39.98 429.264 39.644C429.252 39.296 429.246 38.954 429.246 38.618L429.228 31.58H431.82Z" fill="url(#paint0_linear_1_274)"/>
<path d="M108.577 261.2V275H106.817V261.2H108.577ZM113.037 261.2V262.76H102.377V261.2H113.037ZM120.999 265.02C122.759 265.02 123.639 265.913 123.639 267.7V275H121.919V268.18C121.919 267.527 121.812 267.08 121.599 266.84C121.399 266.587 121.045 266.46 120.539 266.46C119.939 266.46 119.339 266.6 118.739 266.88C118.139 267.16 117.425 267.567 116.599 268.1L116.519 266.88C117.279 266.307 118.032 265.853 118.779 265.52C119.525 265.187 120.265 265.02 120.999 265.02ZM116.779 261L116.799 264.86C116.799 265.3 116.779 265.713 116.739 266.1C116.712 266.487 116.665 266.827 116.599 267.12L116.779 267.42V275H115.079V261H116.779ZM130.7 265.02C132.166 265.02 133.226 265.287 133.88 265.82C134.546 266.353 134.88 267.147 134.88 268.2C134.893 269.067 134.713 269.747 134.34 270.24C133.966 270.72 133.373 270.96 132.56 270.96H126.88V269.64H132.12C132.56 269.64 132.846 269.493 132.98 269.2C133.113 268.893 133.18 268.56 133.18 268.2C133.166 267.573 132.98 267.127 132.62 266.86C132.26 266.593 131.646 266.46 130.78 266.46C130.073 266.46 129.513 266.567 129.1 266.78C128.7 266.98 128.413 267.34 128.24 267.86C128.08 268.367 128 269.08 128 270C128 271.04 128.1 271.833 128.3 272.38C128.513 272.927 128.846 273.3 129.3 273.5C129.753 273.7 130.353 273.8 131.1 273.8C131.62 273.8 132.186 273.78 132.8 273.74C133.426 273.687 133.986 273.627 134.48 273.56L134.66 274.7C134.353 274.82 133.973 274.92 133.52 275C133.08 275.08 132.62 275.14 132.14 275.18C131.673 275.22 131.253 275.24 130.88 275.24C129.76 275.24 128.86 275.073 128.18 274.74C127.5 274.393 127 273.847 126.68 273.1C126.373 272.34 126.22 271.34 126.22 270.1C126.22 268.82 126.373 267.813 126.68 267.08C127 266.333 127.486 265.807 128.14 265.5C128.806 265.18 129.66 265.02 130.7 265.02ZM143.983 262.38V272.32C143.983 272.787 144.083 273.12 144.283 273.32C144.483 273.52 144.823 273.62 145.303 273.62H146.783L146.983 274.92C146.77 274.973 146.523 275.02 146.243 275.06C145.963 275.1 145.69 275.127 145.423 275.14C145.157 275.167 144.943 275.18 144.783 275.18C143.97 275.18 143.35 274.953 142.923 274.5C142.497 274.047 142.283 273.393 142.283 272.54V262.38H143.983ZM147.083 265.26V266.6H140.523V265.36L142.443 265.26H147.083ZM153.281 265.02C154.401 265.02 155.294 265.187 155.961 265.52C156.641 265.853 157.127 266.4 157.421 267.16C157.714 267.907 157.861 268.9 157.861 270.14C157.861 271.38 157.714 272.38 157.421 273.14C157.127 273.887 156.641 274.427 155.961 274.76C155.294 275.093 154.401 275.26 153.281 275.26C152.174 275.26 151.281 275.093 150.601 274.76C149.934 274.427 149.447 273.887 149.141 273.14C148.847 272.38 148.701 271.38 148.701 270.14C148.701 268.9 148.847 267.907 149.141 267.16C149.447 266.4 149.934 265.853 150.601 265.52C151.281 265.187 152.174 265.02 153.281 265.02ZM153.281 266.46C152.574 266.46 152.014 266.573 151.601 266.8C151.201 267.013 150.914 267.387 150.741 267.92C150.567 268.453 150.481 269.193 150.481 270.14C150.481 271.087 150.567 271.827 150.741 272.36C150.914 272.893 151.201 273.273 151.601 273.5C152.014 273.713 152.574 273.82 153.281 273.82C153.987 273.82 154.547 273.713 154.961 273.5C155.374 273.273 155.667 272.893 155.841 272.36C156.014 271.827 156.101 271.087 156.101 270.14C156.101 269.193 156.014 268.453 155.841 267.92C155.667 267.387 155.374 267.013 154.961 266.8C154.547 266.573 153.987 266.46 153.281 266.46ZM162.948 262.38V272.32C162.948 272.787 163.048 273.12 163.248 273.32C163.448 273.52 163.788 273.62 164.268 273.62H165.748L165.948 274.92C165.735 274.973 165.488 275.02 165.208 275.06C164.928 275.1 164.655 275.127 164.388 275.14C164.122 275.167 163.908 275.18 163.748 275.18C162.935 275.18 162.315 274.953 161.888 274.5C161.462 274.047 161.248 273.393 161.248 272.54V262.38H162.948ZM166.048 265.26V266.6H159.488V265.36L161.408 265.26H166.048ZM172.725 265.02C173.445 265.02 174.052 265.12 174.545 265.32C175.052 265.507 175.432 265.827 175.685 266.28C175.939 266.733 176.065 267.353 176.065 268.14V275H174.725L174.465 272.88L174.345 272.66V268.14C174.345 267.54 174.205 267.113 173.925 266.86C173.659 266.593 173.139 266.46 172.365 266.46C171.859 266.46 171.219 266.487 170.445 266.54C169.685 266.593 168.932 266.653 168.185 266.72L168.025 265.46C168.479 265.38 168.972 265.307 169.505 265.24C170.052 265.173 170.605 265.12 171.165 265.08C171.725 265.04 172.245 265.02 172.725 265.02ZM175.265 269L175.245 270.28L170.585 270.3C170.119 270.313 169.792 270.44 169.605 270.68C169.419 270.907 169.325 271.227 169.325 271.64V272.26C169.325 272.767 169.445 273.14 169.685 273.38C169.925 273.607 170.312 273.72 170.845 273.72C171.219 273.72 171.639 273.653 172.105 273.52C172.585 273.373 173.065 273.153 173.545 272.86C174.025 272.567 174.465 272.193 174.865 271.74V273C174.719 273.187 174.505 273.407 174.225 273.66C173.959 273.9 173.632 274.14 173.245 274.38C172.872 274.607 172.452 274.8 171.985 274.96C171.532 275.107 171.039 275.18 170.505 275.18C169.932 275.18 169.425 275.08 168.985 274.88C168.545 274.667 168.199 274.36 167.945 273.96C167.705 273.547 167.585 273.047 167.585 272.46V271.4C167.585 270.64 167.819 270.053 168.285 269.64C168.765 269.213 169.432 269 170.285 269H175.265ZM180.822 261L180.802 272.32C180.802 272.747 180.915 273.073 181.142 273.3C181.382 273.513 181.715 273.62 182.142 273.62H183.082L183.282 274.92C183.162 274.973 182.989 275.02 182.762 275.06C182.549 275.1 182.322 275.127 182.082 275.14C181.855 275.167 181.662 275.18 181.502 275.18C180.782 275.18 180.202 274.967 179.762 274.54C179.335 274.113 179.122 273.5 179.122 272.7V261H180.822ZM191.073 262.38V272.32C191.073 272.787 191.173 273.12 191.373 273.32C191.573 273.52 191.913 273.62 192.393 273.62H193.873L194.073 274.92C193.86 274.973 193.613 275.02 193.333 275.06C193.053 275.1 192.78 275.127 192.513 275.14C192.247 275.167 192.033 275.18 191.873 275.18C191.06 275.18 190.44 274.953 190.013 274.5C189.587 274.047 189.373 273.393 189.373 272.54V262.38H191.073ZM194.173 265.26V266.6H187.613V265.36L189.533 265.26H194.173ZM200.25 265.02C201.717 265.02 202.777 265.287 203.43 265.82C204.097 266.353 204.43 267.147 204.43 268.2C204.444 269.067 204.264 269.747 203.89 270.24C203.517 270.72 202.924 270.96 202.11 270.96H196.43V269.64H201.67C202.11 269.64 202.397 269.493 202.53 269.2C202.664 268.893 202.73 268.56 202.73 268.2C202.717 267.573 202.53 267.127 202.17 266.86C201.81 266.593 201.197 266.46 200.33 266.46C199.624 266.46 199.064 266.567 198.65 266.78C198.25 266.98 197.964 267.34 197.79 267.86C197.63 268.367 197.55 269.08 197.55 270C197.55 271.04 197.65 271.833 197.85 272.38C198.064 272.927 198.397 273.3 198.85 273.5C199.304 273.7 199.904 273.8 200.65 273.8C201.17 273.8 201.737 273.78 202.35 273.74C202.977 273.687 203.537 273.627 204.03 273.56L204.21 274.7C203.904 274.82 203.524 274.92 203.07 275C202.63 275.08 202.17 275.14 201.69 275.18C201.224 275.22 200.804 275.24 200.43 275.24C199.31 275.24 198.41 275.073 197.73 274.74C197.05 274.393 196.55 273.847 196.23 273.1C195.924 272.34 195.77 271.34 195.77 270.1C195.77 268.82 195.924 267.813 196.23 267.08C196.55 266.333 197.037 265.807 197.69 265.5C198.357 265.18 199.21 265.02 200.25 265.02ZM211.593 265.02C212.313 265.02 212.919 265.12 213.413 265.32C213.919 265.507 214.299 265.827 214.553 266.28C214.806 266.733 214.933 267.353 214.933 268.14V275H213.593L213.333 272.88L213.213 272.66V268.14C213.213 267.54 213.073 267.113 212.793 266.86C212.526 266.593 212.006 266.46 211.233 266.46C210.726 266.46 210.086 266.487 209.313 266.54C208.553 266.593 207.799 266.653 207.053 266.72L206.893 265.46C207.346 265.38 207.839 265.307 208.373 265.24C208.919 265.173 209.473 265.12 210.033 265.08C210.593 265.04 211.113 265.02 211.593 265.02ZM214.133 269L214.113 270.28L209.453 270.3C208.986 270.313 208.659 270.44 208.473 270.68C208.286 270.907 208.193 271.227 208.193 271.64V272.26C208.193 272.767 208.313 273.14 208.553 273.38C208.793 273.607 209.179 273.72 209.713 273.72C210.086 273.72 210.506 273.653 210.973 273.52C211.453 273.373 211.933 273.153 212.413 272.86C212.893 272.567 213.333 272.193 213.733 271.74V273C213.586 273.187 213.373 273.407 213.093 273.66C212.826 273.9 212.499 274.14 212.113 274.38C211.739 274.607 211.319 274.8 210.853 274.96C210.399 275.107 209.906 275.18 209.373 275.18C208.799 275.18 208.293 275.08 207.853 274.88C207.413 274.667 207.066 274.36 206.813 273.96C206.573 273.547 206.453 273.047 206.453 272.46V271.4C206.453 270.64 206.686 270.053 207.153 269.64C207.633 269.213 208.299 269 209.153 269H214.133ZM229.829 265.02C230.669 265.02 231.309 265.247 231.749 265.7C232.203 266.153 232.429 266.82 232.429 267.7V275H230.749V268.18C230.736 267.58 230.616 267.147 230.389 266.88C230.163 266.6 229.776 266.46 229.229 266.46C228.883 266.46 228.549 266.52 228.229 266.64C227.923 266.747 227.583 266.92 227.209 267.16C226.836 267.4 226.383 267.713 225.849 268.1L225.749 266.9C226.456 266.273 227.143 265.807 227.809 265.5C228.476 265.18 229.149 265.02 229.829 265.02ZM219.369 265.26L219.489 267.12L219.669 267.42V275H217.969V265.26H219.369ZM223.449 265.02C224.276 265.02 224.909 265.247 225.349 265.7C225.789 266.14 226.016 266.807 226.029 267.7V275H224.389V268.18C224.389 267.553 224.263 267.113 224.009 266.86C223.756 266.593 223.376 266.46 222.869 266.46C222.536 266.46 222.209 266.513 221.889 266.62C221.583 266.727 221.236 266.9 220.849 267.14C220.476 267.38 220.016 267.7 219.469 268.1L219.349 266.9C220.056 266.273 220.743 265.807 221.409 265.5C222.076 265.18 222.756 265.02 223.449 265.02ZM242.03 262.38V272.32C242.03 272.787 242.13 273.12 242.33 273.32C242.53 273.52 242.87 273.62 243.35 273.62H244.83L245.03 274.92C244.817 274.973 244.57 275.02 244.29 275.06C244.01 275.1 243.737 275.127 243.47 275.14C243.204 275.167 242.99 275.18 242.83 275.18C242.017 275.18 241.397 274.953 240.97 274.5C240.544 274.047 240.33 273.393 240.33 272.54V262.38H242.03ZM245.13 265.26V266.6H238.57V265.36L240.49 265.26H245.13ZM248.847 265.26V272.1C248.834 272.713 248.947 273.147 249.187 273.4C249.427 273.653 249.827 273.78 250.387 273.78C250.934 273.78 251.474 273.653 252.007 273.4C252.554 273.133 253.207 272.753 253.967 272.26L254.187 273.44C253.427 274.04 252.687 274.493 251.967 274.8C251.261 275.107 250.541 275.26 249.807 275.26C248.034 275.26 247.147 274.367 247.147 272.58V265.26H248.847ZM255.487 265.26V275H254.127L253.967 273.16L253.787 272.86V265.26H255.487ZM259.934 265.26L260.154 267.12L260.314 267.42V275H258.614V265.26H259.934ZM264.714 265.02L264.514 266.62H263.954C263.38 266.62 262.807 266.74 262.234 266.98C261.66 267.207 260.96 267.533 260.134 267.96L259.994 266.9C260.714 266.313 261.434 265.853 262.154 265.52C262.887 265.187 263.594 265.02 264.274 265.02H264.714ZM272.561 265.02C274.321 265.02 275.201 265.913 275.201 267.7V275H273.501V268.18C273.501 267.527 273.394 267.08 273.181 266.84C272.968 266.587 272.608 266.46 272.101 266.46C271.501 266.46 270.901 266.607 270.301 266.9C269.701 267.193 268.988 267.593 268.161 268.1L268.081 266.88C268.841 266.293 269.594 265.84 270.341 265.52C271.088 265.187 271.828 265.02 272.561 265.02ZM268.081 265.26L268.221 267.12L268.341 267.42V275H266.641V265.26H268.081ZM282.382 265.02C283.502 265.02 284.395 265.187 285.062 265.52C285.742 265.853 286.229 266.4 286.522 267.16C286.815 267.907 286.962 268.9 286.962 270.14C286.962 271.38 286.815 272.38 286.522 273.14C286.229 273.887 285.742 274.427 285.062 274.76C284.395 275.093 283.502 275.26 282.382 275.26C281.275 275.26 280.382 275.093 279.702 274.76C279.035 274.427 278.549 273.887 278.242 273.14C277.949 272.38 277.802 271.38 277.802 270.14C277.802 268.9 277.949 267.907 278.242 267.16C278.549 266.4 279.035 265.853 279.702 265.52C280.382 265.187 281.275 265.02 282.382 265.02ZM282.382 266.46C281.675 266.46 281.115 266.573 280.702 266.8C280.302 267.013 280.015 267.387 279.842 267.92C279.669 268.453 279.582 269.193 279.582 270.14C279.582 271.087 279.669 271.827 279.842 272.36C280.015 272.893 280.302 273.273 280.702 273.5C281.115 273.713 281.675 273.82 282.382 273.82C283.089 273.82 283.649 273.713 284.062 273.5C284.475 273.273 284.769 272.893 284.942 272.36C285.115 271.827 285.202 271.087 285.202 270.14C285.202 269.193 285.115 268.453 284.942 267.92C284.769 267.387 284.475 267.013 284.062 266.8C283.649 266.573 283.089 266.46 282.382 266.46ZM298.172 265.26L294.612 274.58C294.559 274.713 294.479 274.82 294.372 274.9C294.279 274.967 294.159 275 294.012 275H292.472C292.339 275 292.219 274.967 292.112 274.9C292.005 274.82 291.925 274.713 291.872 274.58L288.312 265.26H290.132L292.532 272.08C292.639 272.36 292.739 272.647 292.832 272.94C292.925 273.233 293.019 273.513 293.112 273.78H293.372C293.479 273.5 293.579 273.22 293.672 272.94C293.779 272.647 293.879 272.36 293.972 272.08L296.372 265.26H298.172ZM304 265.02C305.467 265.02 306.527 265.287 307.18 265.82C307.847 266.353 308.18 267.147 308.18 268.2C308.194 269.067 308.014 269.747 307.64 270.24C307.267 270.72 306.674 270.96 305.86 270.96H300.18V269.64H305.42C305.86 269.64 306.147 269.493 306.28 269.2C306.414 268.893 306.48 268.56 306.48 268.2C306.467 267.573 306.28 267.127 305.92 266.86C305.56 266.593 304.947 266.46 304.08 266.46C303.374 266.46 302.814 266.567 302.4 266.78C302 266.98 301.714 267.34 301.54 267.86C301.38 268.367 301.3 269.08 301.3 270C301.3 271.04 301.4 271.833 301.6 272.38C301.814 272.927 302.147 273.3 302.6 273.5C303.054 273.7 303.654 273.8 304.4 273.8C304.92 273.8 305.487 273.78 306.1 273.74C306.727 273.687 307.287 273.627 307.78 273.56L307.96 274.7C307.654 274.82 307.274 274.92 306.82 275C306.38 275.08 305.92 275.14 305.44 275.18C304.974 275.22 304.554 275.24 304.18 275.24C303.06 275.24 302.16 275.073 301.48 274.74C300.8 274.393 300.3 273.847 299.98 273.1C299.674 272.34 299.52 271.34 299.52 270.1C299.52 268.82 299.674 267.813 299.98 267.08C300.3 266.333 300.787 265.807 301.44 265.5C302.107 265.18 302.96 265.02 304 265.02ZM312.063 265.26L312.283 267.12L312.443 267.42V275H310.743V265.26H312.063ZM316.843 265.02L316.643 266.62H316.083C315.509 266.62 314.936 266.74 314.363 266.98C313.789 267.207 313.089 267.533 312.263 267.96L312.123 266.9C312.843 266.313 313.563 265.853 314.283 265.52C315.016 265.187 315.723 265.02 316.403 265.02H316.843ZM324.882 262.38V272.32C324.882 272.787 324.982 273.12 325.182 273.32C325.382 273.52 325.722 273.62 326.202 273.62H327.682L327.882 274.92C327.669 274.973 327.422 275.02 327.142 275.06C326.862 275.1 326.589 275.127 326.322 275.14C326.055 275.167 325.842 275.18 325.682 275.18C324.869 275.18 324.249 274.953 323.822 274.5C323.395 274.047 323.182 273.393 323.182 272.54V262.38H324.882ZM327.982 265.26V266.6H321.422V265.36L323.342 265.26H327.982ZM334.179 265.02C335.299 265.02 336.192 265.187 336.859 265.52C337.539 265.853 338.026 266.4 338.319 267.16C338.612 267.907 338.759 268.9 338.759 270.14C338.759 271.38 338.612 272.38 338.319 273.14C338.026 273.887 337.539 274.427 336.859 274.76C336.192 275.093 335.299 275.26 334.179 275.26C333.072 275.26 332.179 275.093 331.499 274.76C330.832 274.427 330.346 273.887 330.039 273.14C329.746 272.38 329.599 271.38 329.599 270.14C329.599 268.9 329.746 267.907 330.039 267.16C330.346 266.4 330.832 265.853 331.499 265.52C332.179 265.187 333.072 265.02 334.179 265.02ZM334.179 266.46C333.472 266.46 332.912 266.573 332.499 266.8C332.099 267.013 331.812 267.387 331.639 267.92C331.466 268.453 331.379 269.193 331.379 270.14C331.379 271.087 331.466 271.827 331.639 272.36C331.812 272.893 332.099 273.273 332.499 273.5C332.912 273.713 333.472 273.82 334.179 273.82C334.886 273.82 335.446 273.713 335.859 273.5C336.272 273.273 336.566 272.893 336.739 272.36C336.912 271.827 336.999 271.087 336.999 270.14C336.999 269.193 336.912 268.453 336.739 267.92C336.566 267.387 336.272 267.013 335.859 266.8C335.446 266.573 334.886 266.46 334.179 266.46ZM349.799 265.02C350.106 265.02 350.446 265.033 350.819 265.06C351.193 265.087 351.579 265.133 351.979 265.2C352.379 265.253 352.766 265.327 353.139 265.42C353.526 265.5 353.879 265.593 354.199 265.7L352.819 266.88C352.473 266.773 352.119 266.687 351.759 266.62C351.399 266.553 351.053 266.507 350.719 266.48C350.386 266.453 350.073 266.447 349.779 266.46C349.139 266.473 348.626 266.593 348.239 266.82C347.853 267.033 347.573 267.413 347.399 267.96C347.239 268.507 347.159 269.28 347.159 270.28C347.159 271.467 347.306 272.347 347.599 272.92C347.893 273.48 348.466 273.76 349.319 273.76C349.933 273.76 350.486 273.633 350.979 273.38C351.486 273.113 352.059 272.76 352.699 272.32L352.919 273.44C352.506 273.813 352.073 274.14 351.619 274.42C351.166 274.687 350.699 274.893 350.219 275.04C349.753 275.187 349.266 275.26 348.759 275.26C347.626 275.26 346.786 274.853 346.239 274.04C345.693 273.227 345.419 271.933 345.419 270.16C345.419 269.32 345.486 268.58 345.619 267.94C345.766 267.3 346.006 266.767 346.339 266.34C346.673 265.9 347.119 265.573 347.679 265.36C348.239 265.133 348.946 265.02 349.799 265.02ZM352.499 265.64L354.199 265.7V279.02H352.499L352.479 275.68C352.479 275.253 352.493 274.873 352.519 274.54C352.546 274.193 352.599 273.84 352.679 273.48L352.499 273.2V265.64ZM358.926 265.26V272.1C358.912 272.713 359.026 273.147 359.266 273.4C359.506 273.653 359.906 273.78 360.466 273.78C361.012 273.78 361.552 273.653 362.086 273.4C362.632 273.133 363.286 272.753 364.046 272.26L364.266 273.44C363.506 274.04 362.766 274.493 362.046 274.8C361.339 275.107 360.619 275.26 359.886 275.26C358.112 275.26 357.226 274.367 357.226 272.58V265.26H358.926ZM365.566 265.26V275H364.206L364.046 273.16L363.866 272.86V265.26H365.566ZM373.292 265.02C374.012 265.02 374.619 265.12 375.112 265.32C375.619 265.507 375.999 265.827 376.252 266.28C376.505 266.733 376.632 267.353 376.632 268.14V275H375.292L375.032 272.88L374.912 272.66V268.14C374.912 267.54 374.772 267.113 374.492 266.86C374.225 266.593 373.705 266.46 372.932 266.46C372.425 266.46 371.785 266.487 371.012 266.54C370.252 266.593 369.499 266.653 368.752 266.72L368.592 265.46C369.045 265.38 369.539 265.307 370.072 265.24C370.619 265.173 371.172 265.12 371.732 265.08C372.292 265.04 372.812 265.02 373.292 265.02ZM375.832 269L375.812 270.28L371.152 270.3C370.685 270.313 370.359 270.44 370.172 270.68C369.985 270.907 369.892 271.227 369.892 271.64V272.26C369.892 272.767 370.012 273.14 370.252 273.38C370.492 273.607 370.879 273.72 371.412 273.72C371.785 273.72 372.205 273.653 372.672 273.52C373.152 273.373 373.632 273.153 374.112 272.86C374.592 272.567 375.032 272.193 375.432 271.74V273C375.285 273.187 375.072 273.407 374.792 273.66C374.525 273.9 374.199 274.14 373.812 274.38C373.439 274.607 373.019 274.8 372.552 274.96C372.099 275.107 371.605 275.18 371.072 275.18C370.499 275.18 369.992 275.08 369.552 274.88C369.112 274.667 368.765 274.36 368.512 273.96C368.272 273.547 368.152 273.047 368.152 272.46V271.4C368.152 270.64 368.385 270.053 368.852 269.64C369.332 269.213 369.999 269 370.852 269H375.832ZM381.388 261L381.368 272.32C381.368 272.747 381.482 273.073 381.708 273.3C381.948 273.513 382.282 273.62 382.708 273.62H383.648L383.848 274.92C383.728 274.973 383.555 275.02 383.328 275.06C383.115 275.1 382.888 275.127 382.648 275.14C382.422 275.167 382.228 275.18 382.068 275.18C381.348 275.18 380.768 274.967 380.328 274.54C379.902 274.113 379.688 273.5 379.688 272.7V261H381.388ZM387.366 265.26V275H385.686V265.26H387.366ZM386.926 261.12C387.273 261.12 387.446 261.293 387.446 261.64V262.78C387.446 263.127 387.273 263.3 386.926 263.3H386.126C385.779 263.3 385.606 263.127 385.606 262.78V261.64C385.606 261.293 385.779 261.12 386.126 261.12H386.926ZM394.167 260.66C394.38 260.66 394.654 260.667 394.987 260.68C395.32 260.68 395.66 260.693 396.007 260.72C396.354 260.733 396.654 260.76 396.907 260.8L396.767 262.06H394.767C394.127 262.06 393.674 262.187 393.407 262.44C393.154 262.693 393.027 263.113 393.027 263.7V275H391.327V263.52C391.327 262.907 391.42 262.393 391.607 261.98C391.794 261.553 392.094 261.227 392.507 261C392.92 260.773 393.474 260.66 394.167 260.66ZM396.147 265.26V266.6H389.567V265.36L391.427 265.26H396.147ZM406.804 265.26L402.904 275.54C402.744 275.967 402.544 276.387 402.304 276.8C402.064 277.213 401.771 277.587 401.424 277.92C401.091 278.267 400.691 278.547 400.224 278.76C399.771 278.973 399.244 279.093 398.644 279.12L398.484 278C399.271 277.747 399.878 277.407 400.304 276.98C400.731 276.553 401.071 276.033 401.324 275.42L401.804 274.26C401.911 273.993 402.018 273.7 402.124 273.38C402.231 273.06 402.331 272.773 402.424 272.52L404.964 265.26H406.804ZM398.784 265.26L401.364 272.52C401.431 272.72 401.498 272.92 401.564 273.12C401.631 273.307 401.684 273.5 401.724 273.7H402.184L401.624 275H401.104C400.971 275 400.844 274.96 400.724 274.88C400.618 274.8 400.544 274.693 400.504 274.56L396.964 265.26H398.784ZM416.042 260.66C416.255 260.66 416.529 260.667 416.862 260.68C417.195 260.68 417.535 260.693 417.882 260.72C418.229 260.733 418.529 260.76 418.782 260.8L418.642 262.06H416.642C416.002 262.06 415.549 262.187 415.282 262.44C415.029 262.693 414.902 263.113 414.902 263.7V275H413.202V263.52C413.202 262.907 413.295 262.393 413.482 261.98C413.669 261.553 413.969 261.227 414.382 261C414.795 260.773 415.349 260.66 416.042 260.66ZM418.022 265.26V266.6H411.442V265.36L413.302 265.26H418.022ZM424.003 265.02C425.123 265.02 426.017 265.187 426.683 265.52C427.363 265.853 427.85 266.4 428.143 267.16C428.437 267.907 428.583 268.9 428.583 270.14C428.583 271.38 428.437 272.38 428.143 273.14C427.85 273.887 427.363 274.427 426.683 274.76C426.017 275.093 425.123 275.26 424.003 275.26C422.897 275.26 422.003 275.093 421.323 274.76C420.657 274.427 420.17 273.887 419.863 273.14C419.57 272.38 419.423 271.38 419.423 270.14C419.423 268.9 419.57 267.907 419.863 267.16C420.17 266.4 420.657 265.853 421.323 265.52C422.003 265.187 422.897 265.02 424.003 265.02ZM424.003 266.46C423.297 266.46 422.737 266.573 422.323 266.8C421.923 267.013 421.637 267.387 421.463 267.92C421.29 268.453 421.203 269.193 421.203 270.14C421.203 271.087 421.29 271.827 421.463 272.36C421.637 272.893 421.923 273.273 422.323 273.5C422.737 273.713 423.297 273.82 424.003 273.82C424.71 273.82 425.27 273.713 425.683 273.5C426.097 273.273 426.39 272.893 426.563 272.36C426.737 271.827 426.823 271.087 426.823 270.14C426.823 269.193 426.737 268.453 426.563 267.92C426.39 267.387 426.097 267.013 425.683 266.8C425.27 266.573 424.71 266.46 424.003 266.46ZM432.57 265.26L432.79 267.12L432.95 267.42V275H431.25V265.26H432.57ZM437.35 265.02L437.15 266.62H436.59C436.017 266.62 435.444 266.74 434.87 266.98C434.297 267.207 433.597 267.533 432.77 267.96L432.63 266.9C433.35 266.313 434.07 265.853 434.79 265.52C435.524 265.187 436.23 265.02 436.91 265.02H437.35ZM445.39 262.38V272.32C445.39 272.787 445.49 273.12 445.69 273.32C445.89 273.52 446.23 273.62 446.71 273.62H448.19L448.39 274.92C448.176 274.973 447.93 275.02 447.65 275.06C447.37 275.1 447.096 275.127 446.83 275.14C446.563 275.167 446.35 275.18 446.19 275.18C445.376 275.18 444.756 274.953 444.33 274.5C443.903 274.047 443.69 273.393 443.69 272.54V262.38H445.39ZM448.49 265.26V266.6H441.93V265.36L443.85 265.26H448.49ZM456.487 265.02C458.247 265.02 459.127 265.913 459.127 267.7V275H457.407V268.18C457.407 267.527 457.3 267.08 457.087 266.84C456.887 266.587 456.534 266.46 456.027 266.46C455.427 266.46 454.827 266.6 454.227 266.88C453.627 267.16 452.914 267.567 452.087 268.1L452.007 266.88C452.767 266.307 453.52 265.853 454.267 265.52C455.014 265.187 455.754 265.02 456.487 265.02ZM452.267 261L452.287 264.86C452.287 265.3 452.267 265.713 452.227 266.1C452.2 266.487 452.154 266.827 452.087 267.12L452.267 267.42V275H450.567V261H452.267ZM463.948 265.26V275H462.268V265.26H463.948ZM463.508 261.12C463.855 261.12 464.028 261.293 464.028 261.64V262.78C464.028 263.127 463.855 263.3 463.508 263.3H462.708C462.361 263.3 462.188 263.127 462.188 262.78V261.64C462.188 261.293 462.361 261.12 462.708 261.12H463.508ZM470.389 265.02C470.816 265.02 471.269 265.033 471.749 265.06C472.229 265.087 472.702 265.12 473.169 265.16C473.649 265.2 474.089 265.253 474.489 265.32L474.349 266.56C473.736 266.533 473.116 266.513 472.489 266.5C471.876 266.473 471.262 266.46 470.649 266.46C470.049 266.447 469.576 266.46 469.229 266.5C468.882 266.54 468.629 266.647 468.469 266.82C468.322 266.993 468.249 267.287 468.249 267.7C468.249 268.207 468.369 268.54 468.609 268.7C468.849 268.86 469.202 268.993 469.669 269.1L472.509 269.74C473.282 269.927 473.849 270.213 474.209 270.6C474.582 270.987 474.769 271.593 474.769 272.42C474.769 273.22 474.616 273.82 474.309 274.22C474.016 274.62 473.562 274.887 472.949 275.02C472.336 275.153 471.556 275.22 470.609 275.22C470.262 275.22 469.742 275.207 469.049 275.18C468.369 275.153 467.616 275.073 466.789 274.94L466.909 273.7C467.229 273.713 467.569 273.733 467.929 273.76C468.289 273.773 468.662 273.78 469.049 273.78C469.449 273.78 469.856 273.78 470.269 273.78C471.002 273.78 471.576 273.747 471.989 273.68C472.402 273.613 472.696 273.487 472.869 273.3C473.042 273.1 473.129 272.807 473.129 272.42C473.129 271.94 472.989 271.62 472.709 271.46C472.429 271.3 472.056 271.167 471.589 271.06L468.789 270.42C468.256 270.287 467.829 270.113 467.509 269.9C467.189 269.673 466.956 269.387 466.809 269.04C466.662 268.68 466.589 268.233 466.589 267.7C466.589 266.94 466.722 266.367 466.989 265.98C467.256 265.593 467.669 265.333 468.229 265.2C468.789 265.067 469.509 265.007 470.389 265.02ZM487.338 265.02C488.525 265.02 489.378 265.46 489.898 266.34C490.418 267.207 490.678 268.487 490.678 270.18C490.678 271.433 490.545 272.433 490.278 273.18C490.012 273.913 489.605 274.44 489.058 274.76C488.525 275.08 487.838 275.24 486.998 275.24C486.358 275.24 485.725 275.153 485.098 274.98C484.485 274.807 483.885 274.54 483.298 274.18L483.398 273.16C484.025 273.333 484.578 273.48 485.058 273.6C485.538 273.707 486.045 273.76 486.578 273.76C487.152 273.76 487.605 273.66 487.938 273.46C488.285 273.26 488.538 272.9 488.698 272.38C488.858 271.86 488.938 271.127 488.938 270.18C488.938 269.26 488.865 268.533 488.718 268C488.572 267.467 488.338 267.087 488.018 266.86C487.712 266.62 487.298 266.5 486.778 266.5C486.245 266.5 485.718 266.627 485.198 266.88C484.678 267.133 484.072 267.52 483.378 268.04L483.218 266.9C483.578 266.513 483.985 266.18 484.438 265.9C484.892 265.62 485.365 265.407 485.858 265.26C486.365 265.1 486.858 265.02 487.338 265.02ZM483.158 265.26L483.338 267.28L483.458 267.54V273.78L483.378 274.02C483.418 274.393 483.438 274.753 483.438 275.1C483.452 275.447 483.458 275.813 483.458 276.2V279.02H481.758V265.26H483.158ZM497.48 265.02C498.6 265.02 499.493 265.187 500.16 265.52C500.84 265.853 501.326 266.4 501.62 267.16C501.913 267.907 502.06 268.9 502.06 270.14C502.06 271.38 501.913 272.38 501.62 273.14C501.326 273.887 500.84 274.427 500.16 274.76C499.493 275.093 498.6 275.26 497.48 275.26C496.373 275.26 495.48 275.093 494.8 274.76C494.133 274.427 493.646 273.887 493.34 273.14C493.046 272.38 492.9 271.38 492.9 270.14C492.9 268.9 493.046 267.907 493.34 267.16C493.646 266.4 494.133 265.853 494.8 265.52C495.48 265.187 496.373 265.02 497.48 265.02ZM497.48 266.46C496.773 266.46 496.213 266.573 495.8 266.8C495.4 267.013 495.113 267.387 494.94 267.92C494.766 268.453 494.68 269.193 494.68 270.14C494.68 271.087 494.766 271.827 494.94 272.36C495.113 272.893 495.4 273.273 495.8 273.5C496.213 273.713 496.773 273.82 497.48 273.82C498.186 273.82 498.746 273.713 499.16 273.5C499.573 273.273 499.866 272.893 500.04 272.36C500.213 271.827 500.3 271.087 500.3 270.14C500.3 269.193 500.213 268.453 500.04 267.92C499.866 267.387 499.573 267.013 499.16 266.8C498.746 266.573 498.186 266.46 497.48 266.46ZM508.847 265.02C509.967 265.02 510.86 265.187 511.527 265.52C512.207 265.853 512.694 266.4 512.987 267.16C513.28 267.907 513.427 268.9 513.427 270.14C513.427 271.38 513.28 272.38 512.987 273.14C512.694 273.887 512.207 274.427 511.527 274.76C510.86 275.093 509.967 275.26 508.847 275.26C507.74 275.26 506.847 275.093 506.167 274.76C505.5 274.427 505.014 273.887 504.707 273.14C504.414 272.38 504.267 271.38 504.267 270.14C504.267 268.9 504.414 267.907 504.707 267.16C505.014 266.4 505.5 265.853 506.167 265.52C506.847 265.187 507.74 265.02 508.847 265.02ZM508.847 266.46C508.14 266.46 507.58 266.573 507.167 266.8C506.767 267.013 506.48 267.387 506.307 267.92C506.134 268.453 506.047 269.193 506.047 270.14C506.047 271.087 506.134 271.827 506.307 272.36C506.48 272.893 506.767 273.273 507.167 273.5C507.58 273.713 508.14 273.82 508.847 273.82C509.554 273.82 510.114 273.713 510.527 273.5C510.94 273.273 511.234 272.893 511.407 272.36C511.58 271.827 511.667 271.087 511.667 270.14C511.667 269.193 511.58 268.453 511.407 267.92C511.234 267.387 510.94 267.013 510.527 266.8C510.114 266.573 509.554 266.46 508.847 266.46ZM517.814 261L517.794 272.32C517.794 272.747 517.908 273.073 518.134 273.3C518.374 273.513 518.708 273.62 519.134 273.62H520.074L520.274 274.92C520.154 274.973 519.981 275.02 519.754 275.06C519.541 275.1 519.314 275.127 519.074 275.14C518.848 275.167 518.654 275.18 518.494 275.18C517.774 275.18 517.194 274.967 516.754 274.54C516.328 274.113 516.114 273.5 516.114 272.7V261H517.814ZM527.737 265.26V275H526.057V265.26H527.737ZM527.297 261.12C527.644 261.12 527.817 261.293 527.817 261.64V262.78C527.817 263.127 527.644 263.3 527.297 263.3H526.497C526.15 263.3 525.977 263.127 525.977 262.78V261.64C525.977 261.293 526.15 261.12 526.497 261.12H527.297ZM534.178 265.02C534.605 265.02 535.058 265.033 535.538 265.06C536.018 265.087 536.491 265.12 536.958 265.16C537.438 265.2 537.878 265.253 538.278 265.32L538.138 266.56C537.525 266.533 536.905 266.513 536.278 266.5C535.665 266.473 535.051 266.46 534.438 266.46C533.838 266.447 533.365 266.46 533.018 266.5C532.671 266.54 532.418 266.647 532.258 266.82C532.111 266.993 532.038 267.287 532.038 267.7C532.038 268.207 532.158 268.54 532.398 268.7C532.638 268.86 532.991 268.993 533.458 269.1L536.298 269.74C537.071 269.927 537.638 270.213 537.998 270.6C538.371 270.987 538.558 271.593 538.558 272.42C538.558 273.22 538.405 273.82 538.098 274.22C537.805 274.62 537.351 274.887 536.738 275.02C536.125 275.153 535.345 275.22 534.398 275.22C534.051 275.22 533.531 275.207 532.838 275.18C532.158 275.153 531.405 275.073 530.578 274.94L530.698 273.7C531.018 273.713 531.358 273.733 531.718 273.76C532.078 273.773 532.451 273.78 532.838 273.78C533.238 273.78 533.645 273.78 534.058 273.78C534.791 273.78 535.365 273.747 535.778 273.68C536.191 273.613 536.485 273.487 536.658 273.3C536.831 273.1 536.918 272.807 536.918 272.42C536.918 271.94 536.778 271.62 536.498 271.46C536.218 271.3 535.845 271.167 535.378 271.06L532.578 270.42C532.045 270.287 531.618 270.113 531.298 269.9C530.978 269.673 530.745 269.387 530.598 269.04C530.451 268.68 530.378 268.233 530.378 267.7C530.378 266.94 530.511 266.367 530.778 265.98C531.045 265.593 531.458 265.333 532.018 265.2C532.578 265.067 533.298 265.007 534.178 265.02ZM549.607 260.96C550.261 260.973 550.934 261.007 551.627 261.06C552.321 261.113 553.014 261.213 553.707 261.36L553.587 262.64C553.014 262.613 552.381 262.593 551.687 262.58C550.994 262.553 550.327 262.54 549.687 262.54C549.194 262.54 548.767 262.56 548.407 262.6C548.061 262.627 547.774 262.707 547.547 262.84C547.321 262.96 547.154 263.167 547.047 263.46C546.954 263.74 546.907 264.133 546.907 264.64C546.907 265.4 547.047 265.933 547.327 266.24C547.607 266.533 548.054 266.753 548.667 266.9L551.447 267.6C552.514 267.853 553.247 268.3 553.647 268.94C554.047 269.567 554.247 270.413 554.247 271.48C554.247 272.28 554.154 272.927 553.967 273.42C553.794 273.913 553.521 274.293 553.147 274.56C552.774 274.813 552.294 274.987 551.707 275.08C551.121 275.187 550.421 275.24 549.607 275.24C549.154 275.24 548.561 275.22 547.827 275.18C547.107 275.14 546.274 275.033 545.327 274.86L545.447 273.52C546.234 273.533 546.867 273.553 547.347 273.58C547.827 273.593 548.241 273.6 548.587 273.6C548.934 273.6 549.294 273.6 549.667 273.6C550.374 273.6 550.927 273.547 551.327 273.44C551.741 273.333 552.027 273.127 552.187 272.82C552.361 272.513 552.447 272.053 552.447 271.44C552.447 270.907 552.387 270.493 552.267 270.2C552.147 269.907 551.961 269.687 551.707 269.54C551.454 269.38 551.121 269.253 550.707 269.16L547.867 268.44C546.867 268.187 546.161 267.747 545.747 267.12C545.334 266.493 545.127 265.653 545.127 264.6C545.127 263.8 545.214 263.16 545.387 262.68C545.574 262.187 545.847 261.82 546.207 261.58C546.581 261.327 547.047 261.16 547.607 261.08C548.181 261 548.847 260.96 549.607 260.96ZM549.207 267.94L550.107 267.98L549.387 277.54H548.467L549.207 267.94ZM550.887 259.02L550.227 267.98L549.307 267.94L549.987 259.02H550.887ZM565.149 260.96C566.029 260.96 566.783 261.033 567.409 261.18C568.049 261.327 568.536 261.613 568.869 262.04C569.216 262.467 569.389 263.1 569.389 263.94C569.389 264.513 569.309 265.053 569.149 265.56C569.003 266.067 568.749 266.593 568.389 267.14C568.029 267.673 567.543 268.28 566.929 268.96L562.969 273.38C563.316 273.353 563.683 273.333 564.069 273.32C564.469 273.307 564.849 273.3 565.209 273.3H569.889V275H560.829V273.9C560.829 273.753 560.849 273.62 560.889 273.5C560.929 273.367 560.996 273.247 561.089 273.14L565.089 268.62C565.969 267.673 566.616 266.833 567.029 266.1C567.443 265.367 567.636 264.673 567.609 264.02C567.596 263.567 567.483 263.24 567.269 263.04C567.069 262.827 566.776 262.687 566.389 262.62C566.016 262.553 565.563 262.52 565.029 262.52C564.603 262.52 564.196 262.527 563.809 262.54C563.423 262.553 563.009 262.587 562.569 262.64C562.143 262.68 561.643 262.747 561.069 262.84L560.949 261.48C561.576 261.333 562.123 261.227 562.589 261.16C563.069 261.08 563.509 261.027 563.909 261C564.323 260.973 564.736 260.96 565.149 260.96ZM580.16 261.2L580.08 262.7H574.28L574.08 266.46L575.56 266.58C576.467 266.647 577.233 266.767 577.86 266.94C578.5 267.113 579.02 267.367 579.42 267.7C579.82 268.033 580.107 268.46 580.28 268.98C580.467 269.487 580.56 270.113 580.56 270.86C580.56 271.42 580.5 271.96 580.38 272.48C580.273 273 580.06 273.467 579.74 273.88C579.433 274.293 578.987 274.627 578.4 274.88C577.813 275.12 577.047 275.24 576.1 275.24C575.553 275.24 574.92 275.2 574.2 275.12C573.48 275.04 572.747 274.913 572 274.74L572.2 273.32C572.827 273.427 573.453 273.513 574.08 273.58C574.707 273.647 575.247 273.68 575.7 273.68C576.58 273.68 577.24 273.573 577.68 273.36C578.12 273.133 578.42 272.813 578.58 272.4C578.74 271.973 578.827 271.46 578.84 270.86C578.853 270.22 578.773 269.72 578.6 269.36C578.44 268.987 578.173 268.713 577.8 268.54C577.44 268.353 576.953 268.227 576.34 268.16C575.74 268.08 575 268.013 574.12 267.96L573.2 267.9C573 267.873 572.833 267.793 572.7 267.66C572.58 267.513 572.527 267.333 572.54 267.12L572.86 261.2H580.16ZM587.703 260.94C588.889 260.94 589.829 261.187 590.523 261.68C591.216 262.173 591.709 262.947 592.003 264C592.309 265.053 592.463 266.42 592.463 268.1C592.463 269.78 592.309 271.147 592.003 272.2C591.709 273.253 591.216 274.027 590.523 274.52C589.829 275.013 588.889 275.26 587.703 275.26C586.529 275.26 585.596 275.013 584.903 274.52C584.209 274.027 583.709 273.253 583.403 272.2C583.109 271.147 582.963 269.78 582.963 268.1C582.963 266.42 583.109 265.053 583.403 264C583.709 262.947 584.209 262.173 584.903 261.68C585.596 261.187 586.529 260.94 587.703 260.94ZM587.703 262.48C587.129 262.48 586.649 262.587 586.263 262.8C585.876 263 585.563 263.32 585.323 263.76C585.096 264.2 584.929 264.78 584.823 265.5C584.729 266.207 584.683 267.073 584.683 268.1C584.683 269.113 584.729 269.98 584.823 270.7C584.929 271.42 585.096 272 585.323 272.44C585.563 272.88 585.876 273.207 586.263 273.42C586.649 273.62 587.129 273.72 587.703 273.72C588.276 273.72 588.756 273.62 589.143 273.42C589.543 273.207 589.856 272.88 590.083 272.44C590.323 272 590.489 271.42 590.583 270.7C590.689 269.98 590.743 269.113 590.743 268.1C590.743 267.073 590.689 266.207 590.583 265.5C590.489 264.78 590.323 264.2 590.083 263.76C589.856 263.32 589.543 263 589.143 262.8C588.756 262.587 588.276 262.48 587.703 262.48ZM604.893 261.2L600.873 266.92C600.753 267.093 600.633 267.247 600.513 267.38C600.407 267.5 600.273 267.64 600.113 267.8V267.84C600.287 268 600.447 268.16 600.593 268.32C600.74 268.48 600.867 268.64 600.973 268.8L605.173 275H603.193L598.293 267.78L602.973 261.2H604.893ZM597.213 261.2V265.52C597.213 265.92 597.193 266.3 597.153 266.66C597.113 267.02 597.053 267.393 596.973 267.78C597.04 268.153 597.093 268.527 597.133 268.9C597.187 269.273 597.213 269.633 597.213 269.98V275H595.473V261.2H597.213ZM599.253 267.1V268.52H596.593V267.1H599.253ZM216.343 291.2L216.563 292.02C215.23 292.673 214.256 293.727 213.643 295.18C213.043 296.62 212.743 298.473 212.743 300.74C212.743 302.22 212.876 303.533 213.143 304.68C213.41 305.827 213.823 306.793 214.383 307.58C214.943 308.38 215.67 309.013 216.563 309.48L216.343 310.3C214.53 309.593 213.196 308.473 212.343 306.94C211.503 305.393 211.083 303.333 211.083 300.76C211.083 298.173 211.503 296.107 212.343 294.56C213.196 293.013 214.53 291.893 216.343 291.2ZM222.933 292.94C223.933 292.94 224.78 293.06 225.473 293.3C226.18 293.54 226.74 293.94 227.153 294.5C227.58 295.047 227.887 295.78 228.073 296.7C228.273 297.62 228.373 298.753 228.373 300.1C228.373 301.447 228.273 302.58 228.073 303.5C227.887 304.42 227.58 305.16 227.153 305.72C226.74 306.267 226.18 306.66 225.473 306.9C224.78 307.14 223.933 307.26 222.933 307.26C221.92 307.26 221.067 307.14 220.373 306.9C219.68 306.66 219.12 306.267 218.693 305.72C218.267 305.16 217.953 304.42 217.753 303.5C217.567 302.58 217.473 301.447 217.473 300.1C217.473 298.753 217.567 297.62 217.753 296.7C217.953 295.78 218.267 295.047 218.693 294.5C219.12 293.94 219.68 293.54 220.373 293.3C221.067 293.06 221.92 292.94 222.933 292.94ZM222.113 307.86C222.9 308.193 223.733 308.473 224.613 308.7C225.493 308.927 226.427 309.113 227.413 309.26L226.853 311.02C225.813 310.807 224.86 310.507 223.993 310.12C223.127 309.747 222.333 309.347 221.613 308.92L222.113 307.86ZM222.933 294.52C222.027 294.52 221.307 294.693 220.773 295.04C220.253 295.387 219.88 295.967 219.653 296.78C219.44 297.58 219.333 298.687 219.333 300.1C219.333 301.5 219.44 302.607 219.653 303.42C219.88 304.233 220.253 304.813 220.773 305.16C221.307 305.507 222.027 305.68 222.933 305.68C223.84 305.68 224.553 305.507 225.073 305.16C225.593 304.813 225.967 304.233 226.193 303.42C226.42 302.607 226.533 301.5 226.533 300.1C226.533 298.687 226.42 297.58 226.193 296.78C225.967 295.967 225.593 295.387 225.073 295.04C224.553 294.693 223.84 294.52 222.933 294.52ZM232.812 297.26V304.1C232.799 304.713 232.912 305.147 233.152 305.4C233.392 305.653 233.792 305.78 234.352 305.78C234.899 305.78 235.439 305.653 235.972 305.4C236.519 305.133 237.172 304.753 237.932 304.26L238.152 305.44C237.392 306.04 236.652 306.493 235.932 306.8C235.226 307.107 234.506 307.26 233.772 307.26C231.999 307.26 231.112 306.367 231.112 304.58V297.26H232.812ZM239.452 297.26V307H238.092L237.932 305.16L237.752 304.86V297.26H239.452ZM247.179 297.02C247.899 297.02 248.505 297.12 248.999 297.32C249.505 297.507 249.885 297.827 250.139 298.28C250.392 298.733 250.519 299.353 250.519 300.14V307H249.179L248.919 304.88L248.799 304.66V300.14C248.799 299.54 248.659 299.113 248.379 298.86C248.112 298.593 247.592 298.46 246.819 298.46C246.312 298.46 245.672 298.487 244.899 298.54C244.139 298.593 243.385 298.653 242.639 298.72L242.479 297.46C242.932 297.38 243.425 297.307 243.959 297.24C244.505 297.173 245.059 297.12 245.619 297.08C246.179 297.04 246.699 297.02 247.179 297.02ZM249.719 301L249.699 302.28L245.039 302.3C244.572 302.313 244.245 302.44 244.059 302.68C243.872 302.907 243.779 303.227 243.779 303.64V304.26C243.779 304.767 243.899 305.14 244.139 305.38C244.379 305.607 244.765 305.72 245.299 305.72C245.672 305.72 246.092 305.653 246.559 305.52C247.039 305.373 247.519 305.153 247.999 304.86C248.479 304.567 248.919 304.193 249.319 303.74V305C249.172 305.187 248.959 305.407 248.679 305.66C248.412 305.9 248.085 306.14 247.699 306.38C247.325 306.607 246.905 306.8 246.439 306.96C245.985 307.107 245.492 307.18 244.959 307.18C244.385 307.18 243.879 307.08 243.439 306.88C242.999 306.667 242.652 306.36 242.399 305.96C242.159 305.547 242.039 305.047 242.039 304.46V303.4C242.039 302.64 242.272 302.053 242.739 301.64C243.219 301.213 243.885 301 244.739 301H249.719ZM255.275 293L255.255 304.32C255.255 304.747 255.368 305.073 255.595 305.3C255.835 305.513 256.168 305.62 256.595 305.62H257.535L257.735 306.92C257.615 306.973 257.442 307.02 257.215 307.06C257.002 307.1 256.775 307.127 256.535 307.14C256.308 307.167 256.115 307.18 255.955 307.18C255.235 307.18 254.655 306.967 254.215 306.54C253.788 306.113 253.575 305.5 253.575 304.7V293H255.275ZM261.253 297.26V307H259.573V297.26H261.253ZM260.813 293.12C261.159 293.12 261.333 293.293 261.333 293.64V294.78C261.333 295.127 261.159 295.3 260.813 295.3H260.013C259.666 295.3 259.493 295.127 259.493 294.78V293.64C259.493 293.293 259.666 293.12 260.013 293.12H260.813ZM268.054 292.66C268.334 292.66 268.7 292.673 269.154 292.7C269.607 292.713 270 292.747 270.334 292.8V294.06H268.654C268.014 294.06 267.56 294.2 267.294 294.48C267.04 294.747 266.914 295.22 266.914 295.9V307H265.214V295.72C265.214 295.067 265.307 294.513 265.494 294.06C265.68 293.607 265.98 293.26 266.394 293.02C266.807 292.78 267.36 292.66 268.054 292.66ZM271.894 297.26V298.6H263.454V297.36L265.314 297.26H271.894ZM273.374 297.26V307H271.694V297.26H273.374ZM272.914 293.12C273.26 293.12 273.434 293.293 273.434 293.64V294.78C273.434 295.127 273.26 295.3 272.914 295.3H272.114C271.78 295.3 271.614 295.127 271.614 294.78V293.64C271.614 293.293 271.78 293.12 272.114 293.12H272.914ZM280.742 297.02C281.036 297.02 281.362 297.033 281.722 297.06C282.082 297.087 282.449 297.133 282.822 297.2C283.209 297.267 283.562 297.36 283.882 297.48L283.662 298.58C283.222 298.54 282.756 298.513 282.262 298.5C281.782 298.473 281.369 298.46 281.022 298.46C280.249 298.46 279.636 298.567 279.182 298.78C278.729 298.993 278.402 299.367 278.202 299.9C278.002 300.433 277.902 301.173 277.902 302.12C277.902 303.067 278.002 303.813 278.202 304.36C278.402 304.893 278.729 305.267 279.182 305.48C279.636 305.693 280.249 305.8 281.022 305.8C281.222 305.8 281.482 305.793 281.802 305.78C282.122 305.767 282.462 305.747 282.822 305.72C283.196 305.693 283.549 305.653 283.882 305.6L284.062 306.74C283.569 306.913 283.029 307.04 282.442 307.12C281.869 307.2 281.296 307.24 280.722 307.24C279.602 307.24 278.702 307.073 278.022 306.74C277.342 306.407 276.849 305.867 276.542 305.12C276.249 304.373 276.102 303.373 276.102 302.12C276.102 300.867 276.256 299.867 276.562 299.12C276.869 298.373 277.362 297.84 278.042 297.52C278.722 297.187 279.622 297.02 280.742 297.02ZM290.968 297.02C291.688 297.02 292.294 297.12 292.788 297.32C293.294 297.507 293.674 297.827 293.928 298.28C294.181 298.733 294.308 299.353 294.308 300.14V307H292.968L292.708 304.88L292.588 304.66V300.14C292.588 299.54 292.448 299.113 292.168 298.86C291.901 298.593 291.381 298.46 290.608 298.46C290.101 298.46 289.461 298.487 288.688 298.54C287.928 298.593 287.174 298.653 286.428 298.72L286.268 297.46C286.721 297.38 287.214 297.307 287.748 297.24C288.294 297.173 288.848 297.12 289.408 297.08C289.968 297.04 290.488 297.02 290.968 297.02ZM293.508 301L293.488 302.28L288.828 302.3C288.361 302.313 288.034 302.44 287.848 302.68C287.661 302.907 287.568 303.227 287.568 303.64V304.26C287.568 304.767 287.688 305.14 287.928 305.38C288.168 305.607 288.554 305.72 289.088 305.72C289.461 305.72 289.881 305.653 290.348 305.52C290.828 305.373 291.308 305.153 291.788 304.86C292.268 304.567 292.708 304.193 293.108 303.74V305C292.961 305.187 292.748 305.407 292.468 305.66C292.201 305.9 291.874 306.14 291.488 306.38C291.114 306.607 290.694 306.8 290.228 306.96C289.774 307.107 289.281 307.18 288.748 307.18C288.174 307.18 287.668 307.08 287.228 306.88C286.788 306.667 286.441 306.36 286.188 305.96C285.948 305.547 285.828 305.047 285.828 304.46V303.4C285.828 302.64 286.061 302.053 286.528 301.64C287.008 301.213 287.674 301 288.528 301H293.508ZM299.784 294.38V304.32C299.784 304.787 299.884 305.12 300.084 305.32C300.284 305.52 300.624 305.62 301.104 305.62H302.584L302.784 306.92C302.571 306.973 302.324 307.02 302.044 307.06C301.764 307.1 301.491 307.127 301.224 307.14C300.958 307.167 300.744 307.18 300.584 307.18C299.771 307.18 299.151 306.953 298.724 306.5C298.298 306.047 298.084 305.393 298.084 304.54V294.38H299.784ZM302.884 297.26V298.6H296.324V297.36L298.244 297.26H302.884ZM306.721 297.26V307H305.041V297.26H306.721ZM306.281 293.12C306.628 293.12 306.801 293.293 306.801 293.64V294.78C306.801 295.127 306.628 295.3 306.281 295.3H305.481C305.135 295.3 304.961 295.127 304.961 294.78V293.64C304.961 293.293 305.135 293.12 305.481 293.12H306.281ZM314.042 297.02C315.162 297.02 316.056 297.187 316.722 297.52C317.402 297.853 317.889 298.4 318.182 299.16C318.476 299.907 318.622 300.9 318.622 302.14C318.622 303.38 318.476 304.38 318.182 305.14C317.889 305.887 317.402 306.427 316.722 306.76C316.056 307.093 315.162 307.26 314.042 307.26C312.936 307.26 312.042 307.093 311.362 306.76C310.696 306.427 310.209 305.887 309.902 305.14C309.609 304.38 309.462 303.38 309.462 302.14C309.462 300.9 309.609 299.907 309.902 299.16C310.209 298.4 310.696 297.853 311.362 297.52C312.042 297.187 312.936 297.02 314.042 297.02ZM314.042 298.46C313.336 298.46 312.776 298.573 312.362 298.8C311.962 299.013 311.676 299.387 311.502 299.92C311.329 300.453 311.242 301.193 311.242 302.14C311.242 303.087 311.329 303.827 311.502 304.36C311.676 304.893 311.962 305.273 312.362 305.5C312.776 305.713 313.336 305.82 314.042 305.82C314.749 305.82 315.309 305.713 315.722 305.5C316.136 305.273 316.429 304.893 316.602 304.36C316.776 303.827 316.862 303.087 316.862 302.14C316.862 301.193 316.776 300.453 316.602 299.92C316.429 299.387 316.136 299.013 315.722 298.8C315.309 298.573 314.749 298.46 314.042 298.46ZM327.209 297.02C328.969 297.02 329.849 297.913 329.849 299.7V307H328.149V300.18C328.149 299.527 328.043 299.08 327.829 298.84C327.616 298.587 327.256 298.46 326.749 298.46C326.149 298.46 325.549 298.607 324.949 298.9C324.349 299.193 323.636 299.593 322.809 300.1L322.729 298.88C323.489 298.293 324.243 297.84 324.989 297.52C325.736 297.187 326.476 297.02 327.209 297.02ZM322.729 297.26L322.869 299.12L322.989 299.42V307H321.289V297.26H322.729ZM340.651 292.66C340.865 292.66 341.138 292.667 341.471 292.68C341.805 292.68 342.145 292.693 342.491 292.72C342.838 292.733 343.138 292.76 343.391 292.8L343.251 294.06H341.251C340.611 294.06 340.158 294.187 339.891 294.44C339.638 294.693 339.511 295.113 339.511 295.7V307H337.811V295.52C337.811 294.907 337.905 294.393 338.091 293.98C338.278 293.553 338.578 293.227 338.991 293C339.405 292.773 339.958 292.66 340.651 292.66ZM342.631 297.26V298.6H336.051V297.36L337.911 297.26H342.631ZM348.613 297.02C349.733 297.02 350.626 297.187 351.293 297.52C351.973 297.853 352.459 298.4 352.753 299.16C353.046 299.907 353.193 300.9 353.193 302.14C353.193 303.38 353.046 304.38 352.753 305.14C352.459 305.887 351.973 306.427 351.293 306.76C350.626 307.093 349.733 307.26 348.613 307.26C347.506 307.26 346.613 307.093 345.933 306.76C345.266 306.427 344.779 305.887 344.473 305.14C344.179 304.38 344.033 303.38 344.033 302.14C344.033 300.9 344.179 299.907 344.473 299.16C344.779 298.4 345.266 297.853 345.933 297.52C346.613 297.187 347.506 297.02 348.613 297.02ZM348.613 298.46C347.906 298.46 347.346 298.573 346.933 298.8C346.533 299.013 346.246 299.387 346.073 299.92C345.899 300.453 345.813 301.193 345.813 302.14C345.813 303.087 345.899 303.827 346.073 304.36C346.246 304.893 346.533 305.273 346.933 305.5C347.346 305.713 347.906 305.82 348.613 305.82C349.319 305.82 349.879 305.713 350.293 305.5C350.706 305.273 350.999 304.893 351.173 304.36C351.346 303.827 351.433 303.087 351.433 302.14C351.433 301.193 351.346 300.453 351.173 299.92C350.999 299.387 350.706 299.013 350.293 298.8C349.879 298.573 349.319 298.46 348.613 298.46ZM357.18 297.26L357.4 299.12L357.56 299.42V307H355.86V297.26H357.18ZM361.96 297.02L361.76 298.62H361.2C360.626 298.62 360.053 298.74 359.48 298.98C358.906 299.207 358.206 299.533 357.38 299.96L357.24 298.9C357.96 298.313 358.68 297.853 359.4 297.52C360.133 297.187 360.84 297.02 361.52 297.02H361.96ZM378.031 293.2V301.72C378.031 303.053 377.871 304.127 377.551 304.94C377.231 305.753 376.711 306.347 375.991 306.72C375.271 307.08 374.304 307.26 373.091 307.26C371.851 307.26 370.857 307.08 370.111 306.72C369.364 306.347 368.824 305.753 368.491 304.94C368.157 304.127 367.991 303.053 367.991 301.72V293.2H369.751V301.72C369.751 302.707 369.851 303.493 370.051 304.08C370.264 304.653 370.611 305.067 371.091 305.32C371.571 305.56 372.211 305.68 373.011 305.68C373.811 305.68 374.444 305.56 374.911 305.32C375.391 305.067 375.737 304.653 375.951 304.08C376.164 303.493 376.271 302.707 376.271 301.72V293.2H378.031ZM382.551 297.26L382.771 299.12L382.931 299.42V307H381.231V297.26H382.551ZM387.331 297.02L387.131 298.62H386.571C385.998 298.62 385.424 298.74 384.851 298.98C384.278 299.207 383.578 299.533 382.751 299.96L382.611 298.9C383.331 298.313 384.051 297.853 384.771 297.52C385.504 297.187 386.211 297.02 386.891 297.02H387.331ZM390.898 297.26V304.1C390.885 304.713 390.998 305.147 391.238 305.4C391.478 305.653 391.878 305.78 392.438 305.78C392.985 305.78 393.525 305.653 394.058 305.4C394.605 305.133 395.258 304.753 396.018 304.26L396.238 305.44C395.478 306.04 394.738 306.493 394.018 306.8C393.312 307.107 392.592 307.26 391.858 307.26C390.085 307.26 389.198 306.367 389.198 304.58V297.26H390.898ZM397.538 297.26V307H396.178L396.018 305.16L395.838 304.86V297.26H397.538ZM403.904 297.02C404.331 297.02 404.784 297.033 405.264 297.06C405.744 297.087 406.218 297.12 406.684 297.16C407.164 297.2 407.604 297.253 408.004 297.32L407.864 298.56C407.251 298.533 406.631 298.513 406.004 298.5C405.391 298.473 404.778 298.46 404.164 298.46C403.564 298.447 403.091 298.46 402.744 298.5C402.398 298.54 402.144 298.647 401.984 298.82C401.838 298.993 401.764 299.287 401.764 299.7C401.764 300.207 401.884 300.54 402.124 300.7C402.364 300.86 402.718 300.993 403.184 301.1L406.024 301.74C406.798 301.927 407.364 302.213 407.724 302.6C408.098 302.987 408.284 303.593 408.284 304.42C408.284 305.22 408.131 305.82 407.824 306.22C407.531 306.62 407.078 306.887 406.464 307.02C405.851 307.153 405.071 307.22 404.124 307.22C403.778 307.22 403.258 307.207 402.564 307.18C401.884 307.153 401.131 307.073 400.304 306.94L400.424 305.7C400.744 305.713 401.084 305.733 401.444 305.76C401.804 305.773 402.178 305.78 402.564 305.78C402.964 305.78 403.371 305.78 403.784 305.78C404.518 305.78 405.091 305.747 405.504 305.68C405.918 305.613 406.211 305.487 406.384 305.3C406.558 305.1 406.644 304.807 406.644 304.42C406.644 303.94 406.504 303.62 406.224 303.46C405.944 303.3 405.571 303.167 405.104 303.06L402.304 302.42C401.771 302.287 401.344 302.113 401.024 301.9C400.704 301.673 400.471 301.387 400.324 301.04C400.178 300.68 400.104 300.233 400.104 299.7C400.104 298.94 400.238 298.367 400.504 297.98C400.771 297.593 401.184 297.333 401.744 297.2C402.304 297.067 403.024 297.007 403.904 297.02ZM419.874 297.02C420.594 297.02 421.201 297.12 421.694 297.32C422.201 297.507 422.581 297.827 422.834 298.28C423.087 298.733 423.214 299.353 423.214 300.14V307H421.874L421.614 304.88L421.494 304.66V300.14C421.494 299.54 421.354 299.113 421.074 298.86C420.807 298.593 420.287 298.46 419.514 298.46C419.007 298.46 418.367 298.487 417.594 298.54C416.834 298.593 416.081 298.653 415.334 298.72L415.174 297.46C415.627 297.38 416.121 297.307 416.654 297.24C417.201 297.173 417.754 297.12 418.314 297.08C418.874 297.04 419.394 297.02 419.874 297.02ZM422.414 301L422.394 302.28L417.734 302.3C417.267 302.313 416.941 302.44 416.754 302.68C416.567 302.907 416.474 303.227 416.474 303.64V304.26C416.474 304.767 416.594 305.14 416.834 305.38C417.074 305.607 417.461 305.72 417.994 305.72C418.367 305.72 418.787 305.653 419.254 305.52C419.734 305.373 420.214 305.153 420.694 304.86C421.174 304.567 421.614 304.193 422.014 303.74V305C421.867 305.187 421.654 305.407 421.374 305.66C421.107 305.9 420.781 306.14 420.394 306.38C420.021 306.607 419.601 306.8 419.134 306.96C418.681 307.107 418.187 307.18 417.654 307.18C417.081 307.18 416.574 307.08 416.134 306.88C415.694 306.667 415.347 306.36 415.094 305.96C414.854 305.547 414.734 305.047 414.734 304.46V303.4C414.734 302.64 414.967 302.053 415.434 301.64C415.914 301.213 416.581 301 417.434 301H422.414ZM432.17 297.02C433.93 297.02 434.81 297.913 434.81 299.7V307H433.11V300.18C433.11 299.527 433.004 299.08 432.79 298.84C432.577 298.587 432.217 298.46 431.71 298.46C431.11 298.46 430.51 298.607 429.91 298.9C429.31 299.193 428.597 299.593 427.77 300.1L427.69 298.88C428.45 298.293 429.204 297.84 429.95 297.52C430.697 297.187 431.437 297.02 432.17 297.02ZM427.69 297.26L427.83 299.12L427.95 299.42V307H426.25V297.26H427.69ZM441.112 297.02C441.752 297.02 442.385 297.107 443.012 297.28C443.638 297.44 444.238 297.693 444.812 298.04L444.712 299.1C444.085 298.913 443.532 298.767 443.052 298.66C442.572 298.553 442.058 298.5 441.512 298.5C440.952 298.5 440.498 298.6 440.152 298.8C439.818 298.987 439.572 299.34 439.412 299.86C439.252 300.38 439.172 301.12 439.172 302.08C439.172 303.04 439.245 303.787 439.392 304.32C439.552 304.853 439.798 305.227 440.132 305.44C440.465 305.653 440.892 305.76 441.412 305.76C441.798 305.76 442.145 305.713 442.452 305.62C442.772 305.513 443.105 305.347 443.452 305.12C443.812 304.893 444.232 304.607 444.712 304.26L444.872 305.46C444.338 305.953 443.732 306.373 443.052 306.72C442.372 307.067 441.638 307.24 440.852 307.24C439.625 307.24 438.745 306.807 438.212 305.94C437.692 305.073 437.432 303.793 437.432 302.1C437.432 300.833 437.565 299.833 437.832 299.1C438.098 298.353 438.505 297.82 439.052 297.5C439.598 297.18 440.285 297.02 441.112 297.02ZM446.192 293V307H444.872L444.672 305.3L444.492 305.16V298.48L444.612 298.18C444.558 297.807 444.525 297.447 444.512 297.1C444.498 296.753 444.492 296.387 444.492 296V293H446.192ZM457.809 292.96C458.463 292.973 459.136 293.007 459.829 293.06C460.523 293.113 461.216 293.213 461.909 293.36L461.789 294.64C461.216 294.613 460.583 294.593 459.889 294.58C459.196 294.553 458.529 294.54 457.889 294.54C457.396 294.54 456.969 294.56 456.609 294.6C456.263 294.627 455.976 294.707 455.749 294.84C455.523 294.96 455.356 295.167 455.249 295.46C455.156 295.74 455.109 296.133 455.109 296.64C455.109 297.4 455.243 297.933 455.509 298.24C455.789 298.533 456.236 298.753 456.849 298.9L459.649 299.6C460.716 299.853 461.443 300.3 461.829 300.94C462.229 301.567 462.429 302.413 462.429 303.48C462.429 304.28 462.336 304.927 462.149 305.42C461.976 305.913 461.703 306.293 461.329 306.56C460.956 306.813 460.476 306.987 459.889 307.08C459.303 307.187 458.609 307.24 457.809 307.24C457.356 307.24 456.763 307.22 456.029 307.18C455.309 307.14 454.476 307.033 453.529 306.86L453.649 305.56C454.436 305.587 455.069 305.613 455.549 305.64C456.029 305.653 456.443 305.66 456.789 305.66C457.136 305.66 457.496 305.66 457.869 305.66C458.576 305.66 459.129 305.607 459.529 305.5C459.943 305.393 460.229 305.18 460.389 304.86C460.563 304.54 460.649 304.067 460.649 303.44C460.649 302.907 460.589 302.493 460.469 302.2C460.349 301.907 460.156 301.687 459.889 301.54C459.636 301.38 459.309 301.253 458.909 301.16L456.049 300.44C455.049 300.187 454.343 299.747 453.929 299.12C453.529 298.493 453.329 297.653 453.329 296.6C453.329 295.8 453.416 295.16 453.589 294.68C453.776 294.187 454.049 293.82 454.409 293.58C454.783 293.327 455.249 293.16 455.809 293.08C456.369 293 457.036 292.96 457.809 292.96ZM466.76 297.26V307H465.08V297.26H466.76ZM466.32 293.12C466.667 293.12 466.84 293.293 466.84 293.64V294.78C466.84 295.127 466.667 295.3 466.32 295.3H465.52C465.174 295.3 465 295.127 465 294.78V293.64C465 293.293 465.174 293.12 465.52 293.12H466.32ZM474.561 297.02C475.281 297.02 475.888 297.12 476.381 297.32C476.888 297.507 477.268 297.827 477.521 298.28C477.775 298.733 477.901 299.353 477.901 300.14V307H476.561L476.301 304.88L476.181 304.66V300.14C476.181 299.54 476.041 299.113 475.761 298.86C475.495 298.593 474.975 298.46 474.201 298.46C473.695 298.46 473.055 298.487 472.281 298.54C471.521 298.593 470.768 298.653 470.021 298.72L469.861 297.46C470.315 297.38 470.808 297.307 471.341 297.24C471.888 297.173 472.441 297.12 473.001 297.08C473.561 297.04 474.081 297.02 474.561 297.02ZM477.101 301L477.081 302.28L472.421 302.3C471.955 302.313 471.628 302.44 471.441 302.68C471.255 302.907 471.161 303.227 471.161 303.64V304.26C471.161 304.767 471.281 305.14 471.521 305.38C471.761 305.607 472.148 305.72 472.681 305.72C473.055 305.72 473.475 305.653 473.941 305.52C474.421 305.373 474.901 305.153 475.381 304.86C475.861 304.567 476.301 304.193 476.701 303.74V305C476.555 305.187 476.341 305.407 476.061 305.66C475.795 305.9 475.468 306.14 475.081 306.38C474.708 306.607 474.288 306.8 473.821 306.96C473.368 307.107 472.875 307.18 472.341 307.18C471.768 307.18 471.261 307.08 470.821 306.88C470.381 306.667 470.035 306.36 469.781 305.96C469.541 305.547 469.421 305.047 469.421 304.46V303.4C469.421 302.64 469.655 302.053 470.121 301.64C470.601 301.213 471.268 301 472.121 301H477.101ZM486.858 297.02C488.618 297.02 489.498 297.913 489.498 299.7V307H487.798V300.18C487.798 299.527 487.691 299.08 487.478 298.84C487.265 298.587 486.905 298.46 486.398 298.46C485.798 298.46 485.198 298.607 484.598 298.9C483.998 299.193 483.285 299.593 482.458 300.1L482.378 298.88C483.138 298.293 483.891 297.84 484.638 297.52C485.385 297.187 486.125 297.02 486.858 297.02ZM482.378 297.26L482.518 299.12L482.638 299.42V307H480.938V297.26H482.378ZM490.902 291.2C492.728 291.893 494.062 293.013 494.902 294.56C495.755 296.107 496.182 298.173 496.182 300.76C496.182 303.333 495.755 305.393 494.902 306.94C494.062 308.473 492.728 309.593 490.902 310.3L490.702 309.48C491.595 309.013 492.315 308.38 492.862 307.58C493.422 306.793 493.835 305.827 494.102 304.68C494.368 303.533 494.502 302.22 494.502 300.74C494.502 298.473 494.202 296.62 493.602 295.18C493.002 293.727 492.035 292.673 490.702 292.02L490.902 291.2Z" fill="#262626"/>
<g filter="url(#filter1_d_1_274)">
<rect x="275.33" y="63" width="151.285" height="56" rx="20" fill="url(#paint1_linear_1_274)"/>
</g>
<rect width="105.763" height="23.9167" transform="translate(296.78 78)" fill="url(#paint2_linear_1_274)"/>
<g filter="url(#filter2_d_1_274)">
<path d="M309.404 86.5787C309.948 86.5787 310.54 86.6107 311.18 86.6747C311.82 86.728 312.444 86.8453 313.052 87.0267L312.892 88.6427C312.423 88.632 311.873 88.6213 311.244 88.6107C310.615 88.6 309.996 88.5947 309.388 88.5947C309.089 88.5947 308.833 88.6053 308.62 88.6267C308.417 88.6373 308.252 88.68 308.124 88.7547C307.996 88.8187 307.905 88.92 307.852 89.0587C307.799 89.1973 307.772 89.3893 307.772 89.6347C307.772 90.008 307.857 90.28 308.028 90.4507C308.209 90.6213 308.513 90.776 308.94 90.9147L311.068 91.6027C311.953 91.9013 312.567 92.3067 312.908 92.8187C313.249 93.3307 313.42 94.0027 313.42 94.8347C313.42 95.464 313.345 95.9867 313.196 96.4027C313.047 96.8187 312.812 97.144 312.492 97.3787C312.172 97.6133 311.751 97.7787 311.228 97.8747C310.705 97.9813 310.065 98.0347 309.308 98.0347C308.945 98.0347 308.428 98.008 307.756 97.9547C307.084 97.912 306.316 97.7947 305.452 97.6027L305.612 95.8747C306.241 95.8853 306.785 95.9013 307.244 95.9227C307.713 95.9333 308.113 95.944 308.444 95.9547C308.775 95.9547 309.063 95.9547 309.308 95.9547C309.735 95.9547 310.065 95.928 310.3 95.8747C310.545 95.8213 310.716 95.7147 310.812 95.5547C310.908 95.3947 310.956 95.1653 310.956 94.8667C310.956 94.6107 310.919 94.408 310.844 94.2587C310.78 94.0987 310.668 93.976 310.508 93.8907C310.359 93.7947 310.151 93.7093 309.884 93.6347L307.644 92.8667C306.801 92.5573 306.204 92.152 305.852 91.6507C305.5 91.1493 305.324 90.488 305.324 89.6667C305.324 89.0267 305.399 88.5093 305.548 88.1147C305.708 87.7093 305.948 87.3947 306.268 87.1707C306.599 86.9467 307.02 86.792 307.532 86.7067C308.055 86.6213 308.679 86.5787 309.404 86.5787ZM322.571 86.6267C323.606 86.6267 324.416 86.7333 325.003 86.9467C325.59 87.16 326.006 87.528 326.251 88.0507C326.507 88.5733 326.635 89.304 326.635 90.2427C326.635 91.1813 326.512 91.912 326.267 92.4347C326.032 92.9573 325.643 93.3253 325.099 93.5387C324.555 93.7413 323.819 93.8427 322.891 93.8427C322.4 93.8427 321.92 93.8213 321.451 93.7787C320.982 93.736 320.544 93.6827 320.139 93.6187C319.734 93.5547 319.387 93.4907 319.099 93.4267C318.811 93.352 318.614 93.2827 318.507 93.2187L318.555 92.0027C319.184 92.0027 319.835 92.0027 320.507 92.0027C321.19 92.0027 321.862 92.0027 322.523 92.0027C322.95 91.992 323.28 91.9387 323.515 91.8427C323.76 91.7467 323.931 91.5707 324.027 91.3147C324.134 91.0587 324.187 90.7013 324.187 90.2427C324.187 89.7733 324.134 89.4107 324.027 89.1547C323.931 88.8987 323.76 88.7227 323.515 88.6267C323.28 88.52 322.95 88.4667 322.523 88.4667C321.542 88.4667 320.699 88.472 319.995 88.4827C319.291 88.4933 318.816 88.5147 318.571 88.5467L318.331 86.7867C318.779 86.7333 319.2 86.696 319.595 86.6747C319.99 86.6533 320.416 86.6427 320.875 86.6427C321.344 86.632 321.91 86.6267 322.571 86.6267ZM320.779 86.7867V97.8267H318.331V86.7867H320.779ZM335.822 86.5627C336.696 86.5627 337.438 86.6587 338.046 86.8507C338.654 87.032 339.139 87.3413 339.502 87.7787C339.875 88.2053 340.147 88.792 340.318 89.5387C340.488 90.2747 340.574 91.1973 340.574 92.3067C340.574 93.416 340.488 94.344 340.318 95.0907C340.147 95.8267 339.875 96.4133 339.502 96.8507C339.139 97.2773 338.654 97.5867 338.046 97.7787C337.438 97.96 336.696 98.0507 335.822 98.0507C334.947 98.0507 334.206 97.96 333.598 97.7787C332.99 97.5867 332.499 97.2773 332.126 96.8507C331.752 96.4133 331.48 95.8267 331.31 95.0907C331.139 94.344 331.054 93.416 331.054 92.3067C331.054 91.1973 331.139 90.2747 331.31 89.5387C331.48 88.792 331.752 88.2053 332.126 87.7787C332.499 87.3413 332.99 87.032 333.598 86.8507C334.206 86.6587 334.947 86.5627 335.822 86.5627ZM335.822 88.4987C335.256 88.4987 334.814 88.6107 334.494 88.8347C334.184 89.0587 333.96 89.448 333.822 90.0027C333.694 90.5467 333.63 91.3147 333.63 92.3067C333.63 93.288 333.694 94.056 333.822 94.6107C333.96 95.1653 334.184 95.5547 334.494 95.7787C334.814 96.0027 335.256 96.1147 335.822 96.1147C336.376 96.1147 336.808 96.0027 337.118 95.7787C337.438 95.5547 337.662 95.1653 337.79 94.6107C337.928 94.056 337.998 93.288 337.998 92.3067C337.998 91.3147 337.928 90.5467 337.79 90.0027C337.662 89.448 337.438 89.0587 337.118 88.8347C336.808 88.6107 336.376 88.4987 335.822 88.4987ZM354.981 86.7867V96.9467C354.981 97.5333 354.688 97.8267 354.101 97.8267H352.757C352.491 97.8267 352.288 97.768 352.149 97.6507C352.011 97.5227 351.883 97.336 351.765 97.0907L348.709 91.2987C348.581 91.0533 348.453 90.7813 348.325 90.4827C348.208 90.184 348.107 89.896 348.021 89.6187H347.845C347.877 89.9067 347.904 90.2 347.925 90.4987C347.947 90.7867 347.957 91.0747 347.957 91.3627V97.8267H345.637V87.6667C345.637 87.08 345.936 86.7867 346.533 86.7867H347.861C348.117 86.7867 348.309 86.8507 348.437 86.9787C348.576 87.096 348.709 87.2773 348.837 87.5227L351.797 93.1387C351.925 93.384 352.059 93.656 352.197 93.9547C352.336 94.2533 352.469 94.5627 352.597 94.8827H352.789C352.757 94.5627 352.731 94.2533 352.709 93.9547C352.699 93.6453 352.693 93.3413 352.693 93.0427L352.677 86.7867H354.981ZM364.032 86.5787C364.576 86.5787 365.168 86.6107 365.808 86.6747C366.448 86.728 367.072 86.8453 367.68 87.0267L367.52 88.6427C367.051 88.632 366.501 88.6213 365.872 88.6107C365.243 88.6 364.624 88.5947 364.016 88.5947C363.717 88.5947 363.461 88.6053 363.248 88.6267C363.045 88.6373 362.88 88.68 362.752 88.7547C362.624 88.8187 362.533 88.92 362.48 89.0587C362.427 89.1973 362.4 89.3893 362.4 89.6347C362.4 90.008 362.485 90.28 362.656 90.4507C362.837 90.6213 363.141 90.776 363.568 90.9147L365.696 91.6027C366.581 91.9013 367.195 92.3067 367.536 92.8187C367.877 93.3307 368.048 94.0027 368.048 94.8347C368.048 95.464 367.973 95.9867 367.824 96.4027C367.675 96.8187 367.44 97.144 367.12 97.3787C366.8 97.6133 366.379 97.7787 365.856 97.8747C365.333 97.9813 364.693 98.0347 363.936 98.0347C363.573 98.0347 363.056 98.008 362.384 97.9547C361.712 97.912 360.944 97.7947 360.08 97.6027L360.24 95.8747C360.869 95.8853 361.413 95.9013 361.872 95.9227C362.341 95.9333 362.741 95.944 363.072 95.9547C363.403 95.9547 363.691 95.9547 363.936 95.9547C364.363 95.9547 364.693 95.928 364.928 95.8747C365.173 95.8213 365.344 95.7147 365.44 95.5547C365.536 95.3947 365.584 95.1653 365.584 94.8667C365.584 94.6107 365.547 94.408 365.472 94.2587C365.408 94.0987 365.296 93.976 365.136 93.8907C364.987 93.7947 364.779 93.7093 364.512 93.6347L362.272 92.8667C361.429 92.5573 360.832 92.152 360.48 91.6507C360.128 91.1493 359.952 90.488 359.952 89.6667C359.952 89.0267 360.027 88.5093 360.176 88.1147C360.336 87.7093 360.576 87.3947 360.896 87.1707C361.227 86.9467 361.648 86.792 362.16 86.7067C362.683 86.6213 363.307 86.5787 364.032 86.5787ZM377.359 86.5627C378.234 86.5627 378.975 86.6587 379.583 86.8507C380.191 87.032 380.676 87.3413 381.039 87.7787C381.412 88.2053 381.684 88.792 381.855 89.5387C382.026 90.2747 382.111 91.1973 382.111 92.3067C382.111 93.416 382.026 94.344 381.855 95.0907C381.684 95.8267 381.412 96.4133 381.039 96.8507C380.676 97.2773 380.191 97.5867 379.583 97.7787C378.975 97.96 378.234 98.0507 377.359 98.0507C376.484 98.0507 375.743 97.96 375.135 97.7787C374.527 97.5867 374.036 97.2773 373.663 96.8507C373.29 96.4133 373.018 95.8267 372.847 95.0907C372.676 94.344 372.591 93.416 372.591 92.3067C372.591 91.1973 372.676 90.2747 372.847 89.5387C373.018 88.792 373.29 88.2053 373.663 87.7787C374.036 87.3413 374.527 87.032 375.135 86.8507C375.743 86.6587 376.484 86.5627 377.359 86.5627ZM377.359 88.4987C376.794 88.4987 376.351 88.6107 376.031 88.8347C375.722 89.0587 375.498 89.448 375.359 90.0027C375.231 90.5467 375.167 91.3147 375.167 92.3067C375.167 93.288 375.231 94.056 375.359 94.6107C375.498 95.1653 375.722 95.5547 376.031 95.7787C376.351 96.0027 376.794 96.1147 377.359 96.1147C377.914 96.1147 378.346 96.0027 378.655 95.7787C378.975 95.5547 379.199 95.1653 379.327 94.6107C379.466 94.056 379.535 93.288 379.535 92.3067C379.535 91.3147 379.466 90.5467 379.327 90.0027C379.199 89.448 378.975 89.0587 378.655 88.8347C378.346 88.6107 377.914 88.4987 377.359 88.4987ZM391.431 86.6267C392.401 86.6267 393.185 86.728 393.783 86.9307C394.391 87.1227 394.833 87.4587 395.111 87.9387C395.399 88.408 395.543 89.064 395.543 89.9067C395.543 90.4187 395.473 90.872 395.335 91.2667C395.207 91.6507 394.988 91.96 394.679 92.1947C394.369 92.4293 393.948 92.5787 393.415 92.6427V92.7227C393.607 92.7547 393.804 92.8293 394.007 92.9467C394.22 93.064 394.417 93.24 394.599 93.4747C394.78 93.6987 394.913 94.0027 394.999 94.3867L395.959 97.8267H393.383L392.535 94.4667C392.439 94.104 392.295 93.8533 392.103 93.7147C391.921 93.576 391.665 93.5067 391.335 93.5067C390.609 93.5067 389.996 93.5067 389.495 93.5067C389.004 93.496 388.588 93.4853 388.247 93.4747C387.916 93.464 387.617 93.4533 387.351 93.4427L387.399 91.6667H391.383C391.809 91.6667 392.145 91.624 392.391 91.5387C392.647 91.4427 392.823 91.2773 392.919 91.0427C393.025 90.808 393.079 90.4827 393.079 90.0667C393.079 89.64 393.025 89.3147 392.919 89.0907C392.823 88.856 392.647 88.696 392.391 88.6107C392.145 88.5147 391.809 88.4667 391.383 88.4667C390.38 88.4667 389.532 88.472 388.839 88.4827C388.145 88.4933 387.671 88.5093 387.415 88.5307L387.175 86.7867C387.623 86.7333 388.044 86.696 388.439 86.6747C388.833 86.6533 389.265 86.6427 389.735 86.6427C390.204 86.632 390.769 86.6267 391.431 86.6267ZM389.591 86.7867V97.8267H387.175V86.7867H389.591Z" fill="white"/>
</g>
<g filter="url(#filter3_d_1_274)">
<rect x="116.126" y="164.05" width="105.763" height="56" rx="20" fill="#F0F0F0"/>
</g>
<path d="M152.747 186.96C153.387 186.973 154.041 187.007 154.707 187.06C155.387 187.113 156.054 187.2 156.707 187.32L156.607 188.28C156.034 188.24 155.414 188.207 154.747 188.18C154.081 188.153 153.427 188.14 152.787 188.14C152.241 188.14 151.774 188.16 151.387 188.2C151.001 188.24 150.681 188.333 150.427 188.48C150.174 188.627 149.987 188.867 149.867 189.2C149.761 189.533 149.707 190 149.707 190.6C149.707 191.453 149.854 192.06 150.147 192.42C150.441 192.767 150.927 193.007 151.607 193.14L154.487 193.74C155.541 193.953 156.267 194.36 156.667 194.96C157.081 195.56 157.287 196.413 157.287 197.52C157.287 198.333 157.194 198.987 157.007 199.48C156.821 199.96 156.541 200.327 156.167 200.58C155.807 200.833 155.347 201.007 154.787 201.1C154.227 201.193 153.561 201.24 152.787 201.24C152.307 201.24 151.714 201.22 151.007 201.18C150.301 201.14 149.494 201.047 148.587 200.9L148.687 199.92C149.367 199.933 149.934 199.953 150.387 199.98C150.854 199.993 151.274 200.007 151.647 200.02C152.021 200.02 152.421 200.02 152.847 200.02C153.621 200.007 154.227 199.94 154.667 199.82C155.121 199.7 155.447 199.467 155.647 199.12C155.847 198.76 155.947 198.22 155.947 197.5C155.947 196.9 155.881 196.433 155.747 196.1C155.614 195.753 155.407 195.493 155.127 195.32C154.847 195.133 154.474 195 154.007 194.92L151.087 194.3C150.101 194.1 149.401 193.7 148.987 193.1C148.574 192.487 148.367 191.647 148.367 190.58C148.367 189.767 148.454 189.12 148.627 188.64C148.814 188.147 149.081 187.78 149.427 187.54C149.787 187.3 150.241 187.147 150.787 187.08C151.347 187 152.001 186.96 152.747 186.96ZM152.447 193.96L153.187 194.02L152.527 203.6H151.787L152.447 193.96ZM153.847 184.98L153.267 194.02L152.507 193.96L153.127 184.98H153.847ZM171.43 187.2C171.683 187.2 171.877 187.247 172.01 187.34C172.157 187.42 172.25 187.54 172.29 187.7C172.33 187.847 172.31 188.04 172.23 188.28L167.85 201H166.53L170.59 189.26C170.657 189.087 170.717 188.927 170.77 188.78C170.823 188.62 170.883 188.467 170.95 188.32H163.77L163.71 187.2H171.43ZM182.105 187.2L182.045 188.32H176.105L175.885 192.64L177.225 192.7C178.172 192.753 178.979 192.853 179.645 193C180.312 193.147 180.859 193.38 181.285 193.7C181.712 194.007 182.019 194.42 182.205 194.94C182.405 195.447 182.505 196.093 182.505 196.88C182.505 197.44 182.452 197.98 182.345 198.5C182.252 199.007 182.052 199.467 181.745 199.88C181.439 200.293 180.992 200.627 180.405 200.88C179.832 201.12 179.072 201.24 178.125 201.24C177.605 201.24 176.999 201.193 176.305 201.1C175.625 201.02 174.925 200.893 174.205 200.72L174.365 199.68C174.992 199.8 175.619 199.9 176.245 199.98C176.872 200.047 177.412 200.08 177.865 200.08C178.812 200.08 179.519 199.953 179.985 199.7C180.465 199.433 180.792 199.067 180.965 198.6C181.139 198.12 181.225 197.547 181.225 196.88C181.239 196.173 181.145 195.62 180.945 195.22C180.759 194.807 180.459 194.507 180.045 194.32C179.632 194.12 179.085 193.987 178.405 193.92C177.739 193.84 176.912 193.787 175.925 193.76L175.245 193.72C175.085 193.693 174.952 193.627 174.845 193.52C174.752 193.413 174.712 193.28 174.725 193.12L175.025 187.2H182.105ZM194.55 187.2L190.31 193.06C190.203 193.207 190.096 193.34 189.99 193.46C189.896 193.567 189.79 193.68 189.67 193.8V193.84C189.803 193.96 189.93 194.087 190.05 194.22C190.17 194.34 190.276 194.473 190.37 194.62L194.85 201H193.35L188.29 193.78L193.09 187.2H194.55ZM186.85 187.2V191.66C186.85 192.047 186.836 192.407 186.81 192.74C186.783 193.06 186.743 193.407 186.69 193.78C186.73 194.153 186.763 194.513 186.79 194.86C186.83 195.207 186.85 195.553 186.85 195.9V201H185.57V187.2H186.85ZM189.09 193.28V194.34H186.35V193.28H189.09Z" fill="#262626"/>
<g filter="url(#filter4_d_1_274)">
<path d="M171.2 167.4C172.673 167.4 173.867 166.206 173.867 164.733C173.867 163.26 172.673 162.066 171.2 162.066C169.727 162.066 168.534 163.26 168.534 164.733C168.534 166.206 169.727 167.4 171.2 167.4ZM171.7 164.733V141.5H170.7V164.733H171.7Z" fill="#262626"/>
</g>
<g filter="url(#filter5_d_1_274)">
<rect x="297.126" y="164.05" width="105.763" height="56" rx="20" fill="#F0F0F0"/>
</g>
<path d="M332.747 186.96C333.387 186.973 334.041 187.007 334.707 187.06C335.387 187.113 336.054 187.2 336.707 187.32L336.607 188.28C336.034 188.24 335.414 188.207 334.747 188.18C334.081 188.153 333.427 188.14 332.787 188.14C332.241 188.14 331.774 188.16 331.387 188.2C331.001 188.24 330.681 188.333 330.427 188.48C330.174 188.627 329.987 188.867 329.867 189.2C329.761 189.533 329.707 190 329.707 190.6C329.707 191.453 329.854 192.06 330.147 192.42C330.441 192.767 330.927 193.007 331.607 193.14L334.487 193.74C335.541 193.953 336.267 194.36 336.667 194.96C337.081 195.56 337.287 196.413 337.287 197.52C337.287 198.333 337.194 198.987 337.007 199.48C336.821 199.96 336.541 200.327 336.167 200.58C335.807 200.833 335.347 201.007 334.787 201.1C334.227 201.193 333.561 201.24 332.787 201.24C332.307 201.24 331.714 201.22 331.007 201.18C330.301 201.14 329.494 201.047 328.587 200.9L328.687 199.92C329.367 199.933 329.934 199.953 330.387 199.98C330.854 199.993 331.274 200.007 331.647 200.02C332.021 200.02 332.421 200.02 332.847 200.02C333.621 200.007 334.227 199.94 334.667 199.82C335.121 199.7 335.447 199.467 335.647 199.12C335.847 198.76 335.947 198.22 335.947 197.5C335.947 196.9 335.881 196.433 335.747 196.1C335.614 195.753 335.407 195.493 335.127 195.32C334.847 195.133 334.474 195 334.007 194.92L331.087 194.3C330.101 194.1 329.401 193.7 328.987 193.1C328.574 192.487 328.367 191.647 328.367 190.58C328.367 189.767 328.454 189.12 328.627 188.64C328.814 188.147 329.081 187.78 329.427 187.54C329.787 187.3 330.241 187.147 330.787 187.08C331.347 187 332.001 186.96 332.747 186.96ZM332.447 193.96L333.187 194.02L332.527 203.6H331.787L332.447 193.96ZM333.847 184.98L333.267 194.02L332.507 193.96L333.127 184.98H333.847ZM351.43 187.2C351.683 187.2 351.877 187.247 352.01 187.34C352.157 187.42 352.25 187.54 352.29 187.7C352.33 187.847 352.31 188.04 352.23 188.28L347.85 201H346.53L350.59 189.26C350.657 189.087 350.717 188.927 350.77 188.78C350.823 188.62 350.883 188.467 350.95 188.32H343.77L343.71 187.2H351.43ZM362.105 187.2L362.045 188.32H356.105L355.885 192.64L357.225 192.7C358.172 192.753 358.979 192.853 359.645 193C360.312 193.147 360.859 193.38 361.285 193.7C361.712 194.007 362.019 194.42 362.205 194.94C362.405 195.447 362.505 196.093 362.505 196.88C362.505 197.44 362.452 197.98 362.345 198.5C362.252 199.007 362.052 199.467 361.745 199.88C361.439 200.293 360.992 200.627 360.405 200.88C359.832 201.12 359.072 201.24 358.125 201.24C357.605 201.24 356.999 201.193 356.305 201.1C355.625 201.02 354.925 200.893 354.205 200.72L354.365 199.68C354.992 199.8 355.619 199.9 356.245 199.98C356.872 200.047 357.412 200.08 357.865 200.08C358.812 200.08 359.519 199.953 359.985 199.7C360.465 199.433 360.792 199.067 360.965 198.6C361.139 198.12 361.225 197.547 361.225 196.88C361.239 196.173 361.145 195.62 360.945 195.22C360.759 194.807 360.459 194.507 360.045 194.32C359.632 194.12 359.085 193.987 358.405 193.92C357.739 193.84 356.912 193.787 355.925 193.76L355.245 193.72C355.085 193.693 354.952 193.627 354.845 193.52C354.752 193.413 354.712 193.28 354.725 193.12L355.025 187.2H362.105ZM374.55 187.2L370.31 193.06C370.203 193.207 370.096 193.34 369.99 193.46C369.896 193.567 369.79 193.68 369.67 193.8V193.84C369.803 193.96 369.93 194.087 370.05 194.22C370.17 194.34 370.276 194.473 370.37 194.62L374.85 201H373.35L368.29 193.78L373.09 187.2H374.55ZM366.85 187.2V191.66C366.85 192.047 366.836 192.407 366.81 192.74C366.783 193.06 366.743 193.407 366.69 193.78C366.73 194.153 366.763 194.513 366.79 194.86C366.83 195.207 366.85 195.553 366.85 195.9V201H365.57V187.2H366.85ZM369.09 193.28V194.34H366.35V193.28H369.09Z" fill="#262626"/>
<g filter="url(#filter6_d_1_274)">
<path d="M351.2 167.4C352.673 167.4 353.867 166.206 353.867 164.733C353.867 163.26 352.673 162.066 351.2 162.066C349.727 162.066 348.534 163.26 348.534 164.733C348.534 166.206 349.727 167.4 351.2 167.4ZM351.7 164.733V141.5H350.7V164.733H351.7Z" fill="#262626"/>
</g>
<g filter="url(#filter7_d_1_274)">
<rect x="475.126" y="164.05" width="105.763" height="56" rx="20" fill="#F0F0F0"/>
</g>
<path d="M505.347 186.96C505.987 186.973 506.64 187.007 507.307 187.06C507.987 187.113 508.653 187.2 509.307 187.32L509.207 188.28C508.633 188.24 508.013 188.207 507.347 188.18C506.68 188.153 506.027 188.14 505.387 188.14C504.84 188.14 504.373 188.16 503.987 188.2C503.6 188.24 503.28 188.333 503.027 188.48C502.773 188.627 502.587 188.867 502.467 189.2C502.36 189.533 502.307 190 502.307 190.6C502.307 191.453 502.453 192.06 502.747 192.42C503.04 192.767 503.527 193.007 504.207 193.14L507.087 193.74C508.14 193.953 508.867 194.36 509.267 194.96C509.68 195.56 509.887 196.413 509.887 197.52C509.887 198.333 509.793 198.987 509.607 199.48C509.42 199.96 509.14 200.327 508.767 200.58C508.407 200.833 507.947 201.007 507.387 201.1C506.827 201.193 506.16 201.24 505.387 201.24C504.907 201.24 504.313 201.22 503.607 201.18C502.9 201.14 502.093 201.047 501.187 200.9L501.287 199.92C501.967 199.933 502.533 199.953 502.987 199.98C503.453 199.993 503.873 200.007 504.247 200.02C504.62 200.02 505.02 200.02 505.447 200.02C506.22 200.007 506.827 199.94 507.267 199.82C507.72 199.7 508.047 199.467 508.247 199.12C508.447 198.76 508.547 198.22 508.547 197.5C508.547 196.9 508.48 196.433 508.347 196.1C508.213 195.753 508.007 195.493 507.727 195.32C507.447 195.133 507.073 195 506.607 194.92L503.687 194.3C502.7 194.1 502 193.7 501.587 193.1C501.173 192.487 500.967 191.647 500.967 190.58C500.967 189.767 501.053 189.12 501.227 188.64C501.413 188.147 501.68 187.78 502.027 187.54C502.387 187.3 502.84 187.147 503.387 187.08C503.947 187 504.6 186.96 505.347 186.96ZM505.047 193.96L505.787 194.02L505.127 203.6H504.387L505.047 193.96ZM506.447 184.98L505.867 194.02L505.107 193.96L505.727 184.98H506.447ZM520.949 187.2V201H519.629V189.56C519.629 189.373 519.636 189.187 519.649 189C519.663 188.813 519.683 188.633 519.709 188.46L516.209 189.58L516.009 188.64L519.629 187.2H520.949ZM529.242 186.94C530.389 186.94 531.295 187.193 531.962 187.7C532.629 188.193 533.109 188.967 533.402 190.02C533.695 191.073 533.842 192.433 533.842 194.1C533.842 195.753 533.695 197.113 533.402 198.18C533.109 199.233 532.629 200.013 531.962 200.52C531.295 201.013 530.389 201.26 529.242 201.26C528.109 201.26 527.202 201.013 526.522 200.52C525.855 200.013 525.375 199.233 525.082 198.18C524.802 197.113 524.662 195.753 524.662 194.1C524.662 192.433 524.802 191.073 525.082 190.02C525.375 188.967 525.855 188.193 526.522 187.7C527.202 187.193 528.109 186.94 529.242 186.94ZM529.242 188.1C528.615 188.1 528.089 188.213 527.662 188.44C527.249 188.667 526.915 189.02 526.662 189.5C526.409 189.98 526.222 190.6 526.102 191.36C525.995 192.12 525.942 193.033 525.942 194.1C525.942 195.153 525.995 196.067 526.102 196.84C526.222 197.6 526.409 198.22 526.662 198.7C526.915 199.18 527.249 199.533 527.662 199.76C528.089 199.987 528.615 200.1 529.242 200.1C529.855 200.1 530.375 199.987 530.802 199.76C531.229 199.533 531.569 199.18 531.822 198.7C532.089 198.22 532.275 197.6 532.382 196.84C532.489 196.067 532.542 195.153 532.542 194.1C532.542 193.033 532.489 192.12 532.382 191.36C532.275 190.6 532.089 189.98 531.822 189.5C531.569 189.02 531.229 188.667 530.802 188.44C530.375 188.213 529.855 188.1 529.242 188.1ZM541.156 186.94C542.303 186.94 543.209 187.193 543.876 187.7C544.543 188.193 545.023 188.967 545.316 190.02C545.609 191.073 545.756 192.433 545.756 194.1C545.756 195.753 545.609 197.113 545.316 198.18C545.023 199.233 544.543 200.013 543.876 200.52C543.209 201.013 542.303 201.26 541.156 201.26C540.023 201.26 539.116 201.013 538.436 200.52C537.769 200.013 537.289 199.233 536.996 198.18C536.716 197.113 536.576 195.753 536.576 194.1C536.576 192.433 536.716 191.073 536.996 190.02C537.289 188.967 537.769 188.193 538.436 187.7C539.116 187.193 540.023 186.94 541.156 186.94ZM541.156 188.1C540.529 188.1 540.003 188.213 539.576 188.44C539.163 188.667 538.829 189.02 538.576 189.5C538.323 189.98 538.136 190.6 538.016 191.36C537.909 192.12 537.856 193.033 537.856 194.1C537.856 195.153 537.909 196.067 538.016 196.84C538.136 197.6 538.323 198.22 538.576 198.7C538.829 199.18 539.163 199.533 539.576 199.76C540.003 199.987 540.529 200.1 541.156 200.1C541.769 200.1 542.289 199.987 542.716 199.76C543.143 199.533 543.483 199.18 543.736 198.7C544.003 198.22 544.189 197.6 544.296 196.84C544.403 196.067 544.456 195.153 544.456 194.1C544.456 193.033 544.403 192.12 544.296 191.36C544.189 190.6 544.003 189.98 543.736 189.5C543.483 189.02 543.143 188.667 542.716 188.44C542.289 188.213 541.769 188.1 541.156 188.1ZM557.95 187.2L553.71 193.06C553.603 193.207 553.497 193.34 553.39 193.46C553.297 193.567 553.19 193.68 553.07 193.8V193.84C553.203 193.96 553.33 194.087 553.45 194.22C553.57 194.34 553.677 194.473 553.77 194.62L558.25 201H556.75L551.69 193.78L556.49 187.2H557.95ZM550.25 187.2V191.66C550.25 192.047 550.237 192.407 550.21 192.74C550.183 193.06 550.143 193.407 550.09 193.78C550.13 194.153 550.163 194.513 550.19 194.86C550.23 195.207 550.25 195.553 550.25 195.9V201H548.97V187.2H550.25ZM552.49 193.28V194.34H549.75V193.28H552.49Z" fill="#262626"/>
<g filter="url(#filter8_d_1_274)">
<path d="M529.2 167.4C530.673 167.4 531.867 166.206 531.867 164.733C531.867 163.26 530.673 162.066 529.2 162.066C527.727 162.066 526.534 163.26 526.534 164.733C526.534 166.206 527.727 167.4 529.2 167.4ZM529.7 164.733V141.5H528.7V164.733H529.7Z" fill="#262626"/>
</g>
<path d="M528.189 141.5L171.934 141.5" stroke="#262626" stroke-width="3" stroke-linecap="round"/>
<path d="M350.856 118.95L350.856 141.5" stroke="#262626" stroke-width="3" stroke-linecap="round"/>
<defs>
<filter id="filter0_d_1_274" x="0" y="0" width="696.126" height="344" filterUnits="userSpaceOnUse" color-interpolation-filters="sRGB">
<feFlood flood-opacity="0" result="BackgroundImageFix"/>
<feColorMatrix in="SourceAlpha" type="matrix" values="0 0 0 0 0 0 0 0 0 0 0 0 0 0 0 0 0 0 127 0" result="hardAlpha"/>
<feOffset dy="4"/>
<feGaussianBlur stdDeviation="5"/>
<feComposite in2="hardAlpha" operator="out"/>
<feColorMatrix type="matrix" values="0 0 0 0 0 0 0 0 0 0 0 0 0 0 0 0 0 0 0.25 0"/>
<feBlend mode="normal" in2="BackgroundImageFix" result="effect1_dropShadow_1_274"/>
<feBlend mode="normal" in="SourceGraphic" in2="effect1_dropShadow_1_274" result="shape"/>
</filter>
<filter id="filter1_d_1_274" x="270.33" y="62" width="163.285" height="68" filterUnits="userSpaceOnUse" color-interpolation-filters="sRGB">
<feFlood flood-opacity="0" result="BackgroundImageFix"/>
<feColorMatrix in="SourceAlpha" type="matrix" values="0 0 0 0 0 0 0 0 0 0 0 0 0 0 0 0 0 0 127 0" result="hardAlpha"/>
<feMorphology radius="1" operator="dilate" in="SourceAlpha" result="effect1_dropShadow_1_274"/>
<feOffset dx="1" dy="5"/>
<feGaussianBlur stdDeviation="2.5"/>
<feComposite in2="hardAlpha" operator="out"/>
<feColorMatrix type="matrix" values="0 0 0 0 0 0 0 0 0 0 0 0 0 0 0 0 0 0 0.25 0"/>
<feBlend mode="normal" in2="BackgroundImageFix" result="effect1_dropShadow_1_274"/>
<feBlend mode="normal" in="SourceGraphic" in2="effect1_dropShadow_1_274" result="shape"/>
</filter>
<filter id="filter2_d_1_274" x="301.324" y="86.5625" width="98.635" height="19.4883" filterUnits="userSpaceOnUse" color-interpolation-filters="sRGB">
<feFlood flood-opacity="0" result="BackgroundImageFix"/>
<feColorMatrix in="SourceAlpha" type="matrix" values="0 0 0 0 0 0 0 0 0 0 0 0 0 0 0 0 0 0 127 0" result="hardAlpha"/>
<feOffset dy="4"/>
<feGaussianBlur stdDeviation="2"/>
<feComposite in2="hardAlpha" operator="out"/>
<feColorMatrix type="matrix" values="0 0 0 0 0 0 0 0 0 0 0 0 0 0 0 0 0 0 0.25 0"/>
<feBlend mode="normal" in2="BackgroundImageFix" result="effect1_dropShadow_1_274"/>
<feBlend mode="normal" in="SourceGraphic" in2="effect1_dropShadow_1_274" result="shape"/>
</filter>
<filter id="filter3_d_1_274" x="111.126" y="163.05" width="117.763" height="68" filterUnits="userSpaceOnUse" color-interpolation-filters="sRGB">
<feFlood flood-opacity="0" result="BackgroundImageFix"/>
<feColorMatrix in="SourceAlpha" type="matrix" values="0 0 0 0 0 0 0 0 0 0 0 0 0 0 0 0 0 0 127 0" result="hardAlpha"/>
<feMorphology radius="1" operator="dilate" in="SourceAlpha" result="effect1_dropShadow_1_274"/>
<feOffset dx="1" dy="5"/>
<feGaussianBlur stdDeviation="2.5"/>
<feComposite in2="hardAlpha" operator="out"/>
<feColorMatrix type="matrix" values="0 0 0 0 0 0 0 0 0 0 0 0 0 0 0 0 0 0 0.25 0"/>
<feBlend mode="normal" in2="BackgroundImageFix" result="effect1_dropShadow_1_274"/>
<feBlend mode="normal" in="SourceGraphic" in2="effect1_dropShadow_1_274" result="shape"/>
</filter>
<filter id="filter4_d_1_274" x="164.533" y="141.5" width="13.3335" height="33.8999" filterUnits="userSpaceOnUse" color-interpolation-filters="sRGB">
<feFlood flood-opacity="0" result="BackgroundImageFix"/>
<feColorMatrix in="SourceAlpha" type="matrix" values="0 0 0 0 0 0 0 0 0 0 0 0 0 0 0 0 0 0 127 0" result="hardAlpha"/>
<feOffset dy="4"/>
<feGaussianBlur stdDeviation="2"/>
<feComposite in2="hardAlpha" operator="out"/>
<feColorMatrix type="matrix" values="0 0 0 0 0 0 0 0 0 0 0 0 0 0 0 0 0 0 0.25 0"/>
<feBlend mode="normal" in2="BackgroundImageFix" result="effect1_dropShadow_1_274"/>
<feBlend mode="normal" in="SourceGraphic" in2="effect1_dropShadow_1_274" result="shape"/>
</filter>
<filter id="filter5_d_1_274" x="292.126" y="163.05" width="117.764" height="68" filterUnits="userSpaceOnUse" color-interpolation-filters="sRGB">
<feFlood flood-opacity="0" result="BackgroundImageFix"/>
<feColorMatrix in="SourceAlpha" type="matrix" values="0 0 0 0 0 0 0 0 0 0 0 0 0 0 0 0 0 0 127 0" result="hardAlpha"/>
<feMorphology radius="1" operator="dilate" in="SourceAlpha" result="effect1_dropShadow_1_274"/>
<feOffset dx="1" dy="5"/>
<feGaussianBlur stdDeviation="2.5"/>
<feComposite in2="hardAlpha" operator="out"/>
<feColorMatrix type="matrix" values="0 0 0 0 0 0 0 0 0 0 0 0 0 0 0 0 0 0 0.25 0"/>
<feBlend mode="normal" in2="BackgroundImageFix" result="effect1_dropShadow_1_274"/>
<feBlend mode="normal" in="SourceGraphic" in2="effect1_dropShadow_1_274" result="shape"/>
</filter>
<filter id="filter6_d_1_274" x="344.533" y="141.5" width="13.3335" height="33.8999" filterUnits="userSpaceOnUse" color-interpolation-filters="sRGB">
<feFlood flood-opacity="0" result="BackgroundImageFix"/>
<feColorMatrix in="SourceAlpha" type="matrix" values="0 0 0 0 0 0 0 0 0 0 0 0 0 0 0 0 0 0 127 0" result="hardAlpha"/>
<feOffset dy="4"/>
<feGaussianBlur stdDeviation="2"/>
<feComposite in2="hardAlpha" operator="out"/>
<feColorMatrix type="matrix" values="0 0 0 0 0 0 0 0 0 0 0 0 0 0 0 0 0 0 0.25 0"/>
<feBlend mode="normal" in2="BackgroundImageFix" result="effect1_dropShadow_1_274"/>
<feBlend mode="normal" in="SourceGraphic" in2="effect1_dropShadow_1_274" result="shape"/>
</filter>
<filter id="filter7_d_1_274" x="470.126" y="163.05" width="117.764" height="68" filterUnits="userSpaceOnUse" color-interpolation-filters="sRGB">
<feFlood flood-opacity="0" result="BackgroundImageFix"/>
<feColorMatrix in="SourceAlpha" type="matrix" values="0 0 0 0 0 0 0 0 0 0 0 0 0 0 0 0 0 0 127 0" result="hardAlpha"/>
<feMorphology radius="1" operator="dilate" in="SourceAlpha" result="effect1_dropShadow_1_274"/>
<feOffset dx="1" dy="5"/>
<feGaussianBlur stdDeviation="2.5"/>
<feComposite in2="hardAlpha" operator="out"/>
<feColorMatrix type="matrix" values="0 0 0 0 0 0 0 0 0 0 0 0 0 0 0 0 0 0 0.25 0"/>
<feBlend mode="normal" in2="BackgroundImageFix" result="effect1_dropShadow_1_274"/>
<feBlend mode="normal" in="SourceGraphic" in2="effect1_dropShadow_1_274" result="shape"/>
</filter>
<filter id="filter8_d_1_274" x="522.534" y="141.5" width="13.333" height="33.8999" filterUnits="userSpaceOnUse" color-interpolation-filters="sRGB">
<feFlood flood-opacity="0" result="BackgroundImageFix"/>
<feColorMatrix in="SourceAlpha" type="matrix" values="0 0 0 0 0 0 0 0 0 0 0 0 0 0 0 0 0 0 127 0" result="hardAlpha"/>
<feOffset dy="4"/>
<feGaussianBlur stdDeviation="2"/>
<feComposite in2="hardAlpha" operator="out"/>
<feColorMatrix type="matrix" values="0 0 0 0 0 0 0 0 0 0 0 0 0 0 0 0 0 0 0.25 0"/>
<feBlend mode="normal" in2="BackgroundImageFix" result="effect1_dropShadow_1_274"/>
<feBlend mode="normal" in="SourceGraphic" in2="effect1_dropShadow_1_274" result="shape"/>
</filter>
<linearGradient id="paint0_linear_1_274" x1="629.372" y1="35.9392" x2="623.187" y2="-16.8014" gradientUnits="userSpaceOnUse">
<stop stop-color="#3F5B76"/>
<stop offset="1" stop-color="#182531"/>
</linearGradient>
<linearGradient id="paint1_linear_1_274" x1="444.527" y1="88.5247" x2="384.451" y2="-26.0437" gradientUnits="userSpaceOnUse">
<stop stop-color="#9B59B6"/>
<stop offset="1" stop-color="#1ABC9C"/>
</linearGradient>
<linearGradient id="paint2_linear_1_274" x1="118.286" y1="10.9012" x2="100.162" y2="-45.6773" gradientUnits="userSpaceOnUse">
<stop stop-color="#9B59B6"/>
<stop offset="1" stop-color="#1ABC9C"/>
</linearGradient>
</defs>
</svg>
