<svg width="697" height="344" viewBox="0 0 697 344" fill="none" xmlns="http://www.w3.org/2000/svg">
<g filter="url(#filter0_d_1_202)">
<rect x="10" y="6" width="676.126" height="324" rx="50" fill="white"/>
</g>
<path d="M277.851 31.526C278.523 31.526 279.201 31.532 279.885 31.544C280.569 31.544 281.241 31.556 281.901 31.58C282.561 31.604 283.179 31.646 283.755 31.706L283.629 33.704H278.859C278.559 33.704 278.331 33.782 278.175 33.938C278.031 34.094 277.959 34.322 277.959 34.622V40.958C277.959 41.258 278.031 41.486 278.175 41.642C278.331 41.798 278.559 41.876 278.859 41.876H283.629L283.755 43.874C283.179 43.922 282.561 43.964 281.901 44C281.241 44.024 280.569 44.036 279.885 44.036C279.201 44.048 278.523 44.054 277.851 44.054C277.059 44.054 276.417 43.826 275.925 43.37C275.445 42.902 275.205 42.296 275.205 41.552V34.028C275.205 33.272 275.445 32.666 275.925 32.21C276.417 31.754 277.059 31.526 277.851 31.526ZM275.529 36.566H282.963V38.51H275.529V36.566ZM295.188 35.108L292.614 39.446L295.386 44H292.686L290.058 39.446L292.488 35.108H295.188ZM288.438 35.108L290.868 39.446L288.258 44H285.54L288.312 39.446L285.738 35.108H288.438ZM291.876 38.582V40.238H289.068V38.582H291.876ZM302.215 34.874C302.959 34.874 303.589 34.976 304.105 35.18C304.621 35.372 305.011 35.708 305.275 36.188C305.551 36.656 305.689 37.304 305.689 38.132V44H303.565L303.187 42.074L303.007 41.804V38.114C303.007 37.694 302.905 37.388 302.701 37.196C302.509 37.004 302.137 36.908 301.585 36.908C301.129 36.908 300.559 36.926 299.875 36.962C299.191 36.986 298.489 37.022 297.769 37.07L297.517 35.306C297.949 35.222 298.447 35.15 299.011 35.09C299.575 35.03 300.139 34.982 300.703 34.946C301.267 34.898 301.771 34.874 302.215 34.874ZM304.591 38.528L304.573 40.022L300.613 40.04C300.289 40.04 300.055 40.118 299.911 40.274C299.779 40.43 299.713 40.64 299.713 40.904V41.336C299.713 41.636 299.797 41.87 299.965 42.038C300.133 42.194 300.403 42.272 300.775 42.272C301.087 42.272 301.423 42.206 301.783 42.074C302.155 41.942 302.521 41.756 302.881 41.516C303.241 41.276 303.559 40.994 303.835 40.67V41.822C303.727 42.002 303.565 42.23 303.349 42.506C303.145 42.77 302.881 43.034 302.557 43.298C302.233 43.55 301.855 43.766 301.423 43.946C300.991 44.126 300.499 44.216 299.947 44.216C299.407 44.216 298.921 44.12 298.489 43.928C298.057 43.736 297.715 43.454 297.463 43.082C297.211 42.71 297.085 42.248 297.085 41.696V40.778C297.085 40.07 297.325 39.518 297.805 39.122C298.285 38.726 298.945 38.528 299.785 38.528H304.591ZM319.951 34.874C320.755 34.874 321.367 35.084 321.787 35.504C322.207 35.924 322.417 36.536 322.417 37.34V44H319.771V38.168C319.771 37.796 319.699 37.532 319.555 37.376C319.411 37.208 319.159 37.124 318.799 37.124C318.583 37.124 318.379 37.154 318.187 37.214C317.995 37.274 317.773 37.37 317.521 37.502C317.269 37.634 316.963 37.814 316.603 38.042L316.459 36.566C317.035 36.002 317.599 35.582 318.151 35.306C318.715 35.018 319.315 34.874 319.951 34.874ZM310.807 35.108L311.077 36.872L311.347 37.106V44H308.683V35.108H310.807ZM314.407 34.874C315.199 34.874 315.799 35.084 316.207 35.504C316.627 35.912 316.837 36.524 316.837 37.34V44H314.281V38.168C314.281 37.784 314.197 37.514 314.029 37.358C313.873 37.202 313.627 37.124 313.291 37.124C313.087 37.124 312.883 37.154 312.679 37.214C312.487 37.262 312.259 37.352 311.995 37.484C311.743 37.616 311.431 37.802 311.059 38.042L310.897 36.566C311.485 36.002 312.055 35.582 312.607 35.306C313.159 35.018 313.759 34.874 314.407 34.874ZM331.288 34.892C332.404 34.892 333.202 35.3 333.682 36.116C334.162 36.932 334.402 38.102 334.402 39.626C334.402 40.814 334.276 41.744 334.024 42.416C333.784 43.088 333.412 43.562 332.908 43.838C332.416 44.102 331.798 44.234 331.054 44.234C330.418 44.234 329.812 44.144 329.236 43.964C328.66 43.784 328.15 43.484 327.706 43.064L327.886 41.876C328.282 41.996 328.642 42.104 328.966 42.2C329.302 42.284 329.68 42.326 330.1 42.326C330.484 42.326 330.79 42.26 331.018 42.128C331.246 41.996 331.408 41.738 331.504 41.354C331.612 40.958 331.666 40.388 331.666 39.644C331.666 38.912 331.618 38.354 331.522 37.97C331.426 37.574 331.27 37.304 331.054 37.16C330.838 37.004 330.556 36.926 330.208 36.926C329.824 36.926 329.47 37.004 329.146 37.16C328.822 37.304 328.456 37.514 328.048 37.79L327.706 36.566C327.946 36.242 328.252 35.954 328.624 35.702C329.008 35.45 329.428 35.252 329.884 35.108C330.34 34.964 330.808 34.892 331.288 34.892ZM327.598 35.108L327.85 36.728L328.102 36.998V42.776L328.012 42.992C328.048 43.352 328.072 43.724 328.084 44.108C328.108 44.504 328.114 44.894 328.102 45.278V47.42H325.438V35.108H327.598ZM339.813 31.4L339.795 41.156C339.795 41.456 339.885 41.684 340.065 41.84C340.245 41.984 340.509 42.056 340.857 42.056H341.577L341.883 43.856C341.739 43.928 341.535 43.988 341.271 44.036C341.007 44.096 340.737 44.138 340.461 44.162C340.185 44.198 339.951 44.216 339.759 44.216C338.955 44.216 338.319 44.006 337.851 43.586C337.383 43.166 337.149 42.578 337.149 41.822V31.4H339.813ZM348.15 34.874C349.65 34.874 350.724 35.132 351.372 35.648C352.032 36.152 352.362 36.908 352.362 37.916C352.374 38.732 352.17 39.344 351.75 39.752C351.33 40.148 350.604 40.346 349.572 40.346H344.604V38.852H348.834C349.242 38.852 349.5 38.768 349.608 38.6C349.728 38.42 349.788 38.174 349.788 37.862C349.776 37.442 349.65 37.154 349.41 36.998C349.182 36.83 348.792 36.746 348.24 36.746C347.748 36.746 347.364 36.812 347.088 36.944C346.812 37.076 346.62 37.328 346.512 37.7C346.404 38.072 346.35 38.612 346.35 39.32C346.35 40.064 346.416 40.64 346.548 41.048C346.68 41.444 346.902 41.72 347.214 41.876C347.538 42.032 347.982 42.11 348.546 42.11C348.954 42.11 349.458 42.098 350.058 42.074C350.67 42.038 351.282 41.984 351.894 41.912L352.146 43.55C351.798 43.718 351.402 43.85 350.958 43.946C350.514 44.042 350.058 44.108 349.59 44.144C349.122 44.192 348.672 44.216 348.24 44.216C347.112 44.216 346.2 44.054 345.504 43.73C344.82 43.394 344.322 42.884 344.01 42.2C343.71 41.516 343.56 40.64 343.56 39.572C343.56 38.408 343.716 37.484 344.028 36.8C344.34 36.116 344.832 35.624 345.504 35.324C346.176 35.024 347.058 34.874 348.15 34.874ZM364.822 31.58V44H362.086V35.198C362.086 34.97 362.092 34.748 362.104 34.532C362.116 34.304 362.146 34.076 362.194 33.848L359.242 34.604L358.918 32.822L362.086 31.58H364.822ZM378.565 38.564V40.256H373.201V38.564H378.565ZM396.473 31.58V39.05C396.473 40.31 396.317 41.324 396.005 42.092C395.693 42.848 395.177 43.4 394.457 43.748C393.749 44.084 392.801 44.252 391.613 44.252C390.353 44.252 389.345 44.084 388.589 43.748C387.833 43.4 387.287 42.848 386.951 42.092C386.615 41.324 386.447 40.31 386.447 39.05V31.58H389.201V39.05C389.201 39.83 389.267 40.442 389.399 40.886C389.543 41.318 389.783 41.624 390.119 41.804C390.455 41.984 390.905 42.074 391.469 42.074C392.033 42.074 392.477 41.984 392.801 41.804C393.137 41.624 393.371 41.318 393.503 40.886C393.647 40.442 393.719 39.83 393.719 39.05V31.58H396.473ZM404.565 31.4C405.657 31.4 406.539 31.514 407.211 31.742C407.895 31.958 408.393 32.336 408.705 32.876C409.029 33.404 409.191 34.142 409.191 35.09C409.191 35.666 409.113 36.176 408.957 36.62C408.813 37.052 408.567 37.4 408.219 37.664C407.871 37.928 407.397 38.096 406.797 38.168V38.258C407.013 38.294 407.235 38.378 407.463 38.51C407.703 38.642 407.925 38.84 408.129 39.104C408.333 39.356 408.483 39.698 408.579 40.13L409.659 44H406.761L405.807 40.22C405.699 39.812 405.537 39.53 405.321 39.374C405.117 39.218 404.829 39.14 404.457 39.14C403.641 39.14 402.951 39.14 402.387 39.14C401.835 39.128 401.367 39.116 400.983 39.104C400.611 39.092 400.275 39.08 399.975 39.068L400.029 37.07H404.511C404.991 37.07 405.369 37.022 405.645 36.926C405.933 36.818 406.131 36.632 406.239 36.368C406.359 36.104 406.419 35.738 406.419 35.27C406.419 34.79 406.359 34.424 406.239 34.172C406.131 33.908 405.933 33.728 405.645 33.632C405.369 33.524 404.991 33.47 404.511 33.47C403.383 33.47 402.429 33.476 401.649 33.488C400.869 33.5 400.335 33.518 400.047 33.542L399.777 31.58C400.281 31.52 400.755 31.478 401.199 31.454C401.643 31.43 402.129 31.418 402.657 31.418C403.185 31.406 403.821 31.4 404.565 31.4ZM402.495 31.58V44H399.777V31.58H402.495ZM422.267 31.58V39.05C422.267 40.31 422.111 41.324 421.799 42.092C421.487 42.848 420.971 43.4 420.251 43.748C419.543 44.084 418.595 44.252 417.407 44.252C416.147 44.252 415.139 44.084 414.383 43.748C413.627 43.4 413.081 42.848 412.745 42.092C412.409 41.324 412.241 40.31 412.241 39.05V31.58H414.995V39.05C414.995 39.83 415.061 40.442 415.193 40.886C415.337 41.318 415.577 41.624 415.913 41.804C416.249 41.984 416.699 42.074 417.263 42.074C417.827 42.074 418.271 41.984 418.595 41.804C418.931 41.624 419.165 41.318 419.297 40.886C419.441 40.442 419.513 39.83 419.513 39.05V31.58H422.267ZM429.675 31.346C430.287 31.346 430.953 31.382 431.673 31.454C432.393 31.514 433.095 31.646 433.779 31.85L433.599 33.668C433.071 33.656 432.453 33.644 431.745 33.632C431.037 33.62 430.341 33.614 429.657 33.614C429.321 33.614 429.033 33.626 428.793 33.65C428.565 33.662 428.379 33.71 428.235 33.794C428.091 33.866 427.989 33.98 427.929 34.136C427.869 34.292 427.839 34.508 427.839 34.784C427.839 35.204 427.935 35.51 428.127 35.702C428.331 35.894 428.673 36.068 429.153 36.224L431.547 36.998C432.543 37.334 433.233 37.79 433.617 38.366C434.001 38.942 434.193 39.698 434.193 40.634C434.193 41.342 434.109 41.93 433.941 42.398C433.773 42.866 433.509 43.232 433.149 43.496C432.789 43.76 432.315 43.946 431.727 44.054C431.139 44.174 430.419 44.234 429.567 44.234C429.159 44.234 428.577 44.204 427.821 44.144C427.065 44.096 426.201 43.964 425.229 43.748L425.409 41.804C426.117 41.816 426.729 41.834 427.245 41.858C427.773 41.87 428.223 41.882 428.595 41.894C428.967 41.894 429.291 41.894 429.567 41.894C430.047 41.894 430.419 41.864 430.683 41.804C430.959 41.744 431.151 41.624 431.259 41.444C431.367 41.264 431.421 41.006 431.421 40.67C431.421 40.382 431.379 40.154 431.295 39.986C431.223 39.806 431.097 39.668 430.917 39.572C430.749 39.464 430.515 39.368 430.215 39.284L427.695 38.42C426.747 38.072 426.075 37.616 425.679 37.052C425.283 36.488 425.085 35.744 425.085 34.82C425.085 34.1 425.169 33.518 425.337 33.074C425.517 32.618 425.787 32.264 426.147 32.012C426.519 31.76 426.993 31.586 427.569 31.49C428.157 31.394 428.859 31.346 429.675 31.346Z" fill="url(#paint0_linear_1_202)"/>
<path d="M72.762 275.2V289H71.002V275.2H72.762ZM77.222 275.2V276.76H66.562V275.2H77.222ZM85.1831 279.02C86.9431 279.02 87.8231 279.913 87.8231 281.7V289H86.1031V282.18C86.1031 281.527 85.9965 281.08 85.7831 280.84C85.5831 280.587 85.2298 280.46 84.7231 280.46C84.1231 280.46 83.5231 280.6 82.9231 280.88C82.3231 281.16 81.6098 281.567 80.7831 282.1L80.7031 280.88C81.4631 280.307 82.2165 279.853 82.9631 279.52C83.7098 279.187 84.4498 279.02 85.1831 279.02ZM80.9631 275L80.9831 278.86C80.9831 279.3 80.9631 279.713 80.9231 280.1C80.8965 280.487 80.8498 280.827 80.7831 281.12L80.9631 281.42V289H79.2631V275H80.9631ZM94.8842 279.02C96.3509 279.02 97.4109 279.287 98.0642 279.82C98.7309 280.353 99.0642 281.147 99.0642 282.2C99.0776 283.067 98.8976 283.747 98.5242 284.24C98.1509 284.72 97.5576 284.96 96.7442 284.96H91.0642V283.64H96.3042C96.7442 283.64 97.0309 283.493 97.1642 283.2C97.2976 282.893 97.3642 282.56 97.3642 282.2C97.3509 281.573 97.1642 281.127 96.8042 280.86C96.4442 280.593 95.8309 280.46 94.9642 280.46C94.2576 280.46 93.6976 280.567 93.2842 280.78C92.8842 280.98 92.5976 281.34 92.4242 281.86C92.2642 282.367 92.1842 283.08 92.1842 284C92.1842 285.04 92.2842 285.833 92.4842 286.38C92.6976 286.927 93.0309 287.3 93.4842 287.5C93.9376 287.7 94.5376 287.8 95.2842 287.8C95.8042 287.8 96.3709 287.78 96.9842 287.74C97.6109 287.687 98.1709 287.627 98.6642 287.56L98.8442 288.7C98.5376 288.82 98.1576 288.92 97.7042 289C97.2642 289.08 96.8042 289.14 96.3242 289.18C95.8576 289.22 95.4376 289.24 95.0642 289.24C93.9442 289.24 93.0442 289.073 92.3642 288.74C91.6842 288.393 91.1842 287.847 90.8642 287.1C90.5576 286.34 90.4042 285.34 90.4042 284.1C90.4042 282.82 90.5576 281.813 90.8642 281.08C91.1842 280.333 91.6709 279.807 92.3242 279.5C92.9909 279.18 93.8442 279.02 94.8842 279.02ZM108.168 276.38V286.32C108.168 286.787 108.268 287.12 108.468 287.32C108.668 287.52 109.008 287.62 109.488 287.62H110.968L111.168 288.92C110.955 288.973 110.708 289.02 110.428 289.06C110.148 289.1 109.875 289.127 109.608 289.14C109.341 289.167 109.128 289.18 108.968 289.18C108.155 289.18 107.535 288.953 107.108 288.5C106.681 288.047 106.468 287.393 106.468 286.54V276.38H108.168ZM111.268 279.26V280.6H104.708V279.36L106.628 279.26H111.268ZM117.465 279.02C118.585 279.02 119.478 279.187 120.145 279.52C120.825 279.853 121.312 280.4 121.605 281.16C121.898 281.907 122.045 282.9 122.045 284.14C122.045 285.38 121.898 286.38 121.605 287.14C121.312 287.887 120.825 288.427 120.145 288.76C119.478 289.093 118.585 289.26 117.465 289.26C116.358 289.26 115.465 289.093 114.785 288.76C114.118 288.427 113.632 287.887 113.325 287.14C113.032 286.38 112.885 285.38 112.885 284.14C112.885 282.9 113.032 281.907 113.325 281.16C113.632 280.4 114.118 279.853 114.785 279.52C115.465 279.187 116.358 279.02 117.465 279.02ZM117.465 280.46C116.758 280.46 116.198 280.573 115.785 280.8C115.385 281.013 115.098 281.387 114.925 281.92C114.752 282.453 114.665 283.193 114.665 284.14C114.665 285.087 114.752 285.827 114.925 286.36C115.098 286.893 115.385 287.273 115.785 287.5C116.198 287.713 116.758 287.82 117.465 287.82C118.172 287.82 118.732 287.713 119.145 287.5C119.558 287.273 119.852 286.893 120.025 286.36C120.198 285.827 120.285 285.087 120.285 284.14C120.285 283.193 120.198 282.453 120.025 281.92C119.852 281.387 119.558 281.013 119.145 280.8C118.732 280.573 118.172 280.46 117.465 280.46ZM127.133 276.38V286.32C127.133 286.787 127.233 287.12 127.433 287.32C127.633 287.52 127.973 287.62 128.453 287.62H129.933L130.133 288.92C129.919 288.973 129.673 289.02 129.393 289.06C129.113 289.1 128.839 289.127 128.573 289.14C128.306 289.167 128.093 289.18 127.933 289.18C127.119 289.18 126.499 288.953 126.073 288.5C125.646 288.047 125.433 287.393 125.433 286.54V276.38H127.133ZM130.233 279.26V280.6H123.673V279.36L125.593 279.26H130.233ZM136.91 279.02C137.63 279.02 138.237 279.12 138.73 279.32C139.237 279.507 139.617 279.827 139.87 280.28C140.123 280.733 140.25 281.353 140.25 282.14V289H138.91L138.65 286.88L138.53 286.66V282.14C138.53 281.54 138.39 281.113 138.11 280.86C137.843 280.593 137.323 280.46 136.55 280.46C136.043 280.46 135.403 280.487 134.63 280.54C133.87 280.593 133.117 280.653 132.37 280.72L132.21 279.46C132.663 279.38 133.157 279.307 133.69 279.24C134.237 279.173 134.79 279.12 135.35 279.08C135.91 279.04 136.43 279.02 136.91 279.02ZM139.45 283L139.43 284.28L134.77 284.3C134.303 284.313 133.977 284.44 133.79 284.68C133.603 284.907 133.51 285.227 133.51 285.64V286.26C133.51 286.767 133.63 287.14 133.87 287.38C134.11 287.607 134.497 287.72 135.03 287.72C135.403 287.72 135.823 287.653 136.29 287.52C136.77 287.373 137.25 287.153 137.73 286.86C138.21 286.567 138.65 286.193 139.05 285.74V287C138.903 287.187 138.69 287.407 138.41 287.66C138.143 287.9 137.817 288.14 137.43 288.38C137.057 288.607 136.637 288.8 136.17 288.96C135.717 289.107 135.223 289.18 134.69 289.18C134.117 289.18 133.61 289.08 133.17 288.88C132.73 288.667 132.383 288.36 132.13 287.96C131.89 287.547 131.77 287.047 131.77 286.46V285.4C131.77 284.64 132.003 284.053 132.47 283.64C132.95 283.213 133.617 283 134.47 283H139.45ZM145.007 275L144.987 286.32C144.987 286.747 145.1 287.073 145.327 287.3C145.567 287.513 145.9 287.62 146.327 287.62H147.267L147.467 288.92C147.347 288.973 147.173 289.02 146.947 289.06C146.733 289.1 146.507 289.127 146.267 289.14C146.04 289.167 145.847 289.18 145.687 289.18C144.967 289.18 144.387 288.967 143.947 288.54C143.52 288.113 143.307 287.5 143.307 286.7V275H145.007ZM155.258 276.38V286.32C155.258 286.787 155.358 287.12 155.558 287.32C155.758 287.52 156.098 287.62 156.578 287.62H158.058L158.258 288.92C158.044 288.973 157.798 289.02 157.518 289.06C157.238 289.1 156.964 289.127 156.698 289.14C156.431 289.167 156.218 289.18 156.058 289.18C155.244 289.18 154.624 288.953 154.198 288.5C153.771 288.047 153.558 287.393 153.558 286.54V276.38H155.258ZM158.358 279.26V280.6H151.798V279.36L153.718 279.26H158.358ZM164.435 279.02C165.902 279.02 166.962 279.287 167.615 279.82C168.282 280.353 168.615 281.147 168.615 282.2C168.628 283.067 168.448 283.747 168.075 284.24C167.702 284.72 167.108 284.96 166.295 284.96H160.615V283.64H165.855C166.295 283.64 166.582 283.493 166.715 283.2C166.848 282.893 166.915 282.56 166.915 282.2C166.902 281.573 166.715 281.127 166.355 280.86C165.995 280.593 165.382 280.46 164.515 280.46C163.808 280.46 163.248 280.567 162.835 280.78C162.435 280.98 162.148 281.34 161.975 281.86C161.815 282.367 161.735 283.08 161.735 284C161.735 285.04 161.835 285.833 162.035 286.38C162.248 286.927 162.582 287.3 163.035 287.5C163.488 287.7 164.088 287.8 164.835 287.8C165.355 287.8 165.922 287.78 166.535 287.74C167.162 287.687 167.722 287.627 168.215 287.56L168.395 288.7C168.088 288.82 167.708 288.92 167.255 289C166.815 289.08 166.355 289.14 165.875 289.18C165.408 289.22 164.988 289.24 164.615 289.24C163.495 289.24 162.595 289.073 161.915 288.74C161.235 288.393 160.735 287.847 160.415 287.1C160.108 286.34 159.955 285.34 159.955 284.1C159.955 282.82 160.108 281.813 160.415 281.08C160.735 280.333 161.222 279.807 161.875 279.5C162.542 279.18 163.395 279.02 164.435 279.02ZM175.777 279.02C176.497 279.02 177.104 279.12 177.597 279.32C178.104 279.507 178.484 279.827 178.737 280.28C178.991 280.733 179.117 281.353 179.117 282.14V289H177.777L177.517 286.88L177.397 286.66V282.14C177.397 281.54 177.257 281.113 176.977 280.86C176.711 280.593 176.191 280.46 175.417 280.46C174.911 280.46 174.271 280.487 173.497 280.54C172.737 280.593 171.984 280.653 171.237 280.72L171.077 279.46C171.531 279.38 172.024 279.307 172.557 279.24C173.104 279.173 173.657 279.12 174.217 279.08C174.777 279.04 175.297 279.02 175.777 279.02ZM178.317 283L178.297 284.28L173.637 284.3C173.171 284.313 172.844 284.44 172.657 284.68C172.471 284.907 172.377 285.227 172.377 285.64V286.26C172.377 286.767 172.497 287.14 172.737 287.38C172.977 287.607 173.364 287.72 173.897 287.72C174.271 287.72 174.691 287.653 175.157 287.52C175.637 287.373 176.117 287.153 176.597 286.86C177.077 286.567 177.517 286.193 177.917 285.74V287C177.771 287.187 177.557 287.407 177.277 287.66C177.011 287.9 176.684 288.14 176.297 288.38C175.924 288.607 175.504 288.8 175.037 288.96C174.584 289.107 174.091 289.18 173.557 289.18C172.984 289.18 172.477 289.08 172.037 288.88C171.597 288.667 171.251 288.36 170.997 287.96C170.757 287.547 170.637 287.047 170.637 286.46V285.4C170.637 284.64 170.871 284.053 171.337 283.64C171.817 283.213 172.484 283 173.337 283H178.317ZM194.014 279.02C194.854 279.02 195.494 279.247 195.934 279.7C196.387 280.153 196.614 280.82 196.614 281.7V289H194.934V282.18C194.92 281.58 194.8 281.147 194.574 280.88C194.347 280.6 193.96 280.46 193.414 280.46C193.067 280.46 192.734 280.52 192.414 280.64C192.107 280.747 191.767 280.92 191.394 281.16C191.02 281.4 190.567 281.713 190.034 282.1L189.934 280.9C190.64 280.273 191.327 279.807 191.994 279.5C192.66 279.18 193.334 279.02 194.014 279.02ZM183.554 279.26L183.674 281.12L183.854 281.42V289H182.154V279.26H183.554ZM187.634 279.02C188.46 279.02 189.094 279.247 189.534 279.7C189.974 280.14 190.2 280.807 190.214 281.7V289H188.574V282.18C188.574 281.553 188.447 281.113 188.194 280.86C187.94 280.593 187.56 280.46 187.054 280.46C186.72 280.46 186.394 280.513 186.074 280.62C185.767 280.727 185.42 280.9 185.034 281.14C184.66 281.38 184.2 281.7 183.654 282.1L183.534 280.9C184.24 280.273 184.927 279.807 185.594 279.5C186.26 279.18 186.94 279.02 187.634 279.02ZM206.215 276.38V286.32C206.215 286.787 206.315 287.12 206.515 287.32C206.715 287.52 207.055 287.62 207.535 287.62H209.015L209.215 288.92C209.002 288.973 208.755 289.02 208.475 289.06C208.195 289.1 207.922 289.127 207.655 289.14C207.388 289.167 207.175 289.18 207.015 289.18C206.202 289.18 205.582 288.953 205.155 288.5C204.728 288.047 204.515 287.393 204.515 286.54V276.38H206.215ZM209.315 279.26V280.6H202.755V279.36L204.675 279.26H209.315ZM213.032 279.26V286.1C213.019 286.713 213.132 287.147 213.372 287.4C213.612 287.653 214.012 287.78 214.572 287.78C215.119 287.78 215.659 287.653 216.192 287.4C216.739 287.133 217.392 286.753 218.152 286.26L218.372 287.44C217.612 288.04 216.872 288.493 216.152 288.8C215.445 289.107 214.725 289.26 213.992 289.26C212.219 289.26 211.332 288.367 211.332 286.58V279.26H213.032ZM219.672 279.26V289H218.312L218.152 287.16L217.972 286.86V279.26H219.672ZM224.118 279.26L224.338 281.12L224.498 281.42V289H222.798V279.26H224.118ZM228.898 279.02L228.698 280.62H228.138C227.565 280.62 226.992 280.74 226.418 280.98C225.845 281.207 225.145 281.533 224.318 281.96L224.178 280.9C224.898 280.313 225.618 279.853 226.338 279.52C227.072 279.187 227.778 279.02 228.458 279.02H228.898ZM236.746 279.02C238.506 279.02 239.386 279.913 239.386 281.7V289H237.686V282.18C237.686 281.527 237.579 281.08 237.366 280.84C237.152 280.587 236.792 280.46 236.286 280.46C235.686 280.46 235.086 280.607 234.486 280.9C233.886 281.193 233.172 281.593 232.346 282.1L232.266 280.88C233.026 280.293 233.779 279.84 234.526 279.52C235.272 279.187 236.012 279.02 236.746 279.02ZM232.266 279.26L232.406 281.12L232.526 281.42V289H230.826V279.26H232.266ZM246.567 279.02C247.687 279.02 248.58 279.187 249.247 279.52C249.927 279.853 250.413 280.4 250.707 281.16C251 281.907 251.147 282.9 251.147 284.14C251.147 285.38 251 286.38 250.707 287.14C250.413 287.887 249.927 288.427 249.247 288.76C248.58 289.093 247.687 289.26 246.567 289.26C245.46 289.26 244.567 289.093 243.887 288.76C243.22 288.427 242.733 287.887 242.427 287.14C242.133 286.38 241.987 285.38 241.987 284.14C241.987 282.9 242.133 281.907 242.427 281.16C242.733 280.4 243.22 279.853 243.887 279.52C244.567 279.187 245.46 279.02 246.567 279.02ZM246.567 280.46C245.86 280.46 245.3 280.573 244.887 280.8C244.487 281.013 244.2 281.387 244.027 281.92C243.853 282.453 243.767 283.193 243.767 284.14C243.767 285.087 243.853 285.827 244.027 286.36C244.2 286.893 244.487 287.273 244.887 287.5C245.3 287.713 245.86 287.82 246.567 287.82C247.273 287.82 247.833 287.713 248.247 287.5C248.66 287.273 248.953 286.893 249.127 286.36C249.3 285.827 249.387 285.087 249.387 284.14C249.387 283.193 249.3 282.453 249.127 281.92C248.953 281.387 248.66 281.013 248.247 280.8C247.833 280.573 247.273 280.46 246.567 280.46ZM262.357 279.26L258.797 288.58C258.743 288.713 258.663 288.82 258.557 288.9C258.463 288.967 258.343 289 258.197 289H256.657C256.523 289 256.403 288.967 256.297 288.9C256.19 288.82 256.11 288.713 256.057 288.58L252.497 279.26H254.317L256.717 286.08C256.823 286.36 256.923 286.647 257.017 286.94C257.11 287.233 257.203 287.513 257.297 287.78H257.557C257.663 287.5 257.763 287.22 257.857 286.94C257.963 286.647 258.063 286.36 258.157 286.08L260.557 279.26H262.357ZM268.185 279.02C269.652 279.02 270.712 279.287 271.365 279.82C272.032 280.353 272.365 281.147 272.365 282.2C272.378 283.067 272.198 283.747 271.825 284.24C271.452 284.72 270.858 284.96 270.045 284.96H264.365V283.64H269.605C270.045 283.64 270.332 283.493 270.465 283.2C270.598 282.893 270.665 282.56 270.665 282.2C270.652 281.573 270.465 281.127 270.105 280.86C269.745 280.593 269.132 280.46 268.265 280.46C267.558 280.46 266.998 280.567 266.585 280.78C266.185 280.98 265.898 281.34 265.725 281.86C265.565 282.367 265.485 283.08 265.485 284C265.485 285.04 265.585 285.833 265.785 286.38C265.998 286.927 266.332 287.3 266.785 287.5C267.238 287.7 267.838 287.8 268.585 287.8C269.105 287.8 269.672 287.78 270.285 287.74C270.912 287.687 271.472 287.627 271.965 287.56L272.145 288.7C271.838 288.82 271.458 288.92 271.005 289C270.565 289.08 270.105 289.14 269.625 289.18C269.158 289.22 268.738 289.24 268.365 289.24C267.245 289.24 266.345 289.073 265.665 288.74C264.985 288.393 264.485 287.847 264.165 287.1C263.858 286.34 263.705 285.34 263.705 284.1C263.705 282.82 263.858 281.813 264.165 281.08C264.485 280.333 264.972 279.807 265.625 279.5C266.292 279.18 267.145 279.02 268.185 279.02ZM276.247 279.26L276.467 281.12L276.627 281.42V289H274.927V279.26H276.247ZM281.027 279.02L280.827 280.62H280.267C279.694 280.62 279.121 280.74 278.547 280.98C277.974 281.207 277.274 281.533 276.447 281.96L276.307 280.9C277.027 280.313 277.747 279.853 278.467 279.52C279.201 279.187 279.907 279.02 280.587 279.02H281.027ZM289.066 276.38V286.32C289.066 286.787 289.166 287.12 289.366 287.32C289.566 287.52 289.906 287.62 290.386 287.62H291.866L292.066 288.92C291.853 288.973 291.606 289.02 291.326 289.06C291.046 289.1 290.773 289.127 290.506 289.14C290.24 289.167 290.026 289.18 289.866 289.18C289.053 289.18 288.433 288.953 288.006 288.5C287.58 288.047 287.366 287.393 287.366 286.54V276.38H289.066ZM292.166 279.26V280.6H285.606V279.36L287.526 279.26H292.166ZM298.364 279.02C299.484 279.02 300.377 279.187 301.044 279.52C301.724 279.853 302.21 280.4 302.504 281.16C302.797 281.907 302.944 282.9 302.944 284.14C302.944 285.38 302.797 286.38 302.504 287.14C302.21 287.887 301.724 288.427 301.044 288.76C300.377 289.093 299.484 289.26 298.364 289.26C297.257 289.26 296.364 289.093 295.684 288.76C295.017 288.427 294.53 287.887 294.224 287.14C293.93 286.38 293.784 285.38 293.784 284.14C293.784 282.9 293.93 281.907 294.224 281.16C294.53 280.4 295.017 279.853 295.684 279.52C296.364 279.187 297.257 279.02 298.364 279.02ZM298.364 280.46C297.657 280.46 297.097 280.573 296.684 280.8C296.284 281.013 295.997 281.387 295.824 281.92C295.65 282.453 295.564 283.193 295.564 284.14C295.564 285.087 295.65 285.827 295.824 286.36C295.997 286.893 296.284 287.273 296.684 287.5C297.097 287.713 297.657 287.82 298.364 287.82C299.07 287.82 299.63 287.713 300.044 287.5C300.457 287.273 300.75 286.893 300.924 286.36C301.097 285.827 301.184 285.087 301.184 284.14C301.184 283.193 301.097 282.453 300.924 281.92C300.75 281.387 300.457 281.013 300.044 280.8C299.63 280.573 299.07 280.46 298.364 280.46ZM313.984 279.02C314.291 279.02 314.631 279.033 315.004 279.06C315.377 279.087 315.764 279.133 316.164 279.2C316.564 279.253 316.951 279.327 317.324 279.42C317.711 279.5 318.064 279.593 318.384 279.7L317.004 280.88C316.657 280.773 316.304 280.687 315.944 280.62C315.584 280.553 315.237 280.507 314.904 280.48C314.571 280.453 314.257 280.447 313.964 280.46C313.324 280.473 312.811 280.593 312.424 280.82C312.037 281.033 311.757 281.413 311.584 281.96C311.424 282.507 311.344 283.28 311.344 284.28C311.344 285.467 311.491 286.347 311.784 286.92C312.077 287.48 312.651 287.76 313.504 287.76C314.117 287.76 314.671 287.633 315.164 287.38C315.671 287.113 316.244 286.76 316.884 286.32L317.104 287.44C316.691 287.813 316.257 288.14 315.804 288.42C315.351 288.687 314.884 288.893 314.404 289.04C313.937 289.187 313.451 289.26 312.944 289.26C311.811 289.26 310.971 288.853 310.424 288.04C309.877 287.227 309.604 285.933 309.604 284.16C309.604 283.32 309.671 282.58 309.804 281.94C309.951 281.3 310.191 280.767 310.524 280.34C310.857 279.9 311.304 279.573 311.864 279.36C312.424 279.133 313.131 279.02 313.984 279.02ZM316.684 279.64L318.384 279.7V293.02H316.684L316.664 289.68C316.664 289.253 316.677 288.873 316.704 288.54C316.731 288.193 316.784 287.84 316.864 287.48L316.684 287.2V279.64ZM323.11 279.26V286.1C323.097 286.713 323.21 287.147 323.45 287.4C323.69 287.653 324.09 287.78 324.65 287.78C325.197 287.78 325.737 287.653 326.27 287.4C326.817 287.133 327.47 286.753 328.23 286.26L328.45 287.44C327.69 288.04 326.95 288.493 326.23 288.8C325.523 289.107 324.803 289.26 324.07 289.26C322.297 289.26 321.41 288.367 321.41 286.58V279.26H323.11ZM329.75 279.26V289H328.39L328.23 287.16L328.05 286.86V279.26H329.75ZM337.476 279.02C338.196 279.02 338.803 279.12 339.296 279.32C339.803 279.507 340.183 279.827 340.436 280.28C340.69 280.733 340.816 281.353 340.816 282.14V289H339.476L339.216 286.88L339.096 286.66V282.14C339.096 281.54 338.956 281.113 338.676 280.86C338.41 280.593 337.89 280.46 337.116 280.46C336.61 280.46 335.97 280.487 335.196 280.54C334.436 280.593 333.683 280.653 332.936 280.72L332.776 279.46C333.23 279.38 333.723 279.307 334.256 279.24C334.803 279.173 335.356 279.12 335.916 279.08C336.476 279.04 336.996 279.02 337.476 279.02ZM340.016 283L339.996 284.28L335.336 284.3C334.87 284.313 334.543 284.44 334.356 284.68C334.17 284.907 334.076 285.227 334.076 285.64V286.26C334.076 286.767 334.196 287.14 334.436 287.38C334.676 287.607 335.063 287.72 335.596 287.72C335.97 287.72 336.39 287.653 336.856 287.52C337.336 287.373 337.816 287.153 338.296 286.86C338.776 286.567 339.216 286.193 339.616 285.74V287C339.47 287.187 339.256 287.407 338.976 287.66C338.71 287.9 338.383 288.14 337.996 288.38C337.623 288.607 337.203 288.8 336.736 288.96C336.283 289.107 335.79 289.18 335.256 289.18C334.683 289.18 334.176 289.08 333.736 288.88C333.296 288.667 332.95 288.36 332.696 287.96C332.456 287.547 332.336 287.047 332.336 286.46V285.4C332.336 284.64 332.57 284.053 333.036 283.64C333.516 283.213 334.183 283 335.036 283H340.016ZM345.573 275L345.553 286.32C345.553 286.747 345.666 287.073 345.893 287.3C346.133 287.513 346.466 287.62 346.893 287.62H347.833L348.033 288.92C347.913 288.973 347.74 289.02 347.513 289.06C347.3 289.1 347.073 289.127 346.833 289.14C346.606 289.167 346.413 289.18 346.253 289.18C345.533 289.18 344.953 288.967 344.513 288.54C344.086 288.113 343.873 287.5 343.873 286.7V275H345.573ZM351.55 279.26V289H349.87V279.26H351.55ZM351.11 275.12C351.457 275.12 351.63 275.293 351.63 275.64V276.78C351.63 277.127 351.457 277.3 351.11 277.3H350.31C349.964 277.3 349.79 277.127 349.79 276.78V275.64C349.79 275.293 349.964 275.12 350.31 275.12H351.11ZM358.351 274.66C358.565 274.66 358.838 274.667 359.171 274.68C359.505 274.68 359.845 274.693 360.191 274.72C360.538 274.733 360.838 274.76 361.091 274.8L360.951 276.06H358.951C358.311 276.06 357.858 276.187 357.591 276.44C357.338 276.693 357.211 277.113 357.211 277.7V289H355.511V277.52C355.511 276.907 355.605 276.393 355.791 275.98C355.978 275.553 356.278 275.227 356.691 275C357.105 274.773 357.658 274.66 358.351 274.66ZM360.331 279.26V280.6H353.751V279.36L355.611 279.26H360.331ZM370.989 279.26L367.089 289.54C366.929 289.967 366.729 290.387 366.489 290.8C366.249 291.213 365.956 291.587 365.609 291.92C365.276 292.267 364.876 292.547 364.409 292.76C363.956 292.973 363.429 293.093 362.829 293.12L362.669 292C363.456 291.747 364.062 291.407 364.489 290.98C364.916 290.553 365.256 290.033 365.509 289.42L365.989 288.26C366.096 287.993 366.202 287.7 366.309 287.38C366.416 287.06 366.516 286.773 366.609 286.52L369.149 279.26H370.989ZM362.969 279.26L365.549 286.52C365.616 286.72 365.682 286.92 365.749 287.12C365.816 287.307 365.869 287.5 365.909 287.7H366.369L365.809 289H365.289C365.156 289 365.029 288.96 364.909 288.88C364.802 288.8 364.729 288.693 364.689 288.56L361.149 279.26H362.969ZM380.226 274.66C380.44 274.66 380.713 274.667 381.046 274.68C381.38 274.68 381.72 274.693 382.066 274.72C382.413 274.733 382.713 274.76 382.966 274.8L382.826 276.06H380.826C380.186 276.06 379.733 276.187 379.466 276.44C379.213 276.693 379.086 277.113 379.086 277.7V289H377.386V277.52C377.386 276.907 377.48 276.393 377.666 275.98C377.853 275.553 378.153 275.227 378.566 275C378.98 274.773 379.533 274.66 380.226 274.66ZM382.206 279.26V280.6H375.626V279.36L377.486 279.26H382.206ZM388.188 279.02C389.308 279.02 390.201 279.187 390.868 279.52C391.548 279.853 392.034 280.4 392.328 281.16C392.621 281.907 392.768 282.9 392.768 284.14C392.768 285.38 392.621 286.38 392.328 287.14C392.034 287.887 391.548 288.427 390.868 288.76C390.201 289.093 389.308 289.26 388.188 289.26C387.081 289.26 386.188 289.093 385.508 288.76C384.841 288.427 384.354 287.887 384.048 287.14C383.754 286.38 383.608 285.38 383.608 284.14C383.608 282.9 383.754 281.907 384.048 281.16C384.354 280.4 384.841 279.853 385.508 279.52C386.188 279.187 387.081 279.02 388.188 279.02ZM388.188 280.46C387.481 280.46 386.921 280.573 386.508 280.8C386.108 281.013 385.821 281.387 385.648 281.92C385.474 282.453 385.388 283.193 385.388 284.14C385.388 285.087 385.474 285.827 385.648 286.36C385.821 286.893 386.108 287.273 386.508 287.5C386.921 287.713 387.481 287.82 388.188 287.82C388.894 287.82 389.454 287.713 389.868 287.5C390.281 287.273 390.574 286.893 390.748 286.36C390.921 285.827 391.008 285.087 391.008 284.14C391.008 283.193 390.921 282.453 390.748 281.92C390.574 281.387 390.281 281.013 389.868 280.8C389.454 280.573 388.894 280.46 388.188 280.46ZM396.755 279.26L396.975 281.12L397.135 281.42V289H395.435V279.26H396.755ZM401.535 279.02L401.335 280.62H400.775C400.202 280.62 399.628 280.74 399.055 280.98C398.482 281.207 397.782 281.533 396.955 281.96L396.815 280.9C397.535 280.313 398.255 279.853 398.975 279.52C399.708 279.187 400.415 279.02 401.095 279.02H401.535ZM409.574 276.38V286.32C409.574 286.787 409.674 287.12 409.874 287.32C410.074 287.52 410.414 287.62 410.894 287.62H412.374L412.574 288.92C412.361 288.973 412.114 289.02 411.834 289.06C411.554 289.1 411.281 289.127 411.014 289.14C410.748 289.167 410.534 289.18 410.374 289.18C409.561 289.18 408.941 288.953 408.514 288.5C408.088 288.047 407.874 287.393 407.874 286.54V276.38H409.574ZM412.674 279.26V280.6H406.114V279.36L408.034 279.26H412.674ZM420.671 279.02C422.431 279.02 423.311 279.913 423.311 281.7V289H421.591V282.18C421.591 281.527 421.485 281.08 421.271 280.84C421.071 280.587 420.718 280.46 420.211 280.46C419.611 280.46 419.011 280.6 418.411 280.88C417.811 281.16 417.098 281.567 416.271 282.1L416.191 280.88C416.951 280.307 417.705 279.853 418.451 279.52C419.198 279.187 419.938 279.02 420.671 279.02ZM416.451 275L416.471 278.86C416.471 279.3 416.451 279.713 416.411 280.1C416.385 280.487 416.338 280.827 416.271 281.12L416.451 281.42V289H414.751V275H416.451ZM428.133 279.26V289H426.453V279.26H428.133ZM427.693 275.12C428.039 275.12 428.213 275.293 428.213 275.64V276.78C428.213 277.127 428.039 277.3 427.693 277.3H426.893C426.546 277.3 426.373 277.127 426.373 276.78V275.64C426.373 275.293 426.546 275.12 426.893 275.12H427.693ZM434.573 279.02C435 279.02 435.453 279.033 435.933 279.06C436.413 279.087 436.887 279.12 437.353 279.16C437.833 279.2 438.273 279.253 438.673 279.32L438.533 280.56C437.92 280.533 437.3 280.513 436.673 280.5C436.06 280.473 435.447 280.46 434.833 280.46C434.233 280.447 433.76 280.46 433.413 280.5C433.067 280.54 432.813 280.647 432.653 280.82C432.507 280.993 432.433 281.287 432.433 281.7C432.433 282.207 432.553 282.54 432.793 282.7C433.033 282.86 433.387 282.993 433.853 283.1L436.693 283.74C437.467 283.927 438.033 284.213 438.393 284.6C438.767 284.987 438.953 285.593 438.953 286.42C438.953 287.22 438.8 287.82 438.493 288.22C438.2 288.62 437.747 288.887 437.133 289.02C436.52 289.153 435.74 289.22 434.793 289.22C434.447 289.22 433.927 289.207 433.233 289.18C432.553 289.153 431.8 289.073 430.973 288.94L431.093 287.7C431.413 287.713 431.753 287.733 432.113 287.76C432.473 287.773 432.847 287.78 433.233 287.78C433.633 287.78 434.04 287.78 434.453 287.78C435.187 287.78 435.76 287.747 436.173 287.68C436.587 287.613 436.88 287.487 437.053 287.3C437.227 287.1 437.313 286.807 437.313 286.42C437.313 285.94 437.173 285.62 436.893 285.46C436.613 285.3 436.24 285.167 435.773 285.06L432.973 284.42C432.44 284.287 432.013 284.113 431.693 283.9C431.373 283.673 431.14 283.387 430.993 283.04C430.847 282.68 430.773 282.233 430.773 281.7C430.773 280.94 430.907 280.367 431.173 279.98C431.44 279.593 431.853 279.333 432.413 279.2C432.973 279.067 433.693 279.007 434.573 279.02ZM451.523 279.02C452.709 279.02 453.563 279.46 454.083 280.34C454.603 281.207 454.863 282.487 454.863 284.18C454.863 285.433 454.729 286.433 454.463 287.18C454.196 287.913 453.789 288.44 453.243 288.76C452.709 289.08 452.023 289.24 451.183 289.24C450.543 289.24 449.909 289.153 449.283 288.98C448.669 288.807 448.069 288.54 447.483 288.18L447.583 287.16C448.209 287.333 448.763 287.48 449.243 287.6C449.723 287.707 450.229 287.76 450.763 287.76C451.336 287.76 451.789 287.66 452.123 287.46C452.469 287.26 452.723 286.9 452.883 286.38C453.043 285.86 453.123 285.127 453.123 284.18C453.123 283.26 453.049 282.533 452.903 282C452.756 281.467 452.523 281.087 452.203 280.86C451.896 280.62 451.483 280.5 450.963 280.5C450.429 280.5 449.903 280.627 449.383 280.88C448.863 281.133 448.256 281.52 447.563 282.04L447.403 280.9C447.763 280.513 448.169 280.18 448.623 279.9C449.076 279.62 449.549 279.407 450.043 279.26C450.549 279.1 451.043 279.02 451.523 279.02ZM447.343 279.26L447.523 281.28L447.643 281.54V287.78L447.563 288.02C447.603 288.393 447.623 288.753 447.623 289.1C447.636 289.447 447.643 289.813 447.643 290.2V293.02H445.943V279.26H447.343ZM461.664 279.02C462.784 279.02 463.678 279.187 464.344 279.52C465.024 279.853 465.511 280.4 465.804 281.16C466.098 281.907 466.244 282.9 466.244 284.14C466.244 285.38 466.098 286.38 465.804 287.14C465.511 287.887 465.024 288.427 464.344 288.76C463.678 289.093 462.784 289.26 461.664 289.26C460.558 289.26 459.664 289.093 458.984 288.76C458.318 288.427 457.831 287.887 457.524 287.14C457.231 286.38 457.084 285.38 457.084 284.14C457.084 282.9 457.231 281.907 457.524 281.16C457.831 280.4 458.318 279.853 458.984 279.52C459.664 279.187 460.558 279.02 461.664 279.02ZM461.664 280.46C460.958 280.46 460.398 280.573 459.984 280.8C459.584 281.013 459.298 281.387 459.124 281.92C458.951 282.453 458.864 283.193 458.864 284.14C458.864 285.087 458.951 285.827 459.124 286.36C459.298 286.893 459.584 287.273 459.984 287.5C460.398 287.713 460.958 287.82 461.664 287.82C462.371 287.82 462.931 287.713 463.344 287.5C463.758 287.273 464.051 286.893 464.224 286.36C464.398 285.827 464.484 285.087 464.484 284.14C464.484 283.193 464.398 282.453 464.224 281.92C464.051 281.387 463.758 281.013 463.344 280.8C462.931 280.573 462.371 280.46 461.664 280.46ZM473.032 279.02C474.152 279.02 475.045 279.187 475.712 279.52C476.392 279.853 476.878 280.4 477.172 281.16C477.465 281.907 477.612 282.9 477.612 284.14C477.612 285.38 477.465 286.38 477.172 287.14C476.878 287.887 476.392 288.427 475.712 288.76C475.045 289.093 474.152 289.26 473.032 289.26C471.925 289.26 471.032 289.093 470.352 288.76C469.685 288.427 469.198 287.887 468.892 287.14C468.598 286.38 468.452 285.38 468.452 284.14C468.452 282.9 468.598 281.907 468.892 281.16C469.198 280.4 469.685 279.853 470.352 279.52C471.032 279.187 471.925 279.02 473.032 279.02ZM473.032 280.46C472.325 280.46 471.765 280.573 471.352 280.8C470.952 281.013 470.665 281.387 470.492 281.92C470.318 282.453 470.232 283.193 470.232 284.14C470.232 285.087 470.318 285.827 470.492 286.36C470.665 286.893 470.952 287.273 471.352 287.5C471.765 287.713 472.325 287.82 473.032 287.82C473.738 287.82 474.298 287.713 474.712 287.5C475.125 287.273 475.418 286.893 475.592 286.36C475.765 285.827 475.852 285.087 475.852 284.14C475.852 283.193 475.765 282.453 475.592 281.92C475.418 281.387 475.125 281.013 474.712 280.8C474.298 280.573 473.738 280.46 473.032 280.46ZM481.999 275L481.979 286.32C481.979 286.747 482.092 287.073 482.319 287.3C482.559 287.513 482.892 287.62 483.319 287.62H484.259L484.459 288.92C484.339 288.973 484.165 289.02 483.939 289.06C483.725 289.1 483.499 289.127 483.259 289.14C483.032 289.167 482.839 289.18 482.679 289.18C481.959 289.18 481.379 288.967 480.939 288.54C480.512 288.113 480.299 287.5 480.299 286.7V275H481.999ZM491.922 279.26V289H490.242V279.26H491.922ZM491.482 275.12C491.828 275.12 492.002 275.293 492.002 275.64V276.78C492.002 277.127 491.828 277.3 491.482 277.3H490.682C490.335 277.3 490.162 277.127 490.162 276.78V275.64C490.162 275.293 490.335 275.12 490.682 275.12H491.482ZM498.363 279.02C498.789 279.02 499.243 279.033 499.723 279.06C500.203 279.087 500.676 279.12 501.143 279.16C501.623 279.2 502.063 279.253 502.463 279.32L502.323 280.56C501.709 280.533 501.089 280.513 500.463 280.5C499.849 280.473 499.236 280.46 498.623 280.46C498.023 280.447 497.549 280.46 497.203 280.5C496.856 280.54 496.603 280.647 496.443 280.82C496.296 280.993 496.223 281.287 496.223 281.7C496.223 282.207 496.343 282.54 496.583 282.7C496.823 282.86 497.176 282.993 497.643 283.1L500.483 283.74C501.256 283.927 501.823 284.213 502.183 284.6C502.556 284.987 502.743 285.593 502.743 286.42C502.743 287.22 502.589 287.82 502.283 288.22C501.989 288.62 501.536 288.887 500.923 289.02C500.309 289.153 499.529 289.22 498.583 289.22C498.236 289.22 497.716 289.207 497.023 289.18C496.343 289.153 495.589 289.073 494.763 288.94L494.882 287.7C495.203 287.713 495.543 287.733 495.903 287.76C496.263 287.773 496.636 287.78 497.023 287.78C497.423 287.78 497.829 287.78 498.243 287.78C498.976 287.78 499.549 287.747 499.963 287.68C500.376 287.613 500.669 287.487 500.843 287.3C501.016 287.1 501.103 286.807 501.103 286.42C501.103 285.94 500.963 285.62 500.683 285.46C500.403 285.3 500.029 285.167 499.563 285.06L496.763 284.42C496.229 284.287 495.803 284.113 495.483 283.9C495.163 283.673 494.929 283.387 494.783 283.04C494.636 282.68 494.563 282.233 494.563 281.7C494.563 280.94 494.696 280.367 494.963 279.98C495.229 279.593 495.643 279.333 496.202 279.2C496.763 279.067 497.483 279.007 498.363 279.02ZM513.792 274.96C514.445 274.973 515.119 275.007 515.812 275.06C516.505 275.113 517.199 275.213 517.892 275.36L517.772 276.64C517.199 276.613 516.565 276.593 515.872 276.58C515.179 276.553 514.512 276.54 513.872 276.54C513.379 276.54 512.952 276.56 512.592 276.6C512.245 276.627 511.959 276.707 511.732 276.84C511.505 276.96 511.339 277.167 511.232 277.46C511.139 277.74 511.092 278.133 511.092 278.64C511.092 279.4 511.232 279.933 511.512 280.24C511.792 280.533 512.239 280.753 512.852 280.9L515.632 281.6C516.699 281.853 517.432 282.3 517.832 282.94C518.232 283.567 518.432 284.413 518.432 285.48C518.432 286.28 518.339 286.927 518.152 287.42C517.979 287.913 517.705 288.293 517.332 288.56C516.959 288.813 516.479 288.987 515.892 289.08C515.305 289.187 514.605 289.24 513.792 289.24C513.339 289.24 512.745 289.22 512.012 289.18C511.292 289.14 510.459 289.033 509.512 288.86L509.632 287.52C510.419 287.533 511.052 287.553 511.532 287.58C512.012 287.593 512.425 287.6 512.772 287.6C513.119 287.6 513.479 287.6 513.852 287.6C514.559 287.6 515.112 287.547 515.512 287.44C515.925 287.333 516.212 287.127 516.372 286.82C516.545 286.513 516.632 286.053 516.632 285.44C516.632 284.907 516.572 284.493 516.452 284.2C516.332 283.907 516.145 283.687 515.892 283.54C515.639 283.38 515.305 283.253 514.892 283.16L512.052 282.44C511.052 282.187 510.345 281.747 509.932 281.12C509.519 280.493 509.312 279.653 509.312 278.6C509.312 277.8 509.399 277.16 509.572 276.68C509.759 276.187 510.032 275.82 510.392 275.58C510.765 275.327 511.232 275.16 511.792 275.08C512.365 275 513.032 274.96 513.792 274.96ZM513.392 281.94L514.292 281.98L513.572 291.54H512.652L513.392 281.94ZM515.072 273.02L514.412 281.98L513.492 281.94L514.172 273.02H515.072ZM529.634 275.2V289H527.874V278.06C527.874 277.86 527.881 277.66 527.894 277.46C527.907 277.26 527.934 277.06 527.974 276.86L524.594 277.92L524.354 276.62L527.874 275.2H529.634ZM537.903 274.94C539.089 274.94 540.029 275.187 540.723 275.68C541.416 276.173 541.909 276.947 542.203 278C542.509 279.053 542.663 280.42 542.663 282.1C542.663 283.78 542.509 285.147 542.203 286.2C541.909 287.253 541.416 288.027 540.723 288.52C540.029 289.013 539.089 289.26 537.903 289.26C536.729 289.26 535.796 289.013 535.103 288.52C534.409 288.027 533.909 287.253 533.603 286.2C533.309 285.147 533.163 283.78 533.163 282.1C533.163 280.42 533.309 279.053 533.603 278C533.909 276.947 534.409 276.173 535.103 275.68C535.796 275.187 536.729 274.94 537.903 274.94ZM537.903 276.48C537.329 276.48 536.849 276.587 536.463 276.8C536.076 277 535.763 277.32 535.523 277.76C535.296 278.2 535.129 278.78 535.023 279.5C534.929 280.207 534.883 281.073 534.883 282.1C534.883 283.113 534.929 283.98 535.023 284.7C535.129 285.42 535.296 286 535.523 286.44C535.763 286.88 536.076 287.207 536.463 287.42C536.849 287.62 537.329 287.72 537.903 287.72C538.476 287.72 538.956 287.62 539.343 287.42C539.743 287.207 540.056 286.88 540.283 286.44C540.523 286 540.689 285.42 540.783 284.7C540.889 283.98 540.943 283.113 540.943 282.1C540.943 281.073 540.889 280.207 540.783 279.5C540.689 278.78 540.523 278.2 540.283 277.76C540.056 277.32 539.743 277 539.343 276.8C538.956 276.587 538.476 276.48 537.903 276.48ZM549.954 274.94C551.14 274.94 552.08 275.187 552.774 275.68C553.467 276.173 553.96 276.947 554.254 278C554.56 279.053 554.714 280.42 554.714 282.1C554.714 283.78 554.56 285.147 554.254 286.2C553.96 287.253 553.467 288.027 552.774 288.52C552.08 289.013 551.14 289.26 549.954 289.26C548.78 289.26 547.847 289.013 547.154 288.52C546.46 288.027 545.96 287.253 545.654 286.2C545.36 285.147 545.214 283.78 545.214 282.1C545.214 280.42 545.36 279.053 545.654 278C545.96 276.947 546.46 276.173 547.154 275.68C547.847 275.187 548.78 274.94 549.954 274.94ZM549.954 276.48C549.38 276.48 548.9 276.587 548.514 276.8C548.127 277 547.814 277.32 547.574 277.76C547.347 278.2 547.18 278.78 547.074 279.5C546.98 280.207 546.934 281.073 546.934 282.1C546.934 283.113 546.98 283.98 547.074 284.7C547.18 285.42 547.347 286 547.574 286.44C547.814 286.88 548.127 287.207 548.514 287.42C548.9 287.62 549.38 287.72 549.954 287.72C550.527 287.72 551.007 287.62 551.394 287.42C551.794 287.207 552.107 286.88 552.334 286.44C552.574 286 552.74 285.42 552.834 284.7C552.94 283.98 552.994 283.113 552.994 282.1C552.994 281.073 552.94 280.207 552.834 279.5C552.74 278.78 552.574 278.2 552.334 277.76C552.107 277.32 551.794 277 551.394 276.8C551.007 276.587 550.527 276.48 549.954 276.48ZM567.144 275.2L563.124 280.92C563.004 281.093 562.884 281.247 562.764 281.38C562.658 281.5 562.524 281.64 562.364 281.8V281.84C562.538 282 562.698 282.16 562.844 282.32C562.991 282.48 563.118 282.64 563.224 282.8L567.424 289H565.444L560.544 281.78L565.224 275.2H567.144ZM559.464 275.2V279.52C559.464 279.92 559.444 280.3 559.404 280.66C559.364 281.02 559.304 281.393 559.224 281.78C559.291 282.153 559.344 282.527 559.384 282.9C559.438 283.273 559.464 283.633 559.464 283.98V289H557.724V275.2H559.464ZM561.504 281.1V282.52H558.844V281.1H561.504ZM578.399 273.2L578.619 274.02C577.285 274.673 576.312 275.727 575.699 277.18C575.099 278.62 574.799 280.473 574.799 282.74C574.799 284.22 574.932 285.533 575.199 286.68C575.465 287.827 575.879 288.793 576.439 289.58C576.999 290.38 577.725 291.013 578.619 291.48L578.399 292.3C576.585 291.593 575.252 290.473 574.399 288.94C573.559 287.393 573.139 285.333 573.139 282.76C573.139 280.173 573.559 278.107 574.399 276.56C575.252 275.013 576.585 273.893 578.399 273.2ZM590.496 275.2V283.72C590.496 285.053 590.336 286.127 590.016 286.94C589.696 287.753 589.176 288.347 588.456 288.72C587.736 289.08 586.77 289.26 585.556 289.26C584.316 289.26 583.323 289.08 582.576 288.72C581.83 288.347 581.29 287.753 580.956 286.94C580.623 286.127 580.456 285.053 580.456 283.72V275.2H582.216V283.72C582.216 284.707 582.316 285.493 582.516 286.08C582.73 286.653 583.076 287.067 583.556 287.32C584.036 287.56 584.676 287.68 585.476 287.68C586.276 287.68 586.91 287.56 587.376 287.32C587.856 287.067 588.203 286.653 588.416 286.08C588.63 285.493 588.736 284.707 588.736 283.72V275.2H590.496ZM595.017 279.26L595.237 281.12L595.397 281.42V289H593.697V279.26H595.017ZM599.797 279.02L599.597 280.62H599.037C598.463 280.62 597.89 280.74 597.317 280.98C596.743 281.207 596.043 281.533 595.217 281.96L595.077 280.9C595.797 280.313 596.517 279.853 597.237 279.52C597.97 279.187 598.677 279.02 599.357 279.02H599.797ZM603.364 279.26V286.1C603.351 286.713 603.464 287.147 603.704 287.4C603.944 287.653 604.344 287.78 604.904 287.78C605.451 287.78 605.991 287.653 606.524 287.4C607.071 287.133 607.724 286.753 608.484 286.26L608.704 287.44C607.944 288.04 607.204 288.493 606.484 288.8C605.777 289.107 605.057 289.26 604.324 289.26C602.551 289.26 601.664 288.367 601.664 286.58V279.26H603.364ZM610.004 279.26V289H608.644L608.484 287.16L608.304 286.86V279.26H610.004ZM616.37 279.02C616.797 279.02 617.25 279.033 617.73 279.06C618.21 279.087 618.684 279.12 619.15 279.16C619.63 279.2 620.07 279.253 620.47 279.32L620.33 280.56C619.717 280.533 619.097 280.513 618.47 280.5C617.857 280.473 617.244 280.46 616.63 280.46C616.03 280.447 615.557 280.46 615.21 280.5C614.864 280.54 614.61 280.647 614.45 280.82C614.304 280.993 614.23 281.287 614.23 281.7C614.23 282.207 614.35 282.54 614.59 282.7C614.83 282.86 615.184 282.993 615.65 283.1L618.49 283.74C619.264 283.927 619.83 284.213 620.19 284.6C620.564 284.987 620.75 285.593 620.75 286.42C620.75 287.22 620.597 287.82 620.29 288.22C619.997 288.62 619.544 288.887 618.93 289.02C618.317 289.153 617.537 289.22 616.59 289.22C616.244 289.22 615.724 289.207 615.03 289.18C614.35 289.153 613.597 289.073 612.77 288.94L612.89 287.7C613.21 287.713 613.55 287.733 613.91 287.76C614.27 287.773 614.644 287.78 615.03 287.78C615.43 287.78 615.837 287.78 616.25 287.78C616.984 287.78 617.557 287.747 617.97 287.68C618.384 287.613 618.677 287.487 618.85 287.3C619.024 287.1 619.11 286.807 619.11 286.42C619.11 285.94 618.97 285.62 618.69 285.46C618.41 285.3 618.037 285.167 617.57 285.06L614.77 284.42C614.237 284.287 613.81 284.113 613.49 283.9C613.17 283.673 612.937 283.387 612.79 283.04C612.644 282.68 612.57 282.233 612.57 281.7C612.57 280.94 612.704 280.367 612.97 279.98C613.237 279.593 613.65 279.333 614.21 279.2C614.77 279.067 615.49 279.007 616.37 279.02ZM621.57 273.2C623.397 273.893 624.73 275.013 625.57 276.56C626.424 278.107 626.85 280.173 626.85 282.76C626.85 285.333 626.424 287.393 625.57 288.94C624.73 290.473 623.397 291.593 621.57 292.3L621.37 291.48C622.264 291.013 622.984 290.38 623.53 289.58C624.09 288.793 624.504 287.827 624.77 286.68C625.037 285.533 625.17 284.22 625.17 282.74C625.17 280.473 624.87 278.62 624.27 277.18C623.67 275.727 622.704 274.673 621.37 274.02L621.57 273.2Z" fill="#262626"/>
<g filter="url(#filter1_d_1_202)">
<rect x="275.33" y="63" width="151.285" height="56" rx="20" fill="url(#paint1_linear_1_202)"/>
</g>
<rect width="105.763" height="23.9167" transform="translate(296.78 78)" fill="url(#paint2_linear_1_202)"/>
<g filter="url(#filter2_d_1_202)">
<path d="M309.404 86.5787C309.948 86.5787 310.54 86.6107 311.18 86.6747C311.82 86.728 312.444 86.8453 313.052 87.0267L312.892 88.6427C312.423 88.632 311.873 88.6213 311.244 88.6107C310.615 88.6 309.996 88.5947 309.388 88.5947C309.089 88.5947 308.833 88.6053 308.62 88.6267C308.417 88.6373 308.252 88.68 308.124 88.7547C307.996 88.8187 307.905 88.92 307.852 89.0587C307.799 89.1973 307.772 89.3893 307.772 89.6347C307.772 90.008 307.857 90.28 308.028 90.4507C308.209 90.6213 308.513 90.776 308.94 90.9147L311.068 91.6027C311.953 91.9013 312.567 92.3067 312.908 92.8187C313.249 93.3307 313.42 94.0027 313.42 94.8347C313.42 95.464 313.345 95.9867 313.196 96.4027C313.047 96.8187 312.812 97.144 312.492 97.3787C312.172 97.6133 311.751 97.7787 311.228 97.8747C310.705 97.9813 310.065 98.0347 309.308 98.0347C308.945 98.0347 308.428 98.008 307.756 97.9547C307.084 97.912 306.316 97.7947 305.452 97.6027L305.612 95.8747C306.241 95.8853 306.785 95.9013 307.244 95.9227C307.713 95.9333 308.113 95.944 308.444 95.9547C308.775 95.9547 309.063 95.9547 309.308 95.9547C309.735 95.9547 310.065 95.928 310.3 95.8747C310.545 95.8213 310.716 95.7147 310.812 95.5547C310.908 95.3947 310.956 95.1653 310.956 94.8667C310.956 94.6107 310.919 94.408 310.844 94.2587C310.78 94.0987 310.668 93.976 310.508 93.8907C310.359 93.7947 310.151 93.7093 309.884 93.6347L307.644 92.8667C306.801 92.5573 306.204 92.152 305.852 91.6507C305.5 91.1493 305.324 90.488 305.324 89.6667C305.324 89.0267 305.399 88.5093 305.548 88.1147C305.708 87.7093 305.948 87.3947 306.268 87.1707C306.599 86.9467 307.02 86.792 307.532 86.7067C308.055 86.6213 308.679 86.5787 309.404 86.5787ZM322.571 86.6267C323.606 86.6267 324.416 86.7333 325.003 86.9467C325.59 87.16 326.006 87.528 326.251 88.0507C326.507 88.5733 326.635 89.304 326.635 90.2427C326.635 91.1813 326.512 91.912 326.267 92.4347C326.032 92.9573 325.643 93.3253 325.099 93.5387C324.555 93.7413 323.819 93.8427 322.891 93.8427C322.4 93.8427 321.92 93.8213 321.451 93.7787C320.982 93.736 320.544 93.6827 320.139 93.6187C319.734 93.5547 319.387 93.4907 319.099 93.4267C318.811 93.352 318.614 93.2827 318.507 93.2187L318.555 92.0027C319.184 92.0027 319.835 92.0027 320.507 92.0027C321.19 92.0027 321.862 92.0027 322.523 92.0027C322.95 91.992 323.28 91.9387 323.515 91.8427C323.76 91.7467 323.931 91.5707 324.027 91.3147C324.134 91.0587 324.187 90.7013 324.187 90.2427C324.187 89.7733 324.134 89.4107 324.027 89.1547C323.931 88.8987 323.76 88.7227 323.515 88.6267C323.28 88.52 322.95 88.4667 322.523 88.4667C321.542 88.4667 320.699 88.472 319.995 88.4827C319.291 88.4933 318.816 88.5147 318.571 88.5467L318.331 86.7867C318.779 86.7333 319.2 86.696 319.595 86.6747C319.99 86.6533 320.416 86.6427 320.875 86.6427C321.344 86.632 321.91 86.6267 322.571 86.6267ZM320.779 86.7867V97.8267H318.331V86.7867H320.779ZM335.822 86.5627C336.696 86.5627 337.438 86.6587 338.046 86.8507C338.654 87.032 339.139 87.3413 339.502 87.7787C339.875 88.2053 340.147 88.792 340.318 89.5387C340.488 90.2747 340.574 91.1973 340.574 92.3067C340.574 93.416 340.488 94.344 340.318 95.0907C340.147 95.8267 339.875 96.4133 339.502 96.8507C339.139 97.2773 338.654 97.5867 338.046 97.7787C337.438 97.96 336.696 98.0507 335.822 98.0507C334.947 98.0507 334.206 97.96 333.598 97.7787C332.99 97.5867 332.499 97.2773 332.126 96.8507C331.752 96.4133 331.48 95.8267 331.31 95.0907C331.139 94.344 331.054 93.416 331.054 92.3067C331.054 91.1973 331.139 90.2747 331.31 89.5387C331.48 88.792 331.752 88.2053 332.126 87.7787C332.499 87.3413 332.99 87.032 333.598 86.8507C334.206 86.6587 334.947 86.5627 335.822 86.5627ZM335.822 88.4987C335.256 88.4987 334.814 88.6107 334.494 88.8347C334.184 89.0587 333.96 89.448 333.822 90.0027C333.694 90.5467 333.63 91.3147 333.63 92.3067C333.63 93.288 333.694 94.056 333.822 94.6107C333.96 95.1653 334.184 95.5547 334.494 95.7787C334.814 96.0027 335.256 96.1147 335.822 96.1147C336.376 96.1147 336.808 96.0027 337.118 95.7787C337.438 95.5547 337.662 95.1653 337.79 94.6107C337.928 94.056 337.998 93.288 337.998 92.3067C337.998 91.3147 337.928 90.5467 337.79 90.0027C337.662 89.448 337.438 89.0587 337.118 88.8347C336.808 88.6107 336.376 88.4987 335.822 88.4987ZM354.981 86.7867V96.9467C354.981 97.5333 354.688 97.8267 354.101 97.8267H352.757C352.491 97.8267 352.288 97.768 352.149 97.6507C352.011 97.5227 351.883 97.336 351.765 97.0907L348.709 91.2987C348.581 91.0533 348.453 90.7813 348.325 90.4827C348.208 90.184 348.107 89.896 348.021 89.6187H347.845C347.877 89.9067 347.904 90.2 347.925 90.4987C347.947 90.7867 347.957 91.0747 347.957 91.3627V97.8267H345.637V87.6667C345.637 87.08 345.936 86.7867 346.533 86.7867H347.861C348.117 86.7867 348.309 86.8507 348.437 86.9787C348.576 87.096 348.709 87.2773 348.837 87.5227L351.797 93.1387C351.925 93.384 352.059 93.656 352.197 93.9547C352.336 94.2533 352.469 94.5627 352.597 94.8827H352.789C352.757 94.5627 352.731 94.2533 352.709 93.9547C352.699 93.6453 352.693 93.3413 352.693 93.0427L352.677 86.7867H354.981ZM364.032 86.5787C364.576 86.5787 365.168 86.6107 365.808 86.6747C366.448 86.728 367.072 86.8453 367.68 87.0267L367.52 88.6427C367.051 88.632 366.501 88.6213 365.872 88.6107C365.243 88.6 364.624 88.5947 364.016 88.5947C363.717 88.5947 363.461 88.6053 363.248 88.6267C363.045 88.6373 362.88 88.68 362.752 88.7547C362.624 88.8187 362.533 88.92 362.48 89.0587C362.427 89.1973 362.4 89.3893 362.4 89.6347C362.4 90.008 362.485 90.28 362.656 90.4507C362.837 90.6213 363.141 90.776 363.568 90.9147L365.696 91.6027C366.581 91.9013 367.195 92.3067 367.536 92.8187C367.877 93.3307 368.048 94.0027 368.048 94.8347C368.048 95.464 367.973 95.9867 367.824 96.4027C367.675 96.8187 367.44 97.144 367.12 97.3787C366.8 97.6133 366.379 97.7787 365.856 97.8747C365.333 97.9813 364.693 98.0347 363.936 98.0347C363.573 98.0347 363.056 98.008 362.384 97.9547C361.712 97.912 360.944 97.7947 360.08 97.6027L360.24 95.8747C360.869 95.8853 361.413 95.9013 361.872 95.9227C362.341 95.9333 362.741 95.944 363.072 95.9547C363.403 95.9547 363.691 95.9547 363.936 95.9547C364.363 95.9547 364.693 95.928 364.928 95.8747C365.173 95.8213 365.344 95.7147 365.44 95.5547C365.536 95.3947 365.584 95.1653 365.584 94.8667C365.584 94.6107 365.547 94.408 365.472 94.2587C365.408 94.0987 365.296 93.976 365.136 93.8907C364.987 93.7947 364.779 93.7093 364.512 93.6347L362.272 92.8667C361.429 92.5573 360.832 92.152 360.48 91.6507C360.128 91.1493 359.952 90.488 359.952 89.6667C359.952 89.0267 360.027 88.5093 360.176 88.1147C360.336 87.7093 360.576 87.3947 360.896 87.1707C361.227 86.9467 361.648 86.792 362.16 86.7067C362.683 86.6213 363.307 86.5787 364.032 86.5787ZM377.359 86.5627C378.234 86.5627 378.975 86.6587 379.583 86.8507C380.191 87.032 380.676 87.3413 381.039 87.7787C381.412 88.2053 381.684 88.792 381.855 89.5387C382.026 90.2747 382.111 91.1973 382.111 92.3067C382.111 93.416 382.026 94.344 381.855 95.0907C381.684 95.8267 381.412 96.4133 381.039 96.8507C380.676 97.2773 380.191 97.5867 379.583 97.7787C378.975 97.96 378.234 98.0507 377.359 98.0507C376.484 98.0507 375.743 97.96 375.135 97.7787C374.527 97.5867 374.036 97.2773 373.663 96.8507C373.29 96.4133 373.018 95.8267 372.847 95.0907C372.676 94.344 372.591 93.416 372.591 92.3067C372.591 91.1973 372.676 90.2747 372.847 89.5387C373.018 88.792 373.29 88.2053 373.663 87.7787C374.036 87.3413 374.527 87.032 375.135 86.8507C375.743 86.6587 376.484 86.5627 377.359 86.5627ZM377.359 88.4987C376.794 88.4987 376.351 88.6107 376.031 88.8347C375.722 89.0587 375.498 89.448 375.359 90.0027C375.231 90.5467 375.167 91.3147 375.167 92.3067C375.167 93.288 375.231 94.056 375.359 94.6107C375.498 95.1653 375.722 95.5547 376.031 95.7787C376.351 96.0027 376.794 96.1147 377.359 96.1147C377.914 96.1147 378.346 96.0027 378.655 95.7787C378.975 95.5547 379.199 95.1653 379.327 94.6107C379.466 94.056 379.535 93.288 379.535 92.3067C379.535 91.3147 379.466 90.5467 379.327 90.0027C379.199 89.448 378.975 89.0587 378.655 88.8347C378.346 88.6107 377.914 88.4987 377.359 88.4987ZM391.431 86.6267C392.401 86.6267 393.185 86.728 393.783 86.9307C394.391 87.1227 394.833 87.4587 395.111 87.9387C395.399 88.408 395.543 89.064 395.543 89.9067C395.543 90.4187 395.473 90.872 395.335 91.2667C395.207 91.6507 394.988 91.96 394.679 92.1947C394.369 92.4293 393.948 92.5787 393.415 92.6427V92.7227C393.607 92.7547 393.804 92.8293 394.007 92.9467C394.22 93.064 394.417 93.24 394.599 93.4747C394.78 93.6987 394.913 94.0027 394.999 94.3867L395.959 97.8267H393.383L392.535 94.4667C392.439 94.104 392.295 93.8533 392.103 93.7147C391.921 93.576 391.665 93.5067 391.335 93.5067C390.609 93.5067 389.996 93.5067 389.495 93.5067C389.004 93.496 388.588 93.4853 388.247 93.4747C387.916 93.464 387.617 93.4533 387.351 93.4427L387.399 91.6667H391.383C391.809 91.6667 392.145 91.624 392.391 91.5387C392.647 91.4427 392.823 91.2773 392.919 91.0427C393.025 90.808 393.079 90.4827 393.079 90.0667C393.079 89.64 393.025 89.3147 392.919 89.0907C392.823 88.856 392.647 88.696 392.391 88.6107C392.145 88.5147 391.809 88.4667 391.383 88.4667C390.38 88.4667 389.532 88.472 388.839 88.4827C388.145 88.4933 387.671 88.5093 387.415 88.5307L387.175 86.7867C387.623 86.7333 388.044 86.696 388.439 86.6747C388.833 86.6533 389.265 86.6427 389.735 86.6427C390.204 86.632 390.769 86.6267 391.431 86.6267ZM389.591 86.7867V97.8267H387.175V86.7867H389.591Z" fill="white"/>
</g>
<g filter="url(#filter3_d_1_202)">
<rect x="117.063" y="164.05" width="105.763" height="56" rx="20" fill="#F0F0F0"/>
</g>
<path d="M152.187 186.96C152.827 186.973 153.48 187.007 154.147 187.06C154.827 187.113 155.493 187.2 156.147 187.32L156.047 188.28C155.473 188.24 154.853 188.207 154.187 188.18C153.52 188.153 152.867 188.14 152.227 188.14C151.68 188.14 151.213 188.16 150.827 188.2C150.44 188.24 150.12 188.333 149.867 188.48C149.613 188.627 149.427 188.867 149.307 189.2C149.2 189.533 149.147 190 149.147 190.6C149.147 191.453 149.293 192.06 149.587 192.42C149.88 192.767 150.367 193.007 151.047 193.14L153.927 193.74C154.98 193.953 155.707 194.36 156.107 194.96C156.52 195.56 156.727 196.413 156.727 197.52C156.727 198.333 156.633 198.987 156.447 199.48C156.26 199.96 155.98 200.327 155.607 200.58C155.247 200.833 154.787 201.007 154.227 201.1C153.667 201.193 153 201.24 152.227 201.24C151.747 201.24 151.153 201.22 150.447 201.18C149.74 201.14 148.933 201.047 148.027 200.9L148.127 199.92C148.807 199.933 149.373 199.953 149.827 199.98C150.293 199.993 150.713 200.007 151.087 200.02C151.46 200.02 151.86 200.02 152.287 200.02C153.06 200.007 153.667 199.94 154.107 199.82C154.56 199.7 154.887 199.467 155.087 199.12C155.287 198.76 155.387 198.22 155.387 197.5C155.387 196.9 155.32 196.433 155.187 196.1C155.053 195.753 154.847 195.493 154.567 195.32C154.287 195.133 153.913 195 153.447 194.92L150.527 194.3C149.54 194.1 148.84 193.7 148.427 193.1C148.013 192.487 147.807 191.647 147.807 190.58C147.807 189.767 147.893 189.12 148.067 188.64C148.253 188.147 148.52 187.78 148.867 187.54C149.227 187.3 149.68 187.147 150.227 187.08C150.787 187 151.44 186.96 152.187 186.96ZM151.887 193.96L152.627 194.02L151.967 203.6H151.227L151.887 193.96ZM153.287 184.98L152.707 194.02L151.947 193.96L152.567 184.98H153.287ZM167.689 186.96C168.556 186.96 169.296 187.033 169.909 187.18C170.536 187.313 171.016 187.593 171.349 188.02C171.683 188.433 171.849 189.047 171.849 189.86C171.849 190.46 171.763 191.02 171.589 191.54C171.416 192.06 171.136 192.6 170.749 193.16C170.376 193.72 169.883 194.347 169.269 195.04L165.069 199.8C165.429 199.787 165.809 199.773 166.209 199.76C166.609 199.747 166.996 199.74 167.369 199.74H172.389V201H163.449V200.2C163.449 200.08 163.463 199.973 163.489 199.88C163.529 199.773 163.589 199.68 163.669 199.6L167.949 194.72C168.843 193.72 169.496 192.84 169.909 192.08C170.336 191.307 170.536 190.567 170.509 189.86C170.483 189.34 170.349 188.96 170.109 188.72C169.883 188.48 169.556 188.32 169.129 188.24C168.716 188.16 168.216 188.12 167.629 188.12C167.216 188.12 166.816 188.133 166.429 188.16C166.043 188.173 165.629 188.207 165.189 188.26C164.763 188.313 164.263 188.393 163.689 188.5L163.569 187.48C164.209 187.333 164.756 187.227 165.209 187.16C165.676 187.08 166.103 187.027 166.489 187C166.889 186.973 167.289 186.96 167.689 186.96ZM182.541 187.2L182.481 188.32H176.541L176.321 192.64L177.661 192.7C178.607 192.753 179.414 192.853 180.081 193C180.747 193.147 181.294 193.38 181.721 193.7C182.147 194.007 182.454 194.42 182.641 194.94C182.841 195.447 182.941 196.093 182.941 196.88C182.941 197.44 182.887 197.98 182.781 198.5C182.687 199.007 182.487 199.467 182.181 199.88C181.874 200.293 181.427 200.627 180.841 200.88C180.267 201.12 179.507 201.24 178.561 201.24C178.041 201.24 177.434 201.193 176.741 201.1C176.061 201.02 175.361 200.893 174.641 200.72L174.801 199.68C175.427 199.8 176.054 199.9 176.681 199.98C177.307 200.047 177.847 200.08 178.301 200.08C179.247 200.08 179.954 199.953 180.421 199.7C180.901 199.433 181.227 199.067 181.401 198.6C181.574 198.12 181.661 197.547 181.661 196.88C181.674 196.173 181.581 195.62 181.381 195.22C181.194 194.807 180.894 194.507 180.481 194.32C180.067 194.12 179.521 193.987 178.841 193.92C178.174 193.84 177.347 193.787 176.361 193.76L175.681 193.72C175.521 193.693 175.387 193.627 175.281 193.52C175.187 193.413 175.147 193.28 175.161 193.12L175.461 187.2H182.541ZM194.985 187.2L190.745 193.06C190.639 193.207 190.532 193.34 190.425 193.46C190.332 193.567 190.225 193.68 190.105 193.8V193.84C190.239 193.96 190.365 194.087 190.485 194.22C190.605 194.34 190.712 194.473 190.805 194.62L195.285 201H193.785L188.725 193.78L193.525 187.2H194.985ZM187.285 187.2V191.66C187.285 192.047 187.272 192.407 187.245 192.74C187.219 193.06 187.179 193.407 187.125 193.78C187.165 194.153 187.199 194.513 187.225 194.86C187.265 195.207 187.285 195.553 187.285 195.9V201H186.005V187.2H187.285ZM189.525 193.28V194.34H186.785V193.28H189.525Z" fill="#262626"/>
<g filter="url(#filter4_d_1_202)">
<path d="M171.138 167.4C172.61 167.4 173.804 166.206 173.804 164.733C173.804 163.26 172.61 162.066 171.138 162.066C169.665 162.066 168.471 163.26 168.471 164.733C168.471 166.206 169.665 167.4 171.138 167.4ZM171.638 164.733V141.5H170.638V164.733H171.638Z" fill="#262626"/>
</g>
<g filter="url(#filter5_d_1_202)">
<rect x="235.764" y="164.05" width="105.763" height="56" rx="20" fill="#F0F0F0"/>
</g>
<path d="M270.887 186.96C271.527 186.973 272.18 187.007 272.847 187.06C273.527 187.113 274.194 187.2 274.847 187.32L274.747 188.28C274.174 188.24 273.554 188.207 272.887 188.18C272.22 188.153 271.567 188.14 270.927 188.14C270.38 188.14 269.914 188.16 269.527 188.2C269.14 188.24 268.82 188.333 268.567 188.48C268.314 188.627 268.127 188.867 268.007 189.2C267.9 189.533 267.847 190 267.847 190.6C267.847 191.453 267.994 192.06 268.287 192.42C268.58 192.767 269.067 193.007 269.747 193.14L272.627 193.74C273.68 193.953 274.407 194.36 274.807 194.96C275.22 195.56 275.427 196.413 275.427 197.52C275.427 198.333 275.334 198.987 275.147 199.48C274.96 199.96 274.68 200.327 274.307 200.58C273.947 200.833 273.487 201.007 272.927 201.1C272.367 201.193 271.7 201.24 270.927 201.24C270.447 201.24 269.854 201.22 269.147 201.18C268.44 201.14 267.634 201.047 266.727 200.9L266.827 199.92C267.507 199.933 268.074 199.953 268.527 199.98C268.994 199.993 269.414 200.007 269.787 200.02C270.16 200.02 270.56 200.02 270.987 200.02C271.76 200.007 272.367 199.94 272.807 199.82C273.26 199.7 273.587 199.467 273.787 199.12C273.987 198.76 274.087 198.22 274.087 197.5C274.087 196.9 274.02 196.433 273.887 196.1C273.754 195.753 273.547 195.493 273.267 195.32C272.987 195.133 272.614 195 272.147 194.92L269.227 194.3C268.24 194.1 267.54 193.7 267.127 193.1C266.714 192.487 266.507 191.647 266.507 190.58C266.507 189.767 266.594 189.12 266.767 188.64C266.954 188.147 267.22 187.78 267.567 187.54C267.927 187.3 268.38 187.147 268.927 187.08C269.487 187 270.14 186.96 270.887 186.96ZM270.587 193.96L271.327 194.02L270.667 203.6H269.927L270.587 193.96ZM271.987 184.98L271.407 194.02L270.647 193.96L271.267 184.98H271.987ZM286.39 186.96C287.256 186.96 287.996 187.033 288.61 187.18C289.236 187.313 289.716 187.593 290.05 188.02C290.383 188.433 290.55 189.047 290.55 189.86C290.55 190.46 290.463 191.02 290.29 191.54C290.116 192.06 289.836 192.6 289.45 193.16C289.076 193.72 288.583 194.347 287.97 195.04L283.77 199.8C284.13 199.787 284.51 199.773 284.91 199.76C285.31 199.747 285.696 199.74 286.07 199.74H291.09V201H282.15V200.2C282.15 200.08 282.163 199.973 282.19 199.88C282.23 199.773 282.29 199.68 282.37 199.6L286.65 194.72C287.543 193.72 288.196 192.84 288.61 192.08C289.036 191.307 289.236 190.567 289.21 189.86C289.183 189.34 289.05 188.96 288.81 188.72C288.583 188.48 288.256 188.32 287.83 188.24C287.416 188.16 286.916 188.12 286.33 188.12C285.916 188.12 285.516 188.133 285.13 188.16C284.743 188.173 284.33 188.207 283.89 188.26C283.463 188.313 282.963 188.393 282.39 188.5L282.27 187.48C282.91 187.333 283.456 187.227 283.91 187.16C284.376 187.08 284.803 187.027 285.19 187C285.59 186.973 285.99 186.96 286.39 186.96ZM301.241 187.2L301.181 188.32H295.241L295.021 192.64L296.361 192.7C297.308 192.753 298.114 192.853 298.781 193C299.448 193.147 299.994 193.38 300.421 193.7C300.848 194.007 301.154 194.42 301.341 194.94C301.541 195.447 301.641 196.093 301.641 196.88C301.641 197.44 301.588 197.98 301.481 198.5C301.388 199.007 301.188 199.467 300.881 199.88C300.574 200.293 300.128 200.627 299.541 200.88C298.968 201.12 298.208 201.24 297.261 201.24C296.741 201.24 296.134 201.193 295.441 201.1C294.761 201.02 294.061 200.893 293.341 200.72L293.501 199.68C294.128 199.8 294.754 199.9 295.381 199.98C296.008 200.047 296.548 200.08 297.001 200.08C297.948 200.08 298.654 199.953 299.121 199.7C299.601 199.433 299.928 199.067 300.101 198.6C300.274 198.12 300.361 197.547 300.361 196.88C300.374 196.173 300.281 195.62 300.081 195.22C299.894 194.807 299.594 194.507 299.181 194.32C298.768 194.12 298.221 193.987 297.541 193.92C296.874 193.84 296.048 193.787 295.061 193.76L294.381 193.72C294.221 193.693 294.088 193.627 293.981 193.52C293.888 193.413 293.848 193.28 293.861 193.12L294.161 187.2H301.241ZM313.685 187.2L309.445 193.06C309.339 193.207 309.232 193.34 309.125 193.46C309.032 193.567 308.925 193.68 308.805 193.8V193.84C308.939 193.96 309.065 194.087 309.185 194.22C309.305 194.34 309.412 194.473 309.505 194.62L313.985 201H312.485L307.425 193.78L312.225 187.2H313.685ZM305.985 187.2V191.66C305.985 192.047 305.972 192.407 305.945 192.74C305.919 193.06 305.879 193.407 305.825 193.78C305.865 194.153 305.899 194.513 305.925 194.86C305.965 195.207 305.985 195.553 305.985 195.9V201H304.705V187.2H305.985ZM308.225 193.28V194.34H305.485V193.28H308.225Z" fill="#262626"/>
<g filter="url(#filter6_d_1_202)">
<path d="M289.838 167.4C291.311 167.4 292.505 166.206 292.505 164.733C292.505 163.26 291.311 162.066 289.838 162.066C288.365 162.066 287.171 163.26 287.171 164.733C287.171 166.206 288.365 167.4 289.838 167.4ZM290.338 164.733V141.5H289.338V164.733H290.338Z" fill="#262626"/>
</g>
<g filter="url(#filter7_d_1_202)">
<rect x="354.464" y="164.05" width="105.763" height="56" rx="20" fill="#F0F0F0"/>
</g>
<path d="M389.587 186.96C390.227 186.973 390.88 187.007 391.547 187.06C392.227 187.113 392.894 187.2 393.547 187.32L393.447 188.28C392.874 188.24 392.254 188.207 391.587 188.18C390.92 188.153 390.267 188.14 389.627 188.14C389.08 188.14 388.614 188.16 388.227 188.2C387.84 188.24 387.52 188.333 387.267 188.48C387.014 188.627 386.827 188.867 386.707 189.2C386.6 189.533 386.547 190 386.547 190.6C386.547 191.453 386.694 192.06 386.987 192.42C387.28 192.767 387.767 193.007 388.447 193.14L391.327 193.74C392.38 193.953 393.107 194.36 393.507 194.96C393.92 195.56 394.127 196.413 394.127 197.52C394.127 198.333 394.034 198.987 393.847 199.48C393.66 199.96 393.38 200.327 393.007 200.58C392.647 200.833 392.187 201.007 391.627 201.1C391.067 201.193 390.4 201.24 389.627 201.24C389.147 201.24 388.554 201.22 387.847 201.18C387.14 201.14 386.334 201.047 385.427 200.9L385.527 199.92C386.207 199.933 386.774 199.953 387.227 199.98C387.694 199.993 388.114 200.007 388.487 200.02C388.86 200.02 389.26 200.02 389.687 200.02C390.46 200.007 391.067 199.94 391.507 199.82C391.96 199.7 392.287 199.467 392.487 199.12C392.687 198.76 392.787 198.22 392.787 197.5C392.787 196.9 392.72 196.433 392.587 196.1C392.454 195.753 392.247 195.493 391.967 195.32C391.687 195.133 391.314 195 390.847 194.92L387.927 194.3C386.94 194.1 386.24 193.7 385.827 193.1C385.414 192.487 385.207 191.647 385.207 190.58C385.207 189.767 385.294 189.12 385.467 188.64C385.654 188.147 385.92 187.78 386.267 187.54C386.627 187.3 387.08 187.147 387.627 187.08C388.187 187 388.84 186.96 389.587 186.96ZM389.287 193.96L390.027 194.02L389.367 203.6H388.627L389.287 193.96ZM390.687 184.98L390.107 194.02L389.347 193.96L389.967 184.98H390.687ZM405.09 186.96C405.956 186.96 406.696 187.033 407.31 187.18C407.936 187.313 408.416 187.593 408.75 188.02C409.083 188.433 409.25 189.047 409.25 189.86C409.25 190.46 409.163 191.02 408.99 191.54C408.816 192.06 408.536 192.6 408.15 193.16C407.776 193.72 407.283 194.347 406.67 195.04L402.47 199.8C402.83 199.787 403.21 199.773 403.61 199.76C404.01 199.747 404.396 199.74 404.77 199.74H409.79V201H400.85V200.2C400.85 200.08 400.863 199.973 400.89 199.88C400.93 199.773 400.99 199.68 401.07 199.6L405.35 194.72C406.243 193.72 406.896 192.84 407.31 192.08C407.736 191.307 407.936 190.567 407.91 189.86C407.883 189.34 407.75 188.96 407.51 188.72C407.283 188.48 406.956 188.32 406.53 188.24C406.116 188.16 405.616 188.12 405.03 188.12C404.616 188.12 404.216 188.133 403.83 188.16C403.443 188.173 403.03 188.207 402.59 188.26C402.163 188.313 401.663 188.393 401.09 188.5L400.97 187.48C401.61 187.333 402.156 187.227 402.61 187.16C403.076 187.08 403.503 187.027 403.89 187C404.29 186.973 404.69 186.96 405.09 186.96ZM419.941 187.2L419.881 188.32H413.941L413.721 192.64L415.061 192.7C416.008 192.753 416.814 192.853 417.481 193C418.148 193.147 418.694 193.38 419.121 193.7C419.548 194.007 419.854 194.42 420.041 194.94C420.241 195.447 420.341 196.093 420.341 196.88C420.341 197.44 420.288 197.98 420.181 198.5C420.088 199.007 419.888 199.467 419.581 199.88C419.274 200.293 418.828 200.627 418.241 200.88C417.668 201.12 416.908 201.24 415.961 201.24C415.441 201.24 414.834 201.193 414.141 201.1C413.461 201.02 412.761 200.893 412.041 200.72L412.201 199.68C412.828 199.8 413.454 199.9 414.081 199.98C414.708 200.047 415.248 200.08 415.701 200.08C416.648 200.08 417.354 199.953 417.821 199.7C418.301 199.433 418.628 199.067 418.801 198.6C418.974 198.12 419.061 197.547 419.061 196.88C419.074 196.173 418.981 195.62 418.781 195.22C418.594 194.807 418.294 194.507 417.881 194.32C417.468 194.12 416.921 193.987 416.241 193.92C415.574 193.84 414.748 193.787 413.761 193.76L413.081 193.72C412.921 193.693 412.788 193.627 412.681 193.52C412.588 193.413 412.548 193.28 412.561 193.12L412.861 187.2H419.941ZM432.386 187.2L428.146 193.06C428.039 193.207 427.932 193.34 427.826 193.46C427.732 193.567 427.626 193.68 427.506 193.8V193.84C427.639 193.96 427.766 194.087 427.886 194.22C428.006 194.34 428.112 194.473 428.206 194.62L432.686 201H431.186L426.126 193.78L430.926 187.2H432.386ZM424.686 187.2V191.66C424.686 192.047 424.672 192.407 424.646 192.74C424.619 193.06 424.579 193.407 424.526 193.78C424.566 194.153 424.599 194.513 424.626 194.86C424.666 195.207 424.686 195.553 424.686 195.9V201H423.406V187.2H424.686ZM426.926 193.28V194.34H424.186V193.28H426.926Z" fill="#262626"/>
<g filter="url(#filter8_d_1_202)">
<path d="M408.538 167.4C410.011 167.4 411.205 166.206 411.205 164.733C411.205 163.26 410.011 162.066 408.538 162.066C407.065 162.066 405.871 163.26 405.871 164.733C405.871 166.206 407.065 167.4 408.538 167.4ZM409.038 164.733V141.5H408.038V164.733H409.038Z" fill="#262626"/>
</g>
<g filter="url(#filter9_d_1_202)">
<rect x="473.164" y="164.05" width="105.763" height="56" rx="20" fill="#F0F0F0"/>
</g>
<path d="M508.287 186.96C508.927 186.973 509.581 187.007 510.247 187.06C510.927 187.113 511.594 187.2 512.247 187.32L512.147 188.28C511.574 188.24 510.954 188.207 510.287 188.18C509.621 188.153 508.967 188.14 508.327 188.14C507.781 188.14 507.314 188.16 506.927 188.2C506.541 188.24 506.221 188.333 505.967 188.48C505.714 188.627 505.527 188.867 505.407 189.2C505.301 189.533 505.247 190 505.247 190.6C505.247 191.453 505.394 192.06 505.687 192.42C505.981 192.767 506.467 193.007 507.147 193.14L510.027 193.74C511.081 193.953 511.807 194.36 512.207 194.96C512.621 195.56 512.827 196.413 512.827 197.52C512.827 198.333 512.734 198.987 512.547 199.48C512.361 199.96 512.081 200.327 511.707 200.58C511.347 200.833 510.887 201.007 510.327 201.1C509.767 201.193 509.101 201.24 508.327 201.24C507.847 201.24 507.254 201.22 506.547 201.18C505.841 201.14 505.034 201.047 504.127 200.9L504.227 199.92C504.907 199.933 505.474 199.953 505.927 199.98C506.394 199.993 506.814 200.007 507.187 200.02C507.561 200.02 507.961 200.02 508.387 200.02C509.161 200.007 509.767 199.94 510.207 199.82C510.661 199.7 510.987 199.467 511.187 199.12C511.387 198.76 511.487 198.22 511.487 197.5C511.487 196.9 511.421 196.433 511.287 196.1C511.154 195.753 510.947 195.493 510.667 195.32C510.387 195.133 510.014 195 509.547 194.92L506.627 194.3C505.641 194.1 504.941 193.7 504.527 193.1C504.114 192.487 503.907 191.647 503.907 190.58C503.907 189.767 503.994 189.12 504.167 188.64C504.354 188.147 504.621 187.78 504.967 187.54C505.327 187.3 505.781 187.147 506.327 187.08C506.887 187 507.541 186.96 508.287 186.96ZM507.987 193.96L508.727 194.02L508.067 203.6H507.327L507.987 193.96ZM509.387 184.98L508.807 194.02L508.047 193.96L508.667 184.98H509.387ZM523.79 186.96C524.657 186.96 525.397 187.033 526.01 187.18C526.637 187.313 527.117 187.593 527.45 188.02C527.783 188.433 527.95 189.047 527.95 189.86C527.95 190.46 527.863 191.02 527.69 191.54C527.517 192.06 527.237 192.6 526.85 193.16C526.477 193.72 525.983 194.347 525.37 195.04L521.17 199.8C521.53 199.787 521.91 199.773 522.31 199.76C522.71 199.747 523.097 199.74 523.47 199.74H528.49V201H519.55V200.2C519.55 200.08 519.563 199.973 519.59 199.88C519.63 199.773 519.69 199.68 519.77 199.6L524.05 194.72C524.943 193.72 525.597 192.84 526.01 192.08C526.437 191.307 526.637 190.567 526.61 189.86C526.583 189.34 526.45 188.96 526.21 188.72C525.983 188.48 525.657 188.32 525.23 188.24C524.817 188.16 524.317 188.12 523.73 188.12C523.317 188.12 522.917 188.133 522.53 188.16C522.143 188.173 521.73 188.207 521.29 188.26C520.863 188.313 520.363 188.393 519.79 188.5L519.67 187.48C520.31 187.333 520.857 187.227 521.31 187.16C521.777 187.08 522.203 187.027 522.59 187C522.99 186.973 523.39 186.96 523.79 186.96ZM538.641 187.2L538.581 188.32H532.641L532.421 192.64L533.761 192.7C534.708 192.753 535.515 192.853 536.181 193C536.848 193.147 537.395 193.38 537.821 193.7C538.248 194.007 538.555 194.42 538.741 194.94C538.941 195.447 539.041 196.093 539.041 196.88C539.041 197.44 538.988 197.98 538.881 198.5C538.788 199.007 538.588 199.467 538.281 199.88C537.975 200.293 537.528 200.627 536.941 200.88C536.368 201.12 535.608 201.24 534.661 201.24C534.141 201.24 533.535 201.193 532.841 201.1C532.161 201.02 531.461 200.893 530.741 200.72L530.901 199.68C531.528 199.8 532.155 199.9 532.781 199.98C533.408 200.047 533.948 200.08 534.401 200.08C535.348 200.08 536.055 199.953 536.521 199.7C537.001 199.433 537.328 199.067 537.501 198.6C537.675 198.12 537.761 197.547 537.761 196.88C537.775 196.173 537.681 195.62 537.481 195.22C537.295 194.807 536.995 194.507 536.581 194.32C536.168 194.12 535.621 193.987 534.941 193.92C534.275 193.84 533.448 193.787 532.461 193.76L531.781 193.72C531.621 193.693 531.488 193.627 531.381 193.52C531.288 193.413 531.248 193.28 531.261 193.12L531.561 187.2H538.641ZM551.086 187.2L546.846 193.06C546.739 193.207 546.633 193.34 546.526 193.46C546.433 193.567 546.326 193.68 546.206 193.8V193.84C546.339 193.96 546.466 194.087 546.586 194.22C546.706 194.34 546.813 194.473 546.906 194.62L551.386 201H549.886L544.826 193.78L549.626 187.2H551.086ZM543.386 187.2V191.66C543.386 192.047 543.373 192.407 543.346 192.74C543.319 193.06 543.279 193.407 543.226 193.78C543.266 194.153 543.299 194.513 543.326 194.86C543.366 195.207 543.386 195.553 543.386 195.9V201H542.106V187.2H543.386ZM545.626 193.28V194.34H542.886V193.28H545.626Z" fill="#262626"/>
<g filter="url(#filter10_d_1_202)">
<path d="M527.238 167.4C528.711 167.4 529.905 166.206 529.905 164.733C529.905 163.26 528.711 162.066 527.238 162.066C525.766 162.066 524.572 163.26 524.572 164.733C524.572 166.206 525.766 167.4 527.238 167.4ZM527.738 164.733V141.5H526.738V164.733H527.738Z" fill="#262626"/>
</g>
<path d="M528.189 141.5L171.934 141.5" stroke="#262626" stroke-width="3" stroke-linecap="round"/>
<path d="M350.856 118.95L350.856 141.5" stroke="#262626" stroke-width="3" stroke-linecap="round"/>
<defs>
<filter id="filter0_d_1_202" x="0" y="0" width="696.126" height="344" filterUnits="userSpaceOnUse" color-interpolation-filters="sRGB">
<feFlood flood-opacity="0" result="BackgroundImageFix"/>
<feColorMatrix in="SourceAlpha" type="matrix" values="0 0 0 0 0 0 0 0 0 0 0 0 0 0 0 0 0 0 127 0" result="hardAlpha"/>
<feOffset dy="4"/>
<feGaussianBlur stdDeviation="5"/>
<feComposite in2="hardAlpha" operator="out"/>
<feColorMatrix type="matrix" values="0 0 0 0 0 0 0 0 0 0 0 0 0 0 0 0 0 0 0.25 0"/>
<feBlend mode="normal" in2="BackgroundImageFix" result="effect1_dropShadow_1_202"/>
<feBlend mode="normal" in="SourceGraphic" in2="effect1_dropShadow_1_202" result="shape"/>
</filter>
<filter id="filter1_d_1_202" x="270.33" y="62" width="163.285" height="68" filterUnits="userSpaceOnUse" color-interpolation-filters="sRGB">
<feFlood flood-opacity="0" result="BackgroundImageFix"/>
<feColorMatrix in="SourceAlpha" type="matrix" values="0 0 0 0 0 0 0 0 0 0 0 0 0 0 0 0 0 0 127 0" result="hardAlpha"/>
<feMorphology radius="1" operator="dilate" in="SourceAlpha" result="effect1_dropShadow_1_202"/>
<feOffset dx="1" dy="5"/>
<feGaussianBlur stdDeviation="2.5"/>
<feComposite in2="hardAlpha" operator="out"/>
<feColorMatrix type="matrix" values="0 0 0 0 0 0 0 0 0 0 0 0 0 0 0 0 0 0 0.25 0"/>
<feBlend mode="normal" in2="BackgroundImageFix" result="effect1_dropShadow_1_202"/>
<feBlend mode="normal" in="SourceGraphic" in2="effect1_dropShadow_1_202" result="shape"/>
</filter>
<filter id="filter2_d_1_202" x="301.324" y="86.5625" width="98.6348" height="19.4883" filterUnits="userSpaceOnUse" color-interpolation-filters="sRGB">
<feFlood flood-opacity="0" result="BackgroundImageFix"/>
<feColorMatrix in="SourceAlpha" type="matrix" values="0 0 0 0 0 0 0 0 0 0 0 0 0 0 0 0 0 0 127 0" result="hardAlpha"/>
<feOffset dy="4"/>
<feGaussianBlur stdDeviation="2"/>
<feComposite in2="hardAlpha" operator="out"/>
<feColorMatrix type="matrix" values="0 0 0 0 0 0 0 0 0 0 0 0 0 0 0 0 0 0 0.25 0"/>
<feBlend mode="normal" in2="BackgroundImageFix" result="effect1_dropShadow_1_202"/>
<feBlend mode="normal" in="SourceGraphic" in2="effect1_dropShadow_1_202" result="shape"/>
</filter>
<filter id="filter3_d_1_202" x="112.063" y="163.05" width="117.763" height="68" filterUnits="userSpaceOnUse" color-interpolation-filters="sRGB">
<feFlood flood-opacity="0" result="BackgroundImageFix"/>
<feColorMatrix in="SourceAlpha" type="matrix" values="0 0 0 0 0 0 0 0 0 0 0 0 0 0 0 0 0 0 127 0" result="hardAlpha"/>
<feMorphology radius="1" operator="dilate" in="SourceAlpha" result="effect1_dropShadow_1_202"/>
<feOffset dx="1" dy="5"/>
<feGaussianBlur stdDeviation="2.5"/>
<feComposite in2="hardAlpha" operator="out"/>
<feColorMatrix type="matrix" values="0 0 0 0 0 0 0 0 0 0 0 0 0 0 0 0 0 0 0.25 0"/>
<feBlend mode="normal" in2="BackgroundImageFix" result="effect1_dropShadow_1_202"/>
<feBlend mode="normal" in="SourceGraphic" in2="effect1_dropShadow_1_202" result="shape"/>
</filter>
<filter id="filter4_d_1_202" x="164.471" y="141.5" width="13.3335" height="33.8999" filterUnits="userSpaceOnUse" color-interpolation-filters="sRGB">
<feFlood flood-opacity="0" result="BackgroundImageFix"/>
<feColorMatrix in="SourceAlpha" type="matrix" values="0 0 0 0 0 0 0 0 0 0 0 0 0 0 0 0 0 0 127 0" result="hardAlpha"/>
<feOffset dy="4"/>
<feGaussianBlur stdDeviation="2"/>
<feComposite in2="hardAlpha" operator="out"/>
<feColorMatrix type="matrix" values="0 0 0 0 0 0 0 0 0 0 0 0 0 0 0 0 0 0 0.25 0"/>
<feBlend mode="normal" in2="BackgroundImageFix" result="effect1_dropShadow_1_202"/>
<feBlend mode="normal" in="SourceGraphic" in2="effect1_dropShadow_1_202" result="shape"/>
</filter>
<filter id="filter5_d_1_202" x="230.764" y="163.05" width="117.763" height="68" filterUnits="userSpaceOnUse" color-interpolation-filters="sRGB">
<feFlood flood-opacity="0" result="BackgroundImageFix"/>
<feColorMatrix in="SourceAlpha" type="matrix" values="0 0 0 0 0 0 0 0 0 0 0 0 0 0 0 0 0 0 127 0" result="hardAlpha"/>
<feMorphology radius="1" operator="dilate" in="SourceAlpha" result="effect1_dropShadow_1_202"/>
<feOffset dx="1" dy="5"/>
<feGaussianBlur stdDeviation="2.5"/>
<feComposite in2="hardAlpha" operator="out"/>
<feColorMatrix type="matrix" values="0 0 0 0 0 0 0 0 0 0 0 0 0 0 0 0 0 0 0.25 0"/>
<feBlend mode="normal" in2="BackgroundImageFix" result="effect1_dropShadow_1_202"/>
<feBlend mode="normal" in="SourceGraphic" in2="effect1_dropShadow_1_202" result="shape"/>
</filter>
<filter id="filter6_d_1_202" x="283.171" y="141.5" width="13.3335" height="33.8999" filterUnits="userSpaceOnUse" color-interpolation-filters="sRGB">
<feFlood flood-opacity="0" result="BackgroundImageFix"/>
<feColorMatrix in="SourceAlpha" type="matrix" values="0 0 0 0 0 0 0 0 0 0 0 0 0 0 0 0 0 0 127 0" result="hardAlpha"/>
<feOffset dy="4"/>
<feGaussianBlur stdDeviation="2"/>
<feComposite in2="hardAlpha" operator="out"/>
<feColorMatrix type="matrix" values="0 0 0 0 0 0 0 0 0 0 0 0 0 0 0 0 0 0 0.25 0"/>
<feBlend mode="normal" in2="BackgroundImageFix" result="effect1_dropShadow_1_202"/>
<feBlend mode="normal" in="SourceGraphic" in2="effect1_dropShadow_1_202" result="shape"/>
</filter>
<filter id="filter7_d_1_202" x="349.464" y="163.05" width="117.764" height="68" filterUnits="userSpaceOnUse" color-interpolation-filters="sRGB">
<feFlood flood-opacity="0" result="BackgroundImageFix"/>
<feColorMatrix in="SourceAlpha" type="matrix" values="0 0 0 0 0 0 0 0 0 0 0 0 0 0 0 0 0 0 127 0" result="hardAlpha"/>
<feMorphology radius="1" operator="dilate" in="SourceAlpha" result="effect1_dropShadow_1_202"/>
<feOffset dx="1" dy="5"/>
<feGaussianBlur stdDeviation="2.5"/>
<feComposite in2="hardAlpha" operator="out"/>
<feColorMatrix type="matrix" values="0 0 0 0 0 0 0 0 0 0 0 0 0 0 0 0 0 0 0.25 0"/>
<feBlend mode="normal" in2="BackgroundImageFix" result="effect1_dropShadow_1_202"/>
<feBlend mode="normal" in="SourceGraphic" in2="effect1_dropShadow_1_202" result="shape"/>
</filter>
<filter id="filter8_d_1_202" x="401.871" y="141.5" width="13.3335" height="33.8999" filterUnits="userSpaceOnUse" color-interpolation-filters="sRGB">
<feFlood flood-opacity="0" result="BackgroundImageFix"/>
<feColorMatrix in="SourceAlpha" type="matrix" values="0 0 0 0 0 0 0 0 0 0 0 0 0 0 0 0 0 0 127 0" result="hardAlpha"/>
<feOffset dy="4"/>
<feGaussianBlur stdDeviation="2"/>
<feComposite in2="hardAlpha" operator="out"/>
<feColorMatrix type="matrix" values="0 0 0 0 0 0 0 0 0 0 0 0 0 0 0 0 0 0 0.25 0"/>
<feBlend mode="normal" in2="BackgroundImageFix" result="effect1_dropShadow_1_202"/>
<feBlend mode="normal" in="SourceGraphic" in2="effect1_dropShadow_1_202" result="shape"/>
</filter>
<filter id="filter9_d_1_202" x="468.164" y="163.05" width="117.764" height="68" filterUnits="userSpaceOnUse" color-interpolation-filters="sRGB">
<feFlood flood-opacity="0" result="BackgroundImageFix"/>
<feColorMatrix in="SourceAlpha" type="matrix" values="0 0 0 0 0 0 0 0 0 0 0 0 0 0 0 0 0 0 127 0" result="hardAlpha"/>
<feMorphology radius="1" operator="dilate" in="SourceAlpha" result="effect1_dropShadow_1_202"/>
<feOffset dx="1" dy="5"/>
<feGaussianBlur stdDeviation="2.5"/>
<feComposite in2="hardAlpha" operator="out"/>
<feColorMatrix type="matrix" values="0 0 0 0 0 0 0 0 0 0 0 0 0 0 0 0 0 0 0.25 0"/>
<feBlend mode="normal" in2="BackgroundImageFix" result="effect1_dropShadow_1_202"/>
<feBlend mode="normal" in="SourceGraphic" in2="effect1_dropShadow_1_202" result="shape"/>
</filter>
<filter id="filter10_d_1_202" x="520.572" y="141.5" width="13.333" height="33.8999" filterUnits="userSpaceOnUse" color-interpolation-filters="sRGB">
<feFlood flood-opacity="0" result="BackgroundImageFix"/>
<feColorMatrix in="SourceAlpha" type="matrix" values="0 0 0 0 0 0 0 0 0 0 0 0 0 0 0 0 0 0 127 0" result="hardAlpha"/>
<feOffset dy="4"/>
<feGaussianBlur stdDeviation="2"/>
<feComposite in2="hardAlpha" operator="out"/>
<feColorMatrix type="matrix" values="0 0 0 0 0 0 0 0 0 0 0 0 0 0 0 0 0 0 0.25 0"/>
<feBlend mode="normal" in2="BackgroundImageFix" result="effect1_dropShadow_1_202"/>
<feBlend mode="normal" in="SourceGraphic" in2="effect1_dropShadow_1_202" result="shape"/>
</filter>
<linearGradient id="paint0_linear_1_202" x1="629.372" y1="35.9392" x2="623.187" y2="-16.8014" gradientUnits="userSpaceOnUse">
<stop stop-color="#3E5B76"/>
<stop offset="1" stop-color="#182531"/>
</linearGradient>
<linearGradient id="paint1_linear_1_202" x1="444.527" y1="88.5247" x2="384.451" y2="-26.0437" gradientUnits="userSpaceOnUse">
<stop stop-color="#9B59B6"/>
<stop offset="1" stop-color="#1ABC9C"/>
</linearGradient>
<linearGradient id="paint2_linear_1_202" x1="118.286" y1="10.9012" x2="100.162" y2="-45.6773" gradientUnits="userSpaceOnUse">
<stop stop-color="#9B59B6"/>
<stop offset="1" stop-color="#1ABC9C"/>
</linearGradient>
</defs>
</svg>
