<svg width="697" height="329" viewBox="0 0 697 329" fill="none" xmlns="http://www.w3.org/2000/svg">
<g filter="url(#filter0_d_24_1545)">
<rect x="10" y="6.80078" width="676.126" height="307.226" rx="50" fill="white"/>
</g>
<path d="M273.352 43.8169V30.4069H282.37V32.8369H276.142V35.8789H282.01V38.3089H276.142V41.3869H282.37V43.8169H273.352ZM283.879 43.8169L287.317 38.8849L283.861 33.9889H286.993L289.585 37.8049H288.217L290.809 33.9889H293.941L290.485 38.8849L293.905 43.8169H290.791L288.253 40.0009H289.549L287.011 43.8169H283.879ZM298.896 44.0329C298.188 44.0329 297.576 43.9189 297.06 43.6909C296.544 43.4629 296.148 43.1389 295.872 42.7189C295.596 42.2869 295.458 41.7769 295.458 41.1889C295.458 40.6369 295.584 40.1509 295.836 39.7309C296.088 39.2989 296.472 38.9389 296.988 38.6509C297.516 38.3629 298.17 38.1589 298.95 38.0389L301.956 37.5529V39.5329L299.436 39.9829C299.052 40.0549 298.758 40.1809 298.554 40.3609C298.35 40.5289 298.248 40.7749 298.248 41.0989C298.248 41.3989 298.362 41.6329 298.59 41.8009C298.818 41.9689 299.1 42.0529 299.436 42.0529C299.88 42.0529 300.27 41.9569 300.606 41.7649C300.942 41.5729 301.2 41.3149 301.38 40.9909C301.572 40.6549 301.668 40.2889 301.668 39.8929V37.3369C301.668 36.9649 301.518 36.6529 301.218 36.4009C300.93 36.1489 300.534 36.0229 300.03 36.0229C299.55 36.0229 299.124 36.1549 298.752 36.4189C298.392 36.6829 298.128 37.0309 297.96 37.4629L295.8 36.4369C295.992 35.8849 296.298 35.4109 296.718 35.0149C297.138 34.6189 297.642 34.3129 298.23 34.0969C298.818 33.8809 299.46 33.7729 300.156 33.7729C300.984 33.7729 301.716 33.9229 302.352 34.2229C302.988 34.5229 303.48 34.9429 303.828 35.4829C304.188 36.0109 304.368 36.6289 304.368 37.3369V43.8169H301.848V42.2329L302.46 42.1249C302.172 42.5569 301.854 42.9169 301.506 43.2049C301.158 43.4809 300.768 43.6849 300.336 43.8169C299.904 43.9609 299.424 44.0329 298.896 44.0329ZM307.248 43.8169V33.9889H309.768V36.3829L309.498 35.9869C309.642 35.2309 309.99 34.6729 310.542 34.3129C311.094 33.9529 311.754 33.7729 312.522 33.7729C313.338 33.7729 314.052 33.9829 314.664 34.4029C315.288 34.8109 315.678 35.3629 315.834 36.0589L315.06 36.1309C315.384 35.3269 315.846 34.7329 316.446 34.3489C317.046 33.9649 317.748 33.7729 318.552 33.7729C319.26 33.7729 319.884 33.9289 320.424 34.2409C320.976 34.5529 321.408 34.9909 321.72 35.5549C322.032 36.1069 322.188 36.7549 322.188 37.4989V43.8169H319.488V38.0749C319.488 37.6909 319.416 37.3609 319.272 37.0849C319.14 36.8089 318.948 36.5929 318.696 36.4369C318.444 36.2809 318.138 36.2029 317.778 36.2029C317.43 36.2029 317.124 36.2809 316.86 36.4369C316.608 36.5929 316.41 36.8089 316.266 37.0849C316.134 37.3609 316.068 37.6909 316.068 38.0749V43.8169H313.368V38.0749C313.368 37.6909 313.296 37.3609 313.152 37.0849C313.02 36.8089 312.828 36.5929 312.576 36.4369C312.324 36.2809 312.018 36.2029 311.658 36.2029C311.31 36.2029 311.004 36.2809 310.74 36.4369C310.488 36.5929 310.29 36.8089 310.146 37.0849C310.014 37.3609 309.948 37.6909 309.948 38.0749V43.8169H307.248ZM324.865 47.4169V33.9889H327.385V35.8609L327.151 35.3209C327.475 34.8289 327.913 34.4509 328.465 34.1869C329.029 33.9109 329.671 33.7729 330.391 33.7729C331.327 33.7729 332.173 34.0009 332.929 34.4569C333.685 34.9129 334.285 35.5309 334.729 36.3109C335.173 37.0789 335.395 37.9429 335.395 38.9029C335.395 39.8509 335.173 40.7149 334.729 41.4949C334.297 42.2749 333.703 42.8929 332.947 43.3489C332.191 43.8049 331.333 44.0329 330.373 44.0329C329.701 44.0329 329.077 43.9129 328.501 43.6729C327.937 43.4209 327.481 43.0549 327.133 42.5749L327.565 42.0169V47.4169H324.865ZM330.049 41.6029C330.553 41.6029 330.997 41.4889 331.381 41.2609C331.765 41.0329 332.065 40.7149 332.281 40.3069C332.497 39.8989 332.605 39.4309 332.605 38.9029C332.605 38.3749 332.497 37.9129 332.281 37.5169C332.065 37.1089 331.765 36.7909 331.381 36.5629C330.997 36.3229 330.553 36.2029 330.049 36.2029C329.569 36.2029 329.137 36.3169 328.753 36.5449C328.381 36.7729 328.087 37.0909 327.871 37.4989C327.667 37.9069 327.565 38.3749 327.565 38.9029C327.565 39.4309 327.667 39.8989 327.871 40.3069C328.087 40.7149 328.381 41.0329 328.753 41.2609C329.137 41.4889 329.569 41.6029 330.049 41.6029ZM337.876 43.8169V30.1909H340.576V43.8169H337.876ZM348.186 44.0329C347.142 44.0329 346.236 43.8049 345.468 43.3489C344.7 42.8809 344.106 42.2569 343.686 41.4769C343.266 40.6969 343.056 39.8329 343.056 38.8849C343.056 37.9009 343.272 37.0249 343.704 36.2569C344.148 35.4889 344.742 34.8829 345.486 34.4389C346.23 33.9949 347.07 33.7729 348.006 33.7729C348.786 33.7729 349.476 33.8989 350.076 34.1509C350.676 34.3909 351.18 34.7329 351.588 35.1769C352.008 35.6209 352.326 36.1369 352.542 36.7249C352.758 37.3009 352.866 37.9309 352.866 38.6149C352.866 38.8069 352.854 38.9989 352.83 39.1909C352.818 39.3709 352.788 39.5269 352.74 39.6589H345.378V37.6789H351.21L349.932 38.6149C350.052 38.0989 350.046 37.6429 349.914 37.2469C349.782 36.8389 349.548 36.5209 349.212 36.2929C348.888 36.0529 348.486 35.9329 348.006 35.9329C347.538 35.9329 347.136 36.0469 346.8 36.2749C346.464 36.5029 346.212 36.8389 346.044 37.2829C345.876 37.7269 345.81 38.2669 345.846 38.9029C345.798 39.4549 345.864 39.9409 346.044 40.3609C346.224 40.7809 346.5 41.1109 346.872 41.3509C347.244 41.5789 347.694 41.6929 348.222 41.6929C348.702 41.6929 349.11 41.5969 349.446 41.4049C349.794 41.2129 350.064 40.9489 350.256 40.6129L352.416 41.6389C352.224 42.1189 351.918 42.5389 351.498 42.8989C351.09 43.2589 350.604 43.5409 350.04 43.7449C349.476 43.9369 348.858 44.0329 348.186 44.0329ZM359.256 43.8169V41.6569L362.856 37.9489C363.564 37.2169 364.098 36.6409 364.458 36.2209C364.83 35.7889 365.082 35.4289 365.214 35.1409C365.358 34.8529 365.43 34.5709 365.43 34.2949C365.43 33.8029 365.268 33.4189 364.944 33.1429C364.632 32.8549 364.236 32.7109 363.756 32.7109C363.264 32.7109 362.826 32.8549 362.442 33.1429C362.058 33.4189 361.776 33.8449 361.596 34.4209L359.166 33.6289C359.31 32.9329 359.61 32.3269 360.066 31.8109C360.522 31.2949 361.074 30.8989 361.722 30.6229C362.37 30.3349 363.048 30.1909 363.756 30.1909C364.644 30.1909 365.424 30.3469 366.096 30.6589C366.768 30.9709 367.29 31.4089 367.662 31.9729C368.034 32.5369 368.22 33.1969 368.22 33.9529C368.22 34.4329 368.136 34.9069 367.968 35.3749C367.8 35.8309 367.542 36.2989 367.194 36.7789C366.858 37.2469 366.42 37.7569 365.88 38.3089L362.802 41.4769H368.346V43.8169H359.256ZM375.913 40.0729V37.7329H384.013V40.0729H375.913ZM396.766 44.0329C395.926 44.0329 395.134 43.8829 394.39 43.5829C393.658 43.2709 393.022 42.8329 392.482 42.2689C391.954 41.7049 391.558 41.0389 391.294 40.2709L393.58 39.2449C393.916 39.9769 394.378 40.5529 394.966 40.9729C395.566 41.3929 396.226 41.6029 396.946 41.6029C397.33 41.6029 397.66 41.5429 397.936 41.4229C398.212 41.3029 398.428 41.1409 398.584 40.9369C398.74 40.7209 398.818 40.4689 398.818 40.1809C398.818 39.8689 398.722 39.6049 398.53 39.3889C398.338 39.1609 398.038 38.9809 397.63 38.8489L395.002 37.9849C393.934 37.6369 393.13 37.1449 392.59 36.5089C392.05 35.8609 391.78 35.0869 391.78 34.1869C391.78 33.3949 391.972 32.6989 392.356 32.0989C392.752 31.4989 393.298 31.0309 393.994 30.6949C394.702 30.3589 395.512 30.1909 396.424 30.1909C397.228 30.1909 397.972 30.3289 398.656 30.6049C399.34 30.8809 399.928 31.2709 400.42 31.7749C400.924 32.2789 401.302 32.8849 401.554 33.5929L399.286 34.6189C399.034 33.9949 398.656 33.5089 398.152 33.1609C397.648 32.8009 397.072 32.6209 396.424 32.6209C396.052 32.6209 395.722 32.6809 395.434 32.8009C395.146 32.9209 394.924 33.0949 394.768 33.3229C394.612 33.5389 394.534 33.7909 394.534 34.0789C394.534 34.3909 394.636 34.6669 394.84 34.9069C395.044 35.1349 395.35 35.3149 395.758 35.4469L398.332 36.2749C399.412 36.6229 400.216 37.1089 400.744 37.7329C401.284 38.3569 401.554 39.1189 401.554 40.0189C401.554 40.7989 401.35 41.4949 400.942 42.1069C400.534 42.7069 399.97 43.1809 399.25 43.5289C398.542 43.8649 397.714 44.0329 396.766 44.0329ZM404.442 43.8169V30.4069H407.232V43.8169H404.442ZM409.52 43.8169L414.056 30.4069H417.764L422.3 43.8169H419.258L418.358 41.0809H413.444L412.544 43.8169H409.52ZM414.218 38.6509H417.584L415.532 32.3149H416.288L414.218 38.6509ZM424.594 43.8169V30.4069H426.736L433.936 39.8929L432.784 40.1629V30.4069H435.574V43.8169H433.414L426.34 34.2589L427.384 33.9889V43.8169H424.594Z" fill="black"/>
<path d="M102.442 263.117V249.417H98.2824V248.217H107.882V249.417H103.742V263.117H102.442ZM109.856 263.117V247.977H111.056V254.637L110.756 254.557C110.996 253.85 111.423 253.29 112.036 252.877C112.663 252.463 113.39 252.257 114.216 252.257C114.95 252.257 115.616 252.423 116.216 252.757C116.816 253.09 117.296 253.557 117.656 254.157C118.016 254.743 118.196 255.417 118.196 256.177V263.117H116.996V256.517C116.996 255.877 116.863 255.33 116.596 254.877C116.343 254.41 115.99 254.057 115.536 253.817C115.096 253.563 114.596 253.437 114.036 253.437C113.436 253.437 112.91 253.577 112.456 253.857C112.016 254.137 111.67 254.523 111.416 255.017C111.176 255.51 111.056 256.077 111.056 256.717V263.117H109.856ZM126.162 263.357C125.162 263.357 124.262 263.117 123.462 262.637C122.662 262.143 122.028 261.477 121.562 260.637C121.095 259.783 120.862 258.83 120.862 257.777C120.862 256.723 121.088 255.783 121.542 254.957C121.995 254.117 122.608 253.457 123.382 252.977C124.155 252.497 125.022 252.257 125.982 252.257C126.715 252.257 127.375 252.39 127.962 252.657C128.562 252.923 129.075 253.297 129.502 253.777C129.942 254.243 130.275 254.783 130.502 255.397C130.742 255.997 130.862 256.63 130.862 257.297C130.862 257.43 130.855 257.57 130.842 257.717C130.828 257.863 130.808 258.017 130.782 258.177H121.562V257.077H130.102L129.562 257.497C129.642 256.723 129.528 256.03 129.222 255.417C128.915 254.79 128.475 254.297 127.902 253.937C127.342 253.563 126.702 253.377 125.982 253.377C125.262 253.377 124.602 253.57 124.002 253.957C123.402 254.33 122.928 254.85 122.582 255.517C122.235 256.17 122.075 256.93 122.102 257.797C122.075 258.663 122.242 259.43 122.602 260.097C122.962 260.763 123.455 261.29 124.082 261.677C124.708 262.05 125.402 262.237 126.162 262.237C126.935 262.237 127.608 262.057 128.182 261.697C128.755 261.323 129.222 260.83 129.582 260.217L130.602 260.757C130.362 261.25 130.022 261.697 129.582 262.097C129.142 262.483 128.628 262.79 128.042 263.017C127.468 263.243 126.842 263.357 126.162 263.357ZM140.884 263.237C140.004 263.237 139.324 262.99 138.844 262.497C138.364 261.99 138.124 261.257 138.124 260.297V253.637H136.124V252.497H136.884C137.284 252.497 137.591 252.377 137.804 252.137C138.018 251.897 138.124 251.57 138.124 251.157V250.017H139.324V252.497H141.644V253.637H139.324V260.297C139.324 260.59 139.364 260.877 139.444 261.157C139.538 261.437 139.711 261.663 139.964 261.837C140.218 262.01 140.584 262.097 141.064 262.097C141.171 262.097 141.298 262.09 141.444 262.077C141.604 262.063 141.731 262.05 141.824 262.037V263.117C141.678 263.157 141.511 263.183 141.324 263.197C141.138 263.223 140.991 263.237 140.884 263.237ZM149.249 263.357C148.236 263.357 147.323 263.117 146.509 262.637C145.696 262.157 145.049 261.497 144.569 260.657C144.103 259.803 143.869 258.85 143.869 257.797C143.869 256.743 144.103 255.797 144.569 254.957C145.049 254.117 145.689 253.457 146.489 252.977C147.303 252.497 148.223 252.257 149.249 252.257C150.263 252.257 151.176 252.497 151.989 252.977C152.803 253.457 153.443 254.117 153.909 254.957C154.376 255.783 154.609 256.73 154.609 257.797C154.609 258.863 154.369 259.817 153.889 260.657C153.409 261.497 152.763 262.157 151.949 262.637C151.149 263.117 150.249 263.357 149.249 263.357ZM149.249 262.177C150.009 262.177 150.696 261.99 151.309 261.617C151.936 261.23 152.429 260.703 152.789 260.037C153.149 259.37 153.329 258.623 153.329 257.797C153.329 256.97 153.149 256.23 152.789 255.577C152.429 254.923 151.943 254.403 151.329 254.017C150.716 253.63 150.023 253.437 149.249 253.437C148.476 253.437 147.776 253.63 147.149 254.017C146.536 254.39 146.049 254.91 145.689 255.577C145.329 256.23 145.149 256.97 145.149 257.797C145.149 258.623 145.329 259.37 145.689 260.037C146.063 260.703 146.556 261.23 147.169 261.617C147.783 261.99 148.476 262.177 149.249 262.177ZM161.158 263.237C160.278 263.237 159.598 262.99 159.118 262.497C158.638 261.99 158.398 261.257 158.398 260.297V253.637H156.398V252.497H157.158C157.558 252.497 157.864 252.377 158.078 252.137C158.291 251.897 158.398 251.57 158.398 251.157V250.017H159.598V252.497H161.918V253.637H159.598V260.297C159.598 260.59 159.638 260.877 159.718 261.157C159.811 261.437 159.984 261.663 160.238 261.837C160.491 262.01 160.858 262.097 161.338 262.097C161.444 262.097 161.571 262.09 161.718 262.077C161.878 262.063 162.004 262.05 162.098 262.037V263.117C161.951 263.157 161.784 263.183 161.598 263.197C161.411 263.223 161.264 263.237 161.158 263.237ZM167.721 263.357C167.054 263.357 166.461 263.23 165.941 262.977C165.421 262.723 165.007 262.37 164.701 261.917C164.394 261.463 164.241 260.943 164.241 260.357C164.241 259.837 164.354 259.35 164.581 258.897C164.807 258.443 165.174 258.057 165.681 257.737C166.187 257.403 166.847 257.17 167.661 257.037L171.961 256.317V257.437L167.981 258.097C167.074 258.243 166.434 258.517 166.061 258.917C165.687 259.317 165.501 259.783 165.501 260.317C165.501 260.89 165.714 261.357 166.141 261.717C166.581 262.077 167.134 262.257 167.801 262.257C168.574 262.257 169.247 262.083 169.821 261.737C170.394 261.377 170.841 260.91 171.161 260.337C171.481 259.75 171.641 259.11 171.641 258.417V255.777C171.641 255.07 171.387 254.497 170.881 254.057C170.374 253.617 169.714 253.397 168.901 253.397C168.234 253.397 167.634 253.563 167.101 253.897C166.567 254.23 166.161 254.663 165.881 255.197L164.801 254.617C165.001 254.19 165.307 253.797 165.721 253.437C166.134 253.077 166.614 252.79 167.161 252.577C167.707 252.363 168.287 252.257 168.901 252.257C169.674 252.257 170.354 252.41 170.941 252.717C171.541 253.01 172.007 253.423 172.341 253.957C172.674 254.477 172.841 255.083 172.841 255.777V263.117H171.641V260.897L171.781 260.997C171.607 261.423 171.321 261.817 170.921 262.177C170.521 262.523 170.047 262.81 169.501 263.037C168.967 263.25 168.374 263.357 167.721 263.357ZM176.145 263.117V247.977H177.345V263.117H176.145ZM187.798 263.237C186.918 263.237 186.238 262.99 185.758 262.497C185.278 261.99 185.038 261.257 185.038 260.297V253.637H183.038V252.497H183.798C184.198 252.497 184.505 252.377 184.718 252.137C184.932 251.897 185.038 251.57 185.038 251.157V250.017H186.238V252.497H188.558V253.637H186.238V260.297C186.238 260.59 186.278 260.877 186.358 261.157C186.452 261.437 186.625 261.663 186.878 261.837C187.132 262.01 187.498 262.097 187.978 262.097C188.085 262.097 188.212 262.09 188.358 262.077C188.518 262.063 188.645 262.05 188.738 262.037V263.117C188.592 263.157 188.425 263.183 188.238 263.197C188.052 263.223 187.905 263.237 187.798 263.237ZM196.083 263.357C195.083 263.357 194.183 263.117 193.383 262.637C192.583 262.143 191.95 261.477 191.483 260.637C191.017 259.783 190.783 258.83 190.783 257.777C190.783 256.723 191.01 255.783 191.463 254.957C191.917 254.117 192.53 253.457 193.303 252.977C194.077 252.497 194.943 252.257 195.903 252.257C196.637 252.257 197.297 252.39 197.883 252.657C198.483 252.923 198.997 253.297 199.423 253.777C199.863 254.243 200.197 254.783 200.423 255.397C200.663 255.997 200.783 256.63 200.783 257.297C200.783 257.43 200.777 257.57 200.763 257.717C200.75 257.863 200.73 258.017 200.703 258.177H191.483V257.077H200.023L199.483 257.497C199.563 256.723 199.45 256.03 199.143 255.417C198.837 254.79 198.397 254.297 197.823 253.937C197.263 253.563 196.623 253.377 195.903 253.377C195.183 253.377 194.523 253.57 193.923 253.957C193.323 254.33 192.85 254.85 192.503 255.517C192.157 256.17 191.997 256.93 192.023 257.797C191.997 258.663 192.163 259.43 192.523 260.097C192.883 260.763 193.377 261.29 194.003 261.677C194.63 262.05 195.323 262.237 196.083 262.237C196.857 262.237 197.53 262.057 198.103 261.697C198.677 261.323 199.143 260.83 199.503 260.217L200.523 260.757C200.283 261.25 199.943 261.697 199.503 262.097C199.063 262.483 198.55 262.79 197.963 263.017C197.39 263.243 196.763 263.357 196.083 263.357ZM206.49 263.357C205.823 263.357 205.23 263.23 204.71 262.977C204.19 262.723 203.777 262.37 203.47 261.917C203.163 261.463 203.01 260.943 203.01 260.357C203.01 259.837 203.123 259.35 203.35 258.897C203.577 258.443 203.943 258.057 204.45 257.737C204.957 257.403 205.617 257.17 206.43 257.037L210.73 256.317V257.437L206.75 258.097C205.843 258.243 205.203 258.517 204.83 258.917C204.457 259.317 204.27 259.783 204.27 260.317C204.27 260.89 204.483 261.357 204.91 261.717C205.35 262.077 205.903 262.257 206.57 262.257C207.343 262.257 208.017 262.083 208.59 261.737C209.163 261.377 209.61 260.91 209.93 260.337C210.25 259.75 210.41 259.11 210.41 258.417V255.777C210.41 255.07 210.157 254.497 209.65 254.057C209.143 253.617 208.483 253.397 207.67 253.397C207.003 253.397 206.403 253.563 205.87 253.897C205.337 254.23 204.93 254.663 204.65 255.197L203.57 254.617C203.77 254.19 204.077 253.797 204.49 253.437C204.903 253.077 205.383 252.79 205.93 252.577C206.477 252.363 207.057 252.257 207.67 252.257C208.443 252.257 209.123 252.41 209.71 252.717C210.31 253.01 210.777 253.423 211.11 253.957C211.443 254.477 211.61 255.083 211.61 255.777V263.117H210.41V260.897L210.55 260.997C210.377 261.423 210.09 261.817 209.69 262.177C209.29 262.523 208.817 262.81 208.27 263.037C207.737 263.25 207.143 263.357 206.49 263.357ZM214.915 263.117V252.497H216.115V254.637L215.895 254.337C216.162 253.697 216.588 253.19 217.175 252.817C217.775 252.443 218.442 252.257 219.175 252.257C220.002 252.257 220.755 252.497 221.435 252.977C222.115 253.443 222.588 254.07 222.855 254.857L222.475 254.877C222.702 254.063 223.148 253.423 223.815 252.957C224.495 252.49 225.248 252.257 226.075 252.257C226.782 252.257 227.428 252.423 228.015 252.757C228.615 253.09 229.095 253.557 229.455 254.157C229.828 254.743 230.015 255.417 230.015 256.177V263.117H228.815V256.517C228.815 255.877 228.682 255.33 228.415 254.877C228.162 254.41 227.822 254.057 227.395 253.817C226.968 253.563 226.488 253.437 225.955 253.437C225.382 253.437 224.875 253.577 224.435 253.857C224.008 254.137 223.668 254.523 223.415 255.017C223.175 255.51 223.055 256.077 223.055 256.717V263.117H221.855V256.517C221.855 255.877 221.728 255.33 221.475 254.877C221.222 254.41 220.875 254.057 220.435 253.817C220.008 253.563 219.528 253.437 218.995 253.437C218.422 253.437 217.915 253.577 217.475 253.857C217.048 254.137 216.715 254.523 216.475 255.017C216.235 255.51 216.115 256.077 216.115 256.717V263.117H214.915ZM240.259 263.237C239.379 263.237 238.699 262.99 238.219 262.497C237.739 261.99 237.499 261.257 237.499 260.297V253.637H235.499V252.497H236.259C236.659 252.497 236.966 252.377 237.179 252.137C237.393 251.897 237.499 251.57 237.499 251.157V250.017H238.699V252.497H241.019V253.637H238.699V260.297C238.699 260.59 238.739 260.877 238.819 261.157C238.913 261.437 239.086 261.663 239.339 261.837C239.593 262.01 239.959 262.097 240.439 262.097C240.546 262.097 240.673 262.09 240.819 262.077C240.979 262.063 241.106 262.05 241.199 262.037V263.117C241.053 263.157 240.886 263.183 240.699 263.197C240.513 263.223 240.366 263.237 240.259 263.237ZM247.835 263.357C247.115 263.357 246.448 263.19 245.835 262.857C245.235 262.523 244.755 262.057 244.395 261.457C244.035 260.843 243.855 260.117 243.855 259.277V252.497H245.055V259.177C245.055 259.803 245.182 260.343 245.435 260.797C245.702 261.237 246.055 261.577 246.495 261.817C246.948 262.057 247.455 262.177 248.015 262.177C248.628 262.177 249.155 262.037 249.595 261.757C250.048 261.477 250.395 261.09 250.635 260.597C250.875 260.09 250.995 259.517 250.995 258.877V252.497H252.195V263.117H250.995V260.957L251.295 261.057C251.055 261.75 250.628 262.31 250.015 262.737C249.402 263.15 248.675 263.357 247.835 263.357ZM255.52 263.117V252.497H256.72V254.477L256.5 254.297C256.727 253.697 257.114 253.223 257.66 252.877C258.22 252.53 258.88 252.357 259.64 252.357H260.32V253.557H259.5C258.634 253.557 257.954 253.837 257.46 254.397C256.967 254.943 256.72 255.683 256.72 256.617V263.117H255.52ZM262.298 263.117V252.497H263.498V254.637L263.198 254.557C263.438 253.85 263.864 253.29 264.478 252.877C265.104 252.463 265.831 252.257 266.658 252.257C267.391 252.257 268.058 252.423 268.658 252.757C269.258 253.09 269.738 253.557 270.098 254.157C270.458 254.743 270.638 255.417 270.638 256.177V263.117H269.438V256.517C269.438 255.877 269.311 255.33 269.058 254.877C268.804 254.41 268.451 254.057 267.998 253.817C267.558 253.563 267.051 253.437 266.478 253.437C265.878 253.437 265.351 253.577 264.898 253.857C264.444 254.137 264.098 254.523 263.858 255.017C263.618 255.51 263.498 256.077 263.498 256.717V263.117H262.298ZM278.683 263.357C277.67 263.357 276.756 263.117 275.943 262.637C275.13 262.157 274.483 261.497 274.003 260.657C273.536 259.803 273.303 258.85 273.303 257.797C273.303 256.743 273.536 255.797 274.003 254.957C274.483 254.117 275.123 253.457 275.923 252.977C276.736 252.497 277.656 252.257 278.683 252.257C279.696 252.257 280.61 252.497 281.423 252.977C282.236 253.457 282.876 254.117 283.343 254.957C283.81 255.783 284.043 256.73 284.043 257.797C284.043 258.863 283.803 259.817 283.323 260.657C282.843 261.497 282.196 262.157 281.383 262.637C280.583 263.117 279.683 263.357 278.683 263.357ZM278.683 262.177C279.443 262.177 280.13 261.99 280.743 261.617C281.37 261.23 281.863 260.703 282.223 260.037C282.583 259.37 282.763 258.623 282.763 257.797C282.763 256.97 282.583 256.23 282.223 255.577C281.863 254.923 281.376 254.403 280.763 254.017C280.15 253.63 279.456 253.437 278.683 253.437C277.91 253.437 277.21 253.63 276.583 254.017C275.97 254.39 275.483 254.91 275.123 255.577C274.763 256.23 274.583 256.97 274.583 257.797C274.583 258.623 274.763 259.37 275.123 260.037C275.496 260.703 275.99 261.23 276.603 261.617C277.216 261.99 277.91 262.177 278.683 262.177ZM289.611 263.117L285.411 252.497H286.751L290.471 262.057H290.011L293.731 252.497H295.111L290.851 263.117H289.611ZM301.748 263.357C300.748 263.357 299.848 263.117 299.048 262.637C298.248 262.143 297.614 261.477 297.148 260.637C296.681 259.783 296.448 258.83 296.448 257.777C296.448 256.723 296.674 255.783 297.128 254.957C297.581 254.117 298.194 253.457 298.968 252.977C299.741 252.497 300.608 252.257 301.568 252.257C302.301 252.257 302.961 252.39 303.548 252.657C304.148 252.923 304.661 253.297 305.088 253.777C305.528 254.243 305.861 254.783 306.088 255.397C306.328 255.997 306.448 256.63 306.448 257.297C306.448 257.43 306.441 257.57 306.428 257.717C306.414 257.863 306.394 258.017 306.368 258.177H297.148V257.077H305.688L305.148 257.497C305.228 256.723 305.114 256.03 304.808 255.417C304.501 254.79 304.061 254.297 303.488 253.937C302.928 253.563 302.288 253.377 301.568 253.377C300.848 253.377 300.188 253.57 299.588 253.957C298.988 254.33 298.514 254.85 298.168 255.517C297.821 256.17 297.661 256.93 297.688 257.797C297.661 258.663 297.828 259.43 298.188 260.097C298.548 260.763 299.041 261.29 299.668 261.677C300.294 262.05 300.988 262.237 301.748 262.237C302.521 262.237 303.194 262.057 303.768 261.697C304.341 261.323 304.808 260.83 305.168 260.217L306.188 260.757C305.948 261.25 305.608 261.697 305.168 262.097C304.728 262.483 304.214 262.79 303.628 263.017C303.054 263.243 302.428 263.357 301.748 263.357ZM309.309 263.117V252.497H310.509V254.477L310.289 254.297C310.516 253.697 310.903 253.223 311.449 252.877C312.009 252.53 312.669 252.357 313.429 252.357H314.109V253.557H313.289C312.423 253.557 311.743 253.837 311.249 254.397C310.756 254.943 310.509 255.683 310.509 256.617V263.117H309.309ZM323.248 263.237C322.368 263.237 321.688 262.99 321.208 262.497C320.728 261.99 320.488 261.257 320.488 260.297V253.637H318.488V252.497H319.248C319.648 252.497 319.954 252.377 320.168 252.137C320.381 251.897 320.488 251.57 320.488 251.157V250.017H321.688V252.497H324.008V253.637H321.688V260.297C321.688 260.59 321.728 260.877 321.808 261.157C321.901 261.437 322.074 261.663 322.328 261.837C322.581 262.01 322.948 262.097 323.428 262.097C323.534 262.097 323.661 262.09 323.808 262.077C323.968 262.063 324.094 262.05 324.188 262.037V263.117C324.041 263.157 323.874 263.183 323.688 263.197C323.501 263.223 323.354 263.237 323.248 263.237ZM331.613 263.357C330.599 263.357 329.686 263.117 328.873 262.637C328.059 262.157 327.413 261.497 326.933 260.657C326.466 259.803 326.233 258.85 326.233 257.797C326.233 256.743 326.466 255.797 326.933 254.957C327.413 254.117 328.053 253.457 328.853 252.977C329.666 252.497 330.586 252.257 331.613 252.257C332.626 252.257 333.539 252.497 334.353 252.977C335.166 253.457 335.806 254.117 336.273 254.957C336.739 255.783 336.973 256.73 336.973 257.797C336.973 258.863 336.733 259.817 336.253 260.657C335.773 261.497 335.126 262.157 334.313 262.637C333.513 263.117 332.613 263.357 331.613 263.357ZM331.613 262.177C332.373 262.177 333.059 261.99 333.673 261.617C334.299 261.23 334.793 260.703 335.153 260.037C335.513 259.37 335.693 258.623 335.693 257.797C335.693 256.97 335.513 256.23 335.153 255.577C334.793 254.923 334.306 254.403 333.693 254.017C333.079 253.63 332.386 253.437 331.613 253.437C330.839 253.437 330.139 253.63 329.513 254.017C328.899 254.39 328.413 254.91 328.053 255.577C327.693 256.23 327.513 256.97 327.513 257.797C327.513 258.623 327.693 259.37 328.053 260.037C328.426 260.703 328.919 261.23 329.533 261.617C330.146 261.99 330.839 262.177 331.613 262.177ZM352.057 267.117V260.417L352.257 260.697C351.884 261.523 351.31 262.177 350.537 262.657C349.777 263.123 348.91 263.357 347.937 263.357C346.95 263.357 346.057 263.117 345.257 262.637C344.47 262.143 343.85 261.477 343.397 260.637C342.944 259.797 342.717 258.85 342.717 257.797C342.717 256.743 342.944 255.797 343.397 254.957C343.85 254.117 344.47 253.457 345.257 252.977C346.057 252.497 346.95 252.257 347.937 252.257C348.91 252.257 349.777 252.49 350.537 252.957C351.297 253.41 351.87 254.023 352.257 254.797L352.057 255.177V252.497H353.257V267.117H352.057ZM347.977 262.157C348.75 262.157 349.437 261.97 350.037 261.597C350.65 261.21 351.137 260.69 351.497 260.037C351.857 259.37 352.037 258.623 352.037 257.797C352.037 256.97 351.857 256.23 351.497 255.577C351.137 254.923 350.65 254.41 350.037 254.037C349.437 253.65 348.75 253.457 347.977 253.457C347.217 253.457 346.537 253.65 345.937 254.037C345.337 254.41 344.864 254.923 344.517 255.577C344.17 256.23 343.997 256.97 343.997 257.797C343.997 258.623 344.17 259.37 344.517 260.037C344.864 260.69 345.337 261.21 345.937 261.597C346.537 261.97 347.217 262.157 347.977 262.157ZM360.335 263.357C359.615 263.357 358.948 263.19 358.335 262.857C357.735 262.523 357.255 262.057 356.895 261.457C356.535 260.843 356.355 260.117 356.355 259.277V252.497H357.555V259.177C357.555 259.803 357.682 260.343 357.935 260.797C358.202 261.237 358.555 261.577 358.995 261.817C359.448 262.057 359.955 262.177 360.515 262.177C361.128 262.177 361.655 262.037 362.095 261.757C362.548 261.477 362.895 261.09 363.135 260.597C363.375 260.09 363.495 259.517 363.495 258.877V252.497H364.695V263.117H363.495V260.957L363.795 261.057C363.555 261.75 363.128 262.31 362.515 262.737C361.902 263.15 361.175 263.357 360.335 263.357ZM371.06 263.357C370.394 263.357 369.8 263.23 369.28 262.977C368.76 262.723 368.347 262.37 368.04 261.917C367.734 261.463 367.58 260.943 367.58 260.357C367.58 259.837 367.694 259.35 367.92 258.897C368.147 258.443 368.514 258.057 369.02 257.737C369.527 257.403 370.187 257.17 371 257.037L375.3 256.317V257.437L371.32 258.097C370.414 258.243 369.774 258.517 369.4 258.917C369.027 259.317 368.84 259.783 368.84 260.317C368.84 260.89 369.054 261.357 369.48 261.717C369.92 262.077 370.474 262.257 371.14 262.257C371.914 262.257 372.587 262.083 373.16 261.737C373.734 261.377 374.18 260.91 374.5 260.337C374.82 259.75 374.98 259.11 374.98 258.417V255.777C374.98 255.07 374.727 254.497 374.22 254.057C373.714 253.617 373.054 253.397 372.24 253.397C371.574 253.397 370.974 253.563 370.44 253.897C369.907 254.23 369.5 254.663 369.22 255.197L368.14 254.617C368.34 254.19 368.647 253.797 369.06 253.437C369.474 253.077 369.954 252.79 370.5 252.577C371.047 252.363 371.627 252.257 372.24 252.257C373.014 252.257 373.694 252.41 374.28 252.717C374.88 253.01 375.347 253.423 375.68 253.957C376.014 254.477 376.18 255.083 376.18 255.777V263.117H374.98V260.897L375.12 260.997C374.947 261.423 374.66 261.817 374.26 262.177C373.86 262.523 373.387 262.81 372.84 263.037C372.307 263.25 371.714 263.357 371.06 263.357ZM379.485 263.117V247.977H380.685V263.117H379.485ZM383.977 263.117V252.497H385.177V263.117H383.977ZM383.977 250.417V248.217H385.177V250.417H383.977ZM389.57 263.117V253.637H387.41V252.497H389.57V251.477C389.57 250.73 389.716 250.097 390.01 249.577C390.316 249.057 390.73 248.663 391.25 248.397C391.77 248.117 392.343 247.977 392.97 247.977C393.116 247.977 393.263 247.99 393.41 248.017C393.57 248.03 393.703 248.05 393.81 248.077V249.157C393.703 249.13 393.576 249.117 393.43 249.117C393.283 249.103 393.17 249.097 393.09 249.097C392.396 249.097 391.836 249.297 391.41 249.697C390.983 250.083 390.77 250.677 390.77 251.477V252.497H393.41V253.637H390.77V263.117H389.57ZM396.303 267.517C396.116 267.517 395.909 267.497 395.683 267.457C395.469 267.43 395.263 267.383 395.063 267.317V266.197C395.223 266.237 395.403 266.27 395.603 266.297C395.816 266.323 396.009 266.337 396.183 266.337C396.836 266.323 397.349 266.163 397.723 265.857C398.096 265.55 398.436 265.043 398.743 264.337L399.503 262.557V263.677L395.003 252.497H396.323L400.183 262.137H399.703L403.583 252.497H404.923L399.963 264.597C399.776 265.037 399.529 265.483 399.223 265.937C398.916 266.39 398.523 266.763 398.043 267.057C397.576 267.363 396.996 267.517 396.303 267.517ZM411.327 263.117V253.637H409.167V252.497H411.327V251.477C411.327 250.73 411.474 250.097 411.767 249.577C412.074 249.057 412.487 248.663 413.007 248.397C413.527 248.117 414.101 247.977 414.727 247.977C414.874 247.977 415.021 247.99 415.167 248.017C415.327 248.03 415.461 248.05 415.567 248.077V249.157C415.461 249.13 415.334 249.117 415.187 249.117C415.041 249.103 414.927 249.097 414.847 249.097C414.154 249.097 413.594 249.297 413.167 249.697C412.741 250.083 412.527 250.677 412.527 251.477V252.497H415.167V253.637H412.527V263.117H411.327ZM422.355 263.357C421.342 263.357 420.428 263.117 419.615 262.637C418.802 262.157 418.155 261.497 417.675 260.657C417.208 259.803 416.975 258.85 416.975 257.797C416.975 256.743 417.208 255.797 417.675 254.957C418.155 254.117 418.795 253.457 419.595 252.977C420.408 252.497 421.328 252.257 422.355 252.257C423.368 252.257 424.282 252.497 425.095 252.977C425.908 253.457 426.548 254.117 427.015 254.957C427.482 255.783 427.715 256.73 427.715 257.797C427.715 258.863 427.475 259.817 426.995 260.657C426.515 261.497 425.868 262.157 425.055 262.637C424.255 263.117 423.355 263.357 422.355 263.357ZM422.355 262.177C423.115 262.177 423.802 261.99 424.415 261.617C425.042 261.23 425.535 260.703 425.895 260.037C426.255 259.37 426.435 258.623 426.435 257.797C426.435 256.97 426.255 256.23 425.895 255.577C425.535 254.923 425.048 254.403 424.435 254.017C423.822 253.63 423.128 253.437 422.355 253.437C421.582 253.437 420.882 253.63 420.255 254.017C419.642 254.39 419.155 254.91 418.795 255.577C418.435 256.23 418.255 256.97 418.255 257.797C418.255 258.623 418.435 259.37 418.795 260.037C419.168 260.703 419.662 261.23 420.275 261.617C420.888 261.99 421.582 262.177 422.355 262.177ZM430.598 263.117V252.497H431.798V254.477L431.578 254.297C431.805 253.697 432.192 253.223 432.738 252.877C433.298 252.53 433.958 252.357 434.718 252.357H435.398V253.557H434.578C433.712 253.557 433.032 253.837 432.538 254.397C432.045 254.943 431.798 255.683 431.798 256.617V263.117H430.598ZM444.537 263.237C443.657 263.237 442.977 262.99 442.497 262.497C442.017 261.99 441.777 261.257 441.777 260.297V253.637H439.777V252.497H440.537C440.937 252.497 441.243 252.377 441.457 252.137C441.67 251.897 441.777 251.57 441.777 251.157V250.017H442.977V252.497H445.297V253.637H442.977V260.297C442.977 260.59 443.017 260.877 443.097 261.157C443.19 261.437 443.363 261.663 443.617 261.837C443.87 262.01 444.237 262.097 444.717 262.097C444.823 262.097 444.95 262.09 445.097 262.077C445.257 262.063 445.383 262.05 445.477 262.037V263.117C445.33 263.157 445.163 263.183 444.977 263.197C444.79 263.223 444.643 263.237 444.537 263.237ZM448.352 263.117V247.977H449.552V254.637L449.252 254.557C449.492 253.85 449.919 253.29 450.532 252.877C451.159 252.463 451.886 252.257 452.712 252.257C453.446 252.257 454.112 252.423 454.712 252.757C455.312 253.09 455.792 253.557 456.152 254.157C456.512 254.743 456.692 255.417 456.692 256.177V263.117H455.492V256.517C455.492 255.877 455.359 255.33 455.092 254.877C454.839 254.41 454.486 254.057 454.032 253.817C453.592 253.563 453.092 253.437 452.532 253.437C451.932 253.437 451.406 253.577 450.952 253.857C450.512 254.137 450.166 254.523 449.912 255.017C449.672 255.51 449.552 256.077 449.552 256.717V263.117H448.352ZM459.798 263.117V252.497H460.998V263.117H459.798ZM459.798 250.417V248.217H460.998V250.417H459.798ZM467.87 263.357C466.883 263.357 466.017 263.11 465.27 262.617C464.523 262.123 463.977 261.45 463.63 260.597L464.67 260.117C465.003 260.77 465.45 261.29 466.01 261.677C466.57 262.05 467.19 262.237 467.87 262.237C468.563 262.237 469.143 262.07 469.61 261.737C470.09 261.39 470.33 260.937 470.33 260.377C470.33 260.03 470.237 259.737 470.05 259.497C469.877 259.257 469.65 259.063 469.37 258.917C469.09 258.757 468.79 258.637 468.47 258.557L466.83 258.097C465.91 257.843 465.23 257.47 464.79 256.977C464.363 256.483 464.15 255.903 464.15 255.237C464.15 254.637 464.303 254.117 464.61 253.677C464.917 253.223 465.33 252.877 465.85 252.637C466.37 252.383 466.943 252.257 467.57 252.257C468.45 252.257 469.25 252.483 469.97 252.937C470.69 253.39 471.197 254.003 471.49 254.777L470.41 255.277C470.13 254.677 469.737 254.21 469.23 253.877C468.723 253.53 468.163 253.357 467.55 253.357C466.91 253.357 466.39 253.53 465.99 253.877C465.59 254.21 465.39 254.637 465.39 255.157C465.39 255.49 465.47 255.77 465.63 255.997C465.79 256.21 465.997 256.39 466.25 256.537C466.517 256.67 466.79 256.777 467.07 256.857L468.85 257.377C469.717 257.617 470.383 257.997 470.85 258.517C471.33 259.037 471.57 259.65 471.57 260.357C471.57 260.93 471.41 261.443 471.09 261.897C470.77 262.35 470.33 262.71 469.77 262.977C469.21 263.23 468.577 263.357 467.87 263.357ZM477.747 267.117V252.497H478.947V255.177L478.747 254.797C479.147 254.023 479.72 253.41 480.467 252.957C481.227 252.49 482.094 252.257 483.067 252.257C484.067 252.257 484.96 252.497 485.747 252.977C486.534 253.457 487.154 254.117 487.607 254.957C488.06 255.797 488.287 256.75 488.287 257.817C488.287 258.857 488.06 259.797 487.607 260.637C487.154 261.477 486.534 262.143 485.747 262.637C484.96 263.117 484.067 263.357 483.067 263.357C482.094 263.357 481.22 263.123 480.447 262.657C479.687 262.177 479.12 261.523 478.747 260.697L478.947 260.417V267.117H477.747ZM483.027 262.157C483.787 262.157 484.467 261.97 485.067 261.597C485.667 261.21 486.14 260.69 486.487 260.037C486.834 259.37 487.007 258.623 487.007 257.797C487.007 256.97 486.834 256.23 486.487 255.577C486.14 254.923 485.667 254.41 485.067 254.037C484.467 253.65 483.787 253.457 483.027 253.457C482.267 253.457 481.58 253.65 480.967 254.037C480.354 254.41 479.867 254.923 479.507 255.577C479.147 256.23 478.967 256.97 478.967 257.797C478.967 258.623 479.147 259.37 479.507 260.037C479.867 260.69 480.347 261.21 480.947 261.597C481.56 261.97 482.254 262.157 483.027 262.157ZM496.105 263.357C495.092 263.357 494.178 263.117 493.365 262.637C492.552 262.157 491.905 261.497 491.425 260.657C490.958 259.803 490.725 258.85 490.725 257.797C490.725 256.743 490.958 255.797 491.425 254.957C491.905 254.117 492.545 253.457 493.345 252.977C494.158 252.497 495.078 252.257 496.105 252.257C497.118 252.257 498.032 252.497 498.845 252.977C499.658 253.457 500.298 254.117 500.765 254.957C501.232 255.783 501.465 256.73 501.465 257.797C501.465 258.863 501.225 259.817 500.745 260.657C500.265 261.497 499.618 262.157 498.805 262.637C498.005 263.117 497.105 263.357 496.105 263.357ZM496.105 262.177C496.865 262.177 497.552 261.99 498.165 261.617C498.792 261.23 499.285 260.703 499.645 260.037C500.005 259.37 500.185 258.623 500.185 257.797C500.185 256.97 500.005 256.23 499.645 255.577C499.285 254.923 498.798 254.403 498.185 254.017C497.572 253.63 496.878 253.437 496.105 253.437C495.332 253.437 494.632 253.63 494.005 254.017C493.392 254.39 492.905 254.91 492.545 255.577C492.185 256.23 492.005 256.97 492.005 257.797C492.005 258.623 492.185 259.37 492.545 260.037C492.918 260.703 493.412 261.23 494.025 261.617C494.638 261.99 495.332 262.177 496.105 262.177ZM509.288 263.357C508.275 263.357 507.362 263.117 506.548 262.637C505.735 262.157 505.088 261.497 504.608 260.657C504.142 259.803 503.908 258.85 503.908 257.797C503.908 256.743 504.142 255.797 504.608 254.957C505.088 254.117 505.728 253.457 506.528 252.977C507.342 252.497 508.262 252.257 509.288 252.257C510.302 252.257 511.215 252.497 512.028 252.977C512.842 253.457 513.482 254.117 513.948 254.957C514.415 255.783 514.648 256.73 514.648 257.797C514.648 258.863 514.408 259.817 513.928 260.657C513.448 261.497 512.802 262.157 511.988 262.637C511.188 263.117 510.288 263.357 509.288 263.357ZM509.288 262.177C510.048 262.177 510.735 261.99 511.348 261.617C511.975 261.23 512.468 260.703 512.828 260.037C513.188 259.37 513.368 258.623 513.368 257.797C513.368 256.97 513.188 256.23 512.828 255.577C512.468 254.923 511.982 254.403 511.368 254.017C510.755 253.63 510.062 253.437 509.288 253.437C508.515 253.437 507.815 253.63 507.188 254.017C506.575 254.39 506.088 254.91 505.728 255.577C505.368 256.23 505.188 256.97 505.188 257.797C505.188 258.623 505.368 259.37 505.728 260.037C506.102 260.703 506.595 261.23 507.208 261.617C507.822 261.99 508.515 262.177 509.288 262.177ZM517.532 263.117V247.977H518.732V263.117H517.532ZM525.325 263.117V252.497H526.525V263.117H525.325ZM525.325 250.417V248.217H526.525V250.417H525.325ZM533.397 263.357C532.411 263.357 531.544 263.11 530.797 262.617C530.051 262.123 529.504 261.45 529.157 260.597L530.197 260.117C530.531 260.77 530.977 261.29 531.537 261.677C532.097 262.05 532.717 262.237 533.397 262.237C534.091 262.237 534.671 262.07 535.137 261.737C535.617 261.39 535.857 260.937 535.857 260.377C535.857 260.03 535.764 259.737 535.577 259.497C535.404 259.257 535.177 259.063 534.897 258.917C534.617 258.757 534.317 258.637 533.997 258.557L532.357 258.097C531.437 257.843 530.757 257.47 530.317 256.977C529.891 256.483 529.677 255.903 529.677 255.237C529.677 254.637 529.831 254.117 530.137 253.677C530.444 253.223 530.857 252.877 531.377 252.637C531.897 252.383 532.471 252.257 533.097 252.257C533.977 252.257 534.777 252.483 535.497 252.937C536.217 253.39 536.724 254.003 537.017 254.777L535.937 255.277C535.657 254.677 535.264 254.21 534.757 253.877C534.251 253.53 533.691 253.357 533.077 253.357C532.437 253.357 531.917 253.53 531.517 253.877C531.117 254.21 530.917 254.637 530.917 255.157C530.917 255.49 530.997 255.77 531.157 255.997C531.317 256.21 531.524 256.39 531.777 256.537C532.044 256.67 532.317 256.777 532.597 256.857L534.377 257.377C535.244 257.617 535.911 257.997 536.377 258.517C536.857 259.037 537.097 259.65 537.097 260.357C537.097 260.93 536.937 261.443 536.617 261.897C536.297 262.35 535.857 262.71 535.297 262.977C534.737 263.23 534.104 263.357 533.397 263.357ZM548.334 263.357C547.388 263.357 546.534 263.177 545.774 262.817C545.028 262.457 544.401 261.983 543.894 261.397C543.401 260.81 543.048 260.177 542.834 259.497L543.994 259.077C544.368 260.09 544.921 260.863 545.654 261.397C546.401 261.93 547.288 262.197 548.314 262.197C548.994 262.197 549.588 262.083 550.094 261.857C550.614 261.63 551.021 261.31 551.314 260.897C551.608 260.483 551.754 259.997 551.754 259.437C551.754 258.663 551.534 258.063 551.094 257.637C550.668 257.21 550.108 256.903 549.414 256.717L546.694 255.917C545.588 255.597 544.768 255.083 544.234 254.377C543.714 253.657 543.454 252.843 543.454 251.937C543.454 251.15 543.641 250.463 544.014 249.877C544.401 249.277 544.921 248.81 545.574 248.477C546.228 248.143 546.968 247.977 547.794 247.977C548.661 247.977 549.434 248.143 550.114 248.477C550.808 248.797 551.388 249.223 551.854 249.757C552.334 250.277 552.674 250.857 552.874 251.497L551.734 251.917C551.401 250.997 550.888 250.303 550.194 249.837C549.501 249.357 548.708 249.117 547.814 249.117C547.228 249.117 546.701 249.23 546.234 249.457C545.768 249.683 545.401 250.003 545.134 250.417C544.868 250.83 544.734 251.317 544.734 251.877C544.734 252.557 544.928 253.137 545.314 253.617C545.701 254.097 546.348 254.477 547.254 254.757L549.694 255.477C550.761 255.797 551.581 256.29 552.154 256.957C552.741 257.61 553.034 258.417 553.034 259.377C553.034 260.163 552.834 260.857 552.434 261.457C552.034 262.043 551.474 262.51 550.754 262.857C550.048 263.19 549.241 263.357 548.334 263.357ZM547.634 265.117V246.217H548.794V265.117H547.634ZM558.907 263.117V262.317L563.087 257.717C563.913 256.81 564.593 256.057 565.127 255.457C565.673 254.843 566.08 254.277 566.347 253.757C566.627 253.237 566.767 252.67 566.767 252.057C566.767 251.123 566.487 250.403 565.927 249.897C565.38 249.377 564.62 249.117 563.647 249.117C562.7 249.117 561.907 249.39 561.267 249.937C560.627 250.483 560.193 251.243 559.967 252.217L558.787 251.957C558.973 251.117 559.293 250.403 559.747 249.817C560.2 249.217 560.76 248.763 561.427 248.457C562.093 248.137 562.833 247.977 563.647 247.977C564.5 247.977 565.253 248.15 565.907 248.497C566.573 248.83 567.1 249.303 567.487 249.917C567.873 250.53 568.067 251.243 568.067 252.057C568.067 252.657 567.933 253.237 567.667 253.797C567.413 254.357 567.04 254.943 566.547 255.557C566.067 256.17 565.46 256.87 564.727 257.657L560.807 261.957H568.387V263.117H558.907ZM575.604 263.357C574.804 263.357 574.064 263.21 573.384 262.917C572.704 262.61 572.124 262.183 571.644 261.637C571.177 261.09 570.837 260.443 570.624 259.697L571.704 259.277C571.971 260.197 572.451 260.917 573.144 261.437C573.851 261.943 574.671 262.197 575.604 262.197C576.324 262.197 576.951 262.037 577.484 261.717C578.031 261.397 578.457 260.957 578.764 260.397C579.071 259.823 579.224 259.183 579.224 258.477C579.224 257.77 579.064 257.143 578.744 256.597C578.424 256.037 577.991 255.603 577.444 255.297C576.911 254.977 576.304 254.817 575.624 254.817C574.917 254.817 574.271 254.983 573.684 255.317C573.097 255.637 572.671 256.017 572.404 256.457L571.344 256.237L572.444 248.217H579.924V249.357H572.904L573.444 248.997L572.564 255.397L572.144 255.197C572.544 254.663 573.057 254.27 573.684 254.017C574.324 253.75 574.991 253.617 575.684 253.617C576.617 253.617 577.444 253.837 578.164 254.277C578.897 254.703 579.471 255.283 579.884 256.017C580.311 256.75 580.524 257.57 580.524 258.477C580.524 259.41 580.311 260.243 579.884 260.977C579.471 261.71 578.891 262.29 578.144 262.717C577.411 263.143 576.564 263.357 575.604 263.357ZM589.05 263.357C587.89 263.357 586.87 263.037 585.99 262.397C585.123 261.743 584.443 260.837 583.95 259.677C583.47 258.517 583.23 257.177 583.23 255.657C583.23 254.123 583.47 252.783 583.95 251.637C584.443 250.477 585.123 249.577 585.99 248.937C586.857 248.297 587.87 247.977 589.03 247.977C590.177 247.977 591.183 248.297 592.05 248.937C592.917 249.577 593.59 250.477 594.07 251.637C594.563 252.783 594.81 254.123 594.81 255.657C594.81 257.19 594.57 258.537 594.09 259.697C593.61 260.843 592.937 261.743 592.07 262.397C591.203 263.037 590.197 263.357 589.05 263.357ZM589.05 262.117C589.97 262.117 590.763 261.843 591.43 261.297C592.097 260.75 592.61 259.997 592.97 259.037C593.343 258.063 593.53 256.937 593.53 255.657C593.53 254.363 593.343 253.237 592.97 252.277C592.61 251.303 592.097 250.55 591.43 250.017C590.763 249.47 589.963 249.197 589.03 249.197C588.11 249.197 587.31 249.47 586.63 250.017C585.963 250.55 585.443 251.303 585.07 252.277C584.71 253.25 584.53 254.377 584.53 255.657C584.53 256.923 584.71 258.043 585.07 259.017C585.443 259.99 585.97 260.75 586.65 261.297C587.33 261.843 588.13 262.117 589.05 262.117ZM598.123 263.117V248.217H599.423V257.157L599.043 256.977L606.883 248.217H608.563L602.523 254.997L602.583 254.077L608.963 263.117H607.383L602.003 255.537L599.423 258.457V263.117H598.123ZM212.003 297.817C210.99 296.63 210.216 295.277 209.683 293.757C209.163 292.237 208.903 290.65 208.903 288.997C208.903 287.29 209.17 285.69 209.703 284.197C210.236 282.703 211.003 281.377 212.003 280.217H213.163C212.203 281.51 211.47 282.91 210.963 284.417C210.456 285.923 210.203 287.45 210.203 288.997C210.203 290.517 210.456 292.037 210.963 293.557C211.47 295.063 212.203 296.483 213.163 297.817H212.003ZM222.387 295.357C221.361 295.357 220.401 295.17 219.507 294.797C218.614 294.41 217.827 293.877 217.147 293.197C216.481 292.503 215.954 291.69 215.567 290.757C215.194 289.81 215.007 288.777 215.007 287.657C215.007 286.523 215.194 285.49 215.567 284.557C215.954 283.623 216.487 282.817 217.167 282.137C217.847 281.443 218.627 280.91 219.507 280.537C220.401 280.163 221.361 279.977 222.387 279.977C223.401 279.977 224.354 280.163 225.247 280.537C226.141 280.91 226.921 281.443 227.587 282.137C228.267 282.817 228.801 283.63 229.187 284.577C229.574 285.51 229.767 286.537 229.767 287.657C229.767 288.777 229.574 289.81 229.187 290.757C228.801 291.69 228.267 292.503 227.587 293.197C226.921 293.877 226.141 294.41 225.247 294.797C224.354 295.17 223.401 295.357 222.387 295.357ZM222.387 294.117C223.281 294.117 224.101 293.95 224.847 293.617C225.594 293.283 226.234 292.817 226.767 292.217C227.314 291.617 227.734 290.93 228.027 290.157C228.321 289.37 228.467 288.537 228.467 287.657C228.467 286.79 228.321 285.97 228.027 285.197C227.734 284.41 227.314 283.717 226.767 283.117C226.234 282.517 225.594 282.05 224.847 281.717C224.114 281.37 223.294 281.197 222.387 281.197C221.481 281.197 220.654 281.37 219.907 281.717C219.174 282.05 218.534 282.517 217.987 283.117C217.454 283.717 217.041 284.41 216.747 285.197C216.454 285.97 216.307 286.79 216.307 287.657C216.307 288.537 216.454 289.37 216.747 290.157C217.041 290.93 217.454 291.617 217.987 292.217C218.534 292.817 219.181 293.283 219.927 293.617C220.674 293.95 221.494 294.117 222.387 294.117ZM226.847 296.917L221.707 289.157H223.207L228.347 296.917H226.847ZM236.605 295.357C235.885 295.357 235.218 295.19 234.605 294.857C234.005 294.523 233.525 294.057 233.165 293.457C232.805 292.843 232.625 292.117 232.625 291.277V284.497H233.825V291.177C233.825 291.803 233.951 292.343 234.205 292.797C234.471 293.237 234.825 293.577 235.265 293.817C235.718 294.057 236.225 294.177 236.785 294.177C237.398 294.177 237.925 294.037 238.365 293.757C238.818 293.477 239.165 293.09 239.405 292.597C239.645 292.09 239.765 291.517 239.765 290.877V284.497H240.965V295.117H239.765V292.957L240.065 293.057C239.825 293.75 239.398 294.31 238.785 294.737C238.171 295.15 237.445 295.357 236.605 295.357ZM247.33 295.357C246.663 295.357 246.07 295.23 245.55 294.977C245.03 294.723 244.617 294.37 244.31 293.917C244.003 293.463 243.85 292.943 243.85 292.357C243.85 291.837 243.963 291.35 244.19 290.897C244.417 290.443 244.783 290.057 245.29 289.737C245.797 289.403 246.457 289.17 247.27 289.037L251.57 288.317V289.437L247.59 290.097C246.683 290.243 246.043 290.517 245.67 290.917C245.297 291.317 245.11 291.783 245.11 292.317C245.11 292.89 245.323 293.357 245.75 293.717C246.19 294.077 246.743 294.257 247.41 294.257C248.183 294.257 248.857 294.083 249.43 293.737C250.003 293.377 250.45 292.91 250.77 292.337C251.09 291.75 251.25 291.11 251.25 290.417V287.777C251.25 287.07 250.997 286.497 250.49 286.057C249.983 285.617 249.323 285.397 248.51 285.397C247.843 285.397 247.243 285.563 246.71 285.897C246.177 286.23 245.77 286.663 245.49 287.197L244.41 286.617C244.61 286.19 244.917 285.797 245.33 285.437C245.743 285.077 246.223 284.79 246.77 284.577C247.317 284.363 247.897 284.257 248.51 284.257C249.283 284.257 249.963 284.41 250.55 284.717C251.15 285.01 251.617 285.423 251.95 285.957C252.283 286.477 252.45 287.083 252.45 287.777V295.117H251.25V292.897L251.39 292.997C251.217 293.423 250.93 293.817 250.53 294.177C250.13 294.523 249.657 294.81 249.11 295.037C248.577 295.25 247.983 295.357 247.33 295.357ZM255.755 295.117V279.977H256.955V295.117H255.755ZM260.247 295.117V284.497H261.447V295.117H260.247ZM260.247 282.417V280.217H261.447V282.417H260.247ZM265.839 295.117V285.637H263.679V284.497H265.839V283.477C265.839 282.73 265.986 282.097 266.279 281.577C266.586 281.057 266.999 280.663 267.519 280.397C268.039 280.117 268.612 279.977 269.239 279.977C269.386 279.977 269.532 279.99 269.679 280.017C269.839 280.03 269.972 280.05 270.079 280.077V281.157C269.972 281.13 269.846 281.117 269.699 281.117C269.552 281.103 269.439 281.097 269.359 281.097C268.666 281.097 268.106 281.297 267.679 281.697C267.252 282.083 267.039 282.677 267.039 283.477V284.497H273.079V285.637H267.039V295.117H265.839ZM271.999 295.117V284.497H273.199V295.117H271.999ZM281.024 295.357C280.011 295.357 279.104 295.117 278.304 294.637C277.518 294.143 276.891 293.477 276.424 292.637C275.971 291.797 275.744 290.85 275.744 289.797C275.744 288.73 275.971 287.783 276.424 286.957C276.891 286.117 277.518 285.457 278.304 284.977C279.104 284.497 280.011 284.257 281.024 284.257C281.691 284.257 282.304 284.37 282.864 284.597C283.438 284.823 283.944 285.13 284.384 285.517C284.824 285.903 285.158 286.35 285.384 286.857L284.324 287.417C284.004 286.803 283.558 286.317 282.984 285.957C282.411 285.597 281.758 285.417 281.024 285.417C280.264 285.417 279.578 285.603 278.964 285.977C278.364 286.35 277.884 286.87 277.524 287.537C277.164 288.19 276.984 288.943 276.984 289.797C276.984 290.65 277.164 291.41 277.524 292.077C277.884 292.73 278.364 293.243 278.964 293.617C279.578 293.99 280.264 294.177 281.024 294.177C281.758 294.177 282.411 293.997 282.984 293.637C283.558 293.277 284.004 292.783 284.324 292.157L285.384 292.737C285.158 293.23 284.824 293.677 284.384 294.077C283.944 294.463 283.438 294.777 282.864 295.017C282.304 295.243 281.691 295.357 281.024 295.357ZM291.099 295.357C290.433 295.357 289.839 295.23 289.319 294.977C288.799 294.723 288.386 294.37 288.079 293.917C287.773 293.463 287.619 292.943 287.619 292.357C287.619 291.837 287.733 291.35 287.959 290.897C288.186 290.443 288.553 290.057 289.059 289.737C289.566 289.403 290.226 289.17 291.039 289.037L295.339 288.317V289.437L291.359 290.097C290.453 290.243 289.813 290.517 289.439 290.917C289.066 291.317 288.879 291.783 288.879 292.317C288.879 292.89 289.093 293.357 289.519 293.717C289.959 294.077 290.513 294.257 291.179 294.257C291.953 294.257 292.626 294.083 293.199 293.737C293.773 293.377 294.219 292.91 294.539 292.337C294.859 291.75 295.019 291.11 295.019 290.417V287.777C295.019 287.07 294.766 286.497 294.259 286.057C293.753 285.617 293.093 285.397 292.279 285.397C291.613 285.397 291.013 285.563 290.479 285.897C289.946 286.23 289.539 286.663 289.259 287.197L288.179 286.617C288.379 286.19 288.686 285.797 289.099 285.437C289.513 285.077 289.993 284.79 290.539 284.577C291.086 284.363 291.666 284.257 292.279 284.257C293.053 284.257 293.733 284.41 294.319 284.717C294.919 285.01 295.386 285.423 295.719 285.957C296.053 286.477 296.219 287.083 296.219 287.777V295.117H295.019V292.897L295.159 292.997C294.986 293.423 294.699 293.817 294.299 294.177C293.899 294.523 293.426 294.81 292.879 295.037C292.346 295.25 291.753 295.357 291.099 295.357ZM303.189 295.237C302.309 295.237 301.629 294.99 301.149 294.497C300.669 293.99 300.429 293.257 300.429 292.297V285.637H298.429V284.497H299.189C299.589 284.497 299.896 284.377 300.109 284.137C300.322 283.897 300.429 283.57 300.429 283.157V282.017H301.629V284.497H303.949V285.637H301.629V292.297C301.629 292.59 301.669 292.877 301.749 293.157C301.842 293.437 302.016 293.663 302.269 293.837C302.522 294.01 302.889 294.097 303.369 294.097C303.476 294.097 303.602 294.09 303.749 294.077C303.909 294.063 304.036 294.05 304.129 294.037V295.117C303.982 295.157 303.816 295.183 303.629 295.197C303.442 295.223 303.296 295.237 303.189 295.237ZM307.005 295.117V284.497H308.205V295.117H307.005ZM307.005 282.417V280.217H308.205V282.417H307.005ZM316.437 295.357C315.424 295.357 314.51 295.117 313.697 294.637C312.884 294.157 312.237 293.497 311.757 292.657C311.29 291.803 311.057 290.85 311.057 289.797C311.057 288.743 311.29 287.797 311.757 286.957C312.237 286.117 312.877 285.457 313.677 284.977C314.49 284.497 315.41 284.257 316.437 284.257C317.45 284.257 318.364 284.497 319.177 284.977C319.99 285.457 320.63 286.117 321.097 286.957C321.564 287.783 321.797 288.73 321.797 289.797C321.797 290.863 321.557 291.817 321.077 292.657C320.597 293.497 319.95 294.157 319.137 294.637C318.337 295.117 317.437 295.357 316.437 295.357ZM316.437 294.177C317.197 294.177 317.884 293.99 318.497 293.617C319.124 293.23 319.617 292.703 319.977 292.037C320.337 291.37 320.517 290.623 320.517 289.797C320.517 288.97 320.337 288.23 319.977 287.577C319.617 286.923 319.13 286.403 318.517 286.017C317.904 285.63 317.21 285.437 316.437 285.437C315.664 285.437 314.964 285.63 314.337 286.017C313.724 286.39 313.237 286.91 312.877 287.577C312.517 288.23 312.337 288.97 312.337 289.797C312.337 290.623 312.517 291.37 312.877 292.037C313.25 292.703 313.744 293.23 314.357 293.617C314.97 293.99 315.664 294.177 316.437 294.177ZM324.681 295.117V284.497H325.881V286.637L325.581 286.557C325.821 285.85 326.247 285.29 326.861 284.877C327.487 284.463 328.214 284.257 329.041 284.257C329.774 284.257 330.441 284.423 331.041 284.757C331.641 285.09 332.121 285.557 332.481 286.157C332.841 286.743 333.021 287.417 333.021 288.177V295.117H331.821V288.517C331.821 287.877 331.694 287.33 331.441 286.877C331.187 286.41 330.834 286.057 330.381 285.817C329.941 285.563 329.434 285.437 328.861 285.437C328.261 285.437 327.734 285.577 327.281 285.857C326.827 286.137 326.481 286.523 326.241 287.017C326.001 287.51 325.881 288.077 325.881 288.717V295.117H324.681ZM340.527 295.117V285.637H338.367V284.497H340.527V283.477C340.527 282.73 340.673 282.097 340.967 281.577C341.273 281.057 341.687 280.663 342.207 280.397C342.727 280.117 343.3 279.977 343.927 279.977C344.073 279.977 344.22 279.99 344.367 280.017C344.527 280.03 344.66 280.05 344.767 280.077V281.157C344.66 281.13 344.533 281.117 344.387 281.117C344.24 281.103 344.127 281.097 344.047 281.097C343.353 281.097 342.793 281.297 342.367 281.697C341.94 282.083 341.727 282.677 341.727 283.477V284.497H344.367V285.637H341.727V295.117H340.527ZM351.554 295.357C350.541 295.357 349.627 295.117 348.814 294.637C348.001 294.157 347.354 293.497 346.874 292.657C346.407 291.803 346.174 290.85 346.174 289.797C346.174 288.743 346.407 287.797 346.874 286.957C347.354 286.117 347.994 285.457 348.794 284.977C349.607 284.497 350.527 284.257 351.554 284.257C352.567 284.257 353.481 284.497 354.294 284.977C355.107 285.457 355.747 286.117 356.214 286.957C356.681 287.783 356.914 288.73 356.914 289.797C356.914 290.863 356.674 291.817 356.194 292.657C355.714 293.497 355.067 294.157 354.254 294.637C353.454 295.117 352.554 295.357 351.554 295.357ZM351.554 294.177C352.314 294.177 353.001 293.99 353.614 293.617C354.241 293.23 354.734 292.703 355.094 292.037C355.454 291.37 355.634 290.623 355.634 289.797C355.634 288.97 355.454 288.23 355.094 287.577C354.734 286.923 354.247 286.403 353.634 286.017C353.021 285.63 352.327 285.437 351.554 285.437C350.781 285.437 350.081 285.63 349.454 286.017C348.841 286.39 348.354 286.91 347.994 287.577C347.634 288.23 347.454 288.97 347.454 289.797C347.454 290.623 347.634 291.37 347.994 292.037C348.367 292.703 348.861 293.23 349.474 293.617C350.087 293.99 350.781 294.177 351.554 294.177ZM359.798 295.117V284.497H360.998V286.477L360.778 286.297C361.004 285.697 361.391 285.223 361.938 284.877C362.498 284.53 363.158 284.357 363.918 284.357H364.598V285.557H363.778C362.911 285.557 362.231 285.837 361.738 286.397C361.244 286.943 360.998 287.683 360.998 288.617V295.117H359.798ZM375.176 295.357C374.149 295.357 373.249 295.137 372.476 294.697C371.702 294.257 371.096 293.65 370.656 292.877C370.229 292.09 370.016 291.19 370.016 290.177V280.217H371.316V290.217C371.316 290.99 371.476 291.677 371.796 292.277C372.129 292.863 372.582 293.323 373.156 293.657C373.742 293.99 374.416 294.157 375.176 294.157C375.936 294.157 376.602 293.99 377.176 293.657C377.762 293.323 378.216 292.863 378.536 292.277C378.856 291.677 379.016 290.99 379.016 290.217V280.217H380.316V290.177C380.316 291.19 380.102 292.09 379.676 292.877C379.249 293.65 378.649 294.257 377.876 294.697C377.102 295.137 376.202 295.357 375.176 295.357ZM383.782 295.117V284.497H384.982V286.477L384.762 286.297C384.989 285.697 385.375 285.223 385.922 284.877C386.482 284.53 387.142 284.357 387.902 284.357H388.582V285.557H387.762C386.895 285.557 386.215 285.837 385.722 286.397C385.229 286.943 384.982 287.683 384.982 288.617V295.117H383.782ZM394.319 295.357C393.599 295.357 392.933 295.19 392.319 294.857C391.719 294.523 391.239 294.057 390.879 293.457C390.519 292.843 390.339 292.117 390.339 291.277V284.497H391.539V291.177C391.539 291.803 391.666 292.343 391.919 292.797C392.186 293.237 392.539 293.577 392.979 293.817C393.433 294.057 393.939 294.177 394.499 294.177C395.113 294.177 395.639 294.037 396.079 293.757C396.533 293.477 396.879 293.09 397.119 292.597C397.359 292.09 397.479 291.517 397.479 290.877V284.497H398.679V295.117H397.479V292.957L397.779 293.057C397.539 293.75 397.113 294.31 396.499 294.737C395.886 295.15 395.159 295.357 394.319 295.357ZM405.585 295.357C404.598 295.357 403.731 295.11 402.985 294.617C402.238 294.123 401.691 293.45 401.345 292.597L402.385 292.117C402.718 292.77 403.165 293.29 403.725 293.677C404.285 294.05 404.905 294.237 405.585 294.237C406.278 294.237 406.858 294.07 407.325 293.737C407.805 293.39 408.045 292.937 408.045 292.377C408.045 292.03 407.951 291.737 407.765 291.497C407.591 291.257 407.365 291.063 407.085 290.917C406.805 290.757 406.505 290.637 406.185 290.557L404.545 290.097C403.625 289.843 402.945 289.47 402.505 288.977C402.078 288.483 401.865 287.903 401.865 287.237C401.865 286.637 402.018 286.117 402.325 285.677C402.631 285.223 403.045 284.877 403.565 284.637C404.085 284.383 404.658 284.257 405.285 284.257C406.165 284.257 406.965 284.483 407.685 284.937C408.405 285.39 408.911 286.003 409.205 286.777L408.125 287.277C407.845 286.677 407.451 286.21 406.945 285.877C406.438 285.53 405.878 285.357 405.265 285.357C404.625 285.357 404.105 285.53 403.705 285.877C403.305 286.21 403.105 286.637 403.105 287.157C403.105 287.49 403.185 287.77 403.345 287.997C403.505 288.21 403.711 288.39 403.965 288.537C404.231 288.67 404.505 288.777 404.785 288.857L406.565 289.377C407.431 289.617 408.098 289.997 408.565 290.517C409.045 291.037 409.285 291.65 409.285 292.357C409.285 292.93 409.125 293.443 408.805 293.897C408.485 294.35 408.045 294.71 407.485 294.977C406.925 295.23 406.291 295.357 405.585 295.357ZM418.502 295.357C417.835 295.357 417.242 295.23 416.722 294.977C416.202 294.723 415.788 294.37 415.482 293.917C415.175 293.463 415.022 292.943 415.022 292.357C415.022 291.837 415.135 291.35 415.362 290.897C415.588 290.443 415.955 290.057 416.462 289.737C416.968 289.403 417.628 289.17 418.442 289.037L422.742 288.317V289.437L418.762 290.097C417.855 290.243 417.215 290.517 416.842 290.917C416.468 291.317 416.282 291.783 416.282 292.317C416.282 292.89 416.495 293.357 416.922 293.717C417.362 294.077 417.915 294.257 418.582 294.257C419.355 294.257 420.028 294.083 420.602 293.737C421.175 293.377 421.622 292.91 421.942 292.337C422.262 291.75 422.422 291.11 422.422 290.417V287.777C422.422 287.07 422.168 286.497 421.662 286.057C421.155 285.617 420.495 285.397 419.682 285.397C419.015 285.397 418.415 285.563 417.882 285.897C417.348 286.23 416.942 286.663 416.662 287.197L415.582 286.617C415.782 286.19 416.088 285.797 416.502 285.437C416.915 285.077 417.395 284.79 417.942 284.577C418.488 284.363 419.068 284.257 419.682 284.257C420.455 284.257 421.135 284.41 421.722 284.717C422.322 285.01 422.788 285.423 423.122 285.957C423.455 286.477 423.622 287.083 423.622 287.777V295.117H422.422V292.897L422.562 292.997C422.388 293.423 422.102 293.817 421.702 294.177C421.302 294.523 420.828 294.81 420.282 295.037C419.748 295.25 419.155 295.357 418.502 295.357ZM426.927 295.117V284.497H428.127V286.637L427.827 286.557C428.067 285.85 428.493 285.29 429.107 284.877C429.733 284.463 430.46 284.257 431.287 284.257C432.02 284.257 432.687 284.423 433.287 284.757C433.887 285.09 434.367 285.557 434.727 286.157C435.087 286.743 435.267 287.417 435.267 288.177V295.117H434.067V288.517C434.067 287.877 433.94 287.33 433.687 286.877C433.433 286.41 433.08 286.057 432.627 285.817C432.187 285.563 431.68 285.437 431.107 285.437C430.507 285.437 429.98 285.577 429.527 285.857C429.073 286.137 428.727 286.523 428.487 287.017C428.247 287.51 428.127 288.077 428.127 288.717V295.117H426.927ZM443.152 295.357C442.165 295.357 441.272 295.117 440.472 294.637C439.685 294.143 439.065 293.477 438.612 292.637C438.159 291.797 437.932 290.85 437.932 289.797C437.932 288.743 438.159 287.797 438.612 286.957C439.065 286.117 439.685 285.457 440.472 284.977C441.272 284.497 442.165 284.257 443.152 284.257C444.125 284.257 444.992 284.49 445.752 284.957C446.512 285.41 447.085 286.023 447.472 286.797L447.272 287.177V279.977H448.472V295.117H447.272V292.417L447.472 292.697C447.099 293.523 446.525 294.177 445.752 294.657C444.992 295.123 444.125 295.357 443.152 295.357ZM443.192 294.157C443.965 294.157 444.652 293.97 445.252 293.597C445.865 293.21 446.352 292.69 446.712 292.037C447.072 291.37 447.252 290.623 447.252 289.797C447.252 288.97 447.072 288.23 446.712 287.577C446.352 286.923 445.865 286.41 445.252 286.037C444.652 285.65 443.965 285.457 443.192 285.457C442.432 285.457 441.752 285.65 441.152 286.037C440.552 286.41 440.079 286.923 439.732 287.577C439.385 288.23 439.212 288.97 439.212 289.797C439.212 290.623 439.385 291.37 439.732 292.037C440.079 292.69 440.552 293.21 441.152 293.597C441.752 293.97 442.432 294.157 443.192 294.157ZM460.151 295.357C459.204 295.357 458.351 295.177 457.591 294.817C456.844 294.457 456.217 293.983 455.711 293.397C455.217 292.81 454.864 292.177 454.651 291.497L455.811 291.077C456.184 292.09 456.737 292.863 457.471 293.397C458.217 293.93 459.104 294.197 460.131 294.197C460.811 294.197 461.404 294.083 461.911 293.857C462.431 293.63 462.837 293.31 463.131 292.897C463.424 292.483 463.571 291.997 463.571 291.437C463.571 290.663 463.351 290.063 462.911 289.637C462.484 289.21 461.924 288.903 461.231 288.717L458.511 287.917C457.404 287.597 456.584 287.083 456.051 286.377C455.531 285.657 455.271 284.843 455.271 283.937C455.271 283.15 455.457 282.463 455.831 281.877C456.217 281.277 456.737 280.81 457.391 280.477C458.044 280.143 458.784 279.977 459.611 279.977C460.477 279.977 461.251 280.143 461.931 280.477C462.624 280.797 463.204 281.223 463.671 281.757C464.151 282.277 464.491 282.857 464.691 283.497L463.551 283.917C463.217 282.997 462.704 282.303 462.011 281.837C461.317 281.357 460.524 281.117 459.631 281.117C459.044 281.117 458.517 281.23 458.051 281.457C457.584 281.683 457.217 282.003 456.951 282.417C456.684 282.83 456.551 283.317 456.551 283.877C456.551 284.557 456.744 285.137 457.131 285.617C457.517 286.097 458.164 286.477 459.071 286.757L461.511 287.477C462.577 287.797 463.397 288.29 463.971 288.957C464.557 289.61 464.851 290.417 464.851 291.377C464.851 292.163 464.651 292.857 464.251 293.457C463.851 294.043 463.291 294.51 462.571 294.857C461.864 295.19 461.057 295.357 460.151 295.357ZM467.942 295.117V284.497H469.142V295.117H467.942ZM467.942 282.417V280.217H469.142V282.417H467.942ZM475.474 295.357C474.808 295.357 474.214 295.23 473.694 294.977C473.174 294.723 472.761 294.37 472.454 293.917C472.148 293.463 471.994 292.943 471.994 292.357C471.994 291.837 472.108 291.35 472.334 290.897C472.561 290.443 472.928 290.057 473.434 289.737C473.941 289.403 474.601 289.17 475.414 289.037L479.714 288.317V289.437L475.734 290.097C474.828 290.243 474.188 290.517 473.814 290.917C473.441 291.317 473.254 291.783 473.254 292.317C473.254 292.89 473.468 293.357 473.894 293.717C474.334 294.077 474.888 294.257 475.554 294.257C476.328 294.257 477.001 294.083 477.574 293.737C478.148 293.377 478.594 292.91 478.914 292.337C479.234 291.75 479.394 291.11 479.394 290.417V287.777C479.394 287.07 479.141 286.497 478.634 286.057C478.128 285.617 477.468 285.397 476.654 285.397C475.988 285.397 475.388 285.563 474.854 285.897C474.321 286.23 473.914 286.663 473.634 287.197L472.554 286.617C472.754 286.19 473.061 285.797 473.474 285.437C473.888 285.077 474.368 284.79 474.914 284.577C475.461 284.363 476.041 284.257 476.654 284.257C477.428 284.257 478.108 284.41 478.694 284.717C479.294 285.01 479.761 285.423 480.094 285.957C480.428 286.477 480.594 287.083 480.594 287.777V295.117H479.394V292.897L479.534 292.997C479.361 293.423 479.074 293.817 478.674 294.177C478.274 294.523 477.801 294.81 477.254 295.037C476.721 295.25 476.128 295.357 475.474 295.357ZM483.899 295.117V284.497H485.099V286.637L484.799 286.557C485.039 285.85 485.466 285.29 486.079 284.877C486.706 284.463 487.433 284.257 488.259 284.257C488.993 284.257 489.659 284.423 490.259 284.757C490.859 285.09 491.339 285.557 491.699 286.157C492.059 286.743 492.239 287.417 492.239 288.177V295.117H491.039V288.517C491.039 287.877 490.913 287.33 490.659 286.877C490.406 286.41 490.053 286.057 489.599 285.817C489.159 285.563 488.653 285.437 488.079 285.437C487.479 285.437 486.953 285.577 486.499 285.857C486.046 286.137 485.699 286.523 485.459 287.017C485.219 287.51 485.099 288.077 485.099 288.717V295.117H483.899ZM494.085 297.817C495.045 296.483 495.778 295.063 496.285 293.557C496.791 292.037 497.045 290.517 497.045 288.997C497.045 287.45 496.791 285.923 496.285 284.417C495.778 282.91 495.045 281.51 494.085 280.217H495.245C496.258 281.377 497.025 282.703 497.545 284.197C498.078 285.69 498.345 287.29 498.345 288.997C498.345 290.65 498.085 292.237 497.565 293.757C497.045 295.277 496.271 296.63 495.245 297.817H494.085Z" fill="#262626"/>
<g filter="url(#filter1_d_24_1545)">
<rect x="280.33" y="71.9995" width="151.285" height="53.1008" rx="20" fill="url(#paint0_linear_24_1545)"/>
</g>
<g filter="url(#filter2_d_24_1545)">
<path d="M310.458 108.018C309.711 108.018 309.007 107.885 308.346 107.618C307.695 107.341 307.13 106.952 306.65 106.45C306.18 105.949 305.828 105.357 305.594 104.674L307.626 103.762C307.924 104.413 308.335 104.925 308.858 105.298C309.391 105.672 309.978 105.858 310.618 105.858C310.959 105.858 311.252 105.805 311.498 105.698C311.743 105.592 311.935 105.448 312.074 105.266C312.212 105.074 312.282 104.85 312.282 104.594C312.282 104.317 312.196 104.082 312.026 103.89C311.855 103.688 311.588 103.528 311.226 103.41L308.89 102.642C307.94 102.333 307.226 101.896 306.746 101.33C306.266 100.754 306.026 100.066 306.026 99.2662C306.026 98.5622 306.196 97.9435 306.538 97.4102C306.89 96.8768 307.375 96.4608 307.994 96.1622C308.623 95.8635 309.343 95.7142 310.154 95.7142C310.868 95.7142 311.53 95.8368 312.138 96.0822C312.746 96.3275 313.268 96.6742 313.706 97.1222C314.154 97.5702 314.49 98.1088 314.714 98.7382L312.698 99.6502C312.474 99.0955 312.138 98.6635 311.69 98.3542C311.242 98.0342 310.73 97.8742 310.154 97.8742C309.823 97.8742 309.53 97.9275 309.274 98.0342C309.018 98.1408 308.82 98.2955 308.682 98.4982C308.543 98.6902 308.474 98.9142 308.474 99.1702C308.474 99.4475 308.564 99.6928 308.746 99.9062C308.927 100.109 309.199 100.269 309.562 100.386L311.85 101.122C312.81 101.432 313.524 101.864 313.994 102.418C314.474 102.973 314.714 103.65 314.714 104.45C314.714 105.144 314.532 105.762 314.17 106.306C313.807 106.84 313.306 107.261 312.666 107.57C312.036 107.869 311.3 108.018 310.458 108.018ZM319.681 107.826V95.9062H324.257C325.079 95.9062 325.804 96.0502 326.433 96.3382C327.073 96.6262 327.575 97.0528 327.937 97.6182C328.3 98.1835 328.481 98.8822 328.481 99.7142C328.481 100.525 328.295 101.213 327.921 101.778C327.559 102.344 327.057 102.776 326.417 103.074C325.788 103.362 325.068 103.506 324.257 103.506H322.161V107.826H319.681ZM322.161 101.346H324.273C324.625 101.346 324.929 101.277 325.185 101.138C325.441 101 325.639 100.808 325.777 100.562C325.927 100.317 326.001 100.034 326.001 99.7142C326.001 99.3835 325.927 99.0955 325.777 98.8502C325.639 98.6048 325.441 98.4128 325.185 98.2742C324.929 98.1355 324.625 98.0662 324.273 98.0662H322.161V101.346ZM339.24 108.018C338.344 108.018 337.512 107.864 336.744 107.554C335.976 107.245 335.304 106.813 334.728 106.258C334.162 105.693 333.72 105.037 333.4 104.29C333.08 103.544 332.92 102.733 332.92 101.858C332.92 100.984 333.074 100.173 333.384 99.4262C333.704 98.6795 334.146 98.0288 334.712 97.4742C335.288 96.9195 335.96 96.4875 336.728 96.1782C337.496 95.8688 338.333 95.7142 339.24 95.7142C340.146 95.7142 340.984 95.8688 341.752 96.1782C342.52 96.4875 343.186 96.9195 343.752 97.4742C344.328 98.0288 344.77 98.6795 345.08 99.4262C345.4 100.173 345.56 100.984 345.56 101.858C345.56 102.733 345.4 103.544 345.08 104.29C344.76 105.037 344.312 105.693 343.736 106.258C343.17 106.813 342.504 107.245 341.736 107.554C340.968 107.864 340.136 108.018 339.24 108.018ZM339.24 105.778C339.784 105.778 340.285 105.682 340.744 105.49C341.213 105.298 341.624 105.032 341.976 104.69C342.328 104.338 342.6 103.922 342.792 103.442C342.984 102.962 343.08 102.434 343.08 101.858C343.08 101.282 342.984 100.76 342.792 100.29C342.6 99.8102 342.328 99.3942 341.976 99.0422C341.624 98.6902 341.213 98.4235 340.744 98.2422C340.285 98.0502 339.784 97.9542 339.24 97.9542C338.696 97.9542 338.189 98.0502 337.72 98.2422C337.261 98.4235 336.856 98.6902 336.504 99.0422C336.152 99.3942 335.88 99.8102 335.688 100.29C335.496 100.76 335.4 101.282 335.4 101.858C335.4 102.434 335.496 102.962 335.688 103.442C335.88 103.922 336.152 104.338 336.504 104.69C336.856 105.032 337.261 105.298 337.72 105.49C338.189 105.682 338.696 105.778 339.24 105.778ZM350.519 107.826V95.9062H352.423L358.823 104.338L357.799 104.578V95.9062H360.279V107.826H358.359L352.071 99.3302L352.999 99.0902V107.826H350.519ZM369.93 108.018C369.183 108.018 368.479 107.885 367.818 107.618C367.167 107.341 366.602 106.952 366.122 106.45C365.652 105.949 365.3 105.357 365.066 104.674L367.098 103.762C367.396 104.413 367.807 104.925 368.33 105.298C368.863 105.672 369.45 105.858 370.09 105.858C370.431 105.858 370.724 105.805 370.97 105.698C371.215 105.592 371.407 105.448 371.546 105.266C371.684 105.074 371.754 104.85 371.754 104.594C371.754 104.317 371.668 104.082 371.498 103.89C371.327 103.688 371.06 103.528 370.698 103.41L368.362 102.642C367.412 102.333 366.698 101.896 366.218 101.33C365.738 100.754 365.498 100.066 365.498 99.2662C365.498 98.5622 365.668 97.9435 366.01 97.4102C366.362 96.8768 366.847 96.4608 367.466 96.1622C368.095 95.8635 368.815 95.7142 369.626 95.7142C370.34 95.7142 371.002 95.8368 371.61 96.0822C372.218 96.3275 372.74 96.6742 373.178 97.1222C373.626 97.5702 373.962 98.1088 374.186 98.7382L372.17 99.6502C371.946 99.0955 371.61 98.6635 371.162 98.3542C370.714 98.0342 370.202 97.8742 369.626 97.8742C369.295 97.8742 369.002 97.9275 368.746 98.0342C368.49 98.1408 368.292 98.2955 368.154 98.4982C368.015 98.6902 367.946 98.9142 367.946 99.1702C367.946 99.4475 368.036 99.6928 368.218 99.9062C368.399 100.109 368.671 100.269 369.034 100.386L371.322 101.122C372.282 101.432 372.996 101.864 373.466 102.418C373.946 102.973 374.186 103.65 374.186 104.45C374.186 105.144 374.004 105.762 373.642 106.306C373.279 106.84 372.778 107.261 372.138 107.57C371.508 107.869 370.772 108.018 369.93 108.018ZM385.121 108.018C384.225 108.018 383.393 107.864 382.625 107.554C381.857 107.245 381.185 106.813 380.609 106.258C380.044 105.693 379.601 105.037 379.281 104.29C378.961 103.544 378.801 102.733 378.801 101.858C378.801 100.984 378.956 100.173 379.265 99.4262C379.585 98.6795 380.028 98.0288 380.593 97.4742C381.169 96.9195 381.841 96.4875 382.609 96.1782C383.377 95.8688 384.214 95.7142 385.121 95.7142C386.028 95.7142 386.865 95.8688 387.633 96.1782C388.401 96.4875 389.068 96.9195 389.633 97.4742C390.209 98.0288 390.652 98.6795 390.961 99.4262C391.281 100.173 391.441 100.984 391.441 101.858C391.441 102.733 391.281 103.544 390.961 104.29C390.641 105.037 390.193 105.693 389.617 106.258C389.052 106.813 388.385 107.245 387.617 107.554C386.849 107.864 386.017 108.018 385.121 108.018ZM385.121 105.778C385.665 105.778 386.166 105.682 386.625 105.49C387.094 105.298 387.505 105.032 387.857 104.69C388.209 104.338 388.481 103.922 388.673 103.442C388.865 102.962 388.961 102.434 388.961 101.858C388.961 101.282 388.865 100.76 388.673 100.29C388.481 99.8102 388.209 99.3942 387.857 99.0422C387.505 98.6902 387.094 98.4235 386.625 98.2422C386.166 98.0502 385.665 97.9542 385.121 97.9542C384.577 97.9542 384.07 98.0502 383.601 98.2422C383.142 98.4235 382.737 98.6902 382.385 99.0422C382.033 99.3942 381.761 99.8102 381.569 100.29C381.377 100.76 381.281 101.282 381.281 101.858C381.281 102.434 381.377 102.962 381.569 103.442C381.761 103.922 382.033 104.338 382.385 104.69C382.737 105.032 383.142 105.298 383.601 105.49C384.07 105.682 384.577 105.778 385.121 105.778ZM396.4 107.826V95.9062H400.96C401.781 95.9062 402.507 96.0502 403.136 96.3382C403.776 96.6262 404.277 97.0528 404.64 97.6182C405.003 98.1835 405.184 98.8822 405.184 99.7142C405.184 100.525 404.997 101.218 404.624 101.794C404.251 102.36 403.749 102.786 403.12 103.074L405.84 107.826H403.056L400.112 102.562L401.712 103.506H398.88V107.826H396.4ZM398.88 101.346H400.976C401.328 101.346 401.632 101.277 401.888 101.138C402.144 101 402.341 100.808 402.48 100.562C402.629 100.317 402.704 100.034 402.704 99.7142C402.704 99.3835 402.629 99.0955 402.48 98.8502C402.341 98.6048 402.144 98.4128 401.888 98.2742C401.632 98.1355 401.328 98.0662 400.976 98.0662H398.88V101.346Z" fill="white"/>
</g>
<g filter="url(#filter3_d_24_1545)">
<rect x="124.062" y="173.099" width="105.763" height="56" rx="20" fill="#F0F0F0"/>
</g>
<path d="M160.026 210.289C159.08 210.289 158.226 210.109 157.466 209.749C156.72 209.389 156.093 208.916 155.586 208.329C155.093 207.743 154.74 207.109 154.526 206.429L155.686 206.009C156.06 207.023 156.613 207.796 157.346 208.329C158.093 208.863 158.98 209.129 160.006 209.129C160.686 209.129 161.28 209.016 161.786 208.789C162.306 208.563 162.713 208.243 163.006 207.829C163.3 207.416 163.446 206.929 163.446 206.369C163.446 205.596 163.226 204.996 162.786 204.569C162.36 204.143 161.8 203.836 161.106 203.649L158.386 202.849C157.28 202.529 156.46 202.016 155.926 201.309C155.406 200.589 155.146 199.776 155.146 198.869C155.146 198.083 155.333 197.396 155.706 196.809C156.093 196.209 156.613 195.743 157.266 195.409C157.92 195.076 158.66 194.909 159.486 194.909C160.353 194.909 161.126 195.076 161.806 195.409C162.5 195.729 163.08 196.156 163.546 196.689C164.026 197.209 164.366 197.789 164.566 198.429L163.426 198.849C163.093 197.929 162.58 197.236 161.886 196.769C161.193 196.289 160.4 196.049 159.506 196.049C158.92 196.049 158.393 196.163 157.926 196.389C157.46 196.616 157.093 196.936 156.826 197.349C156.56 197.763 156.426 198.249 156.426 198.809C156.426 199.489 156.62 200.069 157.006 200.549C157.393 201.029 158.04 201.409 158.946 201.689L161.386 202.409C162.453 202.729 163.273 203.223 163.846 203.889C164.433 204.543 164.726 205.349 164.726 206.309C164.726 207.096 164.526 207.789 164.126 208.389C163.726 208.976 163.166 209.443 162.446 209.789C161.74 210.123 160.933 210.289 160.026 210.289ZM159.326 212.049V193.149H160.486V212.049H159.326ZM170.999 210.049L177.839 196.289H170.299V195.149H179.259V196.249L172.379 210.049H170.999ZM185.792 210.289C184.992 210.289 184.252 210.143 183.572 209.849C182.892 209.543 182.312 209.116 181.832 208.569C181.366 208.023 181.026 207.376 180.812 206.629L181.892 206.209C182.159 207.129 182.639 207.849 183.332 208.369C184.039 208.876 184.859 209.129 185.792 209.129C186.512 209.129 187.139 208.969 187.672 208.649C188.219 208.329 188.646 207.889 188.952 207.329C189.259 206.756 189.412 206.116 189.412 205.409C189.412 204.703 189.252 204.076 188.932 203.529C188.612 202.969 188.179 202.536 187.632 202.229C187.099 201.909 186.492 201.749 185.812 201.749C185.106 201.749 184.459 201.916 183.872 202.249C183.286 202.569 182.859 202.949 182.592 203.389L181.532 203.169L182.632 195.149H190.112V196.289H183.092L183.632 195.929L182.752 202.329L182.332 202.129C182.732 201.596 183.246 201.203 183.872 200.949C184.512 200.683 185.179 200.549 185.872 200.549C186.806 200.549 187.632 200.769 188.352 201.209C189.086 201.636 189.659 202.216 190.072 202.949C190.499 203.683 190.712 204.503 190.712 205.409C190.712 206.343 190.499 207.176 190.072 207.909C189.659 208.643 189.079 209.223 188.332 209.649C187.599 210.076 186.752 210.289 185.792 210.289ZM193.858 210.049V195.149H195.158V204.089L194.778 203.909L202.618 195.149H204.298L198.258 201.929L198.318 201.009L204.698 210.049H203.118L197.738 202.469L195.158 205.389V210.049H193.858Z" fill="#262626"/>
<g filter="url(#filter4_d_24_1545)">
<path d="M179.137 176.449C180.609 176.449 181.803 175.255 181.803 173.782C181.803 172.309 180.609 171.116 179.137 171.116C177.664 171.116 176.47 172.309 176.47 173.782C176.47 175.255 177.664 176.449 179.137 176.449ZM179.637 173.782V150.549H178.637V173.782H179.637Z" fill="#262626"/>
</g>
<g filter="url(#filter5_d_24_1545)">
<rect x="305.062" y="173.099" width="105.763" height="56" rx="20" fill="#F0F0F0"/>
</g>
<path d="M340.026 210.289C339.08 210.289 338.226 210.109 337.466 209.749C336.72 209.389 336.093 208.916 335.586 208.329C335.093 207.743 334.74 207.109 334.526 206.429L335.686 206.009C336.06 207.023 336.613 207.796 337.346 208.329C338.093 208.863 338.98 209.129 340.006 209.129C340.686 209.129 341.28 209.016 341.786 208.789C342.306 208.563 342.713 208.243 343.006 207.829C343.3 207.416 343.446 206.929 343.446 206.369C343.446 205.596 343.226 204.996 342.786 204.569C342.36 204.143 341.8 203.836 341.106 203.649L338.386 202.849C337.28 202.529 336.46 202.016 335.926 201.309C335.406 200.589 335.146 199.776 335.146 198.869C335.146 198.083 335.333 197.396 335.706 196.809C336.093 196.209 336.613 195.743 337.266 195.409C337.92 195.076 338.66 194.909 339.486 194.909C340.353 194.909 341.126 195.076 341.806 195.409C342.5 195.729 343.08 196.156 343.546 196.689C344.026 197.209 344.366 197.789 344.566 198.429L343.426 198.849C343.093 197.929 342.58 197.236 341.886 196.769C341.193 196.289 340.4 196.049 339.506 196.049C338.92 196.049 338.393 196.163 337.926 196.389C337.46 196.616 337.093 196.936 336.826 197.349C336.56 197.763 336.426 198.249 336.426 198.809C336.426 199.489 336.62 200.069 337.006 200.549C337.393 201.029 338.04 201.409 338.946 201.689L341.386 202.409C342.453 202.729 343.273 203.223 343.846 203.889C344.433 204.543 344.726 205.349 344.726 206.309C344.726 207.096 344.526 207.789 344.126 208.389C343.726 208.976 343.166 209.443 342.446 209.789C341.74 210.123 340.933 210.289 340.026 210.289ZM339.326 212.049V193.149H340.486V212.049H339.326ZM350.999 210.049L357.839 196.289H350.299V195.149H359.259V196.249L352.379 210.049H350.999ZM365.792 210.289C364.992 210.289 364.252 210.143 363.572 209.849C362.892 209.543 362.312 209.116 361.832 208.569C361.366 208.023 361.026 207.376 360.812 206.629L361.892 206.209C362.159 207.129 362.639 207.849 363.332 208.369C364.039 208.876 364.859 209.129 365.792 209.129C366.512 209.129 367.139 208.969 367.672 208.649C368.219 208.329 368.646 207.889 368.952 207.329C369.259 206.756 369.412 206.116 369.412 205.409C369.412 204.703 369.252 204.076 368.932 203.529C368.612 202.969 368.179 202.536 367.632 202.229C367.099 201.909 366.492 201.749 365.812 201.749C365.106 201.749 364.459 201.916 363.872 202.249C363.286 202.569 362.859 202.949 362.592 203.389L361.532 203.169L362.632 195.149H370.112V196.289H363.092L363.632 195.929L362.752 202.329L362.332 202.129C362.732 201.596 363.246 201.203 363.872 200.949C364.512 200.683 365.179 200.549 365.872 200.549C366.806 200.549 367.632 200.769 368.352 201.209C369.086 201.636 369.659 202.216 370.072 202.949C370.499 203.683 370.712 204.503 370.712 205.409C370.712 206.343 370.499 207.176 370.072 207.909C369.659 208.643 369.079 209.223 368.332 209.649C367.599 210.076 366.752 210.289 365.792 210.289ZM373.858 210.049V195.149H375.158V204.089L374.778 203.909L382.618 195.149H384.298L378.258 201.929L378.318 201.009L384.698 210.049H383.118L377.738 202.469L375.158 205.389V210.049H373.858Z" fill="#262626"/>
<g filter="url(#filter6_d_24_1545)">
<path d="M359.137 176.449C360.609 176.449 361.803 175.255 361.803 173.782C361.803 172.309 360.609 171.116 359.137 171.116C357.664 171.116 356.47 172.309 356.47 173.782C356.47 175.255 357.664 176.449 359.137 176.449ZM359.637 173.782V150.549H358.637V173.782H359.637Z" fill="#262626"/>
</g>
<g filter="url(#filter7_d_24_1545)">
<rect x="483.062" y="173.099" width="105.763" height="56" rx="20" fill="#F0F0F0"/>
</g>
<path d="M511.278 210.289C510.332 210.289 509.478 210.109 508.718 209.749C507.972 209.389 507.345 208.916 506.838 208.329C506.345 207.743 505.992 207.109 505.778 206.429L506.938 206.009C507.312 207.023 507.865 207.796 508.598 208.329C509.345 208.863 510.232 209.129 511.258 209.129C511.938 209.129 512.532 209.016 513.038 208.789C513.558 208.563 513.965 208.243 514.258 207.829C514.552 207.416 514.698 206.929 514.698 206.369C514.698 205.596 514.478 204.996 514.038 204.569C513.612 204.143 513.052 203.836 512.358 203.649L509.638 202.849C508.532 202.529 507.712 202.016 507.178 201.309C506.658 200.589 506.398 199.776 506.398 198.869C506.398 198.083 506.585 197.396 506.958 196.809C507.345 196.209 507.865 195.743 508.518 195.409C509.172 195.076 509.912 194.909 510.738 194.909C511.605 194.909 512.378 195.076 513.058 195.409C513.752 195.729 514.332 196.156 514.798 196.689C515.278 197.209 515.618 197.789 515.818 198.429L514.678 198.849C514.345 197.929 513.832 197.236 513.138 196.769C512.445 196.289 511.652 196.049 510.758 196.049C510.172 196.049 509.645 196.163 509.178 196.389C508.712 196.616 508.345 196.936 508.078 197.349C507.812 197.763 507.678 198.249 507.678 198.809C507.678 199.489 507.872 200.069 508.258 200.549C508.645 201.029 509.292 201.409 510.198 201.689L512.638 202.409C513.705 202.729 514.525 203.223 515.098 203.889C515.685 204.543 515.978 205.349 515.978 206.309C515.978 207.096 515.778 207.789 515.378 208.389C514.978 208.976 514.418 209.443 513.698 209.789C512.992 210.123 512.185 210.289 511.278 210.289ZM510.578 212.049V193.149H511.738V212.049H510.578ZM524.311 210.049V196.289H521.511V195.149H525.611V210.049H524.311ZM535.08 210.289C533.92 210.289 532.9 209.969 532.02 209.329C531.153 208.676 530.473 207.769 529.98 206.609C529.5 205.449 529.26 204.109 529.26 202.589C529.26 201.056 529.5 199.716 529.98 198.569C530.473 197.409 531.153 196.509 532.02 195.869C532.887 195.229 533.9 194.909 535.06 194.909C536.207 194.909 537.213 195.229 538.08 195.869C538.947 196.509 539.62 197.409 540.1 198.569C540.593 199.716 540.84 201.056 540.84 202.589C540.84 204.123 540.6 205.469 540.12 206.629C539.64 207.776 538.967 208.676 538.1 209.329C537.233 209.969 536.227 210.289 535.08 210.289ZM535.08 209.049C536 209.049 536.793 208.776 537.46 208.229C538.127 207.683 538.64 206.929 539 205.969C539.373 204.996 539.56 203.869 539.56 202.589C539.56 201.296 539.373 200.169 539 199.209C538.64 198.236 538.127 197.483 537.46 196.949C536.793 196.403 535.993 196.129 535.06 196.129C534.14 196.129 533.34 196.403 532.66 196.949C531.993 197.483 531.473 198.236 531.1 199.209C530.74 200.183 530.56 201.309 530.56 202.589C530.56 203.856 530.74 204.976 531.1 205.949C531.473 206.923 532 207.683 532.68 208.229C533.36 208.776 534.16 209.049 535.08 209.049ZM549.533 210.289C548.373 210.289 547.353 209.969 546.473 209.329C545.607 208.676 544.927 207.769 544.433 206.609C543.953 205.449 543.713 204.109 543.713 202.589C543.713 201.056 543.953 199.716 544.433 198.569C544.927 197.409 545.607 196.509 546.473 195.869C547.34 195.229 548.353 194.909 549.513 194.909C550.66 194.909 551.667 195.229 552.533 195.869C553.4 196.509 554.073 197.409 554.553 198.569C555.047 199.716 555.293 201.056 555.293 202.589C555.293 204.123 555.053 205.469 554.573 206.629C554.093 207.776 553.42 208.676 552.553 209.329C551.687 209.969 550.68 210.289 549.533 210.289ZM549.533 209.049C550.453 209.049 551.247 208.776 551.913 208.229C552.58 207.683 553.093 206.929 553.453 205.969C553.827 204.996 554.013 203.869 554.013 202.589C554.013 201.296 553.827 200.169 553.453 199.209C553.093 198.236 552.58 197.483 551.913 196.949C551.247 196.403 550.447 196.129 549.513 196.129C548.593 196.129 547.793 196.403 547.113 196.949C546.447 197.483 545.927 198.236 545.553 199.209C545.193 200.183 545.013 201.309 545.013 202.589C545.013 203.856 545.193 204.976 545.553 205.949C545.927 206.923 546.453 207.683 547.133 208.229C547.813 208.776 548.613 209.049 549.533 209.049ZM558.606 210.049V195.149H559.906V204.089L559.526 203.909L567.366 195.149H569.046L563.006 201.929L563.066 201.009L569.446 210.049H567.866L562.486 202.469L559.906 205.389V210.049H558.606Z" fill="#262626"/>
<g filter="url(#filter8_d_24_1545)">
<path d="M537.137 176.449C538.609 176.449 539.803 175.255 539.803 173.782C539.803 172.309 538.609 171.116 537.137 171.116C535.664 171.116 534.47 172.309 534.47 173.782C534.47 175.255 535.664 176.449 537.137 176.449ZM537.637 173.782V150.549H536.637V173.782H537.637Z" fill="#262626"/>
</g>
<path d="M536.126 150.549L179.87 150.549" stroke="#262626" stroke-width="3" stroke-linecap="round"/>
<path d="M358.793 128L358.793 150.55" stroke="#262626" stroke-width="3" stroke-linecap="round"/>
<defs>
<filter id="filter0_d_24_1545" x="0" y="0.800781" width="696.126" height="327.226" filterUnits="userSpaceOnUse" color-interpolation-filters="sRGB">
<feFlood flood-opacity="0" result="BackgroundImageFix"/>
<feColorMatrix in="SourceAlpha" type="matrix" values="0 0 0 0 0 0 0 0 0 0 0 0 0 0 0 0 0 0 127 0" result="hardAlpha"/>
<feOffset dy="4"/>
<feGaussianBlur stdDeviation="5"/>
<feComposite in2="hardAlpha" operator="out"/>
<feColorMatrix type="matrix" values="0 0 0 0 0 0 0 0 0 0 0 0 0 0 0 0 0 0 0.25 0"/>
<feBlend mode="normal" in2="BackgroundImageFix" result="effect1_dropShadow_24_1545"/>
<feBlend mode="normal" in="SourceGraphic" in2="effect1_dropShadow_24_1545" result="shape"/>
</filter>
<filter id="filter1_d_24_1545" x="275.33" y="70.9995" width="163.284" height="65.1006" filterUnits="userSpaceOnUse" color-interpolation-filters="sRGB">
<feFlood flood-opacity="0" result="BackgroundImageFix"/>
<feColorMatrix in="SourceAlpha" type="matrix" values="0 0 0 0 0 0 0 0 0 0 0 0 0 0 0 0 0 0 127 0" result="hardAlpha"/>
<feMorphology radius="1" operator="dilate" in="SourceAlpha" result="effect1_dropShadow_24_1545"/>
<feOffset dx="1" dy="5"/>
<feGaussianBlur stdDeviation="2.5"/>
<feComposite in2="hardAlpha" operator="out"/>
<feColorMatrix type="matrix" values="0 0 0 0 0 0 0 0 0 0 0 0 0 0 0 0 0 0 0.25 0"/>
<feBlend mode="normal" in2="BackgroundImageFix" result="effect1_dropShadow_24_1545"/>
<feBlend mode="normal" in="SourceGraphic" in2="effect1_dropShadow_24_1545" result="shape"/>
</filter>
<filter id="filter2_d_24_1545" x="301.594" y="95.7144" width="108.246" height="20.3037" filterUnits="userSpaceOnUse" color-interpolation-filters="sRGB">
<feFlood flood-opacity="0" result="BackgroundImageFix"/>
<feColorMatrix in="SourceAlpha" type="matrix" values="0 0 0 0 0 0 0 0 0 0 0 0 0 0 0 0 0 0 127 0" result="hardAlpha"/>
<feOffset dy="4"/>
<feGaussianBlur stdDeviation="2"/>
<feComposite in2="hardAlpha" operator="out"/>
<feColorMatrix type="matrix" values="0 0 0 0 0 0 0 0 0 0 0 0 0 0 0 0 0 0 0.25 0"/>
<feBlend mode="normal" in2="BackgroundImageFix" result="effect1_dropShadow_24_1545"/>
<feBlend mode="normal" in="SourceGraphic" in2="effect1_dropShadow_24_1545" result="shape"/>
</filter>
<filter id="filter3_d_24_1545" x="119.062" y="172.099" width="117.764" height="68" filterUnits="userSpaceOnUse" color-interpolation-filters="sRGB">
<feFlood flood-opacity="0" result="BackgroundImageFix"/>
<feColorMatrix in="SourceAlpha" type="matrix" values="0 0 0 0 0 0 0 0 0 0 0 0 0 0 0 0 0 0 127 0" result="hardAlpha"/>
<feMorphology radius="1" operator="dilate" in="SourceAlpha" result="effect1_dropShadow_24_1545"/>
<feOffset dx="1" dy="5"/>
<feGaussianBlur stdDeviation="2.5"/>
<feComposite in2="hardAlpha" operator="out"/>
<feColorMatrix type="matrix" values="0 0 0 0 0 0 0 0 0 0 0 0 0 0 0 0 0 0 0.25 0"/>
<feBlend mode="normal" in2="BackgroundImageFix" result="effect1_dropShadow_24_1545"/>
<feBlend mode="normal" in="SourceGraphic" in2="effect1_dropShadow_24_1545" result="shape"/>
</filter>
<filter id="filter4_d_24_1545" x="172.47" y="150.549" width="13.334" height="33.8999" filterUnits="userSpaceOnUse" color-interpolation-filters="sRGB">
<feFlood flood-opacity="0" result="BackgroundImageFix"/>
<feColorMatrix in="SourceAlpha" type="matrix" values="0 0 0 0 0 0 0 0 0 0 0 0 0 0 0 0 0 0 127 0" result="hardAlpha"/>
<feOffset dy="4"/>
<feGaussianBlur stdDeviation="2"/>
<feComposite in2="hardAlpha" operator="out"/>
<feColorMatrix type="matrix" values="0 0 0 0 0 0 0 0 0 0 0 0 0 0 0 0 0 0 0.25 0"/>
<feBlend mode="normal" in2="BackgroundImageFix" result="effect1_dropShadow_24_1545"/>
<feBlend mode="normal" in="SourceGraphic" in2="effect1_dropShadow_24_1545" result="shape"/>
</filter>
<filter id="filter5_d_24_1545" x="300.062" y="172.099" width="117.764" height="68" filterUnits="userSpaceOnUse" color-interpolation-filters="sRGB">
<feFlood flood-opacity="0" result="BackgroundImageFix"/>
<feColorMatrix in="SourceAlpha" type="matrix" values="0 0 0 0 0 0 0 0 0 0 0 0 0 0 0 0 0 0 127 0" result="hardAlpha"/>
<feMorphology radius="1" operator="dilate" in="SourceAlpha" result="effect1_dropShadow_24_1545"/>
<feOffset dx="1" dy="5"/>
<feGaussianBlur stdDeviation="2.5"/>
<feComposite in2="hardAlpha" operator="out"/>
<feColorMatrix type="matrix" values="0 0 0 0 0 0 0 0 0 0 0 0 0 0 0 0 0 0 0.25 0"/>
<feBlend mode="normal" in2="BackgroundImageFix" result="effect1_dropShadow_24_1545"/>
<feBlend mode="normal" in="SourceGraphic" in2="effect1_dropShadow_24_1545" result="shape"/>
</filter>
<filter id="filter6_d_24_1545" x="352.47" y="150.549" width="13.334" height="33.8999" filterUnits="userSpaceOnUse" color-interpolation-filters="sRGB">
<feFlood flood-opacity="0" result="BackgroundImageFix"/>
<feColorMatrix in="SourceAlpha" type="matrix" values="0 0 0 0 0 0 0 0 0 0 0 0 0 0 0 0 0 0 127 0" result="hardAlpha"/>
<feOffset dy="4"/>
<feGaussianBlur stdDeviation="2"/>
<feComposite in2="hardAlpha" operator="out"/>
<feColorMatrix type="matrix" values="0 0 0 0 0 0 0 0 0 0 0 0 0 0 0 0 0 0 0.25 0"/>
<feBlend mode="normal" in2="BackgroundImageFix" result="effect1_dropShadow_24_1545"/>
<feBlend mode="normal" in="SourceGraphic" in2="effect1_dropShadow_24_1545" result="shape"/>
</filter>
<filter id="filter7_d_24_1545" x="478.062" y="172.099" width="117.764" height="68" filterUnits="userSpaceOnUse" color-interpolation-filters="sRGB">
<feFlood flood-opacity="0" result="BackgroundImageFix"/>
<feColorMatrix in="SourceAlpha" type="matrix" values="0 0 0 0 0 0 0 0 0 0 0 0 0 0 0 0 0 0 127 0" result="hardAlpha"/>
<feMorphology radius="1" operator="dilate" in="SourceAlpha" result="effect1_dropShadow_24_1545"/>
<feOffset dx="1" dy="5"/>
<feGaussianBlur stdDeviation="2.5"/>
<feComposite in2="hardAlpha" operator="out"/>
<feColorMatrix type="matrix" values="0 0 0 0 0 0 0 0 0 0 0 0 0 0 0 0 0 0 0.25 0"/>
<feBlend mode="normal" in2="BackgroundImageFix" result="effect1_dropShadow_24_1545"/>
<feBlend mode="normal" in="SourceGraphic" in2="effect1_dropShadow_24_1545" result="shape"/>
</filter>
<filter id="filter8_d_24_1545" x="530.47" y="150.549" width="13.334" height="33.8999" filterUnits="userSpaceOnUse" color-interpolation-filters="sRGB">
<feFlood flood-opacity="0" result="BackgroundImageFix"/>
<feColorMatrix in="SourceAlpha" type="matrix" values="0 0 0 0 0 0 0 0 0 0 0 0 0 0 0 0 0 0 127 0" result="hardAlpha"/>
<feOffset dy="4"/>
<feGaussianBlur stdDeviation="2"/>
<feComposite in2="hardAlpha" operator="out"/>
<feColorMatrix type="matrix" values="0 0 0 0 0 0 0 0 0 0 0 0 0 0 0 0 0 0 0.25 0"/>
<feBlend mode="normal" in2="BackgroundImageFix" result="effect1_dropShadow_24_1545"/>
<feBlend mode="normal" in="SourceGraphic" in2="effect1_dropShadow_24_1545" result="shape"/>
</filter>
<linearGradient id="paint0_linear_24_1545" x1="391.327" y1="82.6197" x2="321.902" y2="85.5985" gradientUnits="userSpaceOnUse">
<stop stop-color="#F27052"/>
<stop offset="1" stop-color="#FF7A00"/>
</linearGradient>
</defs>
</svg>
