<svg width="31" height="30" viewBox="0 0 31 30" fill="none" xmlns="http://www.w3.org/2000/svg">
<path d="M15.2331 2.26562C15.8903 2.26562 16.4232 1.75845 16.4232 1.13281C16.4232 0.507177 15.8903 0 15.2331 0C14.5758 0 14.043 0.507177 14.043 1.13281C14.043 1.75845 14.5758 2.26562 15.2331 2.26562Z" fill="black"/>
<path d="M5.95084 18.1249C6.60811 18.1249 7.14093 17.6177 7.14093 16.9921C7.14093 16.3664 6.60811 15.8593 5.95084 15.8593C5.29357 15.8593 4.76074 16.3664 4.76074 16.9921C4.76074 17.6177 5.29357 18.1249 5.95084 18.1249Z" fill="black"/>
<path d="M24.5163 18.1249C25.1735 18.1249 25.7064 17.6177 25.7064 16.9921C25.7064 16.3664 25.1735 15.8593 24.5163 15.8593C23.859 15.8593 23.3262 16.3664 23.3262 16.9921C23.3262 17.6177 23.859 18.1249 24.5163 18.1249Z" fill="black"/>
<path d="M29.2763 18.328H19.7556C19.6753 18.328 19.5971 18.3358 19.5213 18.3502L16.4233 16.558V13.7968H19.9936C20.6509 13.7968 21.1837 13.2896 21.1837 12.6639V3.60144C21.1837 2.97579 20.6509 2.46863 19.9936 2.46863H10.4728C9.81554 2.46863 9.28273 2.97579 9.28273 3.60144V12.6639C9.28273 13.2896 9.81554 13.7968 10.4728 13.7968H14.0431V16.558L10.9451 18.3502C10.8693 18.3358 10.7911 18.328 10.7108 18.328H1.19009C0.532805 18.328 0 18.8352 0 19.4608V28.5233C0 29.149 0.532805 29.6561 1.19009 29.6561H10.7108C11.3681 29.6561 11.9009 29.149 11.9009 28.5233V20.4485L15.2332 18.5208L18.5655 20.4485V28.5233C18.5655 29.149 19.0983 29.6561 19.7556 29.6561H29.2763C29.9336 29.6561 30.4664 29.149 30.4664 28.5233V19.4608C30.4664 18.8352 29.9336 18.328 29.2763 18.328ZM11.6629 4.73425H18.8035V11.5311H11.6629V4.73425ZM9.52075 27.3905H2.38019V20.5936H9.52075V27.3905ZM28.0862 27.3905H20.9457V20.5936H28.0862V27.3905Z" fill="black"/>
</svg>
