<svg width="29" height="27" viewBox="0 0 29 27" fill="none" xmlns="http://www.w3.org/2000/svg">
<path d="M20.8306 6.11719H8.64241C6.80953 6.11719 5.31836 7.53659 5.31836 9.28125V17.7188C5.31836 19.4634 6.80953 20.8828 8.64241 20.8828H20.8306C21.4426 20.8828 21.9386 20.4106 21.9386 19.8281V16.6641H23.0467C23.6586 16.6641 24.1547 16.1919 24.1547 15.6094V11.3906C24.1547 10.8081 23.6586 10.3359 23.0467 10.3359H21.9386V7.17188C21.9386 6.58937 21.4426 6.11719 20.8306 6.11719ZM19.7226 18.7734H8.64241C8.03145 18.7734 7.5344 18.3003 7.5344 17.7188V9.28125C7.5344 8.6997 8.03145 8.22656 8.64241 8.22656H19.7226V10.3359H18.6146C16.7817 10.3359 15.2905 11.7553 15.2905 13.5C15.2905 15.2447 16.7817 16.6641 18.6146 16.6641H19.7226V18.7734ZM21.9386 14.5547H18.6146C18.0036 14.5547 17.5066 14.0816 17.5066 13.5C17.5066 12.9184 18.0036 12.4453 18.6146 12.4453H21.9386V14.5547Z" fill="black"/>
<path d="M14.1831 0C11.4134 0 8.72849 0.754893 6.42697 2.15604V1.05469C6.42697 0.472184 5.93091 0 5.31896 0C4.707 0 4.21094 0.472184 4.21094 1.05469V4.27739C4.21094 4.69336 4.46783 5.07046 4.86677 5.24021C5.26583 5.40997 5.7323 5.34067 6.05789 5.06324C8.29376 3.15842 11.1793 2.10938 14.1831 2.10938C20.8934 2.10938 26.1497 7.11271 26.1497 13.5C26.1497 15.5402 25.5859 17.5461 24.5193 19.3009C24.2128 19.8051 24.3938 20.4503 24.9235 20.742C25.4531 21.0336 26.131 20.8614 26.4374 20.3573C27.6989 18.2818 28.3657 15.9106 28.3657 13.5C28.3657 5.92987 22.136 0 14.1831 0Z" fill="black"/>
<path d="M23.499 21.7597C23.1 21.59 22.6335 21.6593 22.3079 21.9367C20.072 23.8416 17.1864 24.8906 14.1826 24.8906C7.47236 24.8906 2.21604 19.8873 2.21604 13.5C2.21604 11.5152 2.75132 9.55693 3.76394 7.837C4.0631 7.32885 3.87291 6.68607 3.33907 6.40131C2.80534 6.11654 2.12994 6.29758 1.83078 6.80573C0.633066 8.84001 0 11.1548 0 13.5C0 21.0701 6.22978 27 14.1826 27C16.9523 27 19.6372 26.2451 21.9388 24.8439V25.9453C21.9388 26.5278 22.4348 27 23.0468 27C23.6587 27 24.1548 26.5277 24.1548 25.9453V22.7226C24.1548 22.3066 23.898 21.9295 23.499 21.7597V21.7597Z" fill="black"/>
</svg>
