<svg width="697" height="329" viewBox="0 0 697 329" fill="none" xmlns="http://www.w3.org/2000/svg">
<g filter="url(#filter0_d_24_1599)">
<rect x="10" y="6.80078" width="676.126" height="307.226" rx="50" fill="white"/>
</g>
<path d="M271.822 43.8169V30.4069H280.84V32.8369H274.612V35.8789H280.48V38.3089H274.612V41.3869H280.84V43.8169H271.822ZM282.35 43.8169L285.788 38.8849L282.332 33.9889H285.464L288.056 37.8049H286.688L289.28 33.9889H292.412L288.956 38.8849L292.376 43.8169H289.262L286.724 40.0009H288.02L285.482 43.8169H282.35ZM297.367 44.0329C296.659 44.0329 296.047 43.9189 295.531 43.6909C295.015 43.4629 294.619 43.1389 294.343 42.7189C294.067 42.2869 293.929 41.7769 293.929 41.1889C293.929 40.6369 294.055 40.1509 294.307 39.7309C294.559 39.2989 294.943 38.9389 295.459 38.6509C295.987 38.3629 296.641 38.1589 297.421 38.0389L300.427 37.5529V39.5329L297.907 39.9829C297.523 40.0549 297.229 40.1809 297.025 40.3609C296.821 40.5289 296.719 40.7749 296.719 41.0989C296.719 41.3989 296.833 41.6329 297.061 41.8009C297.289 41.9689 297.571 42.0529 297.907 42.0529C298.351 42.0529 298.741 41.9569 299.077 41.7649C299.413 41.5729 299.671 41.3149 299.851 40.9909C300.043 40.6549 300.139 40.2889 300.139 39.8929V37.3369C300.139 36.9649 299.989 36.6529 299.689 36.4009C299.401 36.1489 299.005 36.0229 298.501 36.0229C298.021 36.0229 297.595 36.1549 297.223 36.4189C296.863 36.6829 296.599 37.0309 296.431 37.4629L294.271 36.4369C294.463 35.8849 294.769 35.4109 295.189 35.0149C295.609 34.6189 296.113 34.3129 296.701 34.0969C297.289 33.8809 297.931 33.7729 298.627 33.7729C299.455 33.7729 300.187 33.9229 300.823 34.2229C301.459 34.5229 301.951 34.9429 302.299 35.4829C302.659 36.0109 302.839 36.6289 302.839 37.3369V43.8169H300.319V42.2329L300.931 42.1249C300.643 42.5569 300.325 42.9169 299.977 43.2049C299.629 43.4809 299.239 43.6849 298.807 43.8169C298.375 43.9609 297.895 44.0329 297.367 44.0329ZM305.719 43.8169V33.9889H308.239V36.3829L307.969 35.9869C308.113 35.2309 308.461 34.6729 309.013 34.3129C309.565 33.9529 310.225 33.7729 310.993 33.7729C311.809 33.7729 312.523 33.9829 313.135 34.4029C313.759 34.8109 314.149 35.3629 314.305 36.0589L313.531 36.1309C313.855 35.3269 314.317 34.7329 314.917 34.3489C315.517 33.9649 316.219 33.7729 317.023 33.7729C317.731 33.7729 318.355 33.9289 318.895 34.2409C319.447 34.5529 319.879 34.9909 320.191 35.5549C320.503 36.1069 320.659 36.7549 320.659 37.4989V43.8169H317.959V38.0749C317.959 37.6909 317.887 37.3609 317.743 37.0849C317.611 36.8089 317.419 36.5929 317.167 36.4369C316.915 36.2809 316.609 36.2029 316.249 36.2029C315.901 36.2029 315.595 36.2809 315.331 36.4369C315.079 36.5929 314.881 36.8089 314.737 37.0849C314.605 37.3609 314.539 37.6909 314.539 38.0749V43.8169H311.839V38.0749C311.839 37.6909 311.767 37.3609 311.623 37.0849C311.491 36.8089 311.299 36.5929 311.047 36.4369C310.795 36.2809 310.489 36.2029 310.129 36.2029C309.781 36.2029 309.475 36.2809 309.211 36.4369C308.959 36.5929 308.761 36.8089 308.617 37.0849C308.485 37.3609 308.419 37.6909 308.419 38.0749V43.8169H305.719ZM323.336 47.4169V33.9889H325.856V35.8609L325.622 35.3209C325.946 34.8289 326.384 34.4509 326.936 34.1869C327.5 33.9109 328.142 33.7729 328.862 33.7729C329.798 33.7729 330.644 34.0009 331.4 34.4569C332.156 34.9129 332.756 35.5309 333.2 36.3109C333.644 37.0789 333.866 37.9429 333.866 38.9029C333.866 39.8509 333.644 40.7149 333.2 41.4949C332.768 42.2749 332.174 42.8929 331.418 43.3489C330.662 43.8049 329.804 44.0329 328.844 44.0329C328.172 44.0329 327.548 43.9129 326.972 43.6729C326.408 43.4209 325.952 43.0549 325.604 42.5749L326.036 42.0169V47.4169H323.336ZM328.52 41.6029C329.024 41.6029 329.468 41.4889 329.852 41.2609C330.236 41.0329 330.536 40.7149 330.752 40.3069C330.968 39.8989 331.076 39.4309 331.076 38.9029C331.076 38.3749 330.968 37.9129 330.752 37.5169C330.536 37.1089 330.236 36.7909 329.852 36.5629C329.468 36.3229 329.024 36.2029 328.52 36.2029C328.04 36.2029 327.608 36.3169 327.224 36.5449C326.852 36.7729 326.558 37.0909 326.342 37.4989C326.138 37.9069 326.036 38.3749 326.036 38.9029C326.036 39.4309 326.138 39.8989 326.342 40.3069C326.558 40.7149 326.852 41.0329 327.224 41.2609C327.608 41.4889 328.04 41.6029 328.52 41.6029ZM336.347 43.8169V30.1909H339.047V43.8169H336.347ZM346.657 44.0329C345.613 44.0329 344.707 43.8049 343.939 43.3489C343.171 42.8809 342.577 42.2569 342.157 41.4769C341.737 40.6969 341.527 39.8329 341.527 38.8849C341.527 37.9009 341.743 37.0249 342.175 36.2569C342.619 35.4889 343.213 34.8829 343.957 34.4389C344.701 33.9949 345.541 33.7729 346.477 33.7729C347.257 33.7729 347.947 33.8989 348.547 34.1509C349.147 34.3909 349.651 34.7329 350.059 35.1769C350.479 35.6209 350.797 36.1369 351.013 36.7249C351.229 37.3009 351.337 37.9309 351.337 38.6149C351.337 38.8069 351.325 38.9989 351.301 39.1909C351.289 39.3709 351.259 39.5269 351.211 39.6589H343.849V37.6789H349.681L348.403 38.6149C348.523 38.0989 348.517 37.6429 348.385 37.2469C348.253 36.8389 348.019 36.5209 347.683 36.2929C347.359 36.0529 346.957 35.9329 346.477 35.9329C346.009 35.9329 345.607 36.0469 345.271 36.2749C344.935 36.5029 344.683 36.8389 344.515 37.2829C344.347 37.7269 344.281 38.2669 344.317 38.9029C344.269 39.4549 344.335 39.9409 344.515 40.3609C344.695 40.7809 344.971 41.1109 345.343 41.3509C345.715 41.5789 346.165 41.6929 346.693 41.6929C347.173 41.6929 347.581 41.5969 347.917 41.4049C348.265 41.2129 348.535 40.9489 348.727 40.6129L350.887 41.6389C350.695 42.1189 350.389 42.5389 349.969 42.8989C349.561 43.2589 349.075 43.5409 348.511 43.7449C347.947 43.9369 347.329 44.0329 346.657 44.0329ZM360.031 43.8169V32.7649H357.421V30.4069H362.821V43.8169H360.031ZM371.097 40.0729V37.7329H379.197V40.0729H371.097ZM392.4 44.0329C391.344 44.0329 390.402 43.8109 389.574 43.3669C388.746 42.9229 388.092 42.3169 387.612 41.5489C387.144 40.7689 386.91 39.8869 386.91 38.9029V30.4069H389.7V38.7229C389.7 39.2509 389.814 39.7309 390.042 40.1629C390.282 40.5829 390.606 40.9129 391.014 41.1529C391.422 41.3929 391.884 41.5129 392.4 41.5129C392.928 41.5129 393.39 41.3929 393.786 41.1529C394.194 40.9129 394.512 40.5829 394.74 40.1629C394.98 39.7309 395.1 39.2509 395.1 38.7229V30.4069H397.89V38.9029C397.89 39.8869 397.65 40.7689 397.17 41.5489C396.702 42.3169 396.054 42.9229 395.226 43.3669C394.398 43.8109 393.456 44.0329 392.4 44.0329ZM400.997 43.8169V30.4069H406.127C407.051 30.4069 407.867 30.5689 408.575 30.8929C409.295 31.2169 409.859 31.6969 410.267 32.3329C410.675 32.9689 410.879 33.7549 410.879 34.6909C410.879 35.6029 410.669 36.3829 410.249 37.0309C409.829 37.6669 409.265 38.1469 408.557 38.4709L411.617 43.8169H408.485L405.173 37.8949L406.973 38.9569H403.787V43.8169H400.997ZM403.787 36.5269H406.145C406.541 36.5269 406.883 36.4489 407.171 36.2929C407.459 36.1369 407.681 35.9209 407.837 35.6449C408.005 35.3689 408.089 35.0509 408.089 34.6909C408.089 34.3189 408.005 33.9949 407.837 33.7189C407.681 33.4429 407.459 33.2269 407.171 33.0709C406.883 32.9149 406.541 32.8369 406.145 32.8369H403.787V36.5269ZM419.231 44.0329C418.175 44.0329 417.233 43.8109 416.405 43.3669C415.577 42.9229 414.923 42.3169 414.443 41.5489C413.975 40.7689 413.741 39.8869 413.741 38.9029V30.4069H416.531V38.7229C416.531 39.2509 416.645 39.7309 416.873 40.1629C417.113 40.5829 417.437 40.9129 417.845 41.1529C418.253 41.3929 418.715 41.5129 419.231 41.5129C419.759 41.5129 420.221 41.3929 420.617 41.1529C421.025 40.9129 421.343 40.5829 421.571 40.1629C421.811 39.7309 421.931 39.2509 421.931 38.7229V30.4069H424.721V38.9029C424.721 39.8869 424.481 40.7689 424.001 41.5489C423.533 42.3169 422.885 42.9229 422.057 43.3669C421.229 43.8109 420.287 44.0329 419.231 44.0329ZM432.706 44.0329C431.866 44.0329 431.074 43.8829 430.33 43.5829C429.598 43.2709 428.962 42.8329 428.422 42.2689C427.894 41.7049 427.498 41.0389 427.234 40.2709L429.52 39.2449C429.856 39.9769 430.318 40.5529 430.906 40.9729C431.506 41.3929 432.166 41.6029 432.886 41.6029C433.27 41.6029 433.6 41.5429 433.876 41.4229C434.152 41.3029 434.368 41.1409 434.524 40.9369C434.68 40.7209 434.758 40.4689 434.758 40.1809C434.758 39.8689 434.662 39.6049 434.47 39.3889C434.278 39.1609 433.978 38.9809 433.57 38.8489L430.942 37.9849C429.874 37.6369 429.07 37.1449 428.53 36.5089C427.99 35.8609 427.72 35.0869 427.72 34.1869C427.72 33.3949 427.912 32.6989 428.296 32.0989C428.692 31.4989 429.238 31.0309 429.934 30.6949C430.642 30.3589 431.452 30.1909 432.364 30.1909C433.168 30.1909 433.912 30.3289 434.596 30.6049C435.28 30.8809 435.868 31.2709 436.36 31.7749C436.864 32.2789 437.242 32.8849 437.494 33.5929L435.226 34.6189C434.974 33.9949 434.596 33.5089 434.092 33.1609C433.588 32.8009 433.012 32.6209 432.364 32.6209C431.992 32.6209 431.662 32.6809 431.374 32.8009C431.086 32.9209 430.864 33.0949 430.708 33.3229C430.552 33.5389 430.474 33.7909 430.474 34.0789C430.474 34.3909 430.576 34.6669 430.78 34.9069C430.984 35.1349 431.29 35.3149 431.698 35.4469L434.272 36.2749C435.352 36.6229 436.156 37.1089 436.684 37.7329C437.224 38.3569 437.494 39.1189 437.494 40.0189C437.494 40.7989 437.29 41.4949 436.882 42.1069C436.474 42.7069 435.91 43.1809 435.19 43.5289C434.482 43.8649 433.654 44.0329 432.706 44.0329Z" fill="black"/>
<path d="M68.6094 276.392V262.692H64.4494V261.492H74.0494V262.692H69.9094V276.392H68.6094ZM76.0233 276.392V261.252H77.2233V267.912L76.9233 267.832C77.1633 267.125 77.5899 266.565 78.2033 266.152C78.8299 265.738 79.5566 265.532 80.3833 265.532C81.1166 265.532 81.7833 265.698 82.3833 266.032C82.9833 266.365 83.4633 266.832 83.8233 267.432C84.1833 268.018 84.3633 268.692 84.3633 269.452V276.392H83.1633V269.792C83.1633 269.152 83.0299 268.605 82.7633 268.152C82.5099 267.685 82.1566 267.332 81.7033 267.092C81.2633 266.838 80.7633 266.712 80.2033 266.712C79.6033 266.712 79.0766 266.852 78.6233 267.132C78.1833 267.412 77.8366 267.798 77.5833 268.292C77.3433 268.785 77.2233 269.352 77.2233 269.992V276.392H76.0233ZM92.3286 276.632C91.3286 276.632 90.4286 276.392 89.6286 275.912C88.8286 275.418 88.1953 274.752 87.7286 273.912C87.2619 273.058 87.0286 272.105 87.0286 271.052C87.0286 269.998 87.2553 269.058 87.7086 268.232C88.1619 267.392 88.7753 266.732 89.5486 266.252C90.3219 265.772 91.1886 265.532 92.1486 265.532C92.8819 265.532 93.5419 265.665 94.1286 265.932C94.7286 266.198 95.2419 266.572 95.6686 267.052C96.1086 267.518 96.4419 268.058 96.6686 268.672C96.9086 269.272 97.0286 269.905 97.0286 270.572C97.0286 270.705 97.0219 270.845 97.0086 270.992C96.9953 271.138 96.9753 271.292 96.9486 271.452H87.7286V270.352H96.2686L95.7286 270.772C95.8086 269.998 95.6953 269.305 95.3886 268.692C95.0819 268.065 94.6419 267.572 94.0686 267.212C93.5086 266.838 92.8686 266.652 92.1486 266.652C91.4286 266.652 90.7686 266.845 90.1686 267.232C89.5686 267.605 89.0953 268.125 88.7486 268.792C88.4019 269.445 88.2419 270.205 88.2686 271.072C88.2419 271.938 88.4086 272.705 88.7686 273.372C89.1286 274.038 89.6219 274.565 90.2486 274.952C90.8753 275.325 91.5686 275.512 92.3286 275.512C93.1019 275.512 93.7753 275.332 94.3486 274.972C94.9219 274.598 95.3886 274.105 95.7486 273.492L96.7686 274.032C96.5286 274.525 96.1886 274.972 95.7486 275.372C95.3086 275.758 94.7953 276.065 94.2086 276.292C93.6353 276.518 93.0086 276.632 92.3286 276.632ZM107.051 276.512C106.171 276.512 105.491 276.265 105.011 275.772C104.531 275.265 104.291 274.532 104.291 273.572V266.912H102.291V265.772H103.051C103.451 265.772 103.758 265.652 103.971 265.412C104.185 265.172 104.291 264.845 104.291 264.432V263.292H105.491V265.772H107.811V266.912H105.491V273.572C105.491 273.865 105.531 274.152 105.611 274.432C105.705 274.712 105.878 274.938 106.131 275.112C106.385 275.285 106.751 275.372 107.231 275.372C107.338 275.372 107.465 275.365 107.611 275.352C107.771 275.338 107.898 275.325 107.991 275.312V276.392C107.845 276.432 107.678 276.458 107.491 276.472C107.305 276.498 107.158 276.512 107.051 276.512ZM115.416 276.632C114.403 276.632 113.49 276.392 112.676 275.912C111.863 275.432 111.216 274.772 110.736 273.932C110.27 273.078 110.036 272.125 110.036 271.072C110.036 270.018 110.27 269.072 110.736 268.232C111.216 267.392 111.856 266.732 112.656 266.252C113.47 265.772 114.39 265.532 115.416 265.532C116.43 265.532 117.343 265.772 118.156 266.252C118.97 266.732 119.61 267.392 120.076 268.232C120.543 269.058 120.776 270.005 120.776 271.072C120.776 272.138 120.536 273.092 120.056 273.932C119.576 274.772 118.93 275.432 118.116 275.912C117.316 276.392 116.416 276.632 115.416 276.632ZM115.416 275.452C116.176 275.452 116.863 275.265 117.476 274.892C118.103 274.505 118.596 273.978 118.956 273.312C119.316 272.645 119.496 271.898 119.496 271.072C119.496 270.245 119.316 269.505 118.956 268.852C118.596 268.198 118.11 267.678 117.496 267.292C116.883 266.905 116.19 266.712 115.416 266.712C114.643 266.712 113.943 266.905 113.316 267.292C112.703 267.665 112.216 268.185 111.856 268.852C111.496 269.505 111.316 270.245 111.316 271.072C111.316 271.898 111.496 272.645 111.856 273.312C112.23 273.978 112.723 274.505 113.336 274.892C113.95 275.265 114.643 275.452 115.416 275.452ZM127.325 276.512C126.445 276.512 125.765 276.265 125.285 275.772C124.805 275.265 124.565 274.532 124.565 273.572V266.912H122.565V265.772H123.325C123.725 265.772 124.031 265.652 124.245 265.412C124.458 265.172 124.565 264.845 124.565 264.432V263.292H125.765V265.772H128.085V266.912H125.765V273.572C125.765 273.865 125.805 274.152 125.885 274.432C125.978 274.712 126.151 274.938 126.405 275.112C126.658 275.285 127.025 275.372 127.505 275.372C127.611 275.372 127.738 275.365 127.885 275.352C128.045 275.338 128.171 275.325 128.265 275.312V276.392C128.118 276.432 127.951 276.458 127.765 276.472C127.578 276.498 127.431 276.512 127.325 276.512ZM133.888 276.632C133.221 276.632 132.628 276.505 132.108 276.252C131.588 275.998 131.174 275.645 130.868 275.192C130.561 274.738 130.408 274.218 130.408 273.632C130.408 273.112 130.521 272.625 130.748 272.172C130.974 271.718 131.341 271.332 131.848 271.012C132.354 270.678 133.014 270.445 133.828 270.312L138.128 269.592V270.712L134.148 271.372C133.241 271.518 132.601 271.792 132.228 272.192C131.854 272.592 131.668 273.058 131.668 273.592C131.668 274.165 131.881 274.632 132.308 274.992C132.748 275.352 133.301 275.532 133.968 275.532C134.741 275.532 135.414 275.358 135.988 275.012C136.561 274.652 137.008 274.185 137.328 273.612C137.648 273.025 137.808 272.385 137.808 271.692V269.052C137.808 268.345 137.554 267.772 137.048 267.332C136.541 266.892 135.881 266.672 135.067 266.672C134.401 266.672 133.801 266.838 133.268 267.172C132.734 267.505 132.328 267.938 132.048 268.472L130.968 267.892C131.168 267.465 131.474 267.072 131.888 266.712C132.301 266.352 132.781 266.065 133.328 265.852C133.874 265.638 134.454 265.532 135.067 265.532C135.841 265.532 136.521 265.685 137.108 265.992C137.708 266.285 138.174 266.698 138.508 267.232C138.841 267.752 139.008 268.358 139.008 269.052V276.392H137.808V274.172L137.948 274.272C137.774 274.698 137.488 275.092 137.088 275.452C136.688 275.798 136.214 276.085 135.668 276.312C135.134 276.525 134.541 276.632 133.888 276.632ZM142.312 276.392V261.252H143.512V276.392H142.312ZM153.965 276.512C153.085 276.512 152.405 276.265 151.925 275.772C151.445 275.265 151.205 274.532 151.205 273.572V266.912H149.205V265.772H149.965C150.365 265.772 150.672 265.652 150.885 265.412C151.099 265.172 151.205 264.845 151.205 264.432V263.292H152.405V265.772H154.725V266.912H152.405V273.572C152.405 273.865 152.445 274.152 152.525 274.432C152.619 274.712 152.792 274.938 153.045 275.112C153.299 275.285 153.665 275.372 154.145 275.372C154.252 275.372 154.379 275.365 154.525 275.352C154.685 275.338 154.812 275.325 154.905 275.312V276.392C154.759 276.432 154.592 276.458 154.405 276.472C154.219 276.498 154.072 276.512 153.965 276.512ZM162.25 276.632C161.25 276.632 160.35 276.392 159.55 275.912C158.75 275.418 158.117 274.752 157.65 273.912C157.184 273.058 156.95 272.105 156.95 271.052C156.95 269.998 157.177 269.058 157.63 268.232C158.084 267.392 158.697 266.732 159.47 266.252C160.244 265.772 161.11 265.532 162.07 265.532C162.804 265.532 163.464 265.665 164.05 265.932C164.65 266.198 165.164 266.572 165.59 267.052C166.03 267.518 166.364 268.058 166.59 268.672C166.83 269.272 166.95 269.905 166.95 270.572C166.95 270.705 166.944 270.845 166.93 270.992C166.917 271.138 166.897 271.292 166.87 271.452H157.65V270.352H166.19L165.65 270.772C165.73 269.998 165.617 269.305 165.31 268.692C165.004 268.065 164.564 267.572 163.99 267.212C163.43 266.838 162.79 266.652 162.07 266.652C161.35 266.652 160.69 266.845 160.09 267.232C159.49 267.605 159.017 268.125 158.67 268.792C158.324 269.445 158.164 270.205 158.19 271.072C158.164 271.938 158.33 272.705 158.69 273.372C159.05 274.038 159.544 274.565 160.17 274.952C160.797 275.325 161.49 275.512 162.25 275.512C163.024 275.512 163.697 275.332 164.27 274.972C164.844 274.598 165.31 274.105 165.67 273.492L166.69 274.032C166.45 274.525 166.11 274.972 165.67 275.372C165.23 275.758 164.717 276.065 164.13 276.292C163.557 276.518 162.93 276.632 162.25 276.632ZM172.657 276.632C171.99 276.632 171.397 276.505 170.877 276.252C170.357 275.998 169.944 275.645 169.637 275.192C169.33 274.738 169.177 274.218 169.177 273.632C169.177 273.112 169.29 272.625 169.517 272.172C169.744 271.718 170.11 271.332 170.617 271.012C171.124 270.678 171.784 270.445 172.597 270.312L176.897 269.592V270.712L172.917 271.372C172.01 271.518 171.37 271.792 170.997 272.192C170.624 272.592 170.437 273.058 170.437 273.592C170.437 274.165 170.65 274.632 171.077 274.992C171.517 275.352 172.07 275.532 172.737 275.532C173.51 275.532 174.184 275.358 174.757 275.012C175.33 274.652 175.777 274.185 176.097 273.612C176.417 273.025 176.577 272.385 176.577 271.692V269.052C176.577 268.345 176.324 267.772 175.817 267.332C175.31 266.892 174.65 266.672 173.837 266.672C173.17 266.672 172.57 266.838 172.037 267.172C171.504 267.505 171.097 267.938 170.817 268.472L169.737 267.892C169.937 267.465 170.244 267.072 170.657 266.712C171.07 266.352 171.55 266.065 172.097 265.852C172.644 265.638 173.224 265.532 173.837 265.532C174.61 265.532 175.29 265.685 175.877 265.992C176.477 266.285 176.944 266.698 177.277 267.232C177.61 267.752 177.777 268.358 177.777 269.052V276.392H176.577V274.172L176.717 274.272C176.544 274.698 176.257 275.092 175.857 275.452C175.457 275.798 174.984 276.085 174.437 276.312C173.904 276.525 173.31 276.632 172.657 276.632ZM181.082 276.392V265.772H182.282V267.912L182.062 267.612C182.329 266.972 182.755 266.465 183.342 266.092C183.942 265.718 184.609 265.532 185.342 265.532C186.169 265.532 186.922 265.772 187.602 266.252C188.282 266.718 188.755 267.345 189.022 268.132L188.642 268.152C188.869 267.338 189.315 266.698 189.982 266.232C190.662 265.765 191.415 265.532 192.242 265.532C192.949 265.532 193.595 265.698 194.182 266.032C194.782 266.365 195.262 266.832 195.622 267.432C195.995 268.018 196.182 268.692 196.182 269.452V276.392H194.982V269.792C194.982 269.152 194.849 268.605 194.582 268.152C194.329 267.685 193.989 267.332 193.562 267.092C193.135 266.838 192.655 266.712 192.122 266.712C191.549 266.712 191.042 266.852 190.602 267.132C190.175 267.412 189.835 267.798 189.582 268.292C189.342 268.785 189.222 269.352 189.222 269.992V276.392H188.022V269.792C188.022 269.152 187.895 268.605 187.642 268.152C187.389 267.685 187.042 267.332 186.602 267.092C186.175 266.838 185.695 266.712 185.162 266.712C184.589 266.712 184.082 266.852 183.642 267.132C183.215 267.412 182.882 267.798 182.642 268.292C182.402 268.785 182.282 269.352 182.282 269.992V276.392H181.082ZM206.426 276.512C205.546 276.512 204.866 276.265 204.386 275.772C203.906 275.265 203.666 274.532 203.666 273.572V266.912H201.666V265.772H202.426C202.826 265.772 203.133 265.652 203.346 265.412C203.56 265.172 203.666 264.845 203.666 264.432V263.292H204.866V265.772H207.186V266.912H204.866V273.572C204.866 273.865 204.906 274.152 204.986 274.432C205.08 274.712 205.253 274.938 205.506 275.112C205.76 275.285 206.126 275.372 206.606 275.372C206.713 275.372 206.84 275.365 206.986 275.352C207.146 275.338 207.273 275.325 207.366 275.312V276.392C207.22 276.432 207.053 276.458 206.866 276.472C206.68 276.498 206.533 276.512 206.426 276.512ZM214.002 276.632C213.282 276.632 212.615 276.465 212.002 276.132C211.402 275.798 210.922 275.332 210.562 274.732C210.202 274.118 210.022 273.392 210.022 272.552V265.772H211.222V272.452C211.222 273.078 211.349 273.618 211.602 274.072C211.869 274.512 212.222 274.852 212.662 275.092C213.115 275.332 213.622 275.452 214.182 275.452C214.795 275.452 215.322 275.312 215.762 275.032C216.215 274.752 216.562 274.365 216.802 273.872C217.042 273.365 217.162 272.792 217.162 272.152V265.772H218.362V276.392H217.162V274.232L217.462 274.332C217.222 275.025 216.795 275.585 216.182 276.012C215.569 276.425 214.842 276.632 214.002 276.632ZM221.687 276.392V265.772H222.887V267.752L222.667 267.572C222.894 266.972 223.281 266.498 223.827 266.152C224.387 265.805 225.047 265.632 225.807 265.632H226.487V266.832H225.667C224.801 266.832 224.121 267.112 223.627 267.672C223.134 268.218 222.887 268.958 222.887 269.892V276.392H221.687ZM228.465 276.392V265.772H229.665V267.912L229.365 267.832C229.605 267.125 230.031 266.565 230.645 266.152C231.271 265.738 231.998 265.532 232.825 265.532C233.558 265.532 234.225 265.698 234.825 266.032C235.425 266.365 235.905 266.832 236.265 267.432C236.625 268.018 236.805 268.692 236.805 269.452V276.392H235.605V269.792C235.605 269.152 235.478 268.605 235.225 268.152C234.971 267.685 234.618 267.332 234.165 267.092C233.725 266.838 233.218 266.712 232.645 266.712C232.045 266.712 231.518 266.852 231.065 267.132C230.611 267.412 230.265 267.798 230.025 268.292C229.785 268.785 229.665 269.352 229.665 269.992V276.392H228.465ZM244.85 276.632C243.837 276.632 242.923 276.392 242.11 275.912C241.297 275.432 240.65 274.772 240.17 273.932C239.703 273.078 239.47 272.125 239.47 271.072C239.47 270.018 239.703 269.072 240.17 268.232C240.65 267.392 241.29 266.732 242.09 266.252C242.903 265.772 243.823 265.532 244.85 265.532C245.863 265.532 246.777 265.772 247.59 266.252C248.403 266.732 249.043 267.392 249.51 268.232C249.977 269.058 250.21 270.005 250.21 271.072C250.21 272.138 249.97 273.092 249.49 273.932C249.01 274.772 248.363 275.432 247.55 275.912C246.75 276.392 245.85 276.632 244.85 276.632ZM244.85 275.452C245.61 275.452 246.297 275.265 246.91 274.892C247.537 274.505 248.03 273.978 248.39 273.312C248.75 272.645 248.93 271.898 248.93 271.072C248.93 270.245 248.75 269.505 248.39 268.852C248.03 268.198 247.543 267.678 246.93 267.292C246.317 266.905 245.623 266.712 244.85 266.712C244.077 266.712 243.377 266.905 242.75 267.292C242.137 267.665 241.65 268.185 241.29 268.852C240.93 269.505 240.75 270.245 240.75 271.072C240.75 271.898 240.93 272.645 241.29 273.312C241.663 273.978 242.157 274.505 242.77 274.892C243.383 275.265 244.077 275.452 244.85 275.452ZM255.778 276.392L251.578 265.772H252.918L256.638 275.332H256.178L259.898 265.772H261.278L257.018 276.392H255.778ZM267.915 276.632C266.915 276.632 266.015 276.392 265.215 275.912C264.415 275.418 263.781 274.752 263.315 273.912C262.848 273.058 262.615 272.105 262.615 271.052C262.615 269.998 262.841 269.058 263.295 268.232C263.748 267.392 264.361 266.732 265.135 266.252C265.908 265.772 266.775 265.532 267.735 265.532C268.468 265.532 269.128 265.665 269.715 265.932C270.315 266.198 270.828 266.572 271.255 267.052C271.695 267.518 272.028 268.058 272.255 268.672C272.495 269.272 272.615 269.905 272.615 270.572C272.615 270.705 272.608 270.845 272.595 270.992C272.581 271.138 272.561 271.292 272.535 271.452H263.315V270.352H271.855L271.315 270.772C271.395 269.998 271.281 269.305 270.975 268.692C270.668 268.065 270.228 267.572 269.655 267.212C269.095 266.838 268.455 266.652 267.735 266.652C267.015 266.652 266.355 266.845 265.755 267.232C265.155 267.605 264.681 268.125 264.335 268.792C263.988 269.445 263.828 270.205 263.855 271.072C263.828 271.938 263.995 272.705 264.355 273.372C264.715 274.038 265.208 274.565 265.835 274.952C266.461 275.325 267.155 275.512 267.915 275.512C268.688 275.512 269.361 275.332 269.935 274.972C270.508 274.598 270.975 274.105 271.335 273.492L272.355 274.032C272.115 274.525 271.775 274.972 271.335 275.372C270.895 275.758 270.381 276.065 269.795 276.292C269.221 276.518 268.595 276.632 267.915 276.632ZM275.476 276.392V265.772H276.676V267.752L276.456 267.572C276.683 266.972 277.07 266.498 277.616 266.152C278.176 265.805 278.836 265.632 279.596 265.632H280.276V266.832H279.456C278.59 266.832 277.91 267.112 277.416 267.672C276.923 268.218 276.676 268.958 276.676 269.892V276.392H275.476ZM289.415 276.512C288.535 276.512 287.855 276.265 287.375 275.772C286.895 275.265 286.655 274.532 286.655 273.572V266.912H284.655V265.772H285.415C285.815 265.772 286.121 265.652 286.335 265.412C286.548 265.172 286.655 264.845 286.655 264.432V263.292H287.855V265.772H290.175V266.912H287.855V273.572C287.855 273.865 287.895 274.152 287.975 274.432C288.068 274.712 288.241 274.938 288.495 275.112C288.748 275.285 289.115 275.372 289.595 275.372C289.701 275.372 289.828 275.365 289.975 275.352C290.135 275.338 290.261 275.325 290.355 275.312V276.392C290.208 276.432 290.041 276.458 289.855 276.472C289.668 276.498 289.521 276.512 289.415 276.512ZM297.78 276.632C296.766 276.632 295.853 276.392 295.04 275.912C294.226 275.432 293.58 274.772 293.1 273.932C292.633 273.078 292.4 272.125 292.4 271.072C292.4 270.018 292.633 269.072 293.1 268.232C293.58 267.392 294.22 266.732 295.02 266.252C295.833 265.772 296.753 265.532 297.78 265.532C298.793 265.532 299.706 265.772 300.52 266.252C301.333 266.732 301.973 267.392 302.44 268.232C302.906 269.058 303.14 270.005 303.14 271.072C303.14 272.138 302.9 273.092 302.42 273.932C301.94 274.772 301.293 275.432 300.48 275.912C299.68 276.392 298.78 276.632 297.78 276.632ZM297.78 275.452C298.54 275.452 299.226 275.265 299.84 274.892C300.466 274.505 300.96 273.978 301.32 273.312C301.68 272.645 301.86 271.898 301.86 271.072C301.86 270.245 301.68 269.505 301.32 268.852C300.96 268.198 300.473 267.678 299.86 267.292C299.246 266.905 298.553 266.712 297.78 266.712C297.006 266.712 296.306 266.905 295.68 267.292C295.066 267.665 294.58 268.185 294.22 268.852C293.86 269.505 293.68 270.245 293.68 271.072C293.68 271.898 293.86 272.645 294.22 273.312C294.593 273.978 295.086 274.505 295.7 274.892C296.313 275.265 297.006 275.452 297.78 275.452ZM318.224 280.392V273.692L318.424 273.972C318.051 274.798 317.477 275.452 316.704 275.932C315.944 276.398 315.077 276.632 314.104 276.632C313.117 276.632 312.224 276.392 311.424 275.912C310.637 275.418 310.017 274.752 309.564 273.912C309.111 273.072 308.884 272.125 308.884 271.072C308.884 270.018 309.111 269.072 309.564 268.232C310.017 267.392 310.637 266.732 311.424 266.252C312.224 265.772 313.117 265.532 314.104 265.532C315.077 265.532 315.944 265.765 316.704 266.232C317.464 266.685 318.037 267.298 318.424 268.072L318.224 268.452V265.772H319.424V280.392H318.224ZM314.144 275.432C314.917 275.432 315.604 275.245 316.204 274.872C316.817 274.485 317.304 273.965 317.664 273.312C318.024 272.645 318.204 271.898 318.204 271.072C318.204 270.245 318.024 269.505 317.664 268.852C317.304 268.198 316.817 267.685 316.204 267.312C315.604 266.925 314.917 266.732 314.144 266.732C313.384 266.732 312.704 266.925 312.104 267.312C311.504 267.685 311.031 268.198 310.684 268.852C310.337 269.505 310.164 270.245 310.164 271.072C310.164 271.898 310.337 272.645 310.684 273.312C311.031 273.965 311.504 274.485 312.104 274.872C312.704 275.245 313.384 275.432 314.144 275.432ZM326.502 276.632C325.782 276.632 325.115 276.465 324.502 276.132C323.902 275.798 323.422 275.332 323.062 274.732C322.702 274.118 322.522 273.392 322.522 272.552V265.772H323.722V272.452C323.722 273.078 323.849 273.618 324.102 274.072C324.369 274.512 324.722 274.852 325.162 275.092C325.615 275.332 326.122 275.452 326.682 275.452C327.295 275.452 327.822 275.312 328.262 275.032C328.715 274.752 329.062 274.365 329.302 273.872C329.542 273.365 329.662 272.792 329.662 272.152V265.772H330.862V276.392H329.662V274.232L329.962 274.332C329.722 275.025 329.295 275.585 328.682 276.012C328.069 276.425 327.342 276.632 326.502 276.632ZM337.227 276.632C336.561 276.632 335.967 276.505 335.447 276.252C334.927 275.998 334.514 275.645 334.207 275.192C333.901 274.738 333.747 274.218 333.747 273.632C333.747 273.112 333.861 272.625 334.087 272.172C334.314 271.718 334.681 271.332 335.187 271.012C335.694 270.678 336.354 270.445 337.167 270.312L341.467 269.592V270.712L337.487 271.372C336.581 271.518 335.941 271.792 335.567 272.192C335.194 272.592 335.007 273.058 335.007 273.592C335.007 274.165 335.221 274.632 335.647 274.992C336.087 275.352 336.641 275.532 337.307 275.532C338.081 275.532 338.754 275.358 339.327 275.012C339.901 274.652 340.347 274.185 340.667 273.612C340.987 273.025 341.147 272.385 341.147 271.692V269.052C341.147 268.345 340.894 267.772 340.387 267.332C339.881 266.892 339.221 266.672 338.407 266.672C337.741 266.672 337.141 266.838 336.607 267.172C336.074 267.505 335.667 267.938 335.387 268.472L334.307 267.892C334.507 267.465 334.814 267.072 335.227 266.712C335.641 266.352 336.121 266.065 336.667 265.852C337.214 265.638 337.794 265.532 338.407 265.532C339.181 265.532 339.861 265.685 340.447 265.992C341.047 266.285 341.514 266.698 341.847 267.232C342.181 267.752 342.347 268.358 342.347 269.052V276.392H341.147V274.172L341.287 274.272C341.114 274.698 340.827 275.092 340.427 275.452C340.027 275.798 339.554 276.085 339.007 276.312C338.474 276.525 337.881 276.632 337.227 276.632ZM345.652 276.392V261.252H346.852V276.392H345.652ZM350.144 276.392V265.772H351.344V276.392H350.144ZM350.144 263.692V261.492H351.344V263.692H350.144ZM355.737 276.392V266.912H353.577V265.772H355.737V264.752C355.737 264.005 355.883 263.372 356.177 262.852C356.483 262.332 356.897 261.938 357.417 261.672C357.937 261.392 358.51 261.252 359.137 261.252C359.283 261.252 359.43 261.265 359.577 261.292C359.737 261.305 359.87 261.325 359.977 261.352V262.432C359.87 262.405 359.743 262.392 359.597 262.392C359.45 262.378 359.337 262.372 359.257 262.372C358.563 262.372 358.003 262.572 357.577 262.972C357.15 263.358 356.937 263.952 356.937 264.752V265.772H359.577V266.912H356.937V276.392H355.737ZM362.47 280.792C362.283 280.792 362.076 280.772 361.85 280.732C361.636 280.705 361.43 280.658 361.23 280.592V279.472C361.39 279.512 361.57 279.545 361.77 279.572C361.983 279.598 362.176 279.612 362.35 279.612C363.003 279.598 363.516 279.438 363.89 279.132C364.263 278.825 364.603 278.318 364.91 277.612L365.67 275.832V276.952L361.17 265.772H362.49L366.35 275.412H365.87L369.75 265.772H371.09L366.13 277.872C365.943 278.312 365.696 278.758 365.39 279.212C365.083 279.665 364.69 280.038 364.21 280.332C363.743 280.638 363.163 280.792 362.47 280.792ZM377.494 276.392V266.912H375.334V265.772H377.494V264.752C377.494 264.005 377.641 263.372 377.934 262.852C378.241 262.332 378.654 261.938 379.174 261.672C379.694 261.392 380.268 261.252 380.894 261.252C381.041 261.252 381.188 261.265 381.334 261.292C381.494 261.305 381.628 261.325 381.734 261.352V262.432C381.628 262.405 381.501 262.392 381.354 262.392C381.208 262.378 381.094 262.372 381.014 262.372C380.321 262.372 379.761 262.572 379.334 262.972C378.908 263.358 378.694 263.952 378.694 264.752V265.772H381.334V266.912H378.694V276.392H377.494ZM388.522 276.632C387.509 276.632 386.595 276.392 385.782 275.912C384.969 275.432 384.322 274.772 383.842 273.932C383.375 273.078 383.142 272.125 383.142 271.072C383.142 270.018 383.375 269.072 383.842 268.232C384.322 267.392 384.962 266.732 385.762 266.252C386.575 265.772 387.495 265.532 388.522 265.532C389.535 265.532 390.449 265.772 391.262 266.252C392.075 266.732 392.715 267.392 393.182 268.232C393.649 269.058 393.882 270.005 393.882 271.072C393.882 272.138 393.642 273.092 393.162 273.932C392.682 274.772 392.035 275.432 391.222 275.912C390.422 276.392 389.522 276.632 388.522 276.632ZM388.522 275.452C389.282 275.452 389.969 275.265 390.582 274.892C391.209 274.505 391.702 273.978 392.062 273.312C392.422 272.645 392.602 271.898 392.602 271.072C392.602 270.245 392.422 269.505 392.062 268.852C391.702 268.198 391.215 267.678 390.602 267.292C389.989 266.905 389.295 266.712 388.522 266.712C387.749 266.712 387.049 266.905 386.422 267.292C385.809 267.665 385.322 268.185 384.962 268.852C384.602 269.505 384.422 270.245 384.422 271.072C384.422 271.898 384.602 272.645 384.962 273.312C385.335 273.978 385.829 274.505 386.442 274.892C387.055 275.265 387.749 275.452 388.522 275.452ZM396.765 276.392V265.772H397.965V267.752L397.745 267.572C397.972 266.972 398.359 266.498 398.905 266.152C399.465 265.805 400.125 265.632 400.885 265.632H401.565V266.832H400.745C399.879 266.832 399.199 267.112 398.705 267.672C398.212 268.218 397.965 268.958 397.965 269.892V276.392H396.765ZM410.704 276.512C409.824 276.512 409.144 276.265 408.664 275.772C408.184 275.265 407.944 274.532 407.944 273.572V266.912H405.944V265.772H406.704C407.104 265.772 407.41 265.652 407.624 265.412C407.837 265.172 407.944 264.845 407.944 264.432V263.292H409.144V265.772H411.464V266.912H409.144V273.572C409.144 273.865 409.184 274.152 409.264 274.432C409.357 274.712 409.53 274.938 409.784 275.112C410.037 275.285 410.404 275.372 410.884 275.372C410.99 275.372 411.117 275.365 411.264 275.352C411.424 275.338 411.55 275.325 411.644 275.312V276.392C411.497 276.432 411.33 276.458 411.144 276.472C410.957 276.498 410.81 276.512 410.704 276.512ZM414.519 276.392V261.252H415.719V267.912L415.419 267.832C415.659 267.125 416.086 266.565 416.699 266.152C417.326 265.738 418.053 265.532 418.879 265.532C419.613 265.532 420.279 265.698 420.879 266.032C421.479 266.365 421.959 266.832 422.319 267.432C422.679 268.018 422.859 268.692 422.859 269.452V276.392H421.659V269.792C421.659 269.152 421.526 268.605 421.259 268.152C421.006 267.685 420.653 267.332 420.199 267.092C419.759 266.838 419.259 266.712 418.699 266.712C418.099 266.712 417.573 266.852 417.119 267.132C416.679 267.412 416.333 267.798 416.079 268.292C415.839 268.785 415.719 269.352 415.719 269.992V276.392H414.519ZM425.965 276.392V265.772H427.165V276.392H425.965ZM425.965 263.692V261.492H427.165V263.692H425.965ZM434.037 276.632C433.05 276.632 432.184 276.385 431.437 275.892C430.69 275.398 430.144 274.725 429.797 273.872L430.837 273.392C431.17 274.045 431.617 274.565 432.177 274.952C432.737 275.325 433.357 275.512 434.037 275.512C434.73 275.512 435.31 275.345 435.777 275.012C436.257 274.665 436.497 274.212 436.497 273.652C436.497 273.305 436.404 273.012 436.217 272.772C436.044 272.532 435.817 272.338 435.537 272.192C435.257 272.032 434.957 271.912 434.637 271.832L432.997 271.372C432.077 271.118 431.397 270.745 430.957 270.252C430.53 269.758 430.317 269.178 430.317 268.512C430.317 267.912 430.47 267.392 430.777 266.952C431.084 266.498 431.497 266.152 432.017 265.912C432.537 265.658 433.11 265.532 433.737 265.532C434.617 265.532 435.417 265.758 436.137 266.212C436.857 266.665 437.364 267.278 437.657 268.052L436.577 268.552C436.297 267.952 435.904 267.485 435.397 267.152C434.89 266.805 434.33 266.632 433.717 266.632C433.077 266.632 432.557 266.805 432.157 267.152C431.757 267.485 431.557 267.912 431.557 268.432C431.557 268.765 431.637 269.045 431.797 269.272C431.957 269.485 432.164 269.665 432.417 269.812C432.684 269.945 432.957 270.052 433.237 270.132L435.017 270.652C435.884 270.892 436.55 271.272 437.017 271.792C437.497 272.312 437.737 272.925 437.737 273.632C437.737 274.205 437.577 274.718 437.257 275.172C436.937 275.625 436.497 275.985 435.937 276.252C435.377 276.505 434.744 276.632 434.037 276.632ZM443.914 280.392V265.772H445.114V268.452L444.914 268.072C445.314 267.298 445.887 266.685 446.634 266.232C447.394 265.765 448.261 265.532 449.234 265.532C450.234 265.532 451.127 265.772 451.914 266.252C452.701 266.732 453.321 267.392 453.774 268.232C454.227 269.072 454.454 270.025 454.454 271.092C454.454 272.132 454.227 273.072 453.774 273.912C453.321 274.752 452.701 275.418 451.914 275.912C451.127 276.392 450.234 276.632 449.234 276.632C448.261 276.632 447.387 276.398 446.614 275.932C445.854 275.452 445.287 274.798 444.914 273.972L445.114 273.692V280.392H443.914ZM449.194 275.432C449.954 275.432 450.634 275.245 451.234 274.872C451.834 274.485 452.307 273.965 452.654 273.312C453.001 272.645 453.174 271.898 453.174 271.072C453.174 270.245 453.001 269.505 452.654 268.852C452.307 268.198 451.834 267.685 451.234 267.312C450.634 266.925 449.954 266.732 449.194 266.732C448.434 266.732 447.747 266.925 447.134 267.312C446.521 267.685 446.034 268.198 445.674 268.852C445.314 269.505 445.134 270.245 445.134 271.072C445.134 271.898 445.314 272.645 445.674 273.312C446.034 273.965 446.514 274.485 447.114 274.872C447.727 275.245 448.421 275.432 449.194 275.432ZM462.272 276.632C461.259 276.632 460.345 276.392 459.532 275.912C458.719 275.432 458.072 274.772 457.592 273.932C457.125 273.078 456.892 272.125 456.892 271.072C456.892 270.018 457.125 269.072 457.592 268.232C458.072 267.392 458.712 266.732 459.512 266.252C460.325 265.772 461.245 265.532 462.272 265.532C463.285 265.532 464.199 265.772 465.012 266.252C465.825 266.732 466.465 267.392 466.932 268.232C467.399 269.058 467.632 270.005 467.632 271.072C467.632 272.138 467.392 273.092 466.912 273.932C466.432 274.772 465.785 275.432 464.972 275.912C464.172 276.392 463.272 276.632 462.272 276.632ZM462.272 275.452C463.032 275.452 463.719 275.265 464.332 274.892C464.959 274.505 465.452 273.978 465.812 273.312C466.172 272.645 466.352 271.898 466.352 271.072C466.352 270.245 466.172 269.505 465.812 268.852C465.452 268.198 464.965 267.678 464.352 267.292C463.739 266.905 463.045 266.712 462.272 266.712C461.499 266.712 460.799 266.905 460.172 267.292C459.559 267.665 459.072 268.185 458.712 268.852C458.352 269.505 458.172 270.245 458.172 271.072C458.172 271.898 458.352 272.645 458.712 273.312C459.085 273.978 459.579 274.505 460.192 274.892C460.805 275.265 461.499 275.452 462.272 275.452ZM475.455 276.632C474.442 276.632 473.529 276.392 472.715 275.912C471.902 275.432 471.255 274.772 470.775 273.932C470.309 273.078 470.075 272.125 470.075 271.072C470.075 270.018 470.309 269.072 470.775 268.232C471.255 267.392 471.895 266.732 472.695 266.252C473.509 265.772 474.429 265.532 475.455 265.532C476.469 265.532 477.382 265.772 478.195 266.252C479.009 266.732 479.649 267.392 480.115 268.232C480.582 269.058 480.815 270.005 480.815 271.072C480.815 272.138 480.575 273.092 480.095 273.932C479.615 274.772 478.969 275.432 478.155 275.912C477.355 276.392 476.455 276.632 475.455 276.632ZM475.455 275.452C476.215 275.452 476.902 275.265 477.515 274.892C478.142 274.505 478.635 273.978 478.995 273.312C479.355 272.645 479.535 271.898 479.535 271.072C479.535 270.245 479.355 269.505 478.995 268.852C478.635 268.198 478.149 267.678 477.535 267.292C476.922 266.905 476.229 266.712 475.455 266.712C474.682 266.712 473.982 266.905 473.355 267.292C472.742 267.665 472.255 268.185 471.895 268.852C471.535 269.505 471.355 270.245 471.355 271.072C471.355 271.898 471.535 272.645 471.895 273.312C472.269 273.978 472.762 274.505 473.375 274.892C473.989 275.265 474.682 275.452 475.455 275.452ZM483.699 276.392V261.252H484.899V276.392H483.699ZM491.492 276.392V265.772H492.692V276.392H491.492ZM491.492 263.692V261.492H492.692V263.692H491.492ZM499.564 276.632C498.578 276.632 497.711 276.385 496.964 275.892C496.218 275.398 495.671 274.725 495.324 273.872L496.364 273.392C496.698 274.045 497.144 274.565 497.704 274.952C498.264 275.325 498.884 275.512 499.564 275.512C500.258 275.512 500.838 275.345 501.304 275.012C501.784 274.665 502.024 274.212 502.024 273.652C502.024 273.305 501.931 273.012 501.744 272.772C501.571 272.532 501.344 272.338 501.064 272.192C500.784 272.032 500.484 271.912 500.164 271.832L498.524 271.372C497.604 271.118 496.924 270.745 496.484 270.252C496.058 269.758 495.844 269.178 495.844 268.512C495.844 267.912 495.998 267.392 496.304 266.952C496.611 266.498 497.024 266.152 497.544 265.912C498.064 265.658 498.638 265.532 499.264 265.532C500.144 265.532 500.944 265.758 501.664 266.212C502.384 266.665 502.891 267.278 503.184 268.052L502.104 268.552C501.824 267.952 501.431 267.485 500.924 267.152C500.418 266.805 499.858 266.632 499.244 266.632C498.604 266.632 498.084 266.805 497.684 267.152C497.284 267.485 497.084 267.912 497.084 268.432C497.084 268.765 497.164 269.045 497.324 269.272C497.484 269.485 497.691 269.665 497.944 269.812C498.211 269.945 498.484 270.052 498.764 270.132L500.544 270.652C501.411 270.892 502.078 271.272 502.544 271.792C503.024 272.312 503.264 272.925 503.264 273.632C503.264 274.205 503.104 274.718 502.784 275.172C502.464 275.625 502.024 275.985 501.464 276.252C500.904 276.505 500.271 276.632 499.564 276.632ZM514.501 276.632C513.555 276.632 512.701 276.452 511.941 276.092C511.195 275.732 510.568 275.258 510.061 274.672C509.568 274.085 509.215 273.452 509.001 272.772L510.161 272.352C510.535 273.365 511.088 274.138 511.821 274.672C512.568 275.205 513.455 275.472 514.481 275.472C515.161 275.472 515.755 275.358 516.261 275.132C516.781 274.905 517.188 274.585 517.481 274.172C517.775 273.758 517.921 273.272 517.921 272.712C517.921 271.938 517.701 271.338 517.261 270.912C516.835 270.485 516.275 270.178 515.581 269.992L512.861 269.192C511.755 268.872 510.935 268.358 510.401 267.652C509.881 266.932 509.621 266.118 509.621 265.212C509.621 264.425 509.808 263.738 510.181 263.152C510.568 262.552 511.088 262.085 511.741 261.752C512.395 261.418 513.135 261.252 513.961 261.252C514.828 261.252 515.601 261.418 516.281 261.752C516.975 262.072 517.555 262.498 518.021 263.032C518.501 263.552 518.841 264.132 519.041 264.772L517.901 265.192C517.568 264.272 517.055 263.578 516.361 263.112C515.668 262.632 514.875 262.392 513.981 262.392C513.395 262.392 512.868 262.505 512.401 262.732C511.935 262.958 511.568 263.278 511.301 263.692C511.035 264.105 510.901 264.592 510.901 265.152C510.901 265.832 511.095 266.412 511.481 266.892C511.868 267.372 512.515 267.752 513.421 268.032L515.861 268.752C516.928 269.072 517.748 269.565 518.321 270.232C518.908 270.885 519.201 271.692 519.201 272.652C519.201 273.438 519.001 274.132 518.601 274.732C518.201 275.318 517.641 275.785 516.921 276.132C516.215 276.465 515.408 276.632 514.501 276.632ZM513.801 278.392V259.492H514.961V278.392H513.801ZM527.534 276.392V262.632H524.734V261.492H528.834V276.392H527.534ZM538.303 276.632C537.143 276.632 536.123 276.312 535.243 275.672C534.376 275.018 533.696 274.112 533.203 272.952C532.723 271.792 532.483 270.452 532.483 268.932C532.483 267.398 532.723 266.058 533.203 264.912C533.696 263.752 534.376 262.852 535.243 262.212C536.11 261.572 537.123 261.252 538.283 261.252C539.43 261.252 540.436 261.572 541.303 262.212C542.17 262.852 542.843 263.752 543.323 264.912C543.816 266.058 544.063 267.398 544.063 268.932C544.063 270.465 543.823 271.812 543.343 272.972C542.863 274.118 542.19 275.018 541.323 275.672C540.456 276.312 539.45 276.632 538.303 276.632ZM538.303 275.392C539.223 275.392 540.016 275.118 540.683 274.572C541.35 274.025 541.863 273.272 542.223 272.312C542.596 271.338 542.783 270.212 542.783 268.932C542.783 267.638 542.596 266.512 542.223 265.552C541.863 264.578 541.35 263.825 540.683 263.292C540.016 262.745 539.216 262.472 538.283 262.472C537.363 262.472 536.563 262.745 535.883 263.292C535.216 263.825 534.696 264.578 534.323 265.552C533.963 266.525 533.783 267.652 533.783 268.932C533.783 270.198 533.963 271.318 534.323 272.292C534.696 273.265 535.223 274.025 535.903 274.572C536.583 275.118 537.383 275.392 538.303 275.392ZM552.756 276.632C551.596 276.632 550.576 276.312 549.696 275.672C548.829 275.018 548.149 274.112 547.656 272.952C547.176 271.792 546.936 270.452 546.936 268.932C546.936 267.398 547.176 266.058 547.656 264.912C548.149 263.752 548.829 262.852 549.696 262.212C550.563 261.572 551.576 261.252 552.736 261.252C553.883 261.252 554.889 261.572 555.756 262.212C556.623 262.852 557.296 263.752 557.776 264.912C558.269 266.058 558.516 267.398 558.516 268.932C558.516 270.465 558.276 271.812 557.796 272.972C557.316 274.118 556.643 275.018 555.776 275.672C554.909 276.312 553.903 276.632 552.756 276.632ZM552.756 275.392C553.676 275.392 554.469 275.118 555.136 274.572C555.803 274.025 556.316 273.272 556.676 272.312C557.049 271.338 557.236 270.212 557.236 268.932C557.236 267.638 557.049 266.512 556.676 265.552C556.316 264.578 555.803 263.825 555.136 263.292C554.469 262.745 553.669 262.472 552.736 262.472C551.816 262.472 551.016 262.745 550.336 263.292C549.669 263.825 549.149 264.578 548.776 265.552C548.416 266.525 548.236 267.652 548.236 268.932C548.236 270.198 548.416 271.318 548.776 272.292C549.149 273.265 549.676 274.025 550.356 274.572C551.036 275.118 551.836 275.392 552.756 275.392ZM561.829 276.392V261.492H563.129V270.432L562.749 270.252L570.589 261.492H572.269L566.229 268.272L566.289 267.352L572.669 276.392H571.089L565.709 268.812L563.129 271.732V276.392H561.829ZM580.396 279.092C579.383 277.905 578.61 276.552 578.076 275.032C577.556 273.512 577.296 271.925 577.296 270.272C577.296 268.565 577.563 266.965 578.096 265.472C578.63 263.978 579.396 262.652 580.396 261.492H581.556C580.596 262.785 579.863 264.185 579.356 265.692C578.85 267.198 578.596 268.725 578.596 270.272C578.596 271.792 578.85 273.312 579.356 274.832C579.863 276.338 580.596 277.758 581.556 279.092H580.396ZM588.921 276.632C587.894 276.632 586.994 276.412 586.221 275.972C585.448 275.532 584.841 274.925 584.401 274.152C583.974 273.365 583.761 272.465 583.761 271.452V261.492H585.061V271.492C585.061 272.265 585.221 272.952 585.541 273.552C585.874 274.138 586.328 274.598 586.901 274.932C587.488 275.265 588.161 275.432 588.921 275.432C589.681 275.432 590.348 275.265 590.921 274.932C591.508 274.598 591.961 274.138 592.281 273.552C592.601 272.952 592.761 272.265 592.761 271.492V261.492H594.061V271.452C594.061 272.465 593.848 273.365 593.421 274.152C592.994 274.925 592.394 275.532 591.621 275.972C590.848 276.412 589.948 276.632 588.921 276.632ZM597.527 276.392V265.772H598.727V267.752L598.507 267.572C598.734 266.972 599.121 266.498 599.667 266.152C600.227 265.805 600.887 265.632 601.647 265.632H602.327V266.832H601.507C600.641 266.832 599.961 267.112 599.467 267.672C598.974 268.218 598.727 268.958 598.727 269.892V276.392H597.527ZM608.065 276.632C607.345 276.632 606.678 276.465 606.065 276.132C605.465 275.798 604.985 275.332 604.625 274.732C604.265 274.118 604.085 273.392 604.085 272.552V265.772H605.285V272.452C605.285 273.078 605.411 273.618 605.665 274.072C605.931 274.512 606.285 274.852 606.725 275.092C607.178 275.332 607.685 275.452 608.245 275.452C608.858 275.452 609.385 275.312 609.825 275.032C610.278 274.752 610.625 274.365 610.865 273.872C611.105 273.365 611.225 272.792 611.225 272.152V265.772H612.425V276.392H611.225V274.232L611.525 274.332C611.285 275.025 610.858 275.585 610.245 276.012C609.631 276.425 608.905 276.632 608.065 276.632ZM619.33 276.632C618.343 276.632 617.477 276.385 616.73 275.892C615.983 275.398 615.437 274.725 615.09 273.872L616.13 273.392C616.463 274.045 616.91 274.565 617.47 274.952C618.03 275.325 618.65 275.512 619.33 275.512C620.023 275.512 620.603 275.345 621.07 275.012C621.55 274.665 621.79 274.212 621.79 273.652C621.79 273.305 621.697 273.012 621.51 272.772C621.337 272.532 621.11 272.338 620.83 272.192C620.55 272.032 620.25 271.912 619.93 271.832L618.29 271.372C617.37 271.118 616.69 270.745 616.25 270.252C615.823 269.758 615.61 269.178 615.61 268.512C615.61 267.912 615.763 267.392 616.07 266.952C616.377 266.498 616.79 266.152 617.31 265.912C617.83 265.658 618.403 265.532 619.03 265.532C619.91 265.532 620.71 265.758 621.43 266.212C622.15 266.665 622.657 267.278 622.95 268.052L621.87 268.552C621.59 267.952 621.197 267.485 620.69 267.152C620.183 266.805 619.623 266.632 619.01 266.632C618.37 266.632 617.85 266.805 617.45 267.152C617.05 267.485 616.85 267.912 616.85 268.432C616.85 268.765 616.93 269.045 617.09 269.272C617.25 269.485 617.457 269.665 617.71 269.812C617.977 269.945 618.25 270.052 618.53 270.132L620.31 270.652C621.177 270.892 621.843 271.272 622.31 271.792C622.79 272.312 623.03 272.925 623.03 273.632C623.03 274.205 622.87 274.718 622.55 275.172C622.23 275.625 621.79 275.985 621.23 276.252C620.67 276.505 620.037 276.632 619.33 276.632ZM624.646 279.092C625.606 277.758 626.339 276.338 626.846 274.832C627.353 273.312 627.606 271.792 627.606 270.272C627.606 268.725 627.353 267.198 626.846 265.692C626.339 264.185 625.606 262.785 624.646 261.492H625.806C626.819 262.652 627.586 263.978 628.106 265.472C628.639 266.965 628.906 268.565 628.906 270.272C628.906 271.925 628.646 273.512 628.126 275.032C627.606 276.552 626.833 277.905 625.806 279.092H624.646Z" fill="#262626"/>
<g filter="url(#filter1_d_24_1599)">
<rect x="275.33" y="60.9995" width="151.285" height="53.1008" rx="20" fill="url(#paint0_linear_24_1599)"/>
</g>
<g filter="url(#filter2_d_24_1599)">
<path d="M305.458 97.0182C304.711 97.0182 304.007 96.8848 303.346 96.6182C302.695 96.3408 302.13 95.9515 301.65 95.4502C301.18 94.9488 300.828 94.3568 300.594 93.6742L302.626 92.7622C302.924 93.4128 303.335 93.9248 303.858 94.2982C304.391 94.6715 304.978 94.8582 305.618 94.8582C305.959 94.8582 306.252 94.8048 306.498 94.6982C306.743 94.5915 306.935 94.4475 307.074 94.2662C307.212 94.0742 307.282 93.8502 307.282 93.5942C307.282 93.3168 307.196 93.0822 307.026 92.8902C306.855 92.6875 306.588 92.5275 306.226 92.4102L303.89 91.6422C302.94 91.3328 302.226 90.8955 301.746 90.3302C301.266 89.7542 301.026 89.0662 301.026 88.2662C301.026 87.5622 301.196 86.9435 301.538 86.4102C301.89 85.8768 302.375 85.4608 302.994 85.1622C303.623 84.8635 304.343 84.7142 305.154 84.7142C305.868 84.7142 306.53 84.8368 307.138 85.0822C307.746 85.3275 308.268 85.6742 308.706 86.1222C309.154 86.5702 309.49 87.1088 309.714 87.7382L307.698 88.6502C307.474 88.0955 307.138 87.6635 306.69 87.3542C306.242 87.0342 305.73 86.8742 305.154 86.8742C304.823 86.8742 304.53 86.9275 304.274 87.0342C304.018 87.1408 303.82 87.2955 303.682 87.4982C303.543 87.6902 303.474 87.9142 303.474 88.1702C303.474 88.4475 303.564 88.6928 303.746 88.9062C303.927 89.1088 304.199 89.2688 304.562 89.3862L306.85 90.1222C307.81 90.4315 308.524 90.8635 308.994 91.4182C309.474 91.9728 309.714 92.6502 309.714 93.4502C309.714 94.1435 309.532 94.7622 309.17 95.3062C308.807 95.8395 308.306 96.2608 307.666 96.5702C307.036 96.8688 306.3 97.0182 305.458 97.0182ZM314.681 96.8262V84.9062H319.257C320.079 84.9062 320.804 85.0502 321.433 85.3382C322.073 85.6262 322.575 86.0528 322.937 86.6182C323.3 87.1835 323.481 87.8822 323.481 88.7142C323.481 89.5248 323.295 90.2128 322.921 90.7782C322.559 91.3435 322.057 91.7755 321.417 92.0742C320.788 92.3622 320.068 92.5062 319.257 92.5062H317.161V96.8262H314.681ZM317.161 90.3462H319.273C319.625 90.3462 319.929 90.2768 320.185 90.1382C320.441 89.9995 320.639 89.8075 320.777 89.5622C320.927 89.3168 321.001 89.0342 321.001 88.7142C321.001 88.3835 320.927 88.0955 320.777 87.8502C320.639 87.6048 320.441 87.4128 320.185 87.2742C319.929 87.1355 319.625 87.0662 319.273 87.0662H317.161V90.3462ZM334.24 97.0182C333.344 97.0182 332.512 96.8635 331.744 96.5542C330.976 96.2448 330.304 95.8128 329.728 95.2582C329.162 94.6928 328.72 94.0368 328.4 93.2902C328.08 92.5435 327.92 91.7328 327.92 90.8582C327.92 89.9835 328.074 89.1728 328.384 88.4262C328.704 87.6795 329.146 87.0288 329.712 86.4742C330.288 85.9195 330.96 85.4875 331.728 85.1782C332.496 84.8688 333.333 84.7142 334.24 84.7142C335.146 84.7142 335.984 84.8688 336.752 85.1782C337.52 85.4875 338.186 85.9195 338.752 86.4742C339.328 87.0288 339.77 87.6795 340.08 88.4262C340.4 89.1728 340.56 89.9835 340.56 90.8582C340.56 91.7328 340.4 92.5435 340.08 93.2902C339.76 94.0368 339.312 94.6928 338.736 95.2582C338.17 95.8128 337.504 96.2448 336.736 96.5542C335.968 96.8635 335.136 97.0182 334.24 97.0182ZM334.24 94.7782C334.784 94.7782 335.285 94.6822 335.744 94.4902C336.213 94.2982 336.624 94.0315 336.976 93.6902C337.328 93.3382 337.6 92.9222 337.792 92.4422C337.984 91.9622 338.08 91.4342 338.08 90.8582C338.08 90.2822 337.984 89.7595 337.792 89.2902C337.6 88.8102 337.328 88.3942 336.976 88.0422C336.624 87.6902 336.213 87.4235 335.744 87.2422C335.285 87.0502 334.784 86.9542 334.24 86.9542C333.696 86.9542 333.189 87.0502 332.72 87.2422C332.261 87.4235 331.856 87.6902 331.504 88.0422C331.152 88.3942 330.88 88.8102 330.688 89.2902C330.496 89.7595 330.4 90.2822 330.4 90.8582C330.4 91.4342 330.496 91.9622 330.688 92.4422C330.88 92.9222 331.152 93.3382 331.504 93.6902C331.856 94.0315 332.261 94.2982 332.72 94.4902C333.189 94.6822 333.696 94.7782 334.24 94.7782ZM345.519 96.8262V84.9062H347.423L353.823 93.3382L352.799 93.5782V84.9062H355.279V96.8262H353.359L347.071 88.3302L347.999 88.0902V96.8262H345.519ZM364.93 97.0182C364.183 97.0182 363.479 96.8848 362.818 96.6182C362.167 96.3408 361.602 95.9515 361.122 95.4502C360.652 94.9488 360.3 94.3568 360.066 93.6742L362.098 92.7622C362.396 93.4128 362.807 93.9248 363.33 94.2982C363.863 94.6715 364.45 94.8582 365.09 94.8582C365.431 94.8582 365.724 94.8048 365.97 94.6982C366.215 94.5915 366.407 94.4475 366.546 94.2662C366.684 94.0742 366.754 93.8502 366.754 93.5942C366.754 93.3168 366.668 93.0822 366.498 92.8902C366.327 92.6875 366.06 92.5275 365.698 92.4102L363.362 91.6422C362.412 91.3328 361.698 90.8955 361.218 90.3302C360.738 89.7542 360.498 89.0662 360.498 88.2662C360.498 87.5622 360.668 86.9435 361.01 86.4102C361.362 85.8768 361.847 85.4608 362.466 85.1622C363.095 84.8635 363.815 84.7142 364.626 84.7142C365.34 84.7142 366.002 84.8368 366.61 85.0822C367.218 85.3275 367.74 85.6742 368.178 86.1222C368.626 86.5702 368.962 87.1088 369.186 87.7382L367.17 88.6502C366.946 88.0955 366.61 87.6635 366.162 87.3542C365.714 87.0342 365.202 86.8742 364.626 86.8742C364.295 86.8742 364.002 86.9275 363.746 87.0342C363.49 87.1408 363.292 87.2955 363.154 87.4982C363.015 87.6902 362.946 87.9142 362.946 88.1702C362.946 88.4475 363.036 88.6928 363.218 88.9062C363.399 89.1088 363.671 89.2688 364.034 89.3862L366.322 90.1222C367.282 90.4315 367.996 90.8635 368.466 91.4182C368.946 91.9728 369.186 92.6502 369.186 93.4502C369.186 94.1435 369.004 94.7622 368.642 95.3062C368.279 95.8395 367.778 96.2608 367.138 96.5702C366.508 96.8688 365.772 97.0182 364.93 97.0182ZM380.121 97.0182C379.225 97.0182 378.393 96.8635 377.625 96.5542C376.857 96.2448 376.185 95.8128 375.609 95.2582C375.044 94.6928 374.601 94.0368 374.281 93.2902C373.961 92.5435 373.801 91.7328 373.801 90.8582C373.801 89.9835 373.956 89.1728 374.265 88.4262C374.585 87.6795 375.028 87.0288 375.593 86.4742C376.169 85.9195 376.841 85.4875 377.609 85.1782C378.377 84.8688 379.214 84.7142 380.121 84.7142C381.028 84.7142 381.865 84.8688 382.633 85.1782C383.401 85.4875 384.068 85.9195 384.633 86.4742C385.209 87.0288 385.652 87.6795 385.961 88.4262C386.281 89.1728 386.441 89.9835 386.441 90.8582C386.441 91.7328 386.281 92.5435 385.961 93.2902C385.641 94.0368 385.193 94.6928 384.617 95.2582C384.052 95.8128 383.385 96.2448 382.617 96.5542C381.849 96.8635 381.017 97.0182 380.121 97.0182ZM380.121 94.7782C380.665 94.7782 381.166 94.6822 381.625 94.4902C382.094 94.2982 382.505 94.0315 382.857 93.6902C383.209 93.3382 383.481 92.9222 383.673 92.4422C383.865 91.9622 383.961 91.4342 383.961 90.8582C383.961 90.2822 383.865 89.7595 383.673 89.2902C383.481 88.8102 383.209 88.3942 382.857 88.0422C382.505 87.6902 382.094 87.4235 381.625 87.2422C381.166 87.0502 380.665 86.9542 380.121 86.9542C379.577 86.9542 379.07 87.0502 378.601 87.2422C378.142 87.4235 377.737 87.6902 377.385 88.0422C377.033 88.3942 376.761 88.8102 376.569 89.2902C376.377 89.7595 376.281 90.2822 376.281 90.8582C376.281 91.4342 376.377 91.9622 376.569 92.4422C376.761 92.9222 377.033 93.3382 377.385 93.6902C377.737 94.0315 378.142 94.2982 378.601 94.4902C379.07 94.6822 379.577 94.7782 380.121 94.7782ZM391.4 96.8262V84.9062H395.96C396.781 84.9062 397.507 85.0502 398.136 85.3382C398.776 85.6262 399.277 86.0528 399.64 86.6182C400.003 87.1835 400.184 87.8822 400.184 88.7142C400.184 89.5248 399.997 90.2182 399.624 90.7942C399.251 91.3595 398.749 91.7862 398.12 92.0742L400.84 96.8262H398.056L395.112 91.5622L396.712 92.5062H393.88V96.8262H391.4ZM393.88 90.3462H395.976C396.328 90.3462 396.632 90.2768 396.888 90.1382C397.144 89.9995 397.341 89.8075 397.48 89.5622C397.629 89.3168 397.704 89.0342 397.704 88.7142C397.704 88.3835 397.629 88.0955 397.48 87.8502C397.341 87.6048 397.144 87.4128 396.888 87.2742C396.632 87.1355 396.328 87.0662 395.976 87.0662H393.88V90.3462Z" fill="white"/>
</g>
<g filter="url(#filter3_d_24_1599)">
<rect x="117" y="166.099" width="105.763" height="56" rx="20" fill="#F0F0F0"/>
</g>
<path d="M149.821 203.289C148.875 203.289 148.021 203.109 147.261 202.749C146.515 202.389 145.888 201.916 145.381 201.329C144.888 200.743 144.535 200.109 144.321 199.429L145.481 199.009C145.855 200.023 146.408 200.796 147.141 201.329C147.888 201.863 148.775 202.129 149.801 202.129C150.481 202.129 151.075 202.016 151.581 201.789C152.101 201.563 152.508 201.243 152.801 200.829C153.095 200.416 153.241 199.929 153.241 199.369C153.241 198.596 153.021 197.996 152.581 197.569C152.155 197.143 151.595 196.836 150.901 196.649L148.181 195.849C147.075 195.529 146.255 195.016 145.721 194.309C145.201 193.589 144.941 192.776 144.941 191.869C144.941 191.083 145.128 190.396 145.501 189.809C145.888 189.209 146.408 188.743 147.061 188.409C147.715 188.076 148.455 187.909 149.281 187.909C150.148 187.909 150.921 188.076 151.601 188.409C152.295 188.729 152.875 189.156 153.341 189.689C153.821 190.209 154.161 190.789 154.361 191.429L153.221 191.849C152.888 190.929 152.375 190.236 151.681 189.769C150.988 189.289 150.195 189.049 149.301 189.049C148.715 189.049 148.188 189.163 147.721 189.389C147.255 189.616 146.888 189.936 146.621 190.349C146.355 190.763 146.221 191.249 146.221 191.809C146.221 192.489 146.415 193.069 146.801 193.549C147.188 194.029 147.835 194.409 148.741 194.689L151.181 195.409C152.248 195.729 153.068 196.223 153.641 196.889C154.228 197.543 154.521 198.349 154.521 199.309C154.521 200.096 154.321 200.789 153.921 201.389C153.521 201.976 152.961 202.443 152.241 202.789C151.535 203.123 150.728 203.289 149.821 203.289ZM149.121 205.049V186.149H150.281V205.049H149.121ZM160.394 203.049V202.249L164.574 197.649C165.4 196.743 166.08 195.989 166.614 195.389C167.16 194.776 167.567 194.209 167.834 193.689C168.114 193.169 168.254 192.603 168.254 191.989C168.254 191.056 167.974 190.336 167.414 189.829C166.867 189.309 166.107 189.049 165.134 189.049C164.187 189.049 163.394 189.323 162.754 189.869C162.114 190.416 161.68 191.176 161.454 192.149L160.274 191.889C160.46 191.049 160.78 190.336 161.234 189.749C161.687 189.149 162.247 188.696 162.914 188.389C163.58 188.069 164.32 187.909 165.134 187.909C165.987 187.909 166.74 188.083 167.394 188.429C168.06 188.763 168.587 189.236 168.974 189.849C169.36 190.463 169.554 191.176 169.554 191.989C169.554 192.589 169.42 193.169 169.154 193.729C168.9 194.289 168.527 194.876 168.034 195.489C167.554 196.103 166.947 196.803 166.214 197.589L162.294 201.889H169.874V203.049H160.394ZM177.091 203.289C176.291 203.289 175.551 203.143 174.871 202.849C174.191 202.543 173.611 202.116 173.131 201.569C172.664 201.023 172.324 200.376 172.111 199.629L173.191 199.209C173.458 200.129 173.938 200.849 174.631 201.369C175.338 201.876 176.158 202.129 177.091 202.129C177.811 202.129 178.438 201.969 178.971 201.649C179.518 201.329 179.944 200.889 180.251 200.329C180.558 199.756 180.711 199.116 180.711 198.409C180.711 197.703 180.551 197.076 180.231 196.529C179.911 195.969 179.478 195.536 178.931 195.229C178.398 194.909 177.791 194.749 177.111 194.749C176.404 194.749 175.758 194.916 175.171 195.249C174.584 195.569 174.158 195.949 173.891 196.389L172.831 196.169L173.931 188.149H181.411V189.289H174.391L174.931 188.929L174.051 195.329L173.631 195.129C174.031 194.596 174.544 194.203 175.171 193.949C175.811 193.683 176.478 193.549 177.171 193.549C178.104 193.549 178.931 193.769 179.651 194.209C180.384 194.636 180.958 195.216 181.371 195.949C181.798 196.683 182.011 197.503 182.011 198.409C182.011 199.343 181.798 200.176 181.371 200.909C180.958 201.643 180.378 202.223 179.631 202.649C178.898 203.076 178.051 203.289 177.091 203.289ZM185.157 203.049V188.149H186.457V197.089L186.077 196.909L193.917 188.149H195.597L189.557 194.929L189.617 194.009L195.997 203.049H194.417L189.037 195.469L186.457 198.389V203.049H185.157Z" fill="#262626"/>
<g filter="url(#filter4_d_24_1599)">
<path d="M171.074 169.449C172.547 169.449 173.741 168.255 173.741 166.782C173.741 165.309 172.547 164.116 171.074 164.116C169.601 164.116 168.408 165.309 168.408 166.782C168.408 168.255 169.601 169.449 171.074 169.449ZM171.574 166.782V143.549H170.574V166.782H171.574Z" fill="#262626"/>
</g>
<g filter="url(#filter5_d_24_1599)">
<rect x="235.7" y="166.099" width="105.763" height="56" rx="20" fill="#F0F0F0"/>
</g>
<path d="M269.912 203.289C268.965 203.289 268.112 203.109 267.352 202.749C266.605 202.389 265.979 201.916 265.472 201.329C264.979 200.743 264.625 200.109 264.412 199.429L265.572 199.009C265.945 200.023 266.499 200.796 267.232 201.329C267.979 201.863 268.865 202.129 269.892 202.129C270.572 202.129 271.165 202.016 271.672 201.789C272.192 201.563 272.599 201.243 272.892 200.829C273.185 200.416 273.332 199.929 273.332 199.369C273.332 198.596 273.112 197.996 272.672 197.569C272.245 197.143 271.685 196.836 270.992 196.649L268.272 195.849C267.165 195.529 266.345 195.016 265.812 194.309C265.292 193.589 265.032 192.776 265.032 191.869C265.032 191.083 265.219 190.396 265.592 189.809C265.979 189.209 266.499 188.743 267.152 188.409C267.805 188.076 268.545 187.909 269.372 187.909C270.239 187.909 271.012 188.076 271.692 188.409C272.385 188.729 272.965 189.156 273.432 189.689C273.912 190.209 274.252 190.789 274.452 191.429L273.312 191.849C272.979 190.929 272.465 190.236 271.772 189.769C271.079 189.289 270.285 189.049 269.392 189.049C268.805 189.049 268.279 189.163 267.812 189.389C267.345 189.616 266.979 189.936 266.712 190.349C266.445 190.763 266.312 191.249 266.312 191.809C266.312 192.489 266.505 193.069 266.892 193.549C267.279 194.029 267.925 194.409 268.832 194.689L271.272 195.409C272.339 195.729 273.159 196.223 273.732 196.889C274.319 197.543 274.612 198.349 274.612 199.309C274.612 200.096 274.412 200.789 274.012 201.389C273.612 201.976 273.052 202.443 272.332 202.789C271.625 203.123 270.819 203.289 269.912 203.289ZM269.212 205.049V186.149H270.372V205.049H269.212ZM280.484 203.049V202.249L284.664 197.649C285.491 196.743 286.171 195.989 286.704 195.389C287.251 194.776 287.658 194.209 287.924 193.689C288.204 193.169 288.344 192.603 288.344 191.989C288.344 191.056 288.064 190.336 287.504 189.829C286.958 189.309 286.198 189.049 285.224 189.049C284.278 189.049 283.484 189.323 282.844 189.869C282.204 190.416 281.771 191.176 281.544 192.149L280.364 191.889C280.551 191.049 280.871 190.336 281.324 189.749C281.778 189.149 282.338 188.696 283.004 188.389C283.671 188.069 284.411 187.909 285.224 187.909C286.078 187.909 286.831 188.083 287.484 188.429C288.151 188.763 288.678 189.236 289.064 189.849C289.451 190.463 289.644 191.176 289.644 191.989C289.644 192.589 289.511 193.169 289.244 193.729C288.991 194.289 288.618 194.876 288.124 195.489C287.644 196.103 287.038 196.803 286.304 197.589L282.384 201.889H289.964V203.049H280.484ZM297.182 203.289C296.382 203.289 295.642 203.143 294.962 202.849C294.282 202.543 293.702 202.116 293.222 201.569C292.755 201.023 292.415 200.376 292.202 199.629L293.282 199.209C293.548 200.129 294.028 200.849 294.722 201.369C295.428 201.876 296.248 202.129 297.182 202.129C297.902 202.129 298.528 201.969 299.062 201.649C299.608 201.329 300.035 200.889 300.342 200.329C300.648 199.756 300.802 199.116 300.802 198.409C300.802 197.703 300.642 197.076 300.322 196.529C300.002 195.969 299.568 195.536 299.022 195.229C298.488 194.909 297.882 194.749 297.202 194.749C296.495 194.749 295.848 194.916 295.262 195.249C294.675 195.569 294.248 195.949 293.982 196.389L292.922 196.169L294.022 188.149H301.502V189.289H294.482L295.022 188.929L294.142 195.329L293.722 195.129C294.122 194.596 294.635 194.203 295.262 193.949C295.902 193.683 296.568 193.549 297.262 193.549C298.195 193.549 299.022 193.769 299.742 194.209C300.475 194.636 301.048 195.216 301.462 195.949C301.888 196.683 302.102 197.503 302.102 198.409C302.102 199.343 301.888 200.176 301.462 200.909C301.048 201.643 300.468 202.223 299.722 202.649C298.988 203.076 298.142 203.289 297.182 203.289ZM305.248 203.049V188.149H306.548V197.089L306.168 196.909L314.008 188.149H315.688L309.648 194.929L309.708 194.009L316.088 203.049H314.508L309.128 195.469L306.548 198.389V203.049H305.248Z" fill="#262626"/>
<g filter="url(#filter6_d_24_1599)">
<path d="M289.774 169.449C291.247 169.449 292.441 168.255 292.441 166.782C292.441 165.309 291.247 164.116 289.774 164.116C288.302 164.116 287.108 165.309 287.108 166.782C287.108 168.255 288.302 169.449 289.774 169.449ZM290.274 166.782V143.549H289.274V166.782H290.274Z" fill="#262626"/>
</g>
<g filter="url(#filter7_d_24_1599)">
<rect x="354.4" y="166.099" width="105.763" height="56" rx="20" fill="#F0F0F0"/>
</g>
<path d="M388.612 203.29C387.666 203.29 386.812 203.11 386.052 202.75C385.306 202.39 384.679 201.916 384.172 201.33C383.679 200.743 383.326 200.11 383.112 199.43L384.272 199.01C384.646 200.023 385.199 200.796 385.932 201.33C386.679 201.863 387.566 202.13 388.592 202.13C389.272 202.13 389.866 202.016 390.372 201.79C390.892 201.563 391.299 201.243 391.592 200.83C391.886 200.416 392.032 199.93 392.032 199.37C392.032 198.596 391.812 197.996 391.372 197.57C390.946 197.143 390.386 196.836 389.692 196.65L386.972 195.85C385.866 195.53 385.046 195.016 384.512 194.31C383.992 193.59 383.732 192.776 383.732 191.87C383.732 191.083 383.919 190.396 384.292 189.81C384.679 189.21 385.199 188.743 385.852 188.41C386.506 188.076 387.246 187.91 388.072 187.91C388.939 187.91 389.712 188.076 390.392 188.41C391.086 188.73 391.666 189.156 392.132 189.69C392.612 190.21 392.952 190.79 393.152 191.43L392.012 191.85C391.679 190.93 391.166 190.236 390.472 189.77C389.779 189.29 388.986 189.05 388.092 189.05C387.506 189.05 386.979 189.163 386.512 189.39C386.046 189.616 385.679 189.936 385.412 190.35C385.146 190.763 385.012 191.25 385.012 191.81C385.012 192.49 385.206 193.07 385.592 193.55C385.979 194.03 386.626 194.41 387.532 194.69L389.972 195.41C391.039 195.73 391.859 196.223 392.432 196.89C393.019 197.543 393.312 198.35 393.312 199.31C393.312 200.096 393.112 200.79 392.712 201.39C392.312 201.976 391.752 202.443 391.032 202.79C390.326 203.123 389.519 203.29 388.612 203.29ZM387.912 205.05V186.15H389.072V205.05H387.912ZM399.185 203.05V202.25L403.365 197.65C404.191 196.743 404.871 195.99 405.405 195.39C405.951 194.776 406.358 194.21 406.625 193.69C406.905 193.17 407.045 192.603 407.045 191.99C407.045 191.056 406.765 190.336 406.205 189.83C405.658 189.31 404.898 189.05 403.925 189.05C402.978 189.05 402.185 189.323 401.545 189.87C400.905 190.416 400.471 191.176 400.245 192.15L399.065 191.89C399.251 191.05 399.571 190.336 400.025 189.75C400.478 189.15 401.038 188.696 401.705 188.39C402.371 188.07 403.111 187.91 403.925 187.91C404.778 187.91 405.531 188.083 406.185 188.43C406.851 188.763 407.378 189.236 407.765 189.85C408.151 190.463 408.345 191.176 408.345 191.99C408.345 192.59 408.211 193.17 407.945 193.73C407.691 194.29 407.318 194.876 406.825 195.49C406.345 196.103 405.738 196.803 405.005 197.59L401.085 201.89H408.665V203.05H399.185ZM415.882 203.29C415.082 203.29 414.342 203.143 413.662 202.85C412.982 202.543 412.402 202.116 411.922 201.57C411.455 201.023 411.115 200.376 410.902 199.63L411.982 199.21C412.249 200.13 412.729 200.85 413.422 201.37C414.129 201.876 414.949 202.13 415.882 202.13C416.602 202.13 417.229 201.97 417.762 201.65C418.309 201.33 418.735 200.89 419.042 200.33C419.349 199.756 419.502 199.116 419.502 198.41C419.502 197.703 419.342 197.076 419.022 196.53C418.702 195.97 418.269 195.536 417.722 195.23C417.189 194.91 416.582 194.75 415.902 194.75C415.195 194.75 414.549 194.916 413.962 195.25C413.375 195.57 412.949 195.95 412.682 196.39L411.622 196.17L412.722 188.15H420.202V189.29H413.182L413.722 188.93L412.842 195.33L412.422 195.13C412.822 194.596 413.335 194.203 413.962 193.95C414.602 193.683 415.269 193.55 415.962 193.55C416.895 193.55 417.722 193.77 418.442 194.21C419.175 194.636 419.749 195.216 420.162 195.95C420.589 196.683 420.802 197.503 420.802 198.41C420.802 199.343 420.589 200.176 420.162 200.91C419.749 201.643 419.169 202.223 418.422 202.65C417.689 203.076 416.842 203.29 415.882 203.29ZM423.948 203.05V188.15H425.248V197.09L424.868 196.91L432.708 188.15H434.388L428.348 194.93L428.408 194.01L434.788 203.05H433.208L427.828 195.47L425.248 198.39V203.05H423.948Z" fill="#262626"/>
<g filter="url(#filter8_d_24_1599)">
<path d="M408.475 169.449C409.947 169.449 411.141 168.255 411.141 166.783C411.141 165.31 409.947 164.116 408.475 164.116C407.002 164.116 405.808 165.31 405.808 166.783C405.808 168.255 407.002 169.449 408.475 169.449ZM408.975 166.783V143.549H407.975V166.783H408.975Z" fill="#262626"/>
</g>
<g filter="url(#filter9_d_24_1599)">
<rect x="473.101" y="166.099" width="105.763" height="56" rx="20" fill="#F0F0F0"/>
</g>
<path d="M507.313 203.289C506.366 203.289 505.513 203.109 504.753 202.749C504.006 202.389 503.379 201.916 502.873 201.329C502.379 200.743 502.026 200.109 501.813 199.429L502.973 199.009C503.346 200.023 503.899 200.796 504.633 201.329C505.379 201.863 506.266 202.129 507.293 202.129C507.973 202.129 508.566 202.016 509.073 201.789C509.593 201.563 509.999 201.243 510.293 200.829C510.586 200.416 510.733 199.929 510.733 199.369C510.733 198.596 510.513 197.996 510.073 197.569C509.646 197.143 509.086 196.836 508.393 196.649L505.673 195.849C504.566 195.529 503.746 195.016 503.213 194.309C502.693 193.589 502.433 192.776 502.433 191.869C502.433 191.083 502.619 190.396 502.993 189.809C503.379 189.209 503.899 188.743 504.553 188.409C505.206 188.076 505.946 187.909 506.773 187.909C507.639 187.909 508.413 188.076 509.093 188.409C509.786 188.729 510.366 189.156 510.833 189.689C511.313 190.209 511.653 190.789 511.853 191.429L510.713 191.849C510.379 190.929 509.866 190.236 509.173 189.769C508.479 189.289 507.686 189.049 506.793 189.049C506.206 189.049 505.679 189.163 505.213 189.389C504.746 189.616 504.379 189.936 504.113 190.349C503.846 190.763 503.713 191.249 503.713 191.809C503.713 192.489 503.906 193.069 504.293 193.549C504.679 194.029 505.326 194.409 506.233 194.689L508.673 195.409C509.739 195.729 510.559 196.223 511.133 196.889C511.719 197.543 512.013 198.349 512.013 199.309C512.013 200.096 511.813 200.789 511.413 201.389C511.013 201.976 510.453 202.443 509.733 202.789C509.026 203.123 508.219 203.289 507.313 203.289ZM506.613 205.049V186.149H507.773V205.049H506.613ZM517.885 203.049V202.249L522.065 197.649C522.892 196.743 523.572 195.989 524.105 195.389C524.652 194.776 525.058 194.209 525.325 193.689C525.605 193.169 525.745 192.603 525.745 191.989C525.745 191.056 525.465 190.336 524.905 189.829C524.358 189.309 523.598 189.049 522.625 189.049C521.678 189.049 520.885 189.323 520.245 189.869C519.605 190.416 519.172 191.176 518.945 192.149L517.765 191.889C517.952 191.049 518.272 190.336 518.725 189.749C519.178 189.149 519.738 188.696 520.405 188.389C521.072 188.069 521.812 187.909 522.625 187.909C523.478 187.909 524.232 188.083 524.885 188.429C525.552 188.763 526.078 189.236 526.465 189.849C526.852 190.463 527.045 191.176 527.045 191.989C527.045 192.589 526.912 193.169 526.645 193.729C526.392 194.289 526.018 194.876 525.525 195.489C525.045 196.103 524.438 196.803 523.705 197.589L519.785 201.889H527.365V203.049H517.885ZM534.582 203.289C533.782 203.289 533.042 203.143 532.362 202.849C531.682 202.543 531.102 202.116 530.622 201.569C530.156 201.023 529.816 200.376 529.602 199.629L530.682 199.209C530.949 200.129 531.429 200.849 532.122 201.369C532.829 201.876 533.649 202.129 534.582 202.129C535.302 202.129 535.929 201.969 536.462 201.649C537.009 201.329 537.436 200.889 537.742 200.329C538.049 199.756 538.202 199.116 538.202 198.409C538.202 197.703 538.042 197.076 537.722 196.529C537.402 195.969 536.969 195.536 536.422 195.229C535.889 194.909 535.282 194.749 534.602 194.749C533.896 194.749 533.249 194.916 532.662 195.249C532.076 195.569 531.649 195.949 531.382 196.389L530.322 196.169L531.422 188.149H538.902V189.289H531.882L532.422 188.929L531.542 195.329L531.122 195.129C531.522 194.596 532.036 194.203 532.662 193.949C533.302 193.683 533.969 193.549 534.662 193.549C535.596 193.549 536.422 193.769 537.142 194.209C537.876 194.636 538.449 195.216 538.862 195.949C539.289 196.683 539.502 197.503 539.502 198.409C539.502 199.343 539.289 200.176 538.862 200.909C538.449 201.643 537.869 202.223 537.122 202.649C536.389 203.076 535.542 203.289 534.582 203.289ZM542.648 203.049V188.149H543.948V197.089L543.568 196.909L551.408 188.149H553.088L547.048 194.929L547.108 194.009L553.488 203.049H551.908L546.528 195.469L543.948 198.389V203.049H542.648Z" fill="#262626"/>
<g filter="url(#filter10_d_24_1599)">
<path d="M527.175 169.449C528.648 169.449 529.841 168.255 529.841 166.782C529.841 165.309 528.648 164.116 527.175 164.116C525.702 164.116 524.508 165.309 524.508 166.782C524.508 168.255 525.702 169.449 527.175 169.449ZM527.675 166.782V143.549H526.675V166.782H527.675Z" fill="#262626"/>
</g>
<path d="M528.126 143.549L171.87 143.549" stroke="#262626" stroke-width="3" stroke-linecap="round"/>
<path d="M350.793 121L350.793 143.55" stroke="#262626" stroke-width="3" stroke-linecap="round"/>
<defs>
<filter id="filter0_d_24_1599" x="0" y="0.800781" width="696.126" height="327.226" filterUnits="userSpaceOnUse" color-interpolation-filters="sRGB">
<feFlood flood-opacity="0" result="BackgroundImageFix"/>
<feColorMatrix in="SourceAlpha" type="matrix" values="0 0 0 0 0 0 0 0 0 0 0 0 0 0 0 0 0 0 127 0" result="hardAlpha"/>
<feOffset dy="4"/>
<feGaussianBlur stdDeviation="5"/>
<feComposite in2="hardAlpha" operator="out"/>
<feColorMatrix type="matrix" values="0 0 0 0 0 0 0 0 0 0 0 0 0 0 0 0 0 0 0.25 0"/>
<feBlend mode="normal" in2="BackgroundImageFix" result="effect1_dropShadow_24_1599"/>
<feBlend mode="normal" in="SourceGraphic" in2="effect1_dropShadow_24_1599" result="shape"/>
</filter>
<filter id="filter1_d_24_1599" x="270.33" y="59.9995" width="163.284" height="65.1006" filterUnits="userSpaceOnUse" color-interpolation-filters="sRGB">
<feFlood flood-opacity="0" result="BackgroundImageFix"/>
<feColorMatrix in="SourceAlpha" type="matrix" values="0 0 0 0 0 0 0 0 0 0 0 0 0 0 0 0 0 0 127 0" result="hardAlpha"/>
<feMorphology radius="1" operator="dilate" in="SourceAlpha" result="effect1_dropShadow_24_1599"/>
<feOffset dx="1" dy="5"/>
<feGaussianBlur stdDeviation="2.5"/>
<feComposite in2="hardAlpha" operator="out"/>
<feColorMatrix type="matrix" values="0 0 0 0 0 0 0 0 0 0 0 0 0 0 0 0 0 0 0.25 0"/>
<feBlend mode="normal" in2="BackgroundImageFix" result="effect1_dropShadow_24_1599"/>
<feBlend mode="normal" in="SourceGraphic" in2="effect1_dropShadow_24_1599" result="shape"/>
</filter>
<filter id="filter2_d_24_1599" x="296.594" y="84.7144" width="108.246" height="20.3037" filterUnits="userSpaceOnUse" color-interpolation-filters="sRGB">
<feFlood flood-opacity="0" result="BackgroundImageFix"/>
<feColorMatrix in="SourceAlpha" type="matrix" values="0 0 0 0 0 0 0 0 0 0 0 0 0 0 0 0 0 0 127 0" result="hardAlpha"/>
<feOffset dy="4"/>
<feGaussianBlur stdDeviation="2"/>
<feComposite in2="hardAlpha" operator="out"/>
<feColorMatrix type="matrix" values="0 0 0 0 0 0 0 0 0 0 0 0 0 0 0 0 0 0 0.25 0"/>
<feBlend mode="normal" in2="BackgroundImageFix" result="effect1_dropShadow_24_1599"/>
<feBlend mode="normal" in="SourceGraphic" in2="effect1_dropShadow_24_1599" result="shape"/>
</filter>
<filter id="filter3_d_24_1599" x="112" y="165.099" width="117.764" height="68" filterUnits="userSpaceOnUse" color-interpolation-filters="sRGB">
<feFlood flood-opacity="0" result="BackgroundImageFix"/>
<feColorMatrix in="SourceAlpha" type="matrix" values="0 0 0 0 0 0 0 0 0 0 0 0 0 0 0 0 0 0 127 0" result="hardAlpha"/>
<feMorphology radius="1" operator="dilate" in="SourceAlpha" result="effect1_dropShadow_24_1599"/>
<feOffset dx="1" dy="5"/>
<feGaussianBlur stdDeviation="2.5"/>
<feComposite in2="hardAlpha" operator="out"/>
<feColorMatrix type="matrix" values="0 0 0 0 0 0 0 0 0 0 0 0 0 0 0 0 0 0 0.25 0"/>
<feBlend mode="normal" in2="BackgroundImageFix" result="effect1_dropShadow_24_1599"/>
<feBlend mode="normal" in="SourceGraphic" in2="effect1_dropShadow_24_1599" result="shape"/>
</filter>
<filter id="filter4_d_24_1599" x="164.407" y="143.549" width="13.334" height="33.8999" filterUnits="userSpaceOnUse" color-interpolation-filters="sRGB">
<feFlood flood-opacity="0" result="BackgroundImageFix"/>
<feColorMatrix in="SourceAlpha" type="matrix" values="0 0 0 0 0 0 0 0 0 0 0 0 0 0 0 0 0 0 127 0" result="hardAlpha"/>
<feOffset dy="4"/>
<feGaussianBlur stdDeviation="2"/>
<feComposite in2="hardAlpha" operator="out"/>
<feColorMatrix type="matrix" values="0 0 0 0 0 0 0 0 0 0 0 0 0 0 0 0 0 0 0.25 0"/>
<feBlend mode="normal" in2="BackgroundImageFix" result="effect1_dropShadow_24_1599"/>
<feBlend mode="normal" in="SourceGraphic" in2="effect1_dropShadow_24_1599" result="shape"/>
</filter>
<filter id="filter5_d_24_1599" x="230.7" y="165.099" width="117.764" height="68" filterUnits="userSpaceOnUse" color-interpolation-filters="sRGB">
<feFlood flood-opacity="0" result="BackgroundImageFix"/>
<feColorMatrix in="SourceAlpha" type="matrix" values="0 0 0 0 0 0 0 0 0 0 0 0 0 0 0 0 0 0 127 0" result="hardAlpha"/>
<feMorphology radius="1" operator="dilate" in="SourceAlpha" result="effect1_dropShadow_24_1599"/>
<feOffset dx="1" dy="5"/>
<feGaussianBlur stdDeviation="2.5"/>
<feComposite in2="hardAlpha" operator="out"/>
<feColorMatrix type="matrix" values="0 0 0 0 0 0 0 0 0 0 0 0 0 0 0 0 0 0 0.25 0"/>
<feBlend mode="normal" in2="BackgroundImageFix" result="effect1_dropShadow_24_1599"/>
<feBlend mode="normal" in="SourceGraphic" in2="effect1_dropShadow_24_1599" result="shape"/>
</filter>
<filter id="filter6_d_24_1599" x="283.107" y="143.549" width="13.334" height="33.8999" filterUnits="userSpaceOnUse" color-interpolation-filters="sRGB">
<feFlood flood-opacity="0" result="BackgroundImageFix"/>
<feColorMatrix in="SourceAlpha" type="matrix" values="0 0 0 0 0 0 0 0 0 0 0 0 0 0 0 0 0 0 127 0" result="hardAlpha"/>
<feOffset dy="4"/>
<feGaussianBlur stdDeviation="2"/>
<feComposite in2="hardAlpha" operator="out"/>
<feColorMatrix type="matrix" values="0 0 0 0 0 0 0 0 0 0 0 0 0 0 0 0 0 0 0.25 0"/>
<feBlend mode="normal" in2="BackgroundImageFix" result="effect1_dropShadow_24_1599"/>
<feBlend mode="normal" in="SourceGraphic" in2="effect1_dropShadow_24_1599" result="shape"/>
</filter>
<filter id="filter7_d_24_1599" x="349.4" y="165.099" width="117.764" height="68" filterUnits="userSpaceOnUse" color-interpolation-filters="sRGB">
<feFlood flood-opacity="0" result="BackgroundImageFix"/>
<feColorMatrix in="SourceAlpha" type="matrix" values="0 0 0 0 0 0 0 0 0 0 0 0 0 0 0 0 0 0 127 0" result="hardAlpha"/>
<feMorphology radius="1" operator="dilate" in="SourceAlpha" result="effect1_dropShadow_24_1599"/>
<feOffset dx="1" dy="5"/>
<feGaussianBlur stdDeviation="2.5"/>
<feComposite in2="hardAlpha" operator="out"/>
<feColorMatrix type="matrix" values="0 0 0 0 0 0 0 0 0 0 0 0 0 0 0 0 0 0 0.25 0"/>
<feBlend mode="normal" in2="BackgroundImageFix" result="effect1_dropShadow_24_1599"/>
<feBlend mode="normal" in="SourceGraphic" in2="effect1_dropShadow_24_1599" result="shape"/>
</filter>
<filter id="filter8_d_24_1599" x="401.808" y="143.549" width="13.334" height="33.8999" filterUnits="userSpaceOnUse" color-interpolation-filters="sRGB">
<feFlood flood-opacity="0" result="BackgroundImageFix"/>
<feColorMatrix in="SourceAlpha" type="matrix" values="0 0 0 0 0 0 0 0 0 0 0 0 0 0 0 0 0 0 127 0" result="hardAlpha"/>
<feOffset dy="4"/>
<feGaussianBlur stdDeviation="2"/>
<feComposite in2="hardAlpha" operator="out"/>
<feColorMatrix type="matrix" values="0 0 0 0 0 0 0 0 0 0 0 0 0 0 0 0 0 0 0.25 0"/>
<feBlend mode="normal" in2="BackgroundImageFix" result="effect1_dropShadow_24_1599"/>
<feBlend mode="normal" in="SourceGraphic" in2="effect1_dropShadow_24_1599" result="shape"/>
</filter>
<filter id="filter9_d_24_1599" x="468.101" y="165.099" width="117.764" height="68" filterUnits="userSpaceOnUse" color-interpolation-filters="sRGB">
<feFlood flood-opacity="0" result="BackgroundImageFix"/>
<feColorMatrix in="SourceAlpha" type="matrix" values="0 0 0 0 0 0 0 0 0 0 0 0 0 0 0 0 0 0 127 0" result="hardAlpha"/>
<feMorphology radius="1" operator="dilate" in="SourceAlpha" result="effect1_dropShadow_24_1599"/>
<feOffset dx="1" dy="5"/>
<feGaussianBlur stdDeviation="2.5"/>
<feComposite in2="hardAlpha" operator="out"/>
<feColorMatrix type="matrix" values="0 0 0 0 0 0 0 0 0 0 0 0 0 0 0 0 0 0 0.25 0"/>
<feBlend mode="normal" in2="BackgroundImageFix" result="effect1_dropShadow_24_1599"/>
<feBlend mode="normal" in="SourceGraphic" in2="effect1_dropShadow_24_1599" result="shape"/>
</filter>
<filter id="filter10_d_24_1599" x="520.508" y="143.549" width="13.334" height="33.8999" filterUnits="userSpaceOnUse" color-interpolation-filters="sRGB">
<feFlood flood-opacity="0" result="BackgroundImageFix"/>
<feColorMatrix in="SourceAlpha" type="matrix" values="0 0 0 0 0 0 0 0 0 0 0 0 0 0 0 0 0 0 127 0" result="hardAlpha"/>
<feOffset dy="4"/>
<feGaussianBlur stdDeviation="2"/>
<feComposite in2="hardAlpha" operator="out"/>
<feColorMatrix type="matrix" values="0 0 0 0 0 0 0 0 0 0 0 0 0 0 0 0 0 0 0.25 0"/>
<feBlend mode="normal" in2="BackgroundImageFix" result="effect1_dropShadow_24_1599"/>
<feBlend mode="normal" in="SourceGraphic" in2="effect1_dropShadow_24_1599" result="shape"/>
</filter>
<linearGradient id="paint0_linear_24_1599" x1="386.327" y1="71.6197" x2="316.902" y2="74.5985" gradientUnits="userSpaceOnUse">
<stop stop-color="#F27052"/>
<stop offset="1" stop-color="#FF7A00"/>
</linearGradient>
</defs>
</svg>
