<svg width="214" height="201" viewBox="0 0 214 201" fill="none" xmlns="http://www.w3.org/2000/svg">
<g filter="url(#filter0_d_778_7349)">
<ellipse cx="107" cy="96.5" rx="103" ry="96.5" fill="white"/>
</g>
<path d="M109.196 152.226C119.451 152.255 129.55 149.871 138.566 145.294C147.583 140.716 155.228 134.091 160.801 126.025C163.377 122.375 163.624 123.306 160.932 118.942C154.946 109.241 146.042 103.149 134.164 101.035C133.111 100.813 132.02 100.802 130.962 101.003C129.905 101.203 128.904 101.61 128.025 102.198C122.585 105.738 116.12 107.639 109.495 107.645C102.871 107.651 96.4021 105.762 90.9539 102.232C90.0712 101.626 89.0597 101.205 87.988 100.997C86.9163 100.789 85.8095 100.8 84.7427 101.028C71.7397 103.449 62.4373 110.26 56.6324 121.348C56.3427 121.841 56.203 122.399 56.2286 122.961C56.2542 123.524 56.4441 124.069 56.7776 124.537C60.9126 130.913 66.3349 136.474 72.741 140.907C83.2598 148.286 96.0552 152.259 109.196 152.226ZM109.428 98.6626C117.613 98.6269 125.451 95.5663 131.241 90.146C137.03 84.7257 140.302 77.3838 140.346 69.7158C140.308 62.0608 137.05 54.7287 131.278 49.3107C125.505 43.8926 117.686 40.8258 109.515 40.7758C92.6156 40.6806 78.604 53.7468 78.5314 69.6614C78.4589 85.576 92.4487 98.6354 109.399 98.6626H109.428Z" fill="white"/>
<path d="M109.194 152.225C96.0604 152.253 83.2734 148.281 72.7606 140.906C66.3544 136.473 60.9321 130.913 56.7971 124.536C56.4636 124.068 56.2737 123.523 56.2481 122.961C56.2225 122.399 56.3622 121.84 56.652 121.348C62.4569 110.26 71.7592 103.448 84.7332 101.028C85.8 100.799 86.9068 100.789 87.9785 100.996C89.0502 101.204 90.0617 101.625 90.9444 102.231C96.3926 105.762 102.861 107.65 109.486 107.644C116.11 107.638 122.575 105.738 128.016 102.197C128.894 101.609 129.895 101.202 130.953 101.002C132.011 100.802 133.102 100.813 134.155 101.034C146.011 103.149 154.907 109.24 160.901 118.955C163.593 123.312 163.346 122.354 160.77 126.038C155.198 134.097 147.556 140.717 138.545 145.292C129.534 149.867 119.442 152.251 109.194 152.225Z" fill="url(#paint0_linear_778_7349)"/>
<path d="M109.398 98.6626C92.4478 98.6626 78.458 85.4876 78.5306 69.6614C78.6031 53.8352 92.6147 40.6806 109.514 40.7758C117.68 40.8329 125.492 43.9029 131.258 49.3202C137.024 54.7374 140.279 62.0655 140.316 69.7158C140.273 77.3838 137 84.7257 131.211 90.146C125.421 95.5663 117.583 98.6269 109.398 98.6626Z" fill="url(#paint1_linear_778_7349)"/>
<defs>
<filter id="filter0_d_778_7349" x="0" y="0" width="214" height="201" filterUnits="userSpaceOnUse" color-interpolation-filters="sRGB">
<feFlood flood-opacity="0" result="BackgroundImageFix"/>
<feColorMatrix in="SourceAlpha" type="matrix" values="0 0 0 0 0 0 0 0 0 0 0 0 0 0 0 0 0 0 127 0" result="hardAlpha"/>
<feOffset dy="4"/>
<feGaussianBlur stdDeviation="2"/>
<feComposite in2="hardAlpha" operator="out"/>
<feColorMatrix type="matrix" values="0 0 0 0 0 0 0 0 0 0 0 0 0 0 0 0 0 0 0.25 0"/>
<feBlend mode="normal" in2="BackgroundImageFix" result="effect1_dropShadow_778_7349"/>
<feBlend mode="normal" in="SourceGraphic" in2="effect1_dropShadow_778_7349" result="shape"/>
</filter>
<linearGradient id="paint0_linear_778_7349" x1="175.431" y1="124.266" x2="118.265" y2="69.676" gradientUnits="userSpaceOnUse">
<stop stop-color="#F27052"/>
<stop offset="0.5" stop-color="#8C18D9"/>
<stop offset="1" stop-color="#5852F2"/>
</linearGradient>
<linearGradient id="paint1_linear_778_7349" x1="147.632" y1="67.1602" x2="96.5892" y2="42.0788" gradientUnits="userSpaceOnUse">
<stop stop-color="#F27052"/>
<stop offset="0.5" stop-color="#8C18D9"/>
<stop offset="1" stop-color="#5852F2"/>
</linearGradient>
</defs>
</svg>
