<svg width="27" height="17" viewBox="0 0 27 17" fill="none" xmlns="http://www.w3.org/2000/svg">
<path d="M23.5966 17C24.2232 17 24.7311 16.5121 24.7311 15.9103V11.7692H25.8655C26.4921 11.7692 27 11.2814 27 10.6795V6.32051C27 5.71865 26.4921 5.23077 25.8655 5.23077H24.7311V1.08974C24.7311 0.487878 24.2232 0 23.5966 0H3.40336C1.52675 0 0 1.46658 0 3.26923V13.7308C0 15.5334 1.52675 17 3.40336 17C19.4719 17 3.40336 17 8.4282 17H11.3445H13.6134H16.5298H19.6593H23.5966ZM24.7311 9.58974H19.0588C18.4333 9.58974 17.9244 9.10088 17.9244 8.5C17.9244 7.89912 18.4333 7.41026 19.0588 7.41026H24.7311V9.58974ZM2.26891 13.7308V3.26923C2.26891 2.66835 2.77782 2.17949 3.40336 2.17949H22.4622V5.23077H19.0588C17.1822 5.23077 15.6555 6.69735 15.6555 8.5C15.6555 10.3027 17.1822 11.7692 19.0588 11.7692H22.4622V14.8205H3.40336C2.77782 14.8205 2.26891 14.3317 2.26891 13.7308Z" fill="black"/>
</svg>
